<svg version="1.1" xmlns="http://www.w3.org/2000/svg" xmlns:xlink="http://www.w3.org/1999/xlink" width="240.15668" height="236.76487" viewBox="0,0,240.15668,236.76487"><g transform="translate(-102.85001,-56.38513)"><g data-paper-data="{&quot;isPaintingLayer&quot;:true}" stroke-miterlimit="10" stroke-dasharray="" stroke-dashoffset="0" style="mix-blend-mode: normal"><path d="M341.18319,169.74774c0,4.23744 -3.32871,26.13223 -5.41488,28.35884c-4.65107,4.96418 -11.06717,-12.3929 -16.91776,-6.59693c-13.60824,13.48116 -24.38557,31.54239 -24.63377,31.72685c-5.37774,3.99668 1.16688,44.45183 -5.91507,47.36546c-19.05404,7.83915 -42.64367,11.7584 -61.98339,11.7584c-32.98703,0 -47.71132,-33.15199 -68.66119,-54.98389c-19.33931,-20.15353 -46.20367,-27.77472 -46.20367,-57.62873c0,-33.53509 26.96362,-50.13301 50.6879,-70.76299c20.2748,-17.63041 34.94465,-41.84962 64.17697,-41.84962c38.32316,0 85.77641,12.3937 106.64312,40.67393c13.67492,18.53335 8.22175,47.31618 8.22175,71.93868z" fill="#fff5ad" fill-rule="nonzero" stroke="#ccc48a" stroke-width="1.5" stroke-linecap="butt" stroke-linejoin="miter"/><g fill-rule="evenodd" stroke-width="1.3"><path d="M217.3856,207.13005c1.15456,0.57728 3.60799,1.87615 0.14432,6.78302c-3.46367,4.90686 -13.42171,5.9171 -14.57627,5.9171c-4.4739,0.14432 -9.95805,0.14432 -16.01947,-1.87615c-17.60698,-5.77278 -17.7513,-24.67864 -12.12284,-27.70934c5.48414,-3.03071 7.93757,8.65917 15.87515,15.73083c3.46367,3.17503 7.64893,4.32959 11.1126,5.05118c4.90686,0.86592 14.28763,-4.61822 15.58651,-3.89663z" fill="#ffab19" stroke="#001026" stroke-linecap="round" stroke-linejoin="round"/><path d="M181.59436,195.44017c2.30911,3.89663 6.78302,9.38077 6.78302,9.38077c0,0 -5.33982,-1.29888 -8.37053,1.15456c-2.45343,1.87615 -1.87615,5.05118 -1.58751,6.06142c-1.87615,-1.87615 -4.18527,-4.4739 -5.62846,-9.52509c-1.4432,-5.05118 0,-11.1126 2.88639,-11.97852c2.88639,-0.57728 3.60799,1.58751 5.9171,4.90686z" fill="#ffffff" stroke="none" stroke-linecap="butt" stroke-linejoin="miter"/></g><path d="M224.60157,222.13928c-2.59775,1.73183 -11.54556,8.08189 -22.9468,11.68988l-0.57728,0.14432c-0.57728,0.14432 -0.86592,0.86592 -0.57728,1.4432c2.45343,3.46367 6.92734,10.391 -1.01024,12.84444c-7.64893,2.45343 -21.93656,-17.89562 -15.87515,-23.23544c2.74207,-2.02047 5.1955,-1.01024 6.49438,-0.43296c0.7216,0.28864 1.4432,0.28864 2.16479,0.14432c1.73183,-0.57728 4.90686,-1.73183 7.36029,-3.03071c6.20574,-3.17503 7.64893,-4.4739 10.53532,-6.6387c2.88639,-2.16479 9.52509,-7.50461 14.86491,-2.88639c4.61822,3.89663 2.02047,8.22621 -0.43296,9.95805z" fill="#ffab19" fill-rule="evenodd" stroke="#001026" stroke-width="1.3" stroke-linecap="round" stroke-linejoin="round"/><path d="M247.54838,192.12083c0.7216,0.57728 9.52509,10.96828 12.41148,8.37053c3.46367,-3.03071 8.22621,-8.94781 13.42171,-4.18527c5.1955,4.76254 -4.61822,12.84444 -8.80349,15.00923c-9.95805,4.4739 -18.03994,-4.04095 -19.77177,-6.35006c-1.73183,-2.30911 -4.76254,-6.20574 -4.76254,-9.95805c0.14432,-4.04095 5.05118,-5.05118 7.50461,-2.88639z" fill="#ffab19" fill-rule="evenodd" stroke="#001026" stroke-width="1.3" stroke-linecap="round" stroke-linejoin="round"/><g fill-rule="evenodd" stroke-width="1.3"><path d="M247.69269,225.74727c3.03071,2.74207 9.66941,8.37053 9.66941,8.37053c0,0 20.63769,-3.60799 20.63769,6.78302c0,6.20574 -10.391,7.64893 -24.39,6.35006c-0.86592,-0.14432 -1.73183,-0.43296 -2.45343,-1.01024c-3.17503,-2.74207 -12.26716,-10.82396 -18.03994,-16.45242c-8.51485,-8.37053 -15.58651,-13.85467 -15.58651,-13.85467c-12.26716,-11.97852 -2.30911,-17.0297 1.58751,-23.95704c3.60799,-5.9171 5.1955,-4.76254 13.85467,-3.03071c4.90686,0.7216 7.79325,1.15456 10.96828,1.01024c4.76254,-0.14432 3.89663,6.78302 2.59775,10.391c0,0 -2.02047,5.33982 -3.89663,8.08189c-2.30911,3.31935 -4.04095,5.48414 -5.77278,6.78302z" fill="#ffab19" stroke="#001026" stroke-linecap="round" stroke-linejoin="round"/><path d="M235.56986,215.06763c0,0 -2.16479,-1.73183 -4.4739,-3.89663c-2.88639,-2.59775 -5.77278,-4.76254 -2.88639,-9.23645c2.59775,-3.46367 5.05118,-8.08189 11.54556,-3.89663c6.20574,3.89663 3.46367,7.50461 3.46367,7.50461c-3.17503,6.49438 -7.64893,9.52509 -7.64893,9.52509z" fill="#ffffff" stroke="none" stroke-linecap="butt" stroke-linejoin="miter"/></g><path d="M213.77761,203.23343c3.17503,4.04095 8.08189,9.09213 1.87615,13.27739c-8.51485,4.76254 -15.58651,-9.66941 -17.0297,-14.72059c-1.29888,-4.4739 2.45343,-7.36029 5.62846,-9.81373c6.20574,-4.4739 11.40124,-8.51485 17.17402,-6.35006c7.21598,2.59775 2.02047,8.37053 -1.58751,10.96828c-2.16479,1.58751 -4.32959,3.31935 -5.9171,4.32959c-0.43296,0.7216 -0.57728,1.58751 -0.14432,2.30911z" fill="#ffab19" fill-rule="evenodd" stroke="#001026" stroke-width="1.3" stroke-linecap="round" stroke-linejoin="round"/><g fill-rule="evenodd" stroke-width="1.3"><path d="M259.23826,105.96208c0.43296,-0.28864 1.15456,-0.14432 1.29888,0.43296l3.75231,15.44219c0,0 9.23645,6.78302 11.97852,11.54556c4.61822,7.93757 4.76254,14.43195 4.76254,14.43195c0,0 10.24668,3.03071 11.97852,11.25692c1.73183,8.22621 -4.61822,23.81272 -31.75029,29.15254c-27.13207,5.33982 -48.92431,-2.02047 -59.171,-18.4729c-10.24668,-16.45242 5.9171,-36.07988 5.05118,-34.92532l-3.03071,-25.83319c-0.14432,-0.57728 0.57728,-1.01024 1.15456,-0.7216l17.46266,11.40124c0,0 6.49438,-2.45343 13.27739,-2.74207c4.04095,-0.28864 7.50461,0 10.82396,0.57728z" fill="#ffab19" stroke="#001026" stroke-linecap="butt" stroke-linejoin="miter"/><path d="M280.59754,148.39202c0,0 9.95805,2.59775 11.68988,10.82396c1.73183,8.22621 -5.1955,23.09112 -32.03893,28.28662c-34.92532,7.21598 -51.52206,-13.56603 -41.85266,-28.8639c9.66941,-15.44219 26.26615,-2.30911 38.38899,-3.17503c10.391,-0.7216 11.54556,-9.81373 23.81272,-7.07166z" fill="#ffffff" stroke="none" stroke-linecap="butt" stroke-linejoin="miter"/><path d="M235.1369,163.8342c0,-0.57728 0.57728,-1.01024 1.15456,-0.86592c2.74207,1.01024 10.53532,3.31935 19.19449,3.89663c7.79325,0.43296 12.41148,0 14.57627,-0.43296c0.7216,-0.14432 1.29888,0.57728 1.01024,1.29888c-1.29888,3.89663 -6.78302,14.72059 -21.93656,13.85467c-13.13307,-1.4432 -14.43195,-10.67964 -13.99899,-17.7513z" fill="#ffffff" stroke="#001026" stroke-linecap="round" stroke-linejoin="round"/><path d="M307.15233,149.97953c-6.78302,5.48414 -17.17402,5.62846 -17.17402,5.62846" fill="none" stroke="#001026" stroke-linecap="round" stroke-linejoin="round"/><path d="M305.27618,166.14331c-9.09213,0.7216 -14.72059,-2.02047 -14.72059,-2.02047" fill="none" stroke="#001026" stroke-linecap="round" stroke-linejoin="round"/><path d="M256.20755,151.71136c3.03071,0 6.20574,0.28864 6.35006,1.29888c0.14432,2.02047 -2.02047,6.06142 -4.32959,6.20574c-2.59775,0.28864 -8.65917,-3.31935 -8.65917,-5.62846c-0.14432,-1.73183 3.75231,-1.87615 6.6387,-1.87615z" fill="#001026" stroke="#001026" stroke-linecap="round" stroke-linejoin="round"/><path d="M191.26377,149.54657c0,0 12.41148,4.04095 17.46266,8.51485" fill="none" stroke="#001026" stroke-linecap="round" stroke-linejoin="round"/><path d="M209.15939,163.11261c-6.20574,2.45343 -16.88538,0.86592 -16.88538,0.86592" fill="none" stroke="#001026" stroke-linecap="round" stroke-linejoin="round"/><g><path d="M273.23725,134.82598c4.18527,6.49438 4.32959,13.85467 0.28864,16.45242c-4.04095,2.59775 -10.67964,-0.43296 -15.00923,-6.92734c-4.18527,-6.49438 -4.32959,-13.85467 -0.28864,-16.45242c4.04095,-2.74207 10.82396,0.43296 15.00923,6.92734z" fill="#ffffff" stroke="#001026" stroke-linecap="round" stroke-linejoin="round"/><path d="M272.65997,143.05219c0,1.58751 -1.15456,2.88639 -2.59775,2.88639c-1.4432,0 -2.59775,-1.29888 -2.59775,-2.88639c0,-1.58751 1.15456,-2.88639 2.59775,-2.88639c1.4432,0 2.59775,1.29888 2.59775,2.88639" fill="#001026" stroke="none" stroke-linecap="butt" stroke-linejoin="miter"/></g><g><path d="M237.44601,138.86693c4.32959,6.35006 4.04095,14.14331 0.14432,16.88538c-4.76254,2.74207 -11.1126,0.7216 -15.44219,-5.62846c-4.4739,-6.35006 -4.76254,-14.57627 -0.28864,-17.7513c4.4739,-3.31935 11.25692,0.14432 15.58651,6.49438z" fill="#ffffff" stroke="#001026" stroke-linecap="round" stroke-linejoin="round"/><path d="M236.58009,147.23746c0,1.58751 -1.15456,2.88639 -2.59775,2.88639c-1.4432,0 -2.59775,-1.29888 -2.59775,-2.88639c0,-1.58751 1.15456,-2.88639 2.59775,-2.88639c1.4432,0.14432 2.59775,1.29888 2.59775,2.88639" fill="#001026" stroke="none" stroke-linecap="butt" stroke-linejoin="miter"/></g></g><path d="M151.60001,239.89999c0,7.45584 -10.74517,13.5 -24,13.5c-13.25483,0 -24,-6.04416 -24,-13.5c0,-7.45584 10.74517,-13.5 24,-13.5c13.25483,0 24,6.04416 24,13.5z" fill="#fff5ad" fill-rule="nonzero" stroke="#ccc48a" stroke-width="1.5" stroke-linecap="butt" stroke-linejoin="miter"/><path d="M183.60001,271.4c0,5.52285 -7.95938,10 -17.77778,10c-9.8184,0 -17.77778,-4.47715 -17.77778,-10c0,-5.52285 7.95938,-10 17.77778,-10c9.8184,0 17.77778,4.47715 17.77778,10z" fill="#fff5ad" fill-rule="nonzero" stroke="#ccc48a" stroke-width="1.5" stroke-linecap="butt" stroke-linejoin="miter"/><path d="M316.93334,285.06666c0,4.05009 -9.07867,7.33333 -20.27778,7.33333c-11.19911,0 -20.27777,-3.28324 -20.27777,-7.33333c0,-4.05009 9.07867,-7.33333 20.27777,-7.33333c11.19911,0 20.27778,3.28324 20.27778,7.33333z" fill="#fff5ad" fill-rule="nonzero" stroke="#ccc48a" stroke-width="1.5" stroke-linecap="butt" stroke-linejoin="miter"/></g></g></svg>