<svg version="1.1" xmlns="http://www.w3.org/2000/svg" xmlns:xlink="http://www.w3.org/1999/xlink" width="240.15668" height="236.44222" viewBox="0,0,240.15668,236.44222"><g transform="translate(-119.92166,-61.9402)"><g data-paper-data="{&quot;isPaintingLayer&quot;:true}" stroke-miterlimit="10" stroke-dasharray="" stroke-dashoffset="0" style="mix-blend-mode: normal"><path d="M358.25484,175.30281c0,4.23744 -3.32871,26.13223 -5.41488,28.35884c-4.65107,4.96418 -11.06717,-12.3929 -16.91776,-6.59693c-13.60824,13.48116 -24.38557,31.54239 -24.63377,31.72685c-5.37774,3.99668 1.16688,44.45183 -5.91507,47.36546c-19.05404,7.83915 -42.64367,11.7584 -61.98339,11.7584c-32.98703,0 -47.71132,-33.15199 -68.66119,-54.98389c-19.33931,-20.15353 -46.20367,-27.77472 -46.20367,-57.62873c0,-33.53509 26.96362,-50.13301 50.6879,-70.76299c20.2748,-17.63041 34.94465,-41.84962 64.17697,-41.84962c38.32316,0 85.77641,12.3937 106.64312,40.67393c13.67492,18.53335 8.22175,47.31618 8.22175,71.93868z" fill="#a0b9ca" fill-rule="nonzero" stroke="#666f97" stroke-width="1.5" stroke-linecap="butt" stroke-linejoin="miter"/><g fill-rule="evenodd" stroke-width="1.3"><path d="M234.45725,212.36248c1.15456,0.57728 3.60799,1.87615 0.14432,6.78302c-3.46367,4.90686 -13.42171,5.9171 -14.57627,5.9171c-4.4739,0.14432 -9.95805,0.14432 -16.01947,-1.87615c-17.60698,-5.77278 -17.7513,-24.67864 -12.12284,-27.70934c5.48414,-3.03071 7.93757,8.65917 15.87515,15.73083c3.46367,3.17503 7.64893,4.32959 11.1126,5.05118c4.90686,0.86592 14.28763,-4.61822 15.58651,-3.89663z" fill="#ffab19" stroke="#001026" stroke-linecap="round" stroke-linejoin="round"/><path d="M198.66601,200.6726c2.30911,3.89663 6.78302,9.38077 6.78302,9.38077c0,0 -5.33982,-1.29888 -8.37053,1.15456c-2.45343,1.87615 -1.87615,5.05118 -1.58751,6.06142c-1.87615,-1.87615 -4.18527,-4.4739 -5.62846,-9.52509c-1.4432,-5.05118 0,-11.1126 2.88639,-11.97852c2.88639,-0.57728 3.60799,1.58751 5.9171,4.90686z" fill="#ffffff" stroke="none" stroke-linecap="butt" stroke-linejoin="miter"/></g><path d="M241.67322,227.37171c-2.59775,1.73183 -11.54556,8.08189 -22.9468,11.68988l-0.57728,0.14432c-0.57728,0.14432 -0.86592,0.86592 -0.57728,1.4432c2.45343,3.46367 6.92734,10.391 -1.01024,12.84444c-7.64893,2.45343 -21.93656,-17.89562 -15.87515,-23.23544c2.74207,-2.02047 5.1955,-1.01024 6.49438,-0.43296c0.7216,0.28864 1.4432,0.28864 2.16479,0.14432c1.73183,-0.57728 4.90686,-1.73183 7.36029,-3.03071c6.20574,-3.17503 7.64893,-4.4739 10.53532,-6.6387c2.88639,-2.16479 9.52509,-7.50461 14.86491,-2.88639c4.61822,3.89663 2.02047,8.22621 -0.43296,9.95805z" fill="#ffab19" fill-rule="evenodd" stroke="#001026" stroke-width="1.3" stroke-linecap="round" stroke-linejoin="round"/><path d="M265.60349,198.6501c0.95722,0.48345 12.97206,9.71277 16.30738,6.76459c4.0111,-3.45166 9.35035,-9.9387 16.30329,-5.8548c6.95294,4.0839 -4.46265,13.36107 -9.46,16.0421c-11.95833,5.70564 -22.8853,-1.74794 -25.27552,-3.82718c-2.39022,-2.07924 -6.5586,-5.57432 -6.93602,-9.30761c-0.22662,-4.03864 5.78601,-5.66187 9.06087,-3.81712z" fill="#ffab19" fill-rule="evenodd" stroke="#001026" stroke-width="1.3" stroke-linecap="round" stroke-linejoin="round"/><g fill-rule="evenodd" stroke-width="1.3"><path d="M264.76434,230.9797c3.03071,2.74207 9.66941,8.37053 9.66941,8.37053c0,0 20.63769,-3.60799 20.63769,6.78302c0,6.20574 -10.391,7.64893 -24.39,6.35006c-0.86592,-0.14432 -1.73183,-0.43296 -2.45343,-1.01024c-3.17503,-2.74207 -12.26716,-10.82396 -18.03994,-16.45242c-8.51485,-8.37053 -15.58651,-13.85467 -15.58651,-13.85467c-12.26716,-11.97852 -2.30911,-17.0297 1.58751,-23.95704c3.60799,-5.9171 5.1955,-4.76254 13.85467,-3.03071c4.90686,0.7216 7.79325,1.15456 10.96828,1.01024c4.76254,-0.14432 3.89663,6.78302 2.59775,10.391c0,0 -2.02047,5.33982 -3.89663,8.08189c-2.30911,3.31935 -4.04095,5.48414 -5.77278,6.78302z" fill="#ffab19" stroke="#001026" stroke-linecap="round" stroke-linejoin="round"/><path d="M252.64151,220.30006c0,0 -2.16479,-1.73183 -4.4739,-3.89663c-2.88639,-2.59775 -5.77278,-4.76254 -2.88639,-9.23645c2.59775,-3.46367 5.05118,-8.08189 11.54556,-3.89663c6.20574,3.89663 3.46367,7.50461 3.46367,7.50461c-3.17503,6.49438 -7.64893,9.52509 -7.64893,9.52509z" fill="#ffffff" stroke="none" stroke-linecap="butt" stroke-linejoin="miter"/></g><path d="M230.84926,208.46586c3.17503,4.04095 8.08189,9.09213 1.87615,13.27739c-8.51485,4.76254 -15.58651,-9.66941 -17.0297,-14.72059c-1.29888,-4.4739 2.45343,-7.36029 5.62846,-9.81373c6.20574,-4.4739 11.40124,-8.51485 17.17402,-6.35006c7.21598,2.59775 2.02047,8.37053 -1.58751,10.96828c-2.16479,1.58751 -4.32959,3.31935 -5.9171,4.32959c-0.43296,0.7216 -0.57728,1.58751 -0.14432,2.30911z" fill="#ffab19" fill-rule="evenodd" stroke="#001026" stroke-width="1.3" stroke-linecap="round" stroke-linejoin="round"/><path d="M276.30991,111.19451c0.43296,-0.28864 1.15456,-0.14432 1.29888,0.43296l3.75231,15.44219c0,0 9.23645,6.78302 11.97852,11.54556c4.61822,7.93757 4.76254,14.43195 4.76254,14.43195c0,0 10.24668,3.03071 11.97852,11.25692c1.73183,8.22621 -4.61822,23.81272 -31.75029,29.15254c-27.13207,5.33982 -48.92431,-2.02047 -59.171,-18.4729c-10.24668,-16.45242 5.9171,-36.07988 5.05118,-34.92532l-3.03071,-25.83319c-0.14432,-0.57728 0.57728,-1.01024 1.15456,-0.7216l17.46266,11.40124c0,0 6.49438,-2.45343 13.27739,-2.74207c4.04095,-0.28864 7.50461,0 10.82396,0.57728z" fill="#ffab19" fill-rule="evenodd" stroke="#001026" stroke-width="1.3" stroke-linecap="butt" stroke-linejoin="miter"/><path d="M297.66919,153.62445c0,0 9.95805,2.59775 11.68988,10.82396c1.73183,8.22621 -5.1955,23.09112 -32.03893,28.28662c-34.92532,7.21598 -51.52206,-13.56603 -41.85266,-28.8639c9.66941,-15.44219 26.26615,-2.30911 38.38899,-3.17503c10.391,-0.7216 11.54556,-9.81373 23.81272,-7.07166z" fill="#ffffff" fill-rule="evenodd" stroke="none" stroke-width="1.3" stroke-linecap="butt" stroke-linejoin="miter"/><path d="M243.26644,180.1948c1.51806,-6.39408 5.15587,-14.24397 17.20251,-11.99208c13.68495,3.30789 15.64144,14.3918 15.74621,18.20031c0.06211,0.71822 -0.64448,1.2035 -1.24623,0.88126c-1.80524,-0.96671 -5.78843,-2.59345 -12.82307,-4.30563c-7.84216,-1.81702 -15.38152,-1.86372 -18.08747,-1.70458c-0.55128,-0.02718 -0.94727,-0.56683 -0.79197,-1.07929z" data-paper-data="{&quot;index&quot;:null}" fill="#ffffff" fill-rule="evenodd" stroke="#001026" stroke-width="1.3" stroke-linecap="round" stroke-linejoin="round"/><path d="M324.22398,155.21196c-6.78302,5.48414 -17.17402,5.62846 -17.17402,5.62846" fill="none" fill-rule="evenodd" stroke="#001026" stroke-width="1.3" stroke-linecap="round" stroke-linejoin="round"/><path d="M322.34783,171.37574c-9.09213,0.7216 -14.72059,-2.02047 -14.72059,-2.02047" fill="none" fill-rule="evenodd" stroke="#001026" stroke-width="1.3" stroke-linecap="round" stroke-linejoin="round"/><path d="M273.2792,156.94379c3.03071,0 6.20574,0.28864 6.35006,1.29888c0.14432,2.02047 -2.02047,6.06142 -4.32959,6.20574c-2.59775,0.28864 -8.65917,-3.31935 -8.65917,-5.62846c-0.14432,-1.73183 3.75231,-1.87615 6.6387,-1.87615z" fill="#001026" fill-rule="evenodd" stroke="#001026" stroke-width="1.3" stroke-linecap="round" stroke-linejoin="round"/><path d="M208.33542,154.779c0,0 12.41148,4.04095 17.46266,8.51485" fill="none" fill-rule="evenodd" stroke="#001026" stroke-width="1.3" stroke-linecap="round" stroke-linejoin="round"/><path d="M226.23104,168.34504c-6.20574,2.45343 -16.88538,0.86592 -16.88538,0.86592" fill="none" fill-rule="evenodd" stroke="#001026" stroke-width="1.3" stroke-linecap="round" stroke-linejoin="round"/><g fill-rule="evenodd" stroke-width="1.3"><path d="M290.3089,140.05841c4.18527,6.49438 4.32959,13.85467 0.28864,16.45242c-4.04095,2.59775 -10.67964,-0.43296 -15.00923,-6.92734c-4.18527,-6.49438 -4.32959,-13.85467 -0.28864,-16.45242c4.04095,-2.74207 10.82396,0.43296 15.00923,6.92734z" fill="#ffffff" stroke="#001026" stroke-linecap="round" stroke-linejoin="round"/><path d="M289.73162,148.28462c0,1.58751 -1.15456,2.88639 -2.59775,2.88639c-1.4432,0 -2.59775,-1.29888 -2.59775,-2.88639c0,-1.58751 1.15456,-2.88639 2.59775,-2.88639c1.4432,0 2.59775,1.29888 2.59775,2.88639" fill="#001026" stroke="none" stroke-linecap="butt" stroke-linejoin="miter"/></g><g fill-rule="evenodd" stroke-width="1.3"><path d="M254.51766,144.09936c4.32959,6.35006 4.04095,14.14331 0.14432,16.88538c-4.76254,2.74207 -11.1126,0.7216 -15.44219,-5.62846c-4.4739,-6.35006 -4.76254,-14.57627 -0.28864,-17.7513c4.4739,-3.31935 11.25692,0.14432 15.58651,6.49438z" fill="#ffffff" stroke="#001026" stroke-linecap="round" stroke-linejoin="round"/><path d="M253.65174,152.46989c0,1.58751 -1.15456,2.88639 -2.59775,2.88639c-1.4432,0 -2.59775,-1.29888 -2.59775,-2.88639c0,-1.58751 1.15456,-2.88639 2.59775,-2.88639c1.4432,0.14432 2.59775,1.29888 2.59775,2.88639" fill="#001026" stroke="none" stroke-linecap="butt" stroke-linejoin="miter"/></g><path d="M168.67166,245.13242c0,7.45584 -10.74517,13.5 -24,13.5c-13.25483,0 -24,-6.04416 -24,-13.5c0,-7.45584 10.74517,-13.5 24,-13.5c13.25483,0 24,6.04416 24,13.5z" fill="#a0b9ca" fill-rule="nonzero" stroke="#7886a7" stroke-width="1.5" stroke-linecap="butt" stroke-linejoin="miter"/><path d="M200.67166,276.63243c0,5.52285 -7.95938,10 -17.77778,10c-9.8184,0 -17.77778,-4.47715 -17.77778,-10c0,-5.52285 7.95938,-10 17.77778,-10c9.8184,0 17.77778,4.47715 17.77778,10z" fill="#a0b9ca" fill-rule="nonzero" stroke="#666f97" stroke-width="1.5" stroke-linecap="butt" stroke-linejoin="miter"/><path d="M334.00499,290.29909c0,4.05009 -9.07867,7.33333 -20.27778,7.33333c-11.19911,0 -20.27777,-3.28324 -20.27777,-7.33333c0,-4.05009 9.07867,-7.33333 20.27777,-7.33333c11.19911,0 20.27778,3.28324 20.27778,7.33333z" fill="#a0b9ca" fill-rule="nonzero" stroke="#666f97" stroke-width="1.5" stroke-linecap="butt" stroke-linejoin="miter"/><path d="M290.82832,214.93245c-1.63233,-9.14024 -4.96706,-27.81301 -5.7726,-32.3236c-0.3439,-1.92566 1.26511,-4.19389 2.64478,-4.46588c1.16434,-0.22953 3.5045,-0.69086 5.51091,-1.08639c1.91173,-0.37687 3.84877,1.14432 4.18619,3.0337c0.78542,4.39793 4.02493,22.53755 5.69296,31.87767c0.60458,3.38536 -0.31232,5.87395 -1.97743,6.20221c-2.10995,0.41594 -4.78199,0.9427 -6.05279,1.19322c-1.37919,0.27189 -3.6808,-1.34432 -4.23203,-4.43093z" fill="#b16c1d" fill-rule="nonzero" stroke="#6d4211" stroke-width="1.5" stroke-linecap="butt" stroke-linejoin="miter"/><path d="M276.33455,188.16633c-0.15585,-0.97758 -0.39276,-2.46369 -0.65754,-4.12458c-0.08136,-0.51033 -3.72261,9.13516 -5.01839,7.54873c-2.3861,-2.92132 -3.09067,-17.66596 -3.24507,-18.63444c-0.20397,-1.27947 7.14408,4.06416 6.9831,3.05438c-0.14404,-0.90351 -0.26197,-1.64328 -0.33788,-2.11944c-0.17903,-1.12301 0.60404,-2.49518 1.70554,-2.67078c3.5422,-0.5647 22.70159,-3.61909 29.12754,-4.64352c1.31971,-0.21039 2.2529,0.60919 2.4013,1.54006c0.0749,0.46983 0.20002,1.25469 0.35574,2.23144c0.05939,0.37257 5.239,-7.25996 5.63834,-6.56162c2.12264,3.71202 3.23109,19.39158 3.61462,21.7974c0.13576,0.85157 -7.60662,-4.90877 -7.49533,-4.21065c0.25589,1.60512 -0.15143,2.80283 -1.41083,3.0036c-6.33078,1.00926 -25.86632,4.09748 -29.41367,4.663c-1.09084,0.1739 -2.12781,-0.12303 -2.24746,-0.87357z" fill="#6285a2" fill-rule="nonzero" stroke="#354959" stroke-width="1.5" stroke-linecap="butt" stroke-linejoin="miter"/><text transform="translate(204.0113,99.82351) scale(0.5,0.5)" font-size="40" xml:space="preserve" fill="#535353" fill-rule="nonzero" stroke="none" stroke-width="1" stroke-linecap="butt" stroke-linejoin="miter" stroke-miterlimit="10" stroke-dasharray="" stroke-dashoffset="0" font-family="Sans Serif" font-weight="normal" text-anchor="start" style="mix-blend-mode: normal"><tspan x="0" dy="0">тех.роботы</tspan></text></g></g></svg>