<svg version="1.1" xmlns="http://www.w3.org/2000/svg" xmlns:xlink="http://www.w3.org/1999/xlink" width="73.97206" height="83.3131" viewBox="0,0,73.97206,83.3131"><defs><linearGradient x1="217.28785" y1="169.11702" x2="219.32417" y2="191.42253" gradientUnits="userSpaceOnUse" id="color-1"><stop offset="0" stop-color="#62f584"/><stop offset="1" stop-color="#44c87b"/></linearGradient><radialGradient cx="212.02122" cy="175.98057" r="15.30991" gradientUnits="userSpaceOnUse" id="color-2"><stop offset="0" stop-color="#cdffd8" stop-opacity="0.46159"/><stop offset="1" stop-color="#cdffd8" stop-opacity="0"/></radialGradient><linearGradient x1="222.15618" y1="165.50639" x2="241.38681" y2="154.02313" gradientUnits="userSpaceOnUse" id="color-3"><stop offset="0" stop-color="#62f584"/><stop offset="1" stop-color="#44c87b"/></linearGradient><radialGradient cx="224.60471" cy="157.20878" r="15.30991" gradientUnits="userSpaceOnUse" id="color-4"><stop offset="0" stop-color="#cdffd8" stop-opacity="0.46159"/><stop offset="1" stop-color="#cdffd8" stop-opacity="0"/></radialGradient><linearGradient x1="248.31376" y1="156.86526" x2="230.02076" y2="161.8354" gradientUnits="userSpaceOnUse" id="color-5"><stop offset="0" stop-color="#62f584"/><stop offset="1" stop-color="#44c87b"/></linearGradient><radialGradient cx="241.81864" cy="153.31766" r="12.95714" gradientUnits="userSpaceOnUse" id="color-6"><stop offset="0" stop-color="#cdffd8" stop-opacity="0.46159"/><stop offset="1" stop-color="#cdffd8" stop-opacity="0"/></radialGradient><linearGradient x1="253.65228" y1="158.93589" x2="264.28655" y2="177.10708" gradientUnits="userSpaceOnUse" id="color-7"><stop offset="0" stop-color="#62f584"/><stop offset="1" stop-color="#44c87b"/></linearGradient><radialGradient cx="261.43136" cy="161.30622" r="14.39121" gradientUnits="userSpaceOnUse" id="color-8"><stop offset="0" stop-color="#cdffd8" stop-opacity="0.46159"/><stop offset="1" stop-color="#cdffd8" stop-opacity="0"/></radialGradient><linearGradient x1="262.70464" y1="184.64151" x2="257.86266" y2="166.17787" gradientUnits="userSpaceOnUse" id="color-9"><stop offset="0" stop-color="#62f584"/><stop offset="1" stop-color="#44c87b"/></linearGradient><radialGradient cx="266.33447" cy="178.13299" r="13.04724" gradientUnits="userSpaceOnUse" id="color-10"><stop offset="0" stop-color="#cdffd8" stop-opacity="0.46159"/><stop offset="1" stop-color="#cdffd8" stop-opacity="0"/></radialGradient><linearGradient x1="258.66331" y1="189.94014" x2="239.43269" y2="201.4234" gradientUnits="userSpaceOnUse" id="color-11"><stop offset="0" stop-color="#62f584"/><stop offset="1" stop-color="#44c87b"/></linearGradient><radialGradient cx="256.21479" cy="198.23775" r="15.30991" gradientUnits="userSpaceOnUse" id="color-12"><stop offset="0" stop-color="#cdffd8" stop-opacity="0.46159"/><stop offset="1" stop-color="#cdffd8" stop-opacity="0"/></radialGradient><linearGradient x1="231.40273" y1="199.81129" x2="250.99885" y2="194.4871" gradientUnits="userSpaceOnUse" id="color-13"><stop offset="0" stop-color="#62f584"/><stop offset="1" stop-color="#44c87b"/></linearGradient><radialGradient cx="238.36054" cy="203.6116" r="13.88015" gradientUnits="userSpaceOnUse" id="color-14"><stop offset="0" stop-color="#cdffd8" stop-opacity="0.46159"/><stop offset="1" stop-color="#cdffd8" stop-opacity="0"/></radialGradient><linearGradient x1="225.354" y1="197.09973" x2="218.12349" y2="178.1241" gradientUnits="userSpaceOnUse" id="color-15"><stop offset="0" stop-color="#62f584"/><stop offset="1" stop-color="#44c87b"/></linearGradient><radialGradient cx="218.18629" cy="193.7119" r="13.88015" gradientUnits="userSpaceOnUse" id="color-16"><stop offset="0" stop-color="#cdffd8" stop-opacity="0.46159"/><stop offset="1" stop-color="#cdffd8" stop-opacity="0"/></radialGradient><radialGradient cx="240.40536" cy="178.43688" r="12.17698" gradientUnits="userSpaceOnUse" id="color-17"><stop offset="0" stop-color="#55a972"/><stop offset="1" stop-color="#55a972" stop-opacity="0"/></radialGradient></defs><g transform="translate(-200.89555,-143.79226)"><g data-paper-data="{&quot;isPaintingLayer&quot;:true}" fill-rule="nonzero" stroke-linejoin="miter" stroke-miterlimit="10" stroke-dasharray="" stroke-dashoffset="0" style="mix-blend-mode: normal"><g stroke-linecap="butt"><path d="M216.71486,166.97661c4.00553,-0.36567 7.59254,1.28341 10.23598,2.75064c3.33784,1.85264 8.73336,6.21536 9.04716,9.65265c0.16307,1.78632 -0.27107,1.76445 -1.2053,2.85175c-2.28714,2.66188 -8.80207,4.33492 -15.23688,4.92238c-9.06326,0.8274 -17.09796,0.7734 -17.66027,-5.3861c-0.56232,-6.1595 5.75606,-13.96391 14.81932,-14.79132z" fill="url(#color-1)" stroke="#54a871" stroke-width="2"/><path d="M202.54751,181.54541c-0.56232,-6.15949 5.79871,-13.47672 14.86197,-14.30413c5.39947,-0.49293 10.17538,2.66151 13.25988,5.2351c2.09297,1.7463 5.8644,6.91731 5.55097,7.73363c-1.45944,3.80117 -8.22346,3.13199 -15.68444,3.81312c-9.06326,0.8274 -17.42607,3.68178 -17.98839,-2.47772z" fill="url(#color-2)" stroke="#38985a" stroke-width="0"/><path d="M216.5016,167.07114c4.00553,-0.36567 7.59254,1.28341 10.23597,2.75064c3.33784,1.85264 8.73337,6.21536 9.04717,9.65265c0.16307,1.78632 -0.27108,1.76446 -1.20531,2.85176c-2.28714,2.66188 -8.80206,4.33491 -15.23688,4.92236c-9.06326,0.8274 -17.09796,0.7734 -17.66028,-5.3861c-0.56232,-6.1595 5.75607,-13.96391 14.81933,-14.79131z" fill="none" stroke="#54a871" stroke-width="1.5"/></g><g stroke-linecap="butt"><g><path d="M223.3231,145.61652c5.3104,-3.17102 10.08343,3.29253 14.74936,11.10639c3.31275,5.54776 5.79506,11.79928 4.98942,15.21506c-0.32908,1.39525 -0.05585,1.73334 -1.59592,2.65297c-2.96345,1.76958 -9.66622,-0.02424 -13.12864,-1.63208c-2.7421,-1.27335 -6.18662,-3.20245 -8.24874,-6.6558c-4.66592,-7.81386 -2.07587,-17.51552 3.23452,-20.68654z" fill="url(#color-3)" stroke="#54a871" stroke-width="2"/><path d="M223.52698,146.27455c5.3104,-3.17102 7.9254,5.26971 12.59132,13.08357c3.84105,6.43247 8.36345,11.50668 6.1496,14.92395c-0.47544,0.73387 -6.87566,0.72876 -9.51935,0.06469c-3.89612,-0.97868 -9.25739,-2.98281 -12.03713,-7.63795c-4.66592,-7.81386 -2.49482,-17.26324 2.81557,-20.43425z" fill="url(#color-4)" stroke="#38985a" stroke-width="0"/><path d="M223.27399,145.38847c5.3104,-3.17102 10.08343,3.29253 14.74936,11.10639c3.31275,5.54776 5.79506,11.79928 4.98942,15.21505c-0.32908,1.39525 -0.05585,1.73335 -1.59592,2.65299c-2.96345,1.76958 -9.66623,-0.02425 -13.12864,-1.63209c-2.7421,-1.27335 -6.18662,-3.20244 -8.24874,-6.65579c-4.66592,-7.81386 -2.07587,-17.51553 3.23452,-20.68655z" fill="none" stroke="#54a871" stroke-width="1.5"/></g><g data-paper-data="{&quot;index&quot;:null}"><path d="M250.01374,156.07361c0.89252,3.28497 0.0443,6.51675 -0.79077,8.93535c-1.05444,3.05394 -3.8991,8.19129 -6.71807,8.9572c-1.46498,0.39804 -1.51046,0.03295 -2.55381,-0.5862c-1.07962,-0.64068 -0.93584,-1.83533 -1.44806,-3.60445c-0.69962,-2.41642 -1.926,-5.75111 -2.75378,-8.79781c-2.01948,-7.43288 -5.29006,-13.71332 -0.23857,-15.08579c5.05148,-1.37247 12.48359,2.74883 14.50307,10.1817z" fill="url(#color-5)" stroke="#54a871" stroke-width="2"/><path d="M235.79024,146.23777c5.05148,-1.37247 12.08378,2.85585 14.10327,10.28874c1.20312,4.42818 -0.72537,8.87176 -2.41789,11.82033c-1.14846,2.00075 -4.90516,5.90298 -5.63154,5.76152c-3.38244,-0.65872 -4.48233,-6.72494 -6.1448,-12.84378c-2.01948,-7.43288 -4.96051,-13.65436 0.09096,-15.02683z" fill="url(#color-6)" stroke="#38985a" stroke-width="0"/><path d="M249.90365,155.90973c0.89252,3.28497 0.0443,6.51675 -0.79077,8.93535c-1.05444,3.05394 -3.8991,8.19129 -6.71807,8.9572c-1.46498,0.39804 -1.51047,0.03294 -2.55382,-0.5862c-2.55427,-1.51576 -2.41046,-7.21511 -3.84428,-12.49238c-2.01948,-7.43288 -5.64763,-13.6232 -0.59614,-14.99567c5.05148,-1.37247 12.48359,2.74883 14.50308,10.1817z" fill="none" stroke="#54a871" stroke-width="1.5"/></g></g><path d="M239.97703,177.81869c0,0 -4.89029,17.32431 -8.10849,25.26456c-2.98736,7.37067 -11.43215,20.27211 -11.43215,20.27211" fill="none" stroke="#79c895" stroke-width="7.5" stroke-linecap="round"/><g stroke-linecap="butt"><g><path d="M272.33819,160.1977c2.93658,5.01784 -3.17846,9.45067 -10.56184,13.77163c-5.24212,3.06783 -11.13886,5.34924 -14.34286,4.56364c-1.30874,-0.32089 -1.62881,-0.06687 -2.48044,-1.52209c-1.63875,-2.80019 0.10296,-9.08562 1.64297,-12.3268c1.21963,-2.56688 3.06147,-5.7886 6.32457,-7.69825c7.38338,-4.32096 16.48104,-1.80597 19.41761,3.21187z" fill="url(#color-7)" stroke="#54a871" stroke-width="2"/><path d="M271.71799,160.38389c2.93658,5.01784 -5.01902,7.40581 -12.4024,11.72677c-6.07808,3.55706 -10.88513,7.76584 -14.07885,5.65657c-0.68587,-0.45297 -0.62799,-6.46886 0.01814,-8.9483c0.95222,-3.65407 2.88048,-8.6768 7.27916,-11.25102c7.38338,-4.32096 16.24737,-2.20186 19.18395,2.81598z" fill="url(#color-8)" stroke="#38985a" stroke-width="0"/><path d="M272.55295,160.15344c2.93658,5.01784 -3.17846,9.45067 -10.56184,13.77163c-5.24212,3.06783 -11.13886,5.34924 -14.34286,4.56364c-1.30874,-0.32089 -1.62882,-0.06687 -2.48045,-1.52209c-1.63875,-2.80019 0.10296,-9.08562 1.64298,-12.32681c1.21963,-2.56688 3.06146,-5.7886 6.32456,-7.69825c7.38339,-4.32096 16.48104,-1.80597 19.41762,3.21187z" fill="none" stroke="#54a871" stroke-width="1.5"/></g><g data-paper-data="{&quot;index&quot;:null}"><path d="M263.48666,186.36028c-3.31563,0.86951 -6.5622,-0.01329 -8.99011,-0.87562c-3.06569,-1.08886 -8.21329,-3.99884 -8.95944,-6.8441c-0.38777,-1.47865 -0.01976,-1.52119 0.61294,-2.56626c0.6547,-1.0814 1.85633,-0.92601 3.64223,-1.42605c2.43936,-0.683 5.80798,-1.88822 8.88312,-2.69466c7.50222,-1.96741 13.85514,-5.2048 15.19221,-0.10621c1.33708,5.09859 -2.87874,12.54549 -10.38095,14.5129z" fill="url(#color-9)" stroke="#54a871" stroke-width="2"/><path d="M273.51687,172.12581c1.33708,5.09859 -2.98295,12.14196 -10.48517,14.10937c-4.46948,1.1721 -8.92666,-0.8092 -11.88058,-2.53962c-2.00437,-1.17417 -5.90022,-4.99151 -5.75132,-5.72167c0.69331,-3.39998 6.81125,-4.45357 12.98717,-6.07318c7.50222,-1.96741 13.79284,-4.8735 15.12991,0.22509z" fill="url(#color-10)" stroke="#38985a" stroke-width="0"/><path d="M263.65265,186.25088c-3.31563,0.86951 -6.5622,-0.01329 -8.99012,-0.87562c-3.06569,-1.08886 -8.21329,-3.99883 -8.95944,-6.84409c-0.38777,-1.47865 -0.01976,-1.5212 0.61294,-2.56626c1.54894,-2.55847 7.28642,-2.36303 12.6129,-3.75988c7.50222,-1.96741 13.76757,-5.56564 15.10465,-0.46704c1.33708,5.09859 -2.87874,12.5455 -10.38095,14.51291z" fill="none" stroke="#54a871" stroke-width="1.5"/></g></g><g stroke-linecap="butt"><g><path d="M257.4964,209.83c-5.31039,3.17102 -10.08343,-3.29253 -14.74936,-11.10639c-3.31275,-5.54776 -5.79506,-11.79928 -4.98942,-15.21506c0.32908,-1.39525 0.05585,-1.73334 1.59592,-2.65297c2.96345,-1.76958 9.66622,0.02424 13.12864,1.63208c2.7421,1.27335 6.18662,3.20245 8.24874,6.6558c4.66593,7.81386 2.07587,17.51552 -3.23452,20.68654z" fill="url(#color-11)" stroke="#54a871" stroke-width="2"/><path d="M257.29252,209.17197c-5.31039,3.17102 -7.9254,-5.26971 -12.59132,-13.08357c-3.84105,-6.43247 -8.36345,-11.50668 -6.1496,-14.92395c0.47544,-0.73387 6.87566,-0.72876 9.51935,-0.06469c3.89612,0.97868 9.25739,2.98281 12.03713,7.63795c4.66593,7.81386 2.49483,17.26325 -2.81557,20.43426z" fill="url(#color-12)" stroke="#38985a" stroke-width="0"/><path d="M257.5455,210.05805c-5.31039,3.17102 -10.08343,-3.29253 -14.74936,-11.10639c-3.31275,-5.54776 -5.79506,-11.79928 -4.98942,-15.21505c0.32908,-1.39525 0.05585,-1.73335 1.59592,-2.65299c2.96345,-1.76958 9.66623,0.02425 13.12864,1.63209c2.7421,1.27335 6.18662,3.20244 8.24874,6.65579c4.66593,7.81386 2.07587,17.51553 -3.23452,20.68655z" fill="none" stroke="#54a871" stroke-width="1.5"/></g><g data-paper-data="{&quot;index&quot;:null}"><path d="M229.58165,200.65933c-0.9561,-3.51898 -0.04746,-6.98097 0.8471,-9.57187c1.12955,-3.27149 4.17686,-8.7748 7.19664,-9.59527c1.56934,-0.42639 1.61806,-0.0353 2.73573,0.62796c1.15653,0.68632 1.00251,1.96607 1.55121,3.86121c0.74946,2.58856 2.0632,6.16079 2.94995,9.42453c2.16334,7.96237 5.6669,14.6902 0.25557,16.16044c-5.41133,1.47024 -13.37287,-2.94464 -15.53621,-10.907z" fill="url(#color-13)" stroke="#54a871" stroke-width="2"/><path d="M244.81837,211.19583c-5.41132,1.47024 -12.94458,-3.0593 -15.10792,-11.02167c-1.28882,-4.74362 0.77704,-9.50374 2.59013,-12.66236c1.23027,-2.14327 5.25458,-6.32348 6.03271,-6.17194c3.62339,0.70564 4.80163,7.20398 6.58253,13.7587c2.16334,7.96237 5.31388,14.62704 -0.09744,16.09727z" fill="url(#color-14)" stroke="#38985a" stroke-width="0"/><path d="M229.69959,200.83489c-0.9561,-3.51898 -0.04746,-6.98097 0.8471,-9.57187c1.12955,-3.27149 4.17686,-8.7748 7.19664,-9.59527c1.56934,-0.42639 1.61807,-0.03529 2.73574,0.62797c2.73623,1.62374 2.58217,7.72908 4.11813,13.38228c2.16334,7.96237 6.04994,14.59366 0.63861,16.0639c-5.41133,1.47024 -13.37287,-2.94464 -15.53622,-10.907z" fill="none" stroke="#54a871" stroke-width="1.5"/></g></g><g data-paper-data="{&quot;index&quot;:null}" stroke-linecap="butt"><path d="M207.77811,192.93152c-1.99666,-5.23998 5.50446,-6.36781 13.21471,-9.30573c3.1604,-1.20424 6.82152,-2.24489 9.35529,-3.16269c1.85502,-0.67194 2.79893,-1.54974 4.03451,-1.01877c1.19406,0.51314 1.5389,0.32232 2.11795,1.84197c1.11423,2.92416 -1.541,8.62699 -3.52083,11.4658c-1.56796,2.24822 -3.83181,5.02057 -7.23938,6.31899c-7.71025,2.93793 -15.9656,-0.89959 -17.96225,-6.13957z" fill="url(#color-15)" stroke="#54a871" stroke-width="2"/><path d="M208.25391,192.95554c-1.99666,-5.23998 5.2456,-6.61601 12.95585,-9.55394c6.34717,-2.41854 12.29404,-5.29109 14.99728,-2.77725c0.58053,0.53985 -0.43002,6.2537 -1.4385,8.50983c-1.48624,3.32495 -4.11838,7.79691 -8.71179,9.5472c-7.71025,2.93793 -15.80619,-0.48586 -17.80284,-5.72584z" fill="url(#color-16)" stroke="#38985a" stroke-width="0"/><path d="M207.56676,192.93951c-1.99666,-5.23998 5.65187,-6.00133 13.36212,-8.93926c5.4742,-2.08589 10.31914,-5.80416 13.24239,-4.54792c1.19406,0.51314 1.53891,0.32232 2.11796,1.84197c1.11423,2.92416 -1.541,8.62698 -3.52083,11.46579c-1.56796,2.24822 -3.83182,5.02057 -7.23938,6.31899c-7.71025,2.93793 -15.9656,-0.89959 -17.96225,-6.13957z" fill="none" stroke="#54a871" stroke-width="1.5"/></g><path d="M234.36502,178.20437c0,-3.03757 2.46243,-5.5 5.5,-5.5c3.03757,0 5.5,2.46243 5.5,5.5c0,3.03757 -2.46243,5.5 -5.5,5.5c-3.03757,0 -5.5,-2.46243 -5.5,-5.5z" fill="#5eb17b" stroke="none" stroke-width="0.5" stroke-linecap="butt"/><path d="M244.75171,177.04112c0.3098,3.22215 5.88747,3.96825 5.48581,5.13564c-0.30801,0.89522 -7.52778,-1.75303 -8.03427,-0.98318c-1.53723,2.33655 3.93794,7.50577 1.18095,8.04752c-0.62614,0.12304 -0.05065,-0.16156 -0.71074,-0.16156c-1.42149,0 -2.25329,-6.40482 -3.48868,-6.94525c-0.52725,-0.23065 -0.95933,2.04274 -2.23721,3.57471c-0.88003,1.05501 -0.42577,4.16681 -0.72993,3.91402c-0.5493,-0.45653 -0.91933,-0.56594 -1.37136,-1.12757c-0.19056,-0.23677 0.81715,-1.94458 0.92486,-3.35546c0.12625,-1.65383 0.26876,-4.01292 0.03898,-4.48382c-0.38945,-0.79816 -5.39945,1.13856 -5.5945,0.24197c-0.17214,-0.79128 -0.26306,-0.39381 -0.26306,-1.23997c0,-0.80882 4.6193,-0.59027 4.77697,-1.34936c0.05555,-0.26743 0.82194,-1.8075 0.46758,-2.26483c-1.05753,-1.36482 -4.29073,-2.26896 -3.92234,-2.96203c0.27352,-0.51459 0.80129,0.23561 1.44765,0.56365c1.47541,0.7488 3.56873,2.13213 4.6663,1.44409c0.22654,-0.14202 1.41972,-2.07643 0.80327,-1.95786c-0.22787,-2.47776 -1.50992,-4.98307 -1.02198,-5.14991c1.01873,-0.34835 3.16137,4.63182 3.5871,5.50698c0.33625,0.69123 1.93541,-0.14476 2.8134,-1.62489c0.58774,-0.99083 0.4815,-2.48367 0.8383,-3.45005c0.37072,-1.00411 1.19846,-1.46129 1.49596,-1.36044c0.72989,0.24744 -0.31821,4.25843 -1.06556,6.01491c-0.26281,0.61768 -0.50652,0.8205 -0.2895,0.97892c0.33672,0.24579 0.41983,1.13972 0.9718,1.1362c0.86095,-0.00549 1.87999,-0.76768 2.73344,-0.94418c0.93097,-0.19253 2.12826,-0.20995 2.44302,0.45037c0.3467,0.72731 -1.5902,0.72642 -2.9352,1.12437c-1.39191,0.41182 -3.14006,-0.1146 -3.01107,1.22702z" fill="url(#color-17)" stroke="#79c895" stroke-width="0" stroke-linecap="butt"/></g></g></svg>