<svg version="1.1" xmlns="http://www.w3.org/2000/svg" xmlns:xlink="http://www.w3.org/1999/xlink" width="91" height="90.5" viewBox="0,0,91,90.5"><defs><linearGradient x1="241" y1="135.75" x2="241" y2="224.25" gradientUnits="userSpaceOnUse" id="color-1"><stop offset="0" stop-color="#5f68a9"/><stop offset="1" stop-color="#86a7ef"/></linearGradient><linearGradient x1="231.65" y1="193.225" x2="231.65" y2="222.225" gradientUnits="userSpaceOnUse" id="color-2"><stop offset="0" stop-color="#8d97e2"/><stop offset="1" stop-color="#8cacf0"/></linearGradient><linearGradient x1="218.15" y1="159.65937" x2="235.09" y2="159.65937" gradientTransform="translate(-294.64411,-227.18129) scale(1.35065,1.35065)" gradientUnits="userSpaceOnUse" id="color-3"><stop offset="0" stop-color="#ff6363"/><stop offset="1" stop-color="#ff8888"/></linearGradient><linearGradient x1="248.9" y1="160.65937" x2="265.84" y2="160.65937" gradientTransform="translate(-336.17645,-228.53186) scale(1.35065,1.35065)" gradientUnits="userSpaceOnUse" id="color-4"><stop offset="0" stop-color="#7cff63"/><stop offset="1" stop-color="#a1ffa0"/></linearGradient></defs><g transform="translate(-195.5,-134.75)"><g data-paper-data="{&quot;isPaintingLayer&quot;:true}" fill-rule="nonzero" stroke-linejoin="miter" stroke-miterlimit="10" stroke-dasharray="" stroke-dashoffset="0" style="mix-blend-mode: normal"><path d="M196.5,224.25v-88.5h89v88.5z" fill="url(#color-1)" stroke="#000000" stroke-width="2" stroke-linecap="butt"/><path d="M283.68064,221.73831c-7.69824,1.77375 -37.32973,0.48669 -51.53063,0.48669c-11.73858,0 -21.33776,0.15254 -27.44729,-0.19001c-3.66361,-0.20541 -6.30271,2.19198 -6.30271,-0.80999c0,-2.35126 -0.68774,-31.57181 -0.35853,-34.53571c0.47781,-4.30168 8.61766,-3.24936 17.93529,-1.66601c6.46229,1.09814 13.49112,2.45172 18.92324,2.45172c14.65887,0 48.66753,6.2319 49.14163,12.62141c0.21019,2.83279 1.91019,21.11861 -0.36099,21.64191z" fill="url(#color-2)" stroke="#7287c6" stroke-width="2" stroke-linecap="butt"/><path d="M214.9,144.475l5,3.75" fill="none" stroke="#ff5959" stroke-width="2" stroke-linecap="round"/><path d="M226.15,147.475l-0.5,-3" fill="none" stroke="#ff5959" stroke-width="2" stroke-linecap="round"/><path d="M233.15,146.475l4.25,-6" fill="none" stroke="#ff5959" stroke-width="2" stroke-linecap="round"/><path d="M242.4,149.225l6.75,-1.25" fill="none" stroke="#ff5959" stroke-width="2" stroke-linecap="round"/><path d="M253.65,156.475l5.5,1.75" fill="none" stroke="#ff5959" stroke-width="2" stroke-linecap="round"/><path d="M248.4,162.725l9.5,5.5" fill="none" stroke="#ff5959" stroke-width="2" stroke-linecap="round"/><path d="M238.9,175.475l6.75,5.25" fill="none" stroke="#ff5959" stroke-width="2" stroke-linecap="round"/><path d="M222.9,166.725l-5,4.25" fill="none" stroke="#ff5959" stroke-width="2" stroke-linecap="round"/><path d="M212.65,163.475l-4.5,-0.25" fill="none" stroke="#ff5959" stroke-width="2" stroke-linecap="round"/><path d="M252.9,148.725l-1.5,-7.75" fill="none" stroke="#63ff59" stroke-width="2" stroke-linecap="round"/><path d="M258.9,147.225l4.75,-3" fill="none" stroke="#63ff59" stroke-width="2" stroke-linecap="round"/><path d="M266.9,154.475h4.75" fill="none" stroke="#63ff59" stroke-width="2" stroke-linecap="round"/><path d="M264.9,164.725l9,14.75" fill="none" stroke="#63ff59" stroke-width="2" stroke-linecap="round"/><path d="M262.15,165.975l1.75,4.5" fill="none" stroke="#63ff59" stroke-width="2" stroke-linecap="round"/><path d="M251.15,158.975l-5.5,0.25" fill="none" stroke="#63ff59" stroke-width="2" stroke-linecap="round"/><path d="M250.9,154.475l-7,-4" fill="none" stroke="#63ff59" stroke-width="2" stroke-linecap="round"/><path d="M246.15,169.475l-3.5,5" fill="none" stroke="#63ff59" stroke-width="2" stroke-linecap="round"/><path d="M253.65,163.475l1,8.5" fill="none" stroke="#63ff59" stroke-width="2" stroke-linecap="round"/><text transform="translate(220.15,170.20156) scale(0.74039,0.74039)" font-size="40" xml:space="preserve" fill="#4e1f1f" fill-rule="nonzero" stroke="none" stroke-width="1" stroke-linecap="butt" stroke-linejoin="miter" stroke-miterlimit="10" stroke-dasharray="" stroke-dashoffset="0" font-family="Sans Serif" font-weight="normal" text-anchor="start" style="mix-blend-mode: normal"><tspan x="0" dy="0">2</tspan></text><text transform="translate(218.15,168.20156) scale(0.74038,0.74038)" font-size="40" xml:space="preserve" fill="url(#color-3)" fill-rule="nonzero" stroke="none" stroke-width="1" stroke-linecap="butt" stroke-linejoin="miter" stroke-miterlimit="10" stroke-dasharray="" stroke-dashoffset="0" font-family="Sans Serif" font-weight="normal" text-anchor="start" style="mix-blend-mode: normal"><tspan x="0" dy="0">2</tspan></text><text transform="translate(247.15,171.45156) scale(0.74039,0.74039)" font-size="40" xml:space="preserve" fill="#4a963b" fill-rule="nonzero" stroke="none" stroke-width="1" stroke-linecap="butt" stroke-linejoin="miter" stroke-miterlimit="10" stroke-dasharray="" stroke-dashoffset="0" font-family="Sans Serif" font-weight="normal" text-anchor="start" style="mix-blend-mode: normal"><tspan x="0" dy="0">5</tspan></text><text transform="translate(248.9,169.20156) scale(0.74039,0.74039)" font-size="40" xml:space="preserve" fill="url(#color-4)" fill-rule="nonzero" stroke="none" stroke-width="1" stroke-linecap="butt" stroke-linejoin="miter" stroke-miterlimit="10" stroke-dasharray="" stroke-dashoffset="0" font-family="Sans Serif" font-weight="normal" text-anchor="start" style="mix-blend-mode: normal"><tspan x="0" dy="0">5</tspan></text><text transform="translate(200.37987,217.03342) scale(0.17624,0.17624)" font-size="40" xml:space="preserve" fill-opacity="0.34728" fill="#ffffff" fill-rule="nonzero" stroke="none" stroke-width="1" stroke-linecap="butt" stroke-linejoin="miter" stroke-miterlimit="10" stroke-dasharray="" stroke-dashoffset="0" font-family="Handwriting" font-weight="normal" text-anchor="start" style="mix-blend-mode: normal"><tspan x="0" dy="0">made by scratch_craft_2</tspan></text><path d="M215.65,203.64105c0,-4.8262 0,-14.36653 0,-16.91606c0,-1.2293 0.83241,-2.5 1.75,-2.5c2.74826,0 16.72622,0 21.85758,0c1.18019,0 1.89242,0.9785 1.89242,1.98748c0,2.49224 0,13.25437 0,18c0,1.38895 -1.06594,2.26252 -2.17813,2.26252c-2.97496,0 -15.24176,0 -20.14286,0c-1.09451,0 -3.17901,-1.11954 -3.17901,-2.83394z" fill="#ff8181" stroke="none" stroke-width="0" stroke-linecap="butt"/><path d="M225.5433,206.4982v-22.71429h4.71429v22.71429z" fill="#ffffff" stroke="none" stroke-width="0" stroke-linecap="butt"/><path d="M215.40044,197.4982v-4.71429h25.85714v4.71429z" fill="#ffffff" stroke="none" stroke-width="0" stroke-linecap="butt"/><path d="M214.82901,186.64105c0,0 0,-2.11919 0,-2.85714c0,-0.46672 0.78114,-1.14286 1.66043,-1.14286c2.81854,0 18.01955,0 23.1077,0c1.04247,0 1.66043,0.778 1.66043,1.28571c0,0.73769 0,2.71429 0,2.71429z" fill="#dc4f4f" stroke="none" stroke-width="0" stroke-linecap="butt"/><path d="M225.77752,178.54861c1.48343,1.994 1.81362,4.25946 0.73749,5.06005c-1.07613,0.80058 -3.15106,-0.16688 -4.6345,-2.16088c-1.48343,-1.994 -1.81362,-4.25946 -0.73749,-5.06005c1.07613,-0.80058 3.15106,0.16688 4.6345,2.16088z" fill="none" stroke="#ffffff" stroke-width="2.5" stroke-linecap="butt"/><path d="M234.84827,176.99503c1.06544,0.81476 0.7053,3.07564 -0.8044,5.04984c-1.5097,1.9742 -3.59725,2.91411 -4.66269,2.09935c-1.06544,-0.81476 -0.7053,-3.07565 0.80439,-5.04984c1.5097,-1.9742 3.59726,-2.91411 4.66269,-2.09935z" data-paper-data="{&quot;index&quot;:null}" fill="none" stroke="#ffffff" stroke-width="2.5" stroke-linecap="butt"/><path d="M229.25759,184.4982l-3,-0.28571l3.14286,2.28571" fill="none" stroke="#ffffff" stroke-width="2.5" stroke-linecap="round"/><path d="M225.25759,185.06963l3,1.28571" fill="none" stroke="#ffffff" stroke-width="2.5" stroke-linecap="round"/></g></g></svg>