<svg version="1.1" xmlns="http://www.w3.org/2000/svg" xmlns:xlink="http://www.w3.org/1999/xlink" width="312.31231" height="286.00029" viewBox="0,0,312.31231,286.00029"><defs><radialGradient cx="240" cy="180" r="156.15616" gradientUnits="userSpaceOnUse" id="color-1"><stop offset="0" stop-color="#ffe065"/><stop offset="1" stop-color="#ffe065" stop-opacity="0"/></radialGradient><linearGradient x1="241.93336" y1="147.8267" x2="241.45798" y2="160.98222" gradientUnits="userSpaceOnUse" id="color-2"><stop offset="0" stop-color="#c2c0c0"/><stop offset="1" stop-color="#c2c0c0" stop-opacity="0"/></linearGradient><linearGradient x1="270.69828" y1="133.21526" x2="270.69828" y2="182.56371" gradientUnits="userSpaceOnUse" id="color-3"><stop offset="0" stop-color="#ebc437"/><stop offset="1" stop-color="#ebc437" stop-opacity="0"/></linearGradient><linearGradient x1="211.79748" y1="133.34074" x2="211.79748" y2="180.68966" gradientUnits="userSpaceOnUse" id="color-4"><stop offset="0" stop-color="#ebc437"/><stop offset="1" stop-color="#ebc437" stop-opacity="0"/></linearGradient><linearGradient x1="240.47154" y1="134.27304" x2="240.47154" y2="189.40024" gradientUnits="userSpaceOnUse" id="color-5"><stop offset="0" stop-color="#ebc437"/><stop offset="1" stop-color="#ebc437" stop-opacity="0"/></linearGradient><radialGradient cx="205.80082" cy="168.30518" r="4.47504" gradientUnits="userSpaceOnUse" id="color-6"><stop offset="0" stop-color="#ffffff" stop-opacity="0.52549"/><stop offset="1" stop-color="#ffffff" stop-opacity="0"/></radialGradient><radialGradient cx="269.94645" cy="169.38054" r="3.2603" gradientUnits="userSpaceOnUse" id="color-7"><stop offset="0" stop-color="#ffffff" stop-opacity="0.5098"/><stop offset="1" stop-color="#ffffff" stop-opacity="0"/></radialGradient></defs><g transform="translate(-83.84384,-36.99986)"><g data-paper-data="{&quot;isPaintingLayer&quot;:true}" fill-rule="nonzero" stroke-linejoin="miter" stroke-miterlimit="10" stroke-dasharray="" stroke-dashoffset="0" style="mix-blend-mode: normal"><path d="M396.15616,180c0,78.9768 -69.91349,143.00014 -156.15616,143.00014c-86.24266,0 -156.15616,-64.02334 -156.15616,-143.00014c0,-78.9768 69.91349,-143.00014 156.15616,-143.00014c86.24266,0 156.15616,64.02334 156.15616,143.00014z" fill="url(#color-1)" stroke="none" stroke-width="none" stroke-linecap="butt"/><path d="M173.43249,158.52413l1.83317,-13.10645l133.06384,4.80821l0.34913,12.91341z" fill="url(#color-2)" stroke="none" stroke-width="0" stroke-linecap="butt"/><path d="M163.16082,128.30266c-0.2577,-9.75153 -7.89942,-26.74383 2.00212,-27.00549c5.81591,-0.15371 14.63078,9.31713 22.22905,17.63337c1.39846,1.5306 2.43656,1.93788 3.71737,3.43416c3.60783,4.21478 7.15997,7.81263 7.23843,10.78215c0.2577,9.75153 -6.89051,12.07704 -16.79206,12.33871c-9.90153,0.26167 -18.13724,-7.43138 -18.39494,-17.1829z" data-paper-data="{&quot;index&quot;:null}" fill="#ffd43b" stroke="#e6c654" stroke-width="2.5" stroke-linecap="butt"/><path d="M318.2281,100.48385c9.87759,0.73622 1.42974,17.34247 0.70467,27.07043c-0.72508,9.72796 -9.32024,17.01716 -19.19783,16.28093c-9.87759,-0.73623 -16.90607,-3.40186 -16.18099,-13.12981c0.22082,-2.96234 3.94138,-6.38569 7.74721,-10.42261c1.35111,-1.43312 2.40752,-1.79015 3.87778,-3.25192c7.98836,-7.94226 17.24732,-16.97943 23.04916,-16.547z" data-paper-data="{&quot;index&quot;:null}" fill="#ffd43b" stroke="#e6c654" stroke-width="2.5" stroke-linecap="butt"/><path d="M327.24941,207.11093c-5.58359,12.6592 -11.04825,21.61472 -17.96295,28.87778c-21.48324,22.56554 -40.27761,24.43216 -71.34467,23.28662c-29.28242,0.71337 -75.56894,-18.95972 -86.91581,-55.75744c-3.51078,-11.38546 -0.14031,-25.17056 2.42983,-34.56016c1.46264,-5.34357 2.82745,-6.84465 3.47234,-10.26257c0.64489,-3.41792 0.16977,-8.39598 0.17706,-9.07943c0.17367,-16.29588 3.32085,-39.35511 4.0597,-46.99729c0.14484,-1.49795 1.61213,-0.28721 2.59441,0.51087c4.80755,3.90605 17.46687,20.18124 24.94728,25.95344c2.29659,1.77218 37.42084,4.78726 52.7387,4.24271c11.10695,0.69396 30.65294,3.03401 47.51655,-3.44929c7.71602,-2.96645 13.86407,-8.06671 17.59851,-13.28399c3.9956,-5.58218 11.21177,-11.90302 12.25354,-13.4443c1.68424,-2.49184 3.90679,-3.69476 3.83369,-0.64853c-0.08966,3.73696 3.18725,32.71994 0.92084,47.45068c-0.21819,4.13291 2.30196,11.56809 3.5265,15.09548c2.46096,7.08904 6.12738,28.52367 0.15452,42.06542z" fill="#faebb5" stroke="#e6c654" stroke-width="2.5" stroke-linecap="round"/><path d="M261.06682,182.56371c0,0 -1.97131,-47.7799 1.68489,-47.22953c6.59447,0.99271 18.10872,-2.11891 18.10872,-2.11891l-3.73305,48.36855z" fill="url(#color-3)" stroke="none" stroke-width="0" stroke-linecap="butt"/><path d="M203.20643,178.94064l-1.48029,-45.52307c0,0 4.45801,-0.07471 9.87393,-0.07683c2.61792,-0.00102 6.75494,0.70189 8.91686,0.48184c3.67842,-0.3744 -1.31543,46.86709 -1.31543,46.86709z" data-paper-data="{&quot;index&quot;:null}" fill="url(#color-4)" stroke="none" stroke-width="0" stroke-linecap="butt"/><path d="M317.24289,116.20893c0.6531,-0.83123 0.13451,0.50373 0.13451,0.50373c-0.35892,3.21837 -1.3195,19.5252 -1.92557,24.95978c-0.12373,1.10948 -0.87555,1.69724 -1.96065,1.5871c-3.83564,-0.38934 -12.75055,-1.29427 -14.72715,-1.49491c-0.76023,-0.07717 -1.06838,-0.67716 -0.3589,-1.58015c3.88065,-4.93905 16.6062,-21.13533 18.83776,-23.97554z" fill="#fbe596" stroke="#c1b174" stroke-width="2.5" stroke-linecap="round"/><path d="M216.68122,221.73577c-0.35696,-3.08329 1.23416,-9.73875 4.38423,-12.49215c5.09118,-4.45007 13.59659,-4.39105 19.61086,-5.08732c9.7355,-1.12708 18.3847,4.49846 19.31858,12.565c0.93388,8.06655 -6.20123,15.51944 -15.93672,16.64654c-1.8973,0.21965 -4.40726,-6.93448 -5.99746,-4.86898c-4.62772,6.01097 -12.35685,4.49901 -16.34121,2.54071c-4.06954,-2.00016 -4.65834,-6.02222 -5.03825,-9.3038z" fill="#faebb5" stroke="none" stroke-width="NaN" stroke-linecap="butt"/><path d="M165.26705,114.58302c-0.0241,-0.97619 0.40802,-1.17749 0.92943,-0.38097c1.7816,2.7216 11.94107,18.24159 15.03918,22.9744c0.5664,0.8653 0.24332,1.37967 -0.44476,1.38986c-1.78899,0.02649 -9.85789,0.14591 -13.32951,0.19729c-0.98211,0.01453 -1.61103,-0.57121 -1.63585,-1.57628c-0.12162,-4.92305 -0.48644,-19.68889 -0.55846,-22.60434z" fill="#fbe596" stroke="#c1b174" stroke-width="2.5" stroke-linecap="round"/><path d="M258.42513,227.06181c0,0 -4.191,7.3358 -10.9683,7.20922c-0.54683,-0.01022 -3.20902,-0.0693 -4.77575,-0.88222c-2.47187,-1.28257 -4.15426,-3.53037 -5.25703,-3.48203c-0.63018,0.02763 -2.62418,2.37285 -5.35481,3.49385c-2.582,1.05997 -5.88799,0.91027 -7.11036,0.56717c-6.30949,-1.7709 -7.78716,-8.36823 -7.78716,-8.36823" fill="none" stroke="#e6c654" stroke-width="2.5" stroke-linecap="round"/><path d="M248.917,205.55252c-2.23129,2.54594 -8.25673,11.63573 -10.34829,11.28467c-2.56717,-0.43087 -9.87422,-12.07548 -9.0106,-12.08987c1.01159,-0.01685 5.46607,1.24769 9.65481,1.33665c5.14096,0.10922 10.04571,-0.92126 9.70408,-0.53145z" fill="#faebb5" stroke="#e6c654" stroke-width="3" stroke-linecap="round"/><path d="M241.43864,232.565c0,0 -1.2366,-1.29527 -1.87181,-2.51034c-0.42323,-0.80954 -0.62019,-1.96962 -0.63961,-2.0944c-0.27771,-1.78571 0.25136,-7.78739 0.6484,-8.94283c0.56175,-1.63476 3.30621,-5.10499 3.30621,-5.10499" data-paper-data="{&quot;index&quot;:null}" fill="none" stroke="#e6c654" stroke-width="2.5" stroke-linecap="round"/><path d="M234.24083,213.20154c0,0 2.57487,3.59786 3.05758,5.25769c0.34118,1.17315 0.58179,7.19332 0.21877,8.96365c-0.02537,0.12371 -0.27777,1.27301 -0.73932,2.06132c-0.69275,1.18319 -1.99005,2.41769 -1.99005,2.41769" data-paper-data="{&quot;index&quot;:null}" fill="none" stroke="#e6c654" stroke-width="2.5" stroke-linecap="round"/><path d="M281.25885,209.17327l25.95817,-5.04013" fill="none" stroke="#e6c654" stroke-width="2.75" stroke-linecap="round"/><path d="M302.51531,215.70017l-26.20157,0.43314" fill="none" stroke="#e6c654" stroke-width="2.75" stroke-linecap="round"/><path d="M281.11745,222.44242l22.19594,4.24887" fill="none" stroke="#e6c654" stroke-width="2.75" stroke-linecap="round"/><path d="M194.16682,208.6407l-25.68658,-6.27926" fill="none" stroke="#e6c654" stroke-width="2.75" stroke-linecap="round"/><path d="M172.6218,214.14065l26.15064,1.68926" fill="none" stroke="#e6c654" stroke-width="2.75" stroke-linecap="round"/><path d="M193.67168,221.90137l-22.37418,3.1795" fill="none" stroke="#e6c654" stroke-width="2.75" stroke-linecap="round"/><path d="M280.62927,134.08999c4.33576,-5.98886 16.13915,-4.70667 18.76283,-2.78616c1.65544,1.21177 -0.96962,2.49984 -1.71958,4.57708c-0.74995,2.07724 -0.4893,1.82814 0.0802,2.27522c1.52873,1.20014 4.28918,-1.38324 9.3315,0.42419c4.08896,1.0756 0.98211,3.24156 -0.6917,4.38154c-0.95425,0.64991 -0.85535,2.10116 -0.2782,2.73333c0.82121,0.8995 2.98446,3.26897 2.98446,3.26897" fill="#faebb5" stroke="#e6c654" stroke-width="2.5" stroke-linecap="round"/><path d="M169.15621,146.51191c0.07667,-0.0429 -6.40016,-11.62931 -2.84407,-11.40316c5.06268,-0.11879 10.4589,0.29577 12.18818,-0.32535c0.6442,-0.23138 0.80381,0.06979 0.75009,-2.01743c-0.05373,-2.08723 -2.02507,-4.02531 -0.1786,-4.6191c1.20922,-0.38887 6.79565,1.36974 11.28611,2.14465c2.22961,0.38475 4.06812,0.48145 5.47791,1.0464c0.23477,0.09409 1.79434,-0.52847 2.02071,-0.34511" data-paper-data="{&quot;index&quot;:null}" fill="#faebb5" stroke="#e6c654" stroke-width="2.5" stroke-linecap="round"/><path d="M229.62151,188.91039l1.00071,-54.63736l20.69933,1.6106l-1.28403,53.51661z" fill="url(#color-5)" stroke="none" stroke-width="0" stroke-linecap="butt"/><path d="M260.21889,174.77304c0.2601,-7.19776 6.0177,-12.83222 12.86,-12.58498c6.8423,0.24724 12.17825,6.28257 11.91817,13.48033c-0.26009,7.19774 -6.01771,12.83223 -12.86001,12.58499c-6.84229,-0.24724 -12.17823,-6.28257 -11.91815,-13.48033z" fill="#fedb5e" stroke="#e6c654" stroke-width="2.5" stroke-linecap="butt"/><path d="M266.74406,172.53486c0.22881,-6.33217 2.71248,-5.03016 6.72977,-5.98972c3.2,-0.76435 5.40543,0.08779 5.17662,6.41996c-0.22881,6.33217 -3.07968,11.36908 -6.36752,11.25028c-3.28785,-0.11881 -5.76771,-5.34834 -5.53889,-11.68052z" fill="#fbe596" stroke="#d2b54e" stroke-width="2.5" stroke-linecap="butt"/><path d="M208.87662,160.23062c6.8423,0.24724 12.17825,6.28258 11.91816,13.48034c-0.26009,7.19774 -6.01772,12.83222 -12.86001,12.58498c-6.8423,-0.24724 -12.17824,-6.28257 -11.91816,-13.48034c0.26008,-7.19775 6.01771,-12.83222 12.86001,-12.58498z" fill="#fedb5e" stroke="#e6c654" stroke-width="2.5" stroke-linecap="butt"/><path d="M207.12293,164.08026c3.30802,1.94925 6.46946,1.2137 6.24065,7.54587c-0.2288,6.33217 -3.07964,11.36908 -6.36748,11.25028c-3.28786,-0.11881 -5.76772,-5.34835 -5.5389,-11.68052c0.22881,-6.33217 2.52924,-8.10896 5.66572,-7.11565z" fill="#fbe596" stroke="#d2b54e" stroke-width="2.5" stroke-linecap="butt"/><path d="M201.56718,168.1522c0.08925,-2.46989 2.05705,-4.40363 4.39521,-4.31914c2.33817,0.08448 4.16127,2.15522 4.07203,4.62511c-0.08925,2.46989 -2.05705,4.40363 -4.39521,4.31913c-2.33816,-0.0845 -4.16125,-2.15523 -4.072,-4.6251z" fill="url(#color-6)" stroke="none" stroke-width="0" stroke-linecap="butt"/><path d="M266.86204,169.26908c0.06502,-1.79943 1.49867,-3.20826 3.20213,-3.14671c1.70347,0.06155 3.03168,1.57018 2.96666,3.36961c-0.06502,1.79943 -1.49867,3.20827 -3.20213,3.14672c-1.70346,-0.06155 -3.03168,-1.57019 -2.96666,-3.36962z" fill="url(#color-7)" stroke="none" stroke-width="0" stroke-linecap="butt"/></g></g></svg>