<svg version="1.1" xmlns="http://www.w3.org/2000/svg" xmlns:xlink="http://www.w3.org/1999/xlink" width="279.23327" height="265.55923" viewBox="0,0,279.23327,265.55923"><g transform="translate(-105.42166,-32.82319)"><g data-paper-data="{&quot;isPaintingLayer&quot;:true}" stroke-miterlimit="10" stroke-dasharray="" stroke-dashoffset="0" style="mix-blend-mode: normal"><path d="M357.77853,175.30281c0,4.23744 -3.32871,26.13223 -5.41488,28.35884c-4.65107,4.96418 -11.06717,-12.3929 -16.91776,-6.59693c-13.60824,13.48116 -24.38557,31.54239 -24.63377,31.72685c-5.37774,3.99668 1.16688,44.45183 -5.91507,47.36546c-19.05404,7.83915 -42.64367,11.7584 -61.98339,11.7584c-32.98703,0 -47.71132,-33.15199 -68.66119,-54.98389c-19.33931,-20.15353 -46.20367,-27.77472 -46.20367,-57.62873c0,-33.53509 26.96362,-50.13301 50.6879,-70.76299c20.2748,-17.63041 34.94465,-41.84962 64.17697,-41.84962c38.32316,0 85.77641,12.3937 106.64312,40.67393c13.67492,18.53335 8.22175,47.31618 8.22175,71.93868z" fill="#ff7979" fill-rule="nonzero" stroke="#964949" stroke-width="2.5" stroke-linecap="butt" stroke-linejoin="miter"/><g fill-rule="evenodd" stroke-width="1.3"><path d="M234.45725,212.36248c1.15456,0.57728 3.60799,1.87615 0.14432,6.78302c-3.46367,4.90686 -13.42171,5.9171 -14.57627,5.9171c-4.4739,0.14432 -9.95805,0.14432 -16.01947,-1.87615c-17.60698,-5.77278 -17.7513,-24.67864 -12.12284,-27.70934c5.48414,-3.03071 7.93757,8.65917 15.87515,15.73083c3.46367,3.17503 7.64893,4.32959 11.1126,5.05118c4.90686,0.86592 14.28763,-4.61822 15.58651,-3.89663z" fill="#ffab19" stroke="#001026" stroke-linecap="round" stroke-linejoin="round"/><path d="M198.66601,200.6726c2.30911,3.89663 6.78302,9.38077 6.78302,9.38077c0,0 -5.33982,-1.29888 -8.37053,1.15456c-2.45343,1.87615 -1.87615,5.05118 -1.58751,6.06142c-1.87615,-1.87615 -4.18527,-4.4739 -5.62846,-9.52509c-1.4432,-5.05118 0,-11.1126 2.88639,-11.97852c2.88639,-0.57728 3.60799,1.58751 5.9171,4.90686z" fill="#ffffff" stroke="none" stroke-linecap="butt" stroke-linejoin="miter"/></g><path d="M241.67322,227.37171c-2.59775,1.73183 -11.54556,8.08189 -22.9468,11.68988l-0.57728,0.14432c-0.57728,0.14432 -0.86592,0.86592 -0.57728,1.4432c2.45343,3.46367 6.92734,10.391 -1.01024,12.84444c-7.64893,2.45343 -21.93656,-17.89562 -15.87515,-23.23544c2.74207,-2.02047 5.1955,-1.01024 6.49438,-0.43296c0.7216,0.28864 1.4432,0.28864 2.16479,0.14432c1.73183,-0.57728 4.90686,-1.73183 7.36029,-3.03071c6.20574,-3.17503 7.64893,-4.4739 10.53532,-6.6387c2.88639,-2.16479 9.52509,-7.50461 14.86491,-2.88639c4.61822,3.89663 2.02047,8.22621 -0.43296,9.95805z" fill="#ffab19" fill-rule="evenodd" stroke="#001026" stroke-width="1.3" stroke-linecap="round" stroke-linejoin="round"/><path d="M262.23257,199.74758c-3.22701,-1.92724 -4.8024,-7.95259 -1.18394,-9.76054c3.42824,-1.52547 8.53143,0.35825 11.52288,1.40113c2.99145,1.04288 14.88585,6.82888 15.86858,20.04214c0.15314,5.66904 -2.234,20.18397 -9.23054,16.17522c-6.99654,-4.00875 -4.01537,-11.8638 -3.00997,-17.05919c0.90376,-4.35882 -13.07217,-10.20777 -13.967,-10.79877z" data-paper-data="{&quot;index&quot;:null}" fill="#ffab19" fill-rule="evenodd" stroke="#001026" stroke-width="1.3" stroke-linecap="round" stroke-linejoin="round"/><g fill-rule="evenodd" stroke-width="1.3"><path d="M264.76434,230.9797c3.03071,2.74207 9.66941,8.37053 9.66941,8.37053c0,0 20.63769,-3.60799 20.63769,6.78302c0,6.20574 -10.391,7.64893 -24.39,6.35006c-0.86592,-0.14432 -1.73183,-0.43296 -2.45343,-1.01024c-3.17503,-2.74207 -12.26716,-10.82396 -18.03994,-16.45242c-8.51485,-8.37053 -15.58651,-13.85467 -15.58651,-13.85467c-12.26716,-11.97852 -2.30911,-17.0297 1.58751,-23.95704c3.60799,-5.9171 5.1955,-4.76254 13.85467,-3.03071c4.90686,0.7216 7.79325,1.15456 10.96828,1.01024c4.76254,-0.14432 3.89663,6.78302 2.59775,10.391c0,0 -2.02047,5.33982 -3.89663,8.08189c-2.30911,3.31935 -4.04095,5.48414 -5.77278,6.78302z" fill="#ffab19" stroke="#001026" stroke-linecap="round" stroke-linejoin="round"/><path d="M252.64151,220.30006c0,0 -2.16479,-1.73183 -4.4739,-3.89663c-2.88639,-2.59775 -5.77278,-4.76254 -2.88639,-9.23645c2.59775,-3.46367 5.05118,-8.08189 11.54556,-3.89663c6.20574,3.89663 3.46367,7.50461 3.46367,7.50461c-3.17503,6.49438 -7.64893,9.52509 -7.64893,9.52509z" fill="#ffffff" stroke="none" stroke-linecap="butt" stroke-linejoin="miter"/></g><path d="M230.81545,201.51516c1.26146,4.98185 3.69558,11.58993 -3.67476,12.89594c-9.71499,0.89631 -10.31984,-15.16369 -9.58848,-20.36584c0.62893,-4.61598 5.22983,-5.73081 9.1274,-6.68428c7.4875,-1.56981 13.87599,-3.15398 18.27311,1.16766c5.54034,5.30314 -1.55112,8.47006 -5.90295,9.37968c-2.62282,0.57215 -5.30423,1.27619 -7.16513,1.55508c-0.68859,0.48374 -1.17197,1.21653 -1.06918,2.05175z" fill="#ffab19" fill-rule="evenodd" stroke="#001026" stroke-width="1.3" stroke-linecap="round" stroke-linejoin="round"/><path d="M277.80991,111.69451c0.43296,-0.28864 1.15456,-0.14432 1.29888,0.43296l3.75231,15.44219c0,0 9.23645,6.78302 11.97852,11.54556c4.61822,7.93757 4.76254,14.43195 4.76254,14.43195c0,0 10.24668,3.03071 11.97852,11.25692c1.73183,8.22621 -4.61822,23.81272 -31.75029,29.15254c-27.13207,5.33982 -48.92431,-2.02047 -59.171,-18.4729c-10.24668,-16.45242 5.9171,-36.07988 5.05118,-34.92532l-3.03071,-25.83319c-0.14432,-0.57728 0.57728,-1.01024 1.15456,-0.7216l17.46266,11.40124c0,0 6.49438,-2.45343 13.27739,-2.74207c4.04095,-0.28864 7.50461,0 10.82396,0.57728z" fill="#ffab19" fill-rule="evenodd" stroke="#001026" stroke-width="1.3" stroke-linecap="butt" stroke-linejoin="miter"/><path d="M298.16919,153.62445c0,0 9.95805,2.59775 11.68988,10.82396c1.73183,8.22621 -5.1955,23.09112 -32.03893,28.28662c-34.92532,7.21598 -51.52206,-13.56603 -41.85266,-28.8639c9.66941,-15.44219 26.26615,-2.30911 38.38899,-3.17503c10.391,-0.7216 11.54556,-9.81373 23.81272,-7.07166z" fill="#ffffff" fill-rule="evenodd" stroke="none" stroke-width="1.3" stroke-linecap="butt" stroke-linejoin="miter"/><path d="M245.72912,181.4563c-0.01269,-6.57181 1.69708,-15.05302 13.93693,-15.66838c14.07903,0.03009 18.56288,10.35366 19.55167,14.03306c0.22766,0.68401 -0.3465,1.32049 -1.00675,1.14724c-1.98073,-0.51974 -6.23323,-1.17418 -13.47319,-1.20111c-8.04969,0.05917 -15.39265,1.76946 -17.98714,2.55437c-0.54245,0.10195 -1.05322,-0.33065 -1.02154,-0.86518z" data-paper-data="{&quot;index&quot;:null}" fill="#ffffff" fill-rule="evenodd" stroke="#001026" stroke-width="1.3" stroke-linecap="round" stroke-linejoin="round"/><path d="M324.22398,155.21195c-6.78302,5.48414 -17.17402,5.62846 -17.17402,5.62846" fill="none" fill-rule="evenodd" stroke="#001026" stroke-width="1.3" stroke-linecap="round" stroke-linejoin="round"/><path d="M322.34783,171.37574c-9.09213,0.7216 -14.72059,-2.02047 -14.72059,-2.02047" fill="none" fill-rule="evenodd" stroke="#001026" stroke-width="1.3" stroke-linecap="round" stroke-linejoin="round"/><path d="M273.2792,156.94379c3.03071,0 6.20574,0.28864 6.35006,1.29888c0.14432,2.02047 -2.02047,6.06142 -4.32959,6.20574c-2.59775,0.28864 -8.65917,-3.31935 -8.65917,-5.62846c-0.14432,-1.73183 3.75231,-1.87615 6.6387,-1.87615z" fill="#001026" fill-rule="evenodd" stroke="#001026" stroke-width="1.3" stroke-linecap="round" stroke-linejoin="round"/><path d="M208.33542,154.779c0,0 12.41148,4.04095 17.46266,8.51485" fill="none" fill-rule="evenodd" stroke="#001026" stroke-width="1.3" stroke-linecap="round" stroke-linejoin="round"/><path d="M226.23104,168.34504c-6.20574,2.45343 -16.88538,0.86592 -16.88538,0.86592" fill="none" fill-rule="evenodd" stroke="#001026" stroke-width="1.3" stroke-linecap="round" stroke-linejoin="round"/><path d="M290.3089,140.05841c4.18527,6.49438 4.32959,13.85467 0.28864,16.45242c-4.04095,2.59775 -10.67964,-0.43296 -15.00923,-6.92734c-4.18527,-6.49438 -4.32959,-13.85467 -0.28864,-16.45242c4.04095,-2.74207 10.82396,0.43296 15.00923,6.92734z" fill="#ffffff" fill-rule="evenodd" stroke="#001026" stroke-width="1.3" stroke-linecap="round" stroke-linejoin="round"/><path d="M287.06496,144.95128c0,1.58751 -1.15456,2.88639 -2.59775,2.88639c-1.4432,0 -2.59775,-1.29888 -2.59775,-2.88639c0,-1.58751 1.15456,-2.88639 2.59775,-2.88639c1.4432,0 2.59775,1.29888 2.59775,2.88639" fill="#001026" fill-rule="evenodd" stroke="none" stroke-width="1.3" stroke-linecap="butt" stroke-linejoin="miter"/><path d="M254.51766,144.09936c4.32959,6.35006 4.04095,14.14331 0.14432,16.88538c-4.76254,2.74207 -11.1126,0.7216 -15.44219,-5.62846c-4.4739,-6.35006 -4.76254,-14.57627 -0.28864,-17.7513c4.4739,-3.31935 11.25692,0.14432 15.58651,6.49438z" fill="#ffffff" fill-rule="evenodd" stroke="#001026" stroke-width="1.3" stroke-linecap="round" stroke-linejoin="round"/><path d="M249.98508,149.80322c0,1.58751 -1.15456,2.88639 -2.59775,2.88639c-1.4432,0 -2.59775,-1.29888 -2.59775,-2.88639c0,-1.58751 1.15456,-2.88639 2.59775,-2.88639c1.4432,0.14432 2.59775,1.29888 2.59775,2.88639" fill="#001026" fill-rule="evenodd" stroke="none" stroke-width="1.3" stroke-linecap="butt" stroke-linejoin="miter"/><path d="M154.17166,231.63242c0,7.45584 -10.74517,13.5 -24,13.5c-13.25483,0 -24,-6.04416 -24,-13.5c0,-7.45584 10.74517,-13.5 24,-13.5c13.25483,0 24,6.04416 24,13.5z" fill="#ff7979" fill-rule="nonzero" stroke="#964949" stroke-width="1.5" stroke-linecap="butt" stroke-linejoin="miter"/><path d="M200.67166,276.63243c0,5.52285 -7.95938,10 -17.77778,10c-9.8184,0 -17.77778,-4.47715 -17.77778,-10c0,-5.52285 7.95938,-10 17.77778,-10c9.8184,0 17.77778,4.47715 17.77778,10z" fill="#ff7979" fill-rule="nonzero" stroke="#964949" stroke-width="1.5" stroke-linecap="butt" stroke-linejoin="miter"/><path d="M334.00499,290.29909c0,4.05009 -9.07867,7.33333 -20.27778,7.33333c-11.19911,0 -20.27777,-3.28324 -20.27777,-7.33333c0,-4.05009 9.07867,-7.33333 20.27777,-7.33333c11.19911,0 20.27778,3.28324 20.27778,7.33333z" fill="#ff7979" fill-rule="nonzero" stroke="#964949" stroke-width="1.5" stroke-linecap="butt" stroke-linejoin="miter"/><text transform="translate(127.07165,96.14886) rotate(16.55933) scale(1.53468,1.53468)" font-size="40" xml:space="preserve" fill="#b94040" fill-rule="nonzero" stroke="none" stroke-width="1" stroke-linecap="butt" stroke-linejoin="miter" stroke-miterlimit="10" stroke-dasharray="" stroke-dashoffset="0" font-family="Sans Serif" font-weight="normal" text-anchor="start" style="mix-blend-mode: normal"><tspan x="0" dy="0">?</tspan></text><text transform="translate(360.47497,115.60628) rotate(-24.51941) scale(1.05929,1.05929)" font-size="40" xml:space="preserve" fill="#b94040" fill-rule="nonzero" stroke="none" stroke-width="1" stroke-linecap="butt" stroke-linejoin="miter" stroke-miterlimit="10" stroke-dasharray="" stroke-dashoffset="0" font-family="Sans Serif" font-weight="normal" text-anchor="start" style="mix-blend-mode: normal"><tspan x="0" dy="0">?</tspan></text><text transform="translate(320.26635,238.62157) rotate(25.03949) scale(1.05929,1.05929)" font-size="40" xml:space="preserve" fill="#b94040" fill-rule="nonzero" stroke="none" stroke-width="1" stroke-linecap="butt" stroke-linejoin="miter" stroke-miterlimit="10" stroke-dasharray="" stroke-dashoffset="0" font-family="Sans Serif" font-weight="normal" text-anchor="start" style="mix-blend-mode: normal"><tspan x="0" dy="0">?</tspan></text><text transform="translate(154.41999,259.01722) rotate(4.45089) scale(0.82573,0.82573)" font-size="40" xml:space="preserve" fill="#b94040" fill-rule="nonzero" stroke="none" stroke-width="1" stroke-linecap="butt" stroke-linejoin="miter" stroke-miterlimit="10" stroke-dasharray="" stroke-dashoffset="0" font-family="Sans Serif" font-weight="normal" text-anchor="start" style="mix-blend-mode: normal"><tspan x="0" dy="0">?</tspan></text><text transform="translate(296.03429,67.98124) rotate(-98.51921) scale(0.82573,0.82573)" font-size="40" xml:space="preserve" fill="#b94040" fill-rule="nonzero" stroke="none" stroke-width="1" stroke-linecap="butt" stroke-linejoin="miter" stroke-miterlimit="10" stroke-dasharray="" stroke-dashoffset="0" font-family="Sans Serif" font-weight="normal" text-anchor="start" style="mix-blend-mode: normal"><tspan x="0" dy="0">?</tspan></text></g></g></svg>
