<svg version="1.1" xmlns="http://www.w3.org/2000/svg" xmlns:xlink="http://www.w3.org/1999/xlink" width="240.57301" height="239.6682" viewBox="0,0,240.57301,239.6682"><g transform="translate(-119.7135,-61.1659)"><g data-paper-data="{&quot;isPaintingLayer&quot;:true}" stroke-miterlimit="10" stroke-dasharray="" stroke-dashoffset="0" style="mix-blend-mode: normal"><path d="M357.71302,175.27851c0,4.23744 -3.32871,26.13223 -5.41488,28.35884c-4.65107,4.96418 -11.06717,-12.3929 -16.91776,-6.59693c-13.60824,13.48116 -24.38557,31.54239 -24.63377,31.72685c-5.37774,3.99668 1.16688,44.45183 -5.91507,47.36546c-19.05404,7.83915 -42.64367,11.7584 -61.98339,11.7584c-32.98703,0 -47.71132,-33.15199 -68.66119,-54.98389c-19.33931,-20.15353 -46.20367,-27.77472 -46.20367,-57.62873c0,-33.53509 26.96362,-50.13301 50.6879,-70.76299c20.2748,-17.63041 34.94465,-41.84962 64.17697,-41.84962c38.32316,0 85.77641,12.3937 106.64312,40.67393c13.67492,18.53335 8.22175,47.31618 8.22175,71.93868z" fill="#ecf1f5" fill-rule="nonzero" stroke="#75828a" stroke-width="3" stroke-linecap="butt" stroke-linejoin="miter"/><path d="M168.46351,245.5841c0,7.45584 -10.74517,13.5 -24,13.5c-13.25483,0 -24,-6.04416 -24,-13.5c0,-7.45584 10.74517,-13.5 24,-13.5c13.25483,0 24,6.04416 24,13.5z" fill="#c9c9c9" fill-rule="nonzero" stroke="#7e8083" stroke-width="1.5" stroke-linecap="butt" stroke-linejoin="miter"/><g fill-rule="evenodd"><path d="M229.33619,241.25086c0.9403,0.05032 2.95944,0.20554 2.06973,4.4957c-0.88969,4.29016 -7.25751,7.86278 -8.02989,8.19865c-2.95095,1.39801 -6.61972,2.99336 -11.26242,3.40497c-13.45795,1.26004 -19.05423,-11.34554 -16.17057,-15.01033c2.78712,-3.62282 7.82901,3.48373 15.1962,5.90545c3.24072,1.11644 6.37644,0.67131 8.90345,0.14646c3.53447,-0.84813 8.21464,-7.24576 9.29347,-7.14088z" fill="#ffab19" stroke="#001026" stroke-width="1.2" stroke-linecap="round" stroke-linejoin="round"/><path d="M201.9921,243.84232c2.67828,1.93503 7.26655,4.30233 7.26655,4.30233c0,0 -3.95006,0.68444 -5.26383,3.20736c-1.09552,1.96881 0.21429,3.9249 0.70126,4.51676c-1.80088,-0.70934 -4.1013,-1.77544 -6.53616,-4.73474c-2.43485,-2.95929 -3.23267,-7.43407 -1.55364,-8.85299c1.76299,-1.22583 2.87546,0.01244 5.38581,1.56129z" fill="#ffffff" stroke="none" stroke-width="1" stroke-linecap="butt" stroke-linejoin="miter"/></g><path d="M235.92254,242.40491c4.22302,1.26331 3.74466,4.91538 2.60717,6.78764c-1.23404,1.91425 -5.37267,8.76521 -11.95026,14.4955l-0.3442,0.26447c-0.3442,0.26448 -0.32738,0.83118 0.03365,1.13339c2.64888,1.6034 7.65697,4.93616 3.06063,8.88649c-4.40325,3.86637 -19.88088,-5.59037 -17.3793,-10.92585c1.24662,-2.14932 3.18178,-2.18721 4.21863,-2.17886c0.56669,-0.01682 1.04943,-0.22673 1.49018,-0.53319c0.99063,-0.88998 2.77879,-2.58597 4.04222,-4.16859c3.22787,-3.92928 3.81549,-5.21803 5.11667,-7.50586c1.30119,-2.28784 4.18895,-7.79126 9.10461,-6.25513z" fill="#ffab19" fill-rule="evenodd" stroke="#001026" stroke-width="1.2" stroke-linecap="round" stroke-linejoin="round"/><path d="M245.92489,224.34696c-0.03181,-2.94953 3.50956,-3.85201 5.37077,-2.3577c0.54539,0.39621 7.31272,7.66971 9.32797,5.67888c2.42124,-2.32588 5.69113,-6.79912 9.63853,-3.50477c3.94741,3.29435 -2.9299,9.51628 -5.90632,11.23564c-7.10476,3.59769 -13.28267,-2.33311 -14.62293,-3.95706c-1.34026,-1.62395 -3.68083,-4.36068 -3.80802,-7.09499z" fill="#ffab19" fill-rule="evenodd" stroke="#001026" stroke-width="1.2" stroke-linecap="round" stroke-linejoin="round"/><g fill-rule="evenodd"><path d="M255.02667,244.88897c2.82514,0.95274 8.90359,2.78684 8.90359,2.78684c0,0 12.75656,-8.41717 15.77931,-1.46585c1.80525,4.1515 -4.72624,8.13971 -14.46908,11.34312c-0.62126,0.15535 -1.28451,0.21416 -1.93516,0.03788c-2.9217,-0.91076 -11.35514,-3.67244 -16.85431,-5.75844c-8.13123,-3.1227 -14.45733,-4.73432 -14.45733,-4.73432c-11.69099,-4.44482 -6.4987,-10.72073 -5.90712,-16.48848c0.69236,-5.00796 2.09023,-4.69741 8.3868,-6.05782c3.49249,-0.94468 5.54936,-1.4947 7.6314,-2.51486c3.14405,-1.48198 4.57993,3.40413 4.76058,6.19564c0,0 0.20172,4.15997 -0.25571,6.54012c-0.57914,2.89229 -1.10796,4.84428 -1.88867,6.21699z" fill="#ffab19" stroke="#001026" stroke-width="1.2" stroke-linecap="round" stroke-linejoin="round"/><path d="M243.81007,241.2711c0,0 -1.952,-0.52883 -4.12647,-1.30529c-2.68661,-0.89818 -5.24728,-1.50672 -4.61782,-5.33931c0.73025,-3.0728 1.02809,-6.87598 6.59017,-5.96536c5.28502,0.8015 4.50021,4.01283 4.50021,4.01283c-0.2348,5.2682 -2.34609,8.59714 -2.34609,8.59714z" fill="#ffffff" stroke="none" stroke-width="1" stroke-linecap="butt" stroke-linejoin="miter"/></g><path d="M233.35452,237.46975c0.43685,0.43129 1.02575,0.68286 1.61188,0.50036c3.41168,-1.55392 7.83799,-4.16126 9.73479,0.95902c1.90794,6.85656 -9.5409,9.3812 -13.37009,9.5334c-3.39513,0.14942 -4.79421,-3.0079 -5.98593,-5.68139c-2.10141,-5.17004 -4.07008,-9.54936 -1.54045,-13.26807c3.08532,-4.66704 6.28156,0.01084 7.50093,3.0161c0.75208,1.80813 1.60646,3.64114 2.04887,4.94057z" fill="#ffab19" fill-rule="evenodd" stroke="#001026" stroke-width="1.2" stroke-linecap="round" stroke-linejoin="round"/><g><path d="M236.05167,167.32656c0.28654,-0.24896 0.82205,-0.21139 0.97995,0.19296l4.14568,10.82607c0,0 7.3117,4.05239 9.73701,7.24446c4.077,5.31564 4.78306,10.00149 4.78306,10.00149c0,0 7.69508,1.24371 9.71028,7.03561c2.01521,5.7919 -1.13564,17.65827 -20.27322,24.03559c-19.13757,6.37732 -35.5879,3.07039 -44.52637,-7.88503c-8.93847,-10.95541 0.93905,-26.65489 0.41945,-25.73925l-4.58616,-18.41166c-0.1579,-0.40434 0.32412,-0.78446 0.76857,-0.62909l13.69187,6.63198c0,0 4.47193,-2.37691 9.35326,-3.21414c2.89721,-0.5832 5.4302,-0.69522 7.88549,-0.58502z" fill="#ffab19" fill-rule="evenodd" stroke="#001026" stroke-width="1.2" stroke-linecap="butt" stroke-linejoin="miter"/><path d="M255.43759,196.04935c0,0 7.44611,0.95717 9.46132,6.74906c2.01521,5.7919 -1.6202,17.18962 -20.56229,23.43578c-24.60282,8.45684 -38.53717,-5.04311 -32.95777,-17.00814c5.56603,-12.06946 18.79179,-4.10413 27.48342,-5.85376c7.45188,-1.48476 7.44501,-8.17062 16.57532,-7.32294z" fill="#ffffff" fill-rule="evenodd" stroke="none" stroke-width="1" stroke-linecap="butt" stroke-linejoin="miter"/><path d="M274.93908,206.60762c-6.51204,1.36443 -10.83873,-0.09825 -10.83873,-0.09825" fill="none" fill-rule="evenodd" stroke="#001026" stroke-width="1.2" stroke-linecap="round" stroke-linejoin="round"/><path d="M238.09696,200.71066c2.19296,-0.28078 4.5171,-0.36605 4.71511,0.35157c0.2916,1.44861 -0.90045,4.5731 -2.55791,4.89145c-1.85295,0.44951 -6.57312,-1.59963 -6.78704,-3.27046c-0.26486,-1.23974 2.54129,-1.70516 4.62983,-1.97256z" fill="#001026" fill-rule="evenodd" stroke="#001026" stroke-width="1.2" stroke-linecap="round" stroke-linejoin="round"/><path d="M190.90429,205.16068c0,0 9.35507,1.77414 13.42448,4.54344" fill="none" fill-rule="evenodd" stroke="#001026" stroke-width="1.2" stroke-linecap="round" stroke-linejoin="round"/><path d="M205.10999,213.31895c-4.26307,2.35016 -12.13773,2.19083 -12.13773,2.19083" fill="none" fill-rule="evenodd" stroke="#001026" stroke-width="1.2" stroke-linecap="round" stroke-linejoin="round"/><g fill-rule="evenodd"><path d="M248.85505,186.91507c3.63002,4.31149 4.41631,9.62389 1.73301,11.87792c-2.68329,2.25403 -7.7677,0.67609 -11.50215,-3.62203c-3.63002,-4.31149 -4.41631,-9.62389 -1.73301,-11.87792c2.66992,-2.35846 7.87213,-0.68947 11.50215,3.62203z" fill="#ffffff" stroke="#001026" stroke-width="1.2" stroke-linecap="round" stroke-linejoin="round"/><path d="M249.19942,192.92089c0.14707,1.1487 -0.56802,2.1955 -1.61229,2.3292c-1.04426,0.13369 -2.00001,-0.6992 -2.14708,-1.84788c-0.14707,-1.1487 0.56802,-2.19549 1.61229,-2.32919c1.04426,-0.13369 2.00001,0.69919 2.14708,1.84788" fill="#001026" stroke="none" stroke-width="1" stroke-linecap="butt" stroke-linejoin="miter"/></g><g fill-rule="evenodd"><path d="M223.33154,193.15475c3.72108,4.19368 4.2342,9.85949 1.66869,12.20458c-3.19207,2.42532 -7.97403,1.5516 -11.6951,-2.64208c-3.82551,-4.18032 -4.79645,-10.10592 -1.85334,-12.81777c2.92973,-2.81628 8.15867,-0.93842 11.87975,3.25526z" fill="#ffffff" stroke="#001026" stroke-width="1.2" stroke-linecap="round" stroke-linejoin="round"/><path d="M223.48042,199.29172c0.14707,1.1487 -0.56802,2.1955 -1.61229,2.32919c-1.04426,0.13369 -2.00001,-0.69918 -2.14708,-1.84788c-0.14707,-1.1487 0.56802,-2.1955 1.61228,-2.3292c1.05764,-0.02927 2.00002,0.6992 2.14708,1.84789" fill="#001026" stroke="none" stroke-width="1" stroke-linecap="butt" stroke-linejoin="miter"/></g><path d="M227.07271,220.85013c0.17321,-2.50405 1.99184,-4.77379 5.10167,-5.36538c5.45948,-1.03856 10.19222,2.07762 10.19222,2.07762" fill="none" fill-rule="nonzero" stroke="#001026" stroke-width="1.25" stroke-linecap="round" stroke-linejoin="miter"/></g><path d="M269.44458,196.52539c-4.40002,4.59661 -11.90539,5.66366 -11.90539,5.66366" fill="none" fill-rule="evenodd" stroke="#001026" stroke-width="1.2" stroke-linecap="round" stroke-linejoin="round"/><path d="M235.77201,241.57115c-1.24851,-2.87116 -4.27061,-9.60195 -4.95677,-11.17989c-0.27978,-0.64339 0.47003,-1.71802 0.9906,-1.94438c2.89244,-1.25777 28.14549,-12.23893 34.60541,-15.04799c0.95551,-0.4155 1.77362,-0.02267 2.0534,0.62072c0.64472,1.48266 3.28107,7.54538 4.63283,10.65397c0.48726,1.12052 0.07908,2.17402 -1.17289,2.71843c-7.13122,3.10098 -31.24546,13.58693 -34.44521,14.97833c-0.68944,0.2998 -1.3599,-0.00012 -1.70737,-0.79919z" fill="#328554" fill-rule="nonzero" stroke-opacity="0.44738" stroke="#000000" stroke-width="2.5" stroke-linecap="butt" stroke-linejoin="miter"/><path d="M235.8984,241.51619c-1.24851,-2.87116 -4.27061,-9.60194 -4.95677,-11.17988c-0.27978,-0.64339 0.47003,-1.71802 0.99061,-1.94439c2.89245,-1.25777 28.1455,-12.23893 34.60541,-15.04799c0.95551,-0.4155 1.77362,-0.02268 2.05339,0.62071c0.64472,1.48266 3.28107,7.54539 4.63283,10.65398c0.48726,1.12052 0.07907,2.17401 -1.17289,2.71842c-7.13122,3.10098 -31.24546,13.58694 -34.44521,14.97833c-0.68944,0.2998 -1.35991,-0.00012 -1.70738,-0.79919z" fill="#328554" fill-rule="nonzero" stroke="#000000" stroke-width="0" stroke-linecap="butt" stroke-linejoin="miter"/><text transform="translate(248.17484,231.20295) rotate(-23.07635) scale(0.12986,0.12986)" font-size="40" xml:space="preserve" data-paper-data="{&quot;index&quot;:null}" fill="#ffffff" fill-rule="nonzero" stroke="#ffffff" stroke-width="1" stroke-linecap="butt" stroke-linejoin="miter" stroke-miterlimit="10" stroke-dasharray="" stroke-dashoffset="0" font-family="Sans Serif" font-weight="normal" text-anchor="start" style="mix-blend-mode: normal"><tspan x="0" dy="0">Ремикс</tspan></text><path d="M241.27824,229.08459c0,0 2.09635,-0.33266 3.02777,1.40323c0.96776,1.80364 -1.00894,3.24132 -1.2284,3.33342c-1.37709,0.57794 -2.70206,-1.08054 -2.77337,-1.25319c-0.60498,-1.46473 0.60241,-2.29491 0.73076,-2.33845c0.81979,-0.27806 1.72496,-0.48911 2.31248,0.79665c0.39651,0.86774 -0.10072,1.40366 -0.63892,1.67047c0,0 -1.09727,0.16411 -1.39389,-0.56806c-0.18861,-0.46555 0.22148,-0.83103 0.29151,-0.83673c0.3695,-0.03009 0.61308,0.27954 0.61308,0.27954" data-paper-data="{&quot;index&quot;:null}" fill="none" fill-rule="nonzero" stroke="#ffffff" stroke-width="0.75" stroke-linecap="round" stroke-linejoin="miter"/><path d="M233.10173,237.57967c0.43685,0.43129 0.93095,0.72409 1.51708,0.54158c3.41168,-1.55392 7.83798,-4.16126 9.73479,0.95902c1.90794,6.85656 -9.5409,9.38121 -13.37009,9.53341" fill="#ffab19" fill-rule="evenodd" stroke="#001026" stroke-width="1.2" stroke-linecap="round" stroke-linejoin="round"/><g fill="none" fill-rule="nonzero" stroke-opacity="0.65393" stroke="#000000" stroke-width="2" stroke-linecap="round" stroke-linejoin="miter"><path d="M215.11697,92.87376v6.74074"/><path d="M215.35771,103.94784v7.46296"/><path d="M215.59845,122.72561l-0.48148,-6.74074"/><path d="M215.59845,136.68857l-0.24074,-7.7037"/><path d="M215.11697,141.98487l0.24074,9.62963"/><path d="M215.83919,163.17006l-0.48148,-7.22222"/><path d="M228.83919,164.13302h-7.46296"/><path d="M236.78363,164.6145h9.38889"/><path d="M253.63549,164.13302h11.31482"/><path d="M278.67252,163.65154l-5.53704,0.24075"/><path d="M279.87622,157.39228l0.48148,4.57407"/><path d="M280.35771,152.09598l4.33333,-0.24074"/><path d="M300.33919,152.09598l-6.98148,-0.24074"/><path d="M308.52437,151.13302l7.94445,0.24074"/><path d="M331.87622,151.13302h-7.22222"/><path d="M340.54289,150.65154l-0.24074,-4.09259"/><path d="M340.30215,141.02191l0.24074,-5.05555"/><path d="M332.59845,131.15154l5.53704,0.24075"/><path d="M324.654,130.42932h-7.22222"/><path d="M305.154,130.42932h8.18518"/><path d="M300.09845,131.15154l-5.77778,-0.24074"/><path d="M284.69104,130.42932l5.77778,0.48148"/><path d="M280.83919,124.65154v4.33334"/><path d="M281.80215,118.87376v-6.25926"/><path d="M277.9503,111.17006h-4.33334"/><path d="M273.13549,108.52191l-0.24074,-5.53704"/><path d="M272.89475,97.44784l0.24074,-3.12963"/><path d="M269.76511,90.94784h-4.57407"/><path d="M257.72807,90.7071l4.81482,0.24074"/><path d="M251.46881,89.74413l3.12963,1.2037"/><path d="M249.30215,89.02191l-4.09259,-1.68519"/><path d="M238.46881,86.6145l4.33334,0.24074"/><path d="M235.33918,86.85524l-4.09259,0.24074"/><path d="M228.59844,87.09598l-3.61111,1.2037"/><path d="M222.33918,89.02191l-2.64814,1.92593"/></g><path d="M197.96351,278.0841c0,4.97056 -7.16345,9 -16,9c-8.83655,0 -16,-4.02944 -16,-9c0,-4.97056 7.16345,-9 16,-9c8.83655,0 16,4.02944 16,9z" fill="#c9c9c9" fill-rule="nonzero" stroke="#7e8083" stroke-width="1.5" stroke-linecap="butt" stroke-linejoin="miter"/><path d="M335.96351,291.0841c0,4.97056 -10.63324,9 -23.75,9c-13.11676,0 -23.75,-4.02944 -23.75,-9c0,-4.97056 10.63324,-9 23.75,-9c13.11676,0 23.75,4.02944 23.75,9z" fill="#c9c9c9" fill-rule="nonzero" stroke="#7e8083" stroke-width="1.5" stroke-linecap="butt" stroke-linejoin="miter"/></g></g></svg>