<svg version="1.1" xmlns="http://www.w3.org/2000/svg" xmlns:xlink="http://www.w3.org/1999/xlink" width="100.69367" height="102.72919" viewBox="0,0,100.69367,102.72919"><defs><radialGradient cx="240" cy="180" r="256" gradientUnits="userSpaceOnUse" id="color-1"><stop offset="0" stop-color="#000000"/><stop offset="0.5" stop-color="#000000"/><stop offset="1" stop-color="#000000"/></radialGradient><radialGradient cx="240" cy="180" r="256" gradientUnits="userSpaceOnUse" id="color-2"><stop offset="0" stop-color="#000000"/><stop offset="0.5" stop-color="#000000"/><stop offset="1" stop-color="#000000"/></radialGradient><radialGradient cx="240" cy="180" r="256" gradientUnits="userSpaceOnUse" id="color-3"><stop offset="0" stop-color="#000000"/><stop offset="0.5" stop-color="#000000"/><stop offset="1" stop-color="#000000"/></radialGradient><radialGradient cx="240" cy="180" r="256" gradientUnits="userSpaceOnUse" id="color-4"><stop offset="0" stop-color="#000000"/><stop offset="0.5" stop-color="#000000"/><stop offset="1" stop-color="#000000"/></radialGradient><radialGradient cx="240" cy="180" r="256" gradientUnits="userSpaceOnUse" id="color-5"><stop offset="0" stop-color="#000000"/><stop offset="0.5" stop-color="#000000"/><stop offset="1" stop-color="#000000"/></radialGradient><radialGradient cx="240" cy="180" r="256" gradientUnits="userSpaceOnUse" id="color-6"><stop offset="0" stop-color="#000000"/><stop offset="0.5" stop-color="#000000"/><stop offset="1" stop-color="#000000"/></radialGradient><radialGradient cx="240" cy="180" r="256" gradientUnits="userSpaceOnUse" id="color-7"><stop offset="0" stop-color="#000000"/><stop offset="0.5" stop-color="#000000"/><stop offset="1" stop-color="#000000"/></radialGradient><radialGradient cx="240" cy="180" r="256" gradientUnits="userSpaceOnUse" id="color-8"><stop offset="0" stop-color="#000000"/><stop offset="0.5" stop-color="#000000"/><stop offset="1" stop-color="#000000"/></radialGradient><radialGradient cx="240" cy="180" r="256" gradientUnits="userSpaceOnUse" id="color-9"><stop offset="0" stop-color="#000000"/><stop offset="0.5" stop-color="#000000"/><stop offset="1" stop-color="#000000"/></radialGradient><radialGradient cx="240" cy="180" r="256" gradientUnits="userSpaceOnUse" id="color-10"><stop offset="0" stop-color="#000000"/><stop offset="0.5" stop-color="#000000"/><stop offset="1" stop-color="#000000"/></radialGradient><radialGradient cx="240" cy="180" r="256" gradientUnits="userSpaceOnUse" id="color-11"><stop offset="0" stop-color="#000000"/><stop offset="0.5" stop-color="#000000"/><stop offset="1" stop-color="#000000"/></radialGradient><radialGradient cx="240" cy="180" r="256" gradientUnits="userSpaceOnUse" id="color-12"><stop offset="0" stop-color="#000000"/><stop offset="0.5" stop-color="#000000"/><stop offset="1" stop-color="#000000"/></radialGradient><radialGradient cx="240" cy="180" r="256" gradientUnits="userSpaceOnUse" id="color-13"><stop offset="0" stop-color="#000000"/><stop offset="0.5" stop-color="#000000"/><stop offset="1" stop-color="#000000"/></radialGradient><radialGradient cx="240" cy="180" r="256" gradientUnits="userSpaceOnUse" id="color-14"><stop offset="0" stop-color="#000000"/><stop offset="0.5" stop-color="#000000"/><stop offset="1" stop-color="#000000"/></radialGradient><radialGradient cx="240" cy="180" r="256" gradientUnits="userSpaceOnUse" id="color-15"><stop offset="0" stop-color="#000000"/><stop offset="0.5" stop-color="#000000"/><stop offset="1" stop-color="#000000"/></radialGradient><radialGradient cx="244.05099" cy="164.05099" r="0" fx="244.05099" fy="164.05099" gradientUnits="userSpaceOnUse" id="color-16"><stop offset="0" stop-color="#67ffff"/><stop offset="0.5" stop-color="#34ff80"/><stop offset="1" stop-color="#01ff00"/></radialGradient><radialGradient cx="231.05099" cy="181.05099" r="0" fx="231.05099" fy="181.05099" gradientUnits="userSpaceOnUse" id="color-17"><stop offset="0" stop-color="#67afff"/><stop offset="0.5" stop-color="#346fff"/><stop offset="1" stop-color="#0030ff"/></radialGradient><radialGradient cx="270.05099" cy="133.05099" r="0" fx="270.05099" fy="133.05099" gradientUnits="userSpaceOnUse" id="color-18"><stop offset="0" stop-color="#f58fff"/><stop offset="0.5" stop-color="#db48ff"/><stop offset="1" stop-color="#c200ff"/></radialGradient><linearGradient x1="203.28029" y1="218.00196" x2="241.00802" y2="179.897" gradientUnits="userSpaceOnUse" id="color-19"><stop offset="0" stop-color="#cc6efd"/><stop offset="0.5" stop-color="#de67fe"/><stop offset="1" stop-color="#f160ff"/></linearGradient><linearGradient x1="203.28029" y1="218.00196" x2="241.00802" y2="179.897" gradientUnits="userSpaceOnUse" id="color-20"><stop offset="0" stop-color="#41e9ff"/><stop offset="0.5" stop-color="#5ee9ff"/><stop offset="1" stop-color="#7be9ff"/></linearGradient><linearGradient x1="228.45996" y1="194.86394" x2="248.44156" y2="175.76671" gradientUnits="userSpaceOnUse" id="color-21"><stop offset="0" stop-color="#6001a0"/><stop offset="0.5" stop-color="#4a008a"/><stop offset="1" stop-color="#350075"/></linearGradient><radialGradient cx="268.25806" cy="186.39428" r="17.38958" fx="268.25806" fy="186.39428" gradientUnits="userSpaceOnUse" id="color-22"><stop offset="0" stop-color="#67ffff"/><stop offset="0.5" stop-color="#34ff80"/><stop offset="1" stop-color="#01ff00"/></radialGradient><radialGradient cx="213.91819" cy="133.34822" r="17.38958" fx="213.91819" fy="133.34822" gradientUnits="userSpaceOnUse" id="color-23"><stop offset="0" stop-color="#67afff"/><stop offset="0.5" stop-color="#346fff"/><stop offset="1" stop-color="#0030ff"/></radialGradient><radialGradient cx="276.0209" cy="133.77948" r="17.38958" fx="276.0209" fy="133.77948" gradientUnits="userSpaceOnUse" id="color-24"><stop offset="0" stop-color="#f58fff"/><stop offset="0.5" stop-color="#db48ff"/><stop offset="1" stop-color="#c200ff"/></radialGradient></defs><g transform="translate(-189.33745,-129.96534)"><g data-paper-data="{&quot;isPaintingLayer&quot;:true}" fill-rule="nonzero" stroke-linecap="butt" stroke-linejoin="miter" stroke-dasharray="" stroke-dashoffset="0" style="mix-blend-mode: normal"><path d="" fill="url(#color-1)" stroke="none" stroke-width="1" stroke-miterlimit="10"/><path d="" fill="url(#color-2)" stroke="none" stroke-width="1" stroke-miterlimit="10"/><path d="" fill="url(#color-3)" stroke="none" stroke-width="1" stroke-miterlimit="10"/><path d="" fill="url(#color-4)" stroke="none" stroke-width="1" stroke-miterlimit="10"/><path d="" fill="url(#color-5)" stroke="none" stroke-width="1" stroke-miterlimit="10"/><path d="" fill="url(#color-6)" stroke="none" stroke-width="1" stroke-miterlimit="10"/><path d="" fill="url(#color-7)" stroke="none" stroke-width="1" stroke-miterlimit="10"/><path d="" fill="url(#color-8)" stroke="none" stroke-width="1" stroke-miterlimit="10"/><path d="" fill="url(#color-9)" stroke="none" stroke-width="1" stroke-miterlimit="10"/><path d="" fill="url(#color-10)" stroke="none" stroke-width="1" stroke-miterlimit="10"/><path d="" fill="url(#color-11)" stroke="none" stroke-width="1" stroke-miterlimit="10"/><path d="" fill="url(#color-12)" stroke="none" stroke-width="1" stroke-miterlimit="10"/><path d="" fill="url(#color-13)" stroke="none" stroke-width="1" stroke-miterlimit="10"/><path d="" fill="url(#color-14)" stroke="none" stroke-width="1" stroke-miterlimit="10"/><path d="" fill="url(#color-15)" stroke="none" stroke-width="1" stroke-miterlimit="10"/><path d="" fill-opacity="0" fill="#000000" stroke="none" stroke-width="1" stroke-miterlimit="4"/><path d="" fill-opacity="0" fill="#000000" stroke="none" stroke-width="1" stroke-miterlimit="4"/><path d="" fill-opacity="0" fill="#000000" stroke="none" stroke-width="1" stroke-miterlimit="4"/><path d="" fill-opacity="0" fill="#000000" stroke="none" stroke-width="1" stroke-miterlimit="4"/><path d="" fill-opacity="0" fill="#000000" stroke="none" stroke-width="1" stroke-miterlimit="4"/><path d="" fill-opacity="0" fill="#000000" stroke="none" stroke-width="1" stroke-miterlimit="4"/><path d="" fill-opacity="0" fill="#000000" stroke="none" stroke-width="1" stroke-miterlimit="4"/><path d="" fill="url(#color-16)" stroke="none" stroke-width="1" stroke-miterlimit="10"/><path d="" fill="url(#color-17)" stroke="none" stroke-width="1" stroke-miterlimit="10"/><path d="" fill="url(#color-18)" stroke="none" stroke-width="1" stroke-miterlimit="10"/><g stroke-width="5.5"><path d="M192.08745,222.44344c3.84043,-17.69567 21.68018,-60.54188 27.78855,-70.63263c4.68179,-7.73437 31.10842,19.51502 31.10842,19.51502c0,0 26.49493,26.70261 18.60001,31.10827c-8.2441,4.60052 -52.61493,22.74538 -69.70283,27.51043c-3.04633,0.84945 -8.44339,-4.50949 -7.79414,-7.50108z" fill="url(#color-19)" stroke="none" stroke-miterlimit="10"/><path d="M196.97813,205.97613c1.43069,-4.15758 3.05273,-8.58916 4.76657,-13.07075c2.78026,17.88885 10.32739,26.51399 16.37095,30.90318c-3.56383,1.31145 -6.9476,2.51541 -10.00765,3.55087c-5.30817,-3.62726 -10.91458,-15.05584 -11.12987,-21.38331zM209.08202,174.7041c1.91099,-4.50888 3.76998,-8.71937 5.45317,-12.35365c4.86857,19.11751 21.2566,44.56234 33.01056,49.91289c-3.99031,1.65163 -8.24151,3.37385 -12.5412,5.07656c-12.58206,-9.56455 -24.01064,-27.03089 -25.92254,-42.6358z" fill="url(#color-20)" stroke="none" stroke-miterlimit="10"/><path d="M192.08745,222.44344c3.84043,-17.69567 21.68018,-60.54188 27.78855,-70.63263c4.68179,-7.73437 31.10842,19.51502 31.10842,19.51502c0,0 26.49493,26.70261 18.60001,31.10827c-8.2441,4.60052 -52.61493,22.74538 -69.70283,27.51043c-3.04633,0.84945 -8.44339,-4.50949 -7.79414,-7.50108z" fill-opacity="0" fill="#000000" stroke="#9134e8" stroke-miterlimit="4"/><g><path d="M252.70007,169.36194c13.78739,13.78739 21.78966,28.13879 17.87376,32.05469c-3.9159,3.9159 -18.2673,-4.08637 -32.05469,-17.87376c-13.78739,-13.78739 -21.78966,-28.13879 -17.87376,-32.05469c3.9159,-3.9159 18.2673,4.08637 32.05469,17.87376z" fill="url(#color-21)" stroke="none" stroke-miterlimit="10"/><path d="M252.70007,169.36194c13.78739,13.78739 21.78966,28.13879 17.87376,32.05469c-3.9159,3.9159 -18.2673,-4.08637 -32.05469,-17.87376c-13.78739,-13.78739 -21.78966,-28.13879 -17.87376,-32.05469c3.9159,-3.9159 18.2673,4.08637 32.05469,17.87376z" fill-opacity="0" fill="#000000" stroke="#9134e8" stroke-miterlimit="4"/></g><path d="M271.11953,183.01141c4.40939,0 7.98947,3.58008 7.98947,7.98947c0,4.40939 -3.58008,7.98947 -7.98947,7.98947c-4.40939,0 -7.98947,-3.58008 -7.98947,-7.98947c0,-4.40939 3.58008,-7.98947 7.98947,-7.98947z" fill="url(#color-22)" stroke="none" stroke-miterlimit="10"/><path d="M216.77966,129.96534c4.40939,0 7.98947,3.58008 7.98947,7.98947c0,4.40939 -3.58008,7.98947 -7.98947,7.98947c-4.40939,0 -7.98947,-3.58008 -7.98947,-7.98947c0,-4.40939 3.58008,-7.98947 7.98947,-7.98947z" fill="url(#color-23)" stroke="none" stroke-miterlimit="10"/><path d="M278.88237,130.39661c4.40939,0 7.98947,3.58008 7.98947,7.98947c0,4.40939 -3.58008,7.98947 -7.98947,7.98947c-4.40939,0 -7.98947,-3.58008 -7.98947,-7.98947c0,-4.40939 3.58008,-7.98947 7.98947,-7.98947z" fill="url(#color-24)" stroke="none" stroke-miterlimit="10"/><path d="M241.12522,138.08872c0.49272,0.86017 1.19311,1.62804 2.16648,2.22707c5.10256,3.14007 2.26438,10.76275 -4.74396,10.35045c-7.33157,-0.43127 -9.48791,4.74396 -6.46903,10.78172" fill-opacity="0" fill="#000000" stroke="#5ea3ff" stroke-miterlimit="4"/><path d="M262.26903,140.34533c-1.37079,10.15099 -9.05449,21.63891 -19.40861,29.72801" fill-opacity="0" fill="#000000" stroke="#31ff77" stroke-miterlimit="4"/><path d="M250.62327,176.11111c12.07553,-16.38822 32.77643,-17.25075 36.65785,-6.9003c3.88142,10.35045 -9.91918,10.78172 -11.64426,3.01888c-0.10652,-0.47936 -0.18674,-0.97661 -0.24065,-1.48896" fill-opacity="0" fill="#000000" stroke="#f242ff" stroke-miterlimit="4"/><path d="M241.13535,181.28633" fill-opacity="0" fill="#000000" stroke="#5ea3ff" stroke-miterlimit="4"/><path d="M241.13535,181.28633" fill-opacity="0" fill="#000000" stroke="#5ea3ff" stroke-miterlimit="4"/><path d="M241.13535,181.28633" fill-opacity="0" fill="#000000" stroke="#31ff77" stroke-miterlimit="4"/><path d="M241.13535,181.28633" fill-opacity="0" fill="#000000" stroke="#f242ff" stroke-miterlimit="4"/></g></g></g></svg>