<svg version="1.1" xmlns="http://www.w3.org/2000/svg" xmlns:xlink="http://www.w3.org/1999/xlink" width="229.39397" height="193.52317" viewBox="0,0,229.39397,193.52317"><defs><linearGradient x1="238.23648" y1="218.34116" x2="238.23648" y2="234.42072" gradientUnits="userSpaceOnUse" id="color-1"><stop offset="0" stop-color="#fedd74"/><stop offset="1" stop-color="#f7b76a"/></linearGradient><linearGradient x1="238.23648" y1="218.34116" x2="238.23648" y2="234.42072" gradientUnits="userSpaceOnUse" id="color-2"><stop offset="0" stop-color="#fedd74"/><stop offset="1" stop-color="#f7b76a"/></linearGradient><linearGradient x1="236.00702" y1="112.65154" x2="236.00702" y2="163.07477" gradientUnits="userSpaceOnUse" id="color-3"><stop offset="0" stop-color="#d38643"/><stop offset="1" stop-color="#e68e53"/></linearGradient><linearGradient x1="240.34727" y1="162.26845" x2="240.34727" y2="169.49894" gradientUnits="userSpaceOnUse" id="color-4"><stop offset="0" stop-color="#fec794"/><stop offset="1" stop-color="#e9b787"/></linearGradient><linearGradient x1="201.16309" y1="139.98209" x2="201.16309" y2="152.39685" gradientUnits="userSpaceOnUse" id="color-5"><stop offset="0" stop-color="#c27c3e"/><stop offset="1" stop-color="#cc7e4a"/></linearGradient></defs><g transform="translate(-126.46971,-83.8808)"><g data-paper-data="{&quot;isPaintingLayer&quot;:true}" fill-rule="nonzero" stroke-linejoin="miter" stroke-miterlimit="10" stroke-dasharray="" stroke-dashoffset="0" style="mix-blend-mode: normal"><path d="M319.86609,227.62121c-40.74361,57.91802 -98.31563,54.51909 -132.89,31.31307c-34.57438,-23.20601 -39.05852,-80.43142 -6.3149,-125.34946c32.74361,-44.91802 90.31563,-60.51909 124.89,-37.31307c34.57438,23.20601 47.05852,86.43142 14.3149,131.34946z" fill="#fff5ad" stroke="#ccc48a" stroke-width="2" stroke-linecap="butt"/><path d="M253.15789,259.66132c0,0 4.29583,-6.62851 2.65065,-19.50438c-0.94944,-7.43073 -5.15073,-15.08288 -5.87416,-19.15496c-1.02153,-5.75006 3.69043,-14.79345 3.69043,-14.79345c0,0 3.9731,0.37078 4.63905,3.424c0.85304,3.91103 5.90654,15.93789 7.37117,27.03261c1.89985,14.39161 -2.18441,28.95111 -2.18441,28.95111z" data-paper-data="{&quot;index&quot;:null}" fill="#a9b893" stroke="#7e896d" stroke-width="2" stroke-linecap="butt"/><path d="M226.89261,273.16999c0.58539,-9.01866 1.03233,-15.77067 1.03233,-15.77067h10.84568c0,0 -0.21895,7.03463 -0.46501,16.28389c-0.01094,0.41143 -11.44609,-0.00328 -11.41299,-0.51322z" fill="#526994" stroke="#2c3951" stroke-width="2" stroke-linecap="butt"/><path d="M248.31579,205.26574c0,2.77691 -3.48586,2.30096 -12.04703,2.30096c-8.56117,0 -10.6653,0.70318 -10.6653,-2.07371c0,-2.77691 2.10412,-7.98235 10.6653,-7.98235c8.56118,0 12.04703,4.97819 12.04703,7.7551z" fill="#666f59" stroke="#545a48" stroke-width="2" stroke-linecap="butt"/><path d="M232.04079,219.93721v-29.9366h10.6554v29.9366z" fill="#e1b082" stroke="#ac8664" stroke-width="2" stroke-linecap="butt"/><path d="M214.91785,184.27845c-17.80089,-15.40257 -10.46513,-55.24318 -10.46513,-55.24318c0,0 20.56506,-8.03383 34.32153,-8.03383c13.75647,0 33.2261,8.03383 33.2261,8.03383c0,0 8.42582,41.26008 -7.92812,55.24318c-16.35394,13.9831 -31.35349,15.40257 -49.15439,0z" fill="#fec794" stroke="#c0966f" stroke-width="2" stroke-linecap="butt"/><path d="" fill="#6f9f54" stroke="none" stroke-width="2" stroke-linecap="butt"/><path d="M240.27438,273.67582c-0.25563,-9.69095 -0.48896,-17.18782 -0.48896,-17.18782h10.84568c0,0 0.46052,6.95718 1.05891,16.18021c0.05111,0.78776 -11.38702,2.09226 -11.41563,1.00761z" fill="#526994" stroke="#2c3951" stroke-width="2" stroke-linecap="butt"/><path d="M213.14441,264.28292c0,0 -4.08425,-14.5595 -2.1844,-28.95111c1.46463,-11.09472 6.51813,-23.12158 7.37117,-27.03261c0.66594,-3.05322 4.63905,-3.424 4.63905,-3.424c0,0 4.71196,9.04339 3.69043,14.79345c-0.72343,4.07208 -4.92472,11.72422 -5.87416,19.15496c-1.64518,12.87587 2.65065,19.50438 2.65065,19.50438z" data-paper-data="{&quot;index&quot;:null}" fill="#a9b893" stroke="#7e896d" stroke-width="2" stroke-linecap="butt"/><path d="M225.82968,255.72795c0,0 -5.0717,-44.33539 -5.66687,-49.53824c-0.1113,-0.97294 5.24101,-3.31561 5.71368,-3.31561c1.51491,0 5.35773,5.86079 10.51597,5.88757c4.29415,0.02229 9.83702,-5.78861 12.58114,-5.78861c0.2901,0 7.67205,3.93984 7.59552,4.84778c-0.56389,6.68993 -4.0381,47.90712 -4.0381,47.90712c0,0 -9.77303,6.0962 -18.9048,5.62725c-4.92119,-0.25272 -7.79655,-5.62725 -7.79655,-5.62725z" fill="#a9b893" stroke="#838e72" stroke-width="2" stroke-linecap="butt"/><path d="M227.20124,203.24739c0,-0.62864 3.97045,2.25537 9.47654,2.25537c9.69389,0 9.66264,-4.47943 9.66264,-3.02425c0,1.45517 0.03126,6.64222 -9.66264,6.64222c-9.69389,0 -9.47654,-4.41817 -9.47654,-5.87334z" data-paper-data="{&quot;index&quot;:null}" fill="#899577" stroke="#626a55" stroke-width="2" stroke-linecap="butt"/><g stroke-width="2" stroke-linecap="butt"><path d="M243.4112,230.00357c-0.63382,1.75626 -2.35673,2.82375 -5.11965,3.17304c-0.12559,0.0157 -0.24921,0.02552 -0.37284,0.02944c-0.16091,0.23548 -0.37087,0.43956 -0.61812,0.59851c-0.64756,0.41404 -1.25392,0.61616 -1.85242,0.61616c-1.23037,0 -2.55492,-0.91836 -2.55492,-2.93561c0,-0.13736 0.00588,-0.31593 0.01962,-0.56319c0.00589,-0.10597 0.01177,-0.18838 0.01373,-0.24921c-0.03336,-0.15305 -0.05102,-0.30808 -0.05102,-0.46506v-0.94975c0,-0.15502 0.0157,-0.31004 0.04709,-0.46507c0.00197,-0.13147 0.00785,-0.27865 0.01766,-0.43956c-0.0471,-0.17269 -0.08242,-0.37284 -0.08242,-0.59654c0,-0.10204 0.00785,-0.20408 0.02159,-0.30416c0.07458,-0.52589 0.30808,-1.05375 0.70251,-1.47565c-0.1354,-0.37873 -0.20605,-0.77904 -0.20605,-1.18916v-1.00078c0,-0.4062 0.08046,-0.91248 0.47488,-2.17227c0.16483,-0.5416 0.21782,-0.71035 0.29042,-0.86735c0.38657,-0.86734 0.96939,-1.30101 1.39324,-1.5149c0.69269,-0.34536 1.43641,-0.52198 2.20956,-0.52198c0.35714,0 0.69858,0.03729 1.02433,0.10793c0.14521,-0.09812 0.30023,-0.18053 0.46507,-0.24921c0.20997,-0.09026 0.43367,-0.15307 0.68092,-0.19231c0.61812,-0.10597 1.27157,0.02552 1.84064,0.37088c0.5985,0.36498 1.28531,1.12244 1.20094,2.68051c-0.01374,0.27472 -0.03728,0.64167 -0.07261,1.12047c-0.00197,0.01178 -0.00196,0.02355 -0.00393,0.03533c-0.0314,0.34733 -0.07653,0.86538 -0.13736,1.55022c0.0157,0.26491 0.00981,0.56123 -0.01374,0.91052c-0.00981,0.13343 -0.03139,0.26687 -0.06671,0.39639c-0.00785,0.02943 -0.0157,0.05691 -0.02355,0.08242c0.26491,0.33948 0.44544,0.67896 0.56907,0.97331c0.11578,0.23352 0.21389,0.50235 0.30023,0.83005c0.03336,0.12363 0.05495,0.24921 0.06476,0.37676c0.0883,1.10085 0.04316,1.75038 -0.16092,2.29983z" fill="url(#color-1)" stroke="#ffffff"/><path d="M243.4112,230.00357c-0.63382,1.75626 -2.35673,2.82375 -5.11965,3.17304c-0.12559,0.0157 -0.24921,0.02552 -0.37284,0.02944c-0.16091,0.23548 -0.37087,0.43956 -0.61812,0.59851c-0.64756,0.41404 -1.25392,0.61616 -1.85242,0.61616c-1.23037,0 -2.55492,-0.91836 -2.55492,-2.93561c0,-0.13736 0.00588,-0.31593 0.01962,-0.56319c0.00589,-0.10597 0.01177,-0.18838 0.01373,-0.24921c-0.03336,-0.15305 -0.05102,-0.30808 -0.05102,-0.46506v-0.94975c0,-0.15502 0.0157,-0.31004 0.04709,-0.46507c0.00197,-0.13147 0.00785,-0.27865 0.01766,-0.43956c-0.0471,-0.17269 -0.08242,-0.37284 -0.08242,-0.59654c0,-0.10204 0.00785,-0.20408 0.02159,-0.30416c0.07458,-0.52589 0.30808,-1.05375 0.70251,-1.47565c-0.1354,-0.37873 -0.20605,-0.77904 -0.20605,-1.18916v-1.00078c0,-0.4062 0.08046,-0.91248 0.47488,-2.17227c0.16483,-0.5416 0.21782,-0.71035 0.29042,-0.86735c0.38657,-0.86734 0.96939,-1.30101 1.39324,-1.5149c0.69269,-0.34536 1.43641,-0.52198 2.20956,-0.52198c0.35714,0 0.69858,0.03729 1.02433,0.10793c0.14521,-0.09812 0.30023,-0.18053 0.46507,-0.24921c0.20997,-0.09026 0.43367,-0.15307 0.68092,-0.19231c0.61812,-0.10597 1.27157,0.02552 1.84064,0.37088c0.5985,0.36498 1.28531,1.12244 1.20094,2.68051c-0.01374,0.27472 -0.03728,0.64167 -0.07261,1.12047c-0.00197,0.01178 -0.00196,0.02355 -0.00393,0.03533c-0.0314,0.34733 -0.07653,0.86538 -0.13736,1.55022c0.0157,0.26491 0.00981,0.56123 -0.01374,0.91052c-0.00981,0.13343 -0.03139,0.26687 -0.06671,0.39639c-0.00785,0.02943 -0.0157,0.05691 -0.02355,0.08242c0.26491,0.33948 0.44544,0.67896 0.56907,0.97331c0.11578,0.23352 0.21389,0.50235 0.30023,0.83005c0.03336,0.12363 0.05495,0.24921 0.06476,0.37676c0.0883,1.10085 0.04316,1.75038 -0.16092,2.29983z" fill="url(#color-2)" stroke="none"/><path d="M241.42064,227.87722c0.05749,0.71369 0.04572,1.17366 -0.03454,1.38087c-0.33399,0.94368 -1.45603,1.53609 -3.36574,1.77785c-0.64461,0.08066 -1.28884,-0.22429 -1.93346,-0.91483c0,0.10361 0.02295,0.41424 0.06927,0.93229c0.03454,0.37971 0.02865,0.69034 -0.01727,0.9319c-0.28787,0.18407 -0.51785,0.2763 -0.69054,0.2763c-0.26491,0 -0.39697,-0.25883 -0.39697,-0.77688c0,-0.09203 0.00569,-0.23862 0.01727,-0.43994c0.01138,-0.20113 0.01727,-0.34222 0.01727,-0.42288c0,-0.19564 -0.01727,-0.33359 -0.05181,-0.41424v-0.94937c0,-0.02296 0.0057,-0.04886 0.01727,-0.07771c0.01138,-0.02865 0.02295,-0.05455 0.03454,-0.07771c-0.01157,-0.16091 -0.00589,-0.40835 0.01727,-0.74214c0.02296,-0.20721 0.02296,-0.33928 0,-0.39697c-0.05769,-0.11479 -0.08614,-0.18387 -0.08614,-0.20703c0.04572,-0.32221 0.28198,-0.48331 0.7076,-0.48331c0.27609,0 0.44289,0.09792 0.50059,0.29336c0,0.18407 0.02296,0.45467 0.06907,0.81122c0.06927,0.41424 0.28768,0.82868 0.656,1.24272c0.40267,0.47194 0.78806,0.69054 1.15658,0.656c0.41424,-0.04572 0.82849,-0.14364 1.24273,-0.29336c0.57534,-0.20721 0.92051,-0.44878 1.0357,-0.72488c0.08026,-0.20721 0.12068,-0.42562 0.12068,-0.656c0,-0.70172 -0.25883,-1.22546 -0.77668,-1.57063c-0.23038,-0.14953 -0.656,-0.2704 -1.27746,-0.36263c-0.35674,-0.04572 -0.57554,-0.06908 -0.6558,-0.06908c-0.55239,0.01157 -1.0675,-0.1668 -1.54493,-0.53512c-0.47763,-0.36813 -0.71624,-0.79414 -0.71624,-1.27746v-1.00097c0,-0.2184 0.12658,-0.73056 0.37991,-1.5361c0.11479,-0.37991 0.17817,-0.58104 0.18995,-0.60419c0.10341,-0.24156 0.23568,-0.40267 0.39678,-0.48332c0.39109,-0.19545 0.80532,-0.29337 1.24273,-0.29337c0.85145,0 1.4786,0.34518 1.88146,1.03551c0.03454,0.03454 0.09203,0.08634 0.17267,0.15542c0.01138,-0.16091 0.03454,-0.40835 0.06908,-0.74214c-0.01157,-0.14953 -0.02316,-0.29337 -0.03454,-0.43151c0,-0.16091 0.08026,-0.27022 0.24156,-0.32791c0.04592,-0.02296 0.1093,-0.04022 0.18995,-0.05181c0.11499,-0.02296 0.23881,0.00588 0.37126,0.08614c0.13206,0.08066 0.18681,0.32241 0.16385,0.72488c-0.01157,0.25313 -0.03454,0.60988 -0.06908,1.07004c-0.03454,0.37991 -0.08614,0.96094 -0.15542,1.7435c0.02296,0.18407 0.02296,0.4374 0,0.75941c-0.05769,0.2186 -0.23038,0.3279 -0.51785,0.3279c-0.14972,0 -0.29337,-0.04023 -0.43151,-0.12068c-0.06907,-0.2184 -0.10341,-0.31082 -0.10341,-0.2763c0.02276,-0.31063 -0.04042,-0.72488 -0.18995,-1.24273c-0.12677,-0.26452 -0.302,-0.64128 -0.52649,-1.13048c-0.22448,-0.489 -0.52079,-0.75098 -0.88893,-0.78552c-0.46036,-0.03454 -0.75942,0.12088 -0.89756,0.46605c-0.04592,0.14972 -0.10949,0.36852 -0.18975,0.656c-0.13815,0.42582 -0.22449,0.83437 -0.25903,1.22546c-0.01157,0.12677 -0.02316,0.17857 -0.03454,0.15542c0.03454,0.23038 0.07477,0.46036 0.12088,0.69054c0.05749,0.28768 0.19859,0.50647 0.42288,0.6558c0.22448,0.14972 0.65285,0.24156 1.2859,0.27609c1.55336,0.09242 2.51411,0.63324 2.88243,1.62264c0.05731,0.09223 0.1148,0.24745 0.17249,0.46586z" fill="#ffffff" stroke="none"/></g><path d="M273.72954,125.40771c0,0.31003 4.0784,10.32793 -1.67248,10.62682c-5.02062,0.26093 -10.54792,-3.32198 -16.6514,-2.33742c-0.3588,0.05788 -0.69615,0.11105 -1.01511,0.16011c-5.10699,0.78542 -5.50039,0.51359 -13.71434,1.54278c-2.6718,0.33477 -5.21418,-0.77395 -7.8226,-0.07713c-5.79645,1.54846 -11.51763,2.81453 -16.63255,4.7187c-1.91945,0.71456 -8.15574,2.56583 -8.72618,4.2673c-2.22268,6.62956 3.41228,18.15961 -2.28991,18.73768c-9.09386,0.92191 -11.3059,-23.14491 -4.12373,-35.23018c1.03738,-1.74558 7.74161,-4.32276 15.40063,-6.57019c8.77822,-2.57585 18.81067,-4.71854 23.00303,-4.67956c10.77024,0.10013 21.18895,2.7002 23.70678,3.52742c8.2165,2.69951 10.53787,3.85436 10.53787,5.31367z" fill="url(#color-3)" stroke="#a46636" stroke-width="2" stroke-linecap="butt"/><path d="M244.66191,168.4871c0,1.99664 -2.318,1.01185 -4.31464,1.01185c-1.99664,0 -4.23692,0.94593 -4.23692,-1.05071c0,-0.95664 2.5978,-6.78681 4.32694,-6.82674c0.14275,-0.0033 4.22462,5.90458 4.22462,6.8656z" fill="url(#color-4)" stroke="#d0a278" stroke-width="1.5" stroke-linecap="butt"/><path d="M228.02485,153.93714c3.23078,0 5.84983,1.68628 5.84983,3.7664c0,2.08013 -2.61906,3.76641 -5.84983,3.76641c-3.23078,0 -7.23132,-3.06777 -7.23132,-5.1479c0,-2.08013 4.00054,-2.38492 7.23132,-2.38492z" data-paper-data="{&quot;index&quot;:null}" fill="#ffffff" stroke="#000000" stroke-width="1" stroke-linecap="butt"/><path d="M231.17215,159.00376c0,1.54954 -1.26148,2.80568 -2.8176,2.80568c-1.55612,0 -2.81759,-1.25614 -2.81759,-2.80568c0,-1.54954 1.26148,-2.80567 2.81759,-2.80567c1.55612,0 2.8176,1.25614 2.8176,2.80567z" fill="#000000" stroke="none" stroke-width="2" stroke-linecap="butt"/><path d="M261.27477,156.31984c0,2.08013 -4.00054,5.1479 -7.23132,5.1479c-3.23077,0 -5.84984,-1.68628 -5.84984,-3.7664c0,-2.08013 2.61907,-3.76641 5.84984,-3.76641c3.23077,0 7.23132,0.30479 7.23132,2.38492z" data-paper-data="{&quot;index&quot;:null}" fill="#ffffff" stroke="#000000" stroke-width="1" stroke-linecap="butt"/><path d="M200.53732,161.33972c0,0 -2.25853,-9.50602 -2.25922,-9.51186c-0.20609,-1.75942 -0.55013,-7.50652 0.01867,-12.18372c0.43974,-3.61597 1.80783,-6.59247 1.80783,-6.59247l6.82462,10.56538c0,0 -0.32369,3.72705 -0.35829,7.79396c-0.03808,4.47613 0.19502,9.36395 -0.22805,10.1475c-0.80205,1.48544 -5.80555,-0.21878 -5.80555,-0.21878z" fill="url(#color-5)" stroke="none" stroke-width="2" stroke-linecap="butt"/><g stroke-width="2"><path d="" fill="#1fa2de" stroke="#0067db" stroke-linecap="butt"/><path d="" fill="#f0f0f0" stroke="#bcbcbc" stroke-linecap="butt"/><path d="" fill="none" stroke="#bcbcbc" stroke-linecap="round"/><path d="" fill="none" stroke="#bcbcbc" stroke-linecap="round"/><g fill="none" stroke="#d3d3d3" stroke-linecap="round"><path d=""/><path d=""/><path d=""/></g><path d="" fill="#f0f0f0" stroke="#bcbcbc" stroke-linecap="butt"/></g><g stroke-width="2"><path d="" fill="#1fa2de" stroke="#0067db" stroke-linecap="butt"/><path d="" fill="#f0f0f0" stroke="#bcbcbc" stroke-linecap="butt"/><path d="" fill="none" stroke="#bcbcbc" stroke-linecap="round"/><path d="" fill="none" stroke="#bcbcbc" stroke-linecap="round"/><g fill="none" stroke="#d3d3d3" stroke-linecap="round"><path d=""/><path d=""/><path d=""/></g><path d="" fill="#f0f0f0" stroke="#bcbcbc" stroke-linecap="butt"/></g><path d="M232.0838,151.92223l-11.48398,0.4276" fill="none" stroke="#c0966f" stroke-width="2" stroke-linecap="round"/><path d="M248.37919,151.62566l11.49141,0.11002" data-paper-data="{&quot;index&quot;:null}" fill="none" stroke="#c0966f" stroke-width="2" stroke-linecap="round"/><path d="M237.77523,179.1745c-2.13023,-0.35465 -3.93581,-1.11119 -4.01333,-1.13945c-1.09267,-0.39825 0.63425,-0.37778 0.63425,-0.37778c2.78736,1.20547 7.10493,2.26253 9.93951,1.01292c0.61649,-0.30458 1.02215,-0.68821 1.77127,-0.76356c0.43694,-0.04395 -1.13006,1.07658 -3.39205,1.48926c-1.61615,0.29485 -3.77955,-0.02825 -4.93964,-0.22139z" fill="#c0966f" stroke="#c0966f" stroke-width="1" stroke-linecap="butt"/><path d="M319.95786,227.86246c-40.74361,57.91802 -98.31563,54.51909 -132.89,31.31307c-34.57438,-23.20601 -39.05852,-80.43142 -6.3149,-125.34946c32.74361,-44.91802 90.31563,-60.51909 124.89,-37.31307c34.57438,23.20601 47.05852,86.43142 14.3149,131.34946z" fill="none" stroke="#ccc48a" stroke-width="2.5" stroke-linecap="butt"/><path d="M354.86369,110.69191c0,14.25508 -11.81867,25.81111 -26.39773,25.81111c-14.57906,0 -26.39773,-11.55603 -26.39773,-25.81111c0,-14.25508 11.81867,-25.81111 26.39773,-25.81111c14.57906,0 26.39773,11.55603 26.39773,25.81111z" fill="#ffadad" stroke="#cc8b8b" stroke-width="2" stroke-linecap="butt"/><path d="M160.19699,167.83634c0,8.83655 -7.32625,16 -16.36364,16c-9.03739,0 -16.36364,-7.16345 -16.36364,-16c0,-8.83655 7.32625,-16 16.36364,-16c9.03739,0 16.36364,7.16345 16.36364,16z" fill="#adffc8" stroke="#8fcc8b" stroke-width="2" stroke-linecap="butt"/><path d="M256.35436,158.76164c0,1.54954 -1.26148,2.80568 -2.81759,2.80568c-1.55612,0 -2.8176,-1.25614 -2.8176,-2.80568c0,-1.54954 1.26148,-2.80567 2.8176,-2.80567c1.55612,0 2.81759,1.25614 2.81759,2.80567z" fill="#000000" stroke="none" stroke-width="2" stroke-linecap="butt"/><path d="M228.72567,158.0796c0,0.48894 -0.36334,0.88531 -0.81153,0.88531c-0.44819,0 -0.81152,-0.39637 -0.81152,-0.88531c0,-0.48894 0.36333,-0.8853 0.81152,-0.8853c0.44819,0 0.81153,0.39636 0.81153,0.8853z" fill="#ffffff" stroke="none" stroke-width="0" stroke-linecap="butt"/><path d="M229.5372,158.97573c0,0.19677 -0.15951,0.35628 -0.35628,0.35628c-0.19677,0 -0.35628,-0.15951 -0.35628,-0.35628c0,-0.19677 0.15951,-0.35628 0.35628,-0.35628c0.19677,0 0.35628,0.15951 0.35628,0.35628z" fill="#ffffff" stroke="none" stroke-width="0" stroke-linecap="butt"/><path d="M253.91493,157.53748c0,0.48894 -0.36334,0.8853 -0.81153,0.8853c-0.44819,0 -0.81152,-0.39636 -0.81152,-0.8853c0,-0.48894 0.36333,-0.88531 0.81152,-0.88531c0.44819,0 0.81153,0.39637 0.81153,0.88531z" fill="#ffffff" stroke="none" stroke-width="0" stroke-linecap="butt"/><path d="M252.19291,158.75027c0,0.19677 -0.15951,0.35628 -0.35628,0.35628c-0.19677,0 -0.35628,-0.15951 -0.35628,-0.35628c0,-0.19677 0.15951,-0.35628 0.35628,-0.35628c0.19677,0 0.35628,0.15951 0.35628,0.35628z" fill="#ffffff" stroke="none" stroke-width="0" stroke-linecap="butt"/><path d="M198.19703,228.74744c0,13.48802 -11.1827,24.42222 -24.97727,24.42222c-13.79457,0 -24.97727,-10.93421 -24.97727,-24.42222c0,-13.48802 11.1827,-24.42222 24.97727,-24.42222c13.79457,0 24.97727,10.93421 24.97727,24.42222z" fill="#adc7ff" stroke="#8ba9cc" stroke-width="2" stroke-linecap="butt"/><path d="M172.95006,253.21669c0,0 -6.15712,3.78307 -5.33333,7.66667c0.82379,3.8836 8.6424,-2.10291 7.66667,3.33333c-0.97573,5.43624 -9.44027,5.98842 -10,9.66667c-0.14804,0.9728 0.25764,1.69703 0.9506,2.27061" fill="none" stroke="#8ba9cc" stroke-width="2.5" stroke-linecap="round"/><path d="M141.45711,207.21669c0,0 2.91447,-1.8598 2.25938,-3.26355c-0.65509,-1.40375 -6.19553,-1.49753 -5.77398,-4.26772c0.42155,-2.77019 6.79642,-3.18604 7.53127,-7.28022c0.73485,-4.09418 -5.15356,0.41442 -5.77398,-2.51042c-0.62042,-2.92485 4.01667,-5.77398 4.01667,-5.77398" fill="none" stroke="#8fcc8b" stroke-width="2.5" stroke-linecap="round"/><path d="M329.33842,169.9899c0,0 4.18982,-2.67362 3.24807,-4.69164c-0.94175,-2.01802 -8.90663,-2.15283 -8.30061,-6.13523c0.60602,-3.9824 9.77046,-4.58024 10.82688,-10.46599c1.05642,-5.88575 -7.4087,0.59578 -8.30061,-3.60896c-0.89191,-4.20473 5.77433,-8.3006 5.77433,-8.3006" fill="none" stroke="#cc8b8b" stroke-width="2.75" stroke-linecap="round"/><g fill="none" stroke="#8ba9cc" stroke-width="1.75" stroke-linecap="round"><path d="M173.52184,229.96134c-1.0475,3.07791 -5.73213,4.92027 -6.3359,4.03898c-0.30336,-0.4428 2.99152,-10.04394 3.2195,-10.74525c0.05113,-0.15728 4.32886,3.14367 3.1164,6.70627z"/><path d="M162.8795,227.69953l1.97838,0.38728"/><path d="M173.26287,235.93821c0,0 6.0319,-8.00197 7.09198,-9.40829c0.12856,-0.17055 0.55391,-0.28443 0.51376,0.23865c-0.13132,1.71081 -0.84121,10.95926 -0.84121,10.95926"/><path d="M176.35404,232.10699l3.90742,0.99401"/><path d="M158.40713,221.24454c0.03852,-0.1692 0.13415,-0.21457 0.25642,-0.12771c0.60398,0.42906 2.3805,1.81137 2.17518,3.09467c-0.24689,1.54309 -3.18931,2.18938 -3.29454,2.30558c-0.23023,0.25423 3.36517,1.06949 2.98221,3.08345c-0.38297,2.01396 -3.45898,3.21632 -4.15064,2.40218c-0.31495,-0.37073 1.65873,-9.12155 2.03136,-10.75817z" data-paper-data="{&quot;index&quot;:null}"/><path d="M185.06589,228.16628l1.70319,6.31612c0,0 3.96329,-3.93391 4.63108,-4.59696c0.25018,-0.2484 -8.18546,8.28792 -8.18546,8.28792"/></g><g fill="none" stroke="#cc8b8b" stroke-width="2" stroke-linecap="round"><path d="M329.58565,111.1492c0.85415,3.48854 -2.41271,7.98852 -3.49873,7.52682c-0.54566,-0.23198 -3.18461,-11.13027 -3.38919,-11.91878c-0.04588,-0.17684 5.89927,0.35408 6.88792,4.39197z"/><path d="M318.33198,115.36896l2.07231,-0.81534"/><path d="M332.89716,116.86833c0,0 0.86008,-11.03614 1.01123,-12.9757c0.01833,-0.23521 0.34668,-0.59408 0.62022,-0.08316c0.89462,1.67102 5.73087,10.70441 5.73087,10.70441"/><path d="M337.72728,110.0666l-4.22911,1.39701"/><path d="M310.33081,112.01695c-0.0647,-0.18044 -0.00263,-0.27953 0.16284,-0.27133c0.81742,0.0405 3.29321,0.27164 3.86482,1.58859c0.68732,1.58354 -1.66827,3.93428 -1.69718,4.10503c-0.06325,0.37357 3.76908,-1.00443 4.60959,1.09845c0.84051,2.10288 -1.30895,5.05079 -2.43689,4.70384c-0.51362,-0.15798 -3.87733,-9.4792 -4.50317,-11.22457z" data-paper-data="{&quot;index&quot;:null}"/><path d="M339.26761,102.61605l5.34015,4.8687c0,0 1.352,-6.0187 1.57968,-7.03302c0.08529,-0.37999 -2.69533,12.58245 -2.69533,12.58245"/></g><path d="M219.56173,258.5229c0.47978,0.03992 5.7898,-3.16084 6.90284,-2.65855c1.55757,0.7029 -2.66804,2.99575 -2.19933,3.18704c0.15275,0.06234 3.41356,-0.81709 5.40564,-0.85626c1.57384,-0.03094 2.77245,0.35482 2.79999,0.63305c0.10756,1.08636 -7.79785,1.64747 -7.59114,1.91638c0.38106,0.49572 9.4759,-0.11955 9.83629,1.52573c0.38185,1.74325 -9.17508,0.71461 -9.22769,1.01615c-0.09719,0.55711 8.84508,1.02101 7.81402,3.0697c-0.70096,1.39279 -8.94736,-0.73257 -9.34535,-0.41657c-0.56389,0.44774 5.18935,-1.14535 3.74804,0.46937c-0.84674,0.94862 -6.79901,0.60831 -7.31472,0.60755c-0.50956,-0.00074 -1.05666,-0.04666 -1.64123,-0.14268c-1.51916,-0.2495 -3.48353,-0.52351 -4.67965,-1.09511c-0.16699,-0.07979 -0.30225,0.04324 -0.45454,-0.0433c-1.67841,-0.95376 -2.5811,-1.83859 -2.32911,-3.28292c0.26818,-1.53717 1.46257,-2.27566 3.52404,-2.94031c1.31012,-0.4224 3.14629,-1.12288 4.7519,-0.98928z" data-paper-data="{&quot;index&quot;:null}" fill="#fec794" stroke="#c0966f" stroke-width="1.5" stroke-linecap="butt"/><path d="M255.07614,258.85622c1.60561,-0.1336 3.44178,0.56688 4.7519,0.98928c2.06147,0.66465 3.25586,1.40314 3.52404,2.94031c0.25199,1.44433 -0.6507,2.32916 -2.32911,3.28292c-0.15229,0.08654 -0.28755,-0.03649 -0.45454,0.0433c-1.19612,0.5716 -3.16049,0.84561 -4.67965,1.09511c-0.58457,0.09602 -1.13167,0.14194 -1.64123,0.14268c-0.51571,0.00076 -6.96798,3.09107 -7.81472,2.14245c-1.44131,-1.61472 4.81193,-2.77163 4.24804,-3.21937c-0.39799,-0.316 -8.64439,1.80936 -9.34535,0.41657c-1.03106,-2.04869 7.91121,-2.51259 7.81402,-3.0697c-0.05261,-0.30154 -9.60954,0.7271 -9.22769,-1.01615c0.36039,-1.64528 9.45523,-1.03001 9.83629,-1.52573c0.20671,-0.26891 -7.6987,-0.83002 -7.59114,-1.91638c0.02754,-0.27823 1.22615,-0.66399 2.79999,-0.63305c1.99208,0.03917 5.25289,0.9186 5.40564,0.85626c0.46871,-0.19129 -3.7569,-2.48414 -2.19933,-3.18704c1.11304,-0.50229 6.42306,2.69847 6.90284,2.65855z" data-paper-data="{&quot;index&quot;:null}" fill="#fec794" stroke="#c0966f" stroke-width="1.5" stroke-linecap="butt"/><g><path d="M218.03417,264.40352c0,-3.74579 0,-15.26423 0,-18.46879c0,-1.59634 1.84168,-3.38877 3.72765,-3.38877c4.82767,0 25.89022,0 33.71826,0c2.4762,0 3.21933,1.79243 3.21933,3.38877c0,2.68394 0,11.19979 0,16.09665c0,0.86429 0,1.61585 0,2.2027c0,0.85088 -0.39656,1.35551 -1.01663,1.35551c-0.81702,0 -2.02209,0 -3.21933,0c-5.44319,0 -29.5916,0 -35.2432,0c-0.7605,0 -1.18607,-0.43806 -1.18607,-1.18607z" fill="#f2ba86" stroke="#ba8d63" stroke-width="0.5" stroke-linecap="butt"/><path d="M258.71029,251.37172v7.42923l-1.36854,1.44674l-4.41843,-1.64225l-6.5299,1.05573l-5.86518,-1.29034l-4.61394,1.17303l-5.78698,-1.36854l-6.29529,2.15056l-5.56214,-2.15056l-0.26393,-8.13305l31.00724,0.35191l9.7455,0.0137z" fill="#dca979" stroke="#8a5c32" stroke-width="0" stroke-linecap="round"/><path d="M218.03417,264.53059c0,-3.74579 0,-15.26423 0,-18.46879c0,-1.59634 1.84168,-3.38877 3.72765,-3.38877c4.82767,0 25.89022,0 33.71826,0c2.4762,0 3.21933,1.79243 3.21933,3.38877c0,2.68394 0,11.19979 0,16.09665c0,0.86429 0,1.61585 0,2.2027c0,0.85088 -0.39656,1.35551 -1.01663,1.35551c-0.81702,0 -2.02209,0 -3.21933,0c-5.44319,0 -29.5916,0 -35.2432,0c-0.7605,0 -1.18607,-0.43806 -1.18607,-1.18607z" fill="none" stroke="#b4885f" stroke-width="1" stroke-linecap="butt"/><path d="M217.98333,250.45873c0,-2.7911 0.10166,-3.33721 0.10166,-4.57484c0,-1.59634 1.84168,-3.38877 3.72765,-3.38877c4.82767,0 25.89022,0 33.71826,0c2.4762,0 3.21933,1.79243 3.21933,3.38877c0,1.27507 0,2.44311 0,5.33731c0,0.04388 -0.75701,-0.2277 -1.95723,0.13037c-2.17644,0.64931 -5.07428,3.03241 -8.61968,2.87832c-3.86893,-0.16814 -5.71023,-3.44548 -10.15704,-3.85517c-4.17655,-0.38479 -6.73525,2.70228 -10.17218,2.66352c-3.99222,-0.04502 -4.07599,-1.00685 -5.88624,-2.07142c-1.96227,-1.15398 -3.97453,-0.40645 -3.97453,-0.5081z" fill="#b98d65" stroke="#947252" stroke-width="1" stroke-linecap="butt"/><g stroke-width="0.5" stroke-linecap="butt"><path d="M225.37271,258.29511c0,0.96584 -0.79695,1.74881 -1.78004,1.74881c-0.98309,0 -1.78004,-0.78297 -1.78004,-1.74881c0,-0.96584 0.79695,-1.74881 1.78004,-1.74881c0.98309,0 1.78004,0.78297 1.78004,1.74881z" fill="#ff8282" stroke="#c75a5a"/><path d="M221.8002,258.18739c0,-0.96584 3.21869,1.18593 2.70718,1.49316c-0.20271,0.12175 -0.43214,0.20478 -0.67763,0.23861c-0.08153,0.01124 -0.16483,0.01705 -0.24952,0.01705c-0.98309,0 -1.78004,-0.78297 -1.78004,-1.74881z" data-paper-data="{&quot;index&quot;:null}" fill="#db5c5c" stroke="#c75a5a"/><path d="M225.37271,258.26271c0,0.96584 -0.79695,1.74881 -1.78004,1.74881c-0.98309,0 -1.78004,-0.78296 -1.78004,-1.74881c0,-0.96584 0.79695,-1.74881 1.78004,-1.74881c0.98309,0 1.78004,0.78297 1.78004,1.74881z" fill="none" stroke="#a34949"/></g><g stroke-width="0.5" stroke-linecap="butt"><path d="M231.16751,262.05665c0,0.96584 -0.79695,1.74881 -1.78004,1.74881c-0.98309,0 -1.78004,-0.78297 -1.78004,-1.74881c0,-0.96584 0.79695,-1.74881 1.78004,-1.74881c0.98309,0 1.78004,0.78297 1.78004,1.74881z" fill="#ff8282" stroke="#c75a5a"/><path d="M227.595,261.94892c0,-0.96584 3.21869,1.18593 2.70718,1.49316c-0.20271,0.12175 -0.43214,0.20478 -0.67763,0.23861c-0.08153,0.01124 -0.16483,0.01705 -0.24952,0.01705c-0.98309,0 -1.78003,-0.78297 -1.78003,-1.74881z" data-paper-data="{&quot;index&quot;:null}" fill="#db5c5c" stroke="#c75a5a"/><path d="M231.16751,262.02424c0,0.96584 -0.79695,1.74881 -1.78004,1.74881c-0.98309,0 -1.78004,-0.78297 -1.78004,-1.74881c0,-0.96584 0.79695,-1.74881 1.78004,-1.74881c0.98309,0 1.78004,0.78297 1.78004,1.74881z" fill="none" stroke="#a34949"/></g><g stroke-width="0.5" stroke-linecap="butt"><path d="M236.96231,258.39678c0,0.96584 -0.79695,1.74881 -1.78004,1.74881c-0.98309,0 -1.78004,-0.78297 -1.78004,-1.74881c0,-0.96584 0.79695,-1.74881 1.78004,-1.74881c0.98309,0 1.78004,0.78297 1.78004,1.74881z" fill="#ff8282" stroke="#c75a5a"/><path d="M233.38979,258.28905c0,-0.96584 3.21869,1.18593 2.70718,1.49316c-0.20271,0.12175 -0.43214,0.20478 -0.67763,0.23861c-0.08153,0.01124 -0.16483,0.01705 -0.24952,0.01705c-0.98309,0 -1.78003,-0.78297 -1.78003,-1.74881z" data-paper-data="{&quot;index&quot;:null}" fill="#db5c5c" stroke="#c75a5a"/><path d="M236.96231,258.36437c0,0.96584 -0.79695,1.74881 -1.78004,1.74881c-0.98309,0 -1.78004,-0.78297 -1.78004,-1.74881c0,-0.96584 0.79695,-1.74881 1.78004,-1.74881c0.98309,0 1.78004,0.78297 1.78004,1.74881z" fill="none" stroke="#a34949"/></g><g stroke-width="0.5" stroke-linecap="butt"><path d="M242.45211,262.05665c0,0.96584 -0.79695,1.74881 -1.78004,1.74881c-0.98309,0 -1.78004,-0.78297 -1.78004,-1.74881c0,-0.96584 0.79695,-1.74881 1.78004,-1.74881c0.98309,0 1.78004,0.78297 1.78004,1.74881z" fill="#ff8282" stroke="#c75a5a"/><path d="M238.8796,261.94892c0,-0.96584 3.21869,1.18593 2.70718,1.49316c-0.20271,0.12175 -0.43214,0.20478 -0.67763,0.23861c-0.08153,0.01124 -0.16483,0.01705 -0.24952,0.01705c-0.98309,0 -1.78003,-0.78297 -1.78003,-1.74881z" data-paper-data="{&quot;index&quot;:null}" fill="#db5c5c" stroke="#c75a5a"/><path d="M242.45211,262.02424c0,0.96584 -0.79695,1.74881 -1.78004,1.74881c-0.98309,0 -1.78004,-0.78297 -1.78004,-1.74881c0,-0.96584 0.79695,-1.74881 1.78004,-1.74881c0.98309,0 1.78004,0.78297 1.78004,1.74881z" fill="none" stroke="#a34949"/></g><g stroke-width="0.5" stroke-linecap="butt"><path d="M247.94192,258.49844c0,0.96584 -0.79695,1.74881 -1.78004,1.74881c-0.98309,0 -1.78004,-0.78297 -1.78004,-1.74881c0,-0.96584 0.79695,-1.74881 1.78004,-1.74881c0.98309,0 1.78004,0.78297 1.78004,1.74881z" fill="#ff8282" stroke="#c75a5a"/><path d="M244.3694,258.39071c0,-0.96584 3.21869,1.18593 2.70718,1.49316c-0.20271,0.12175 -0.43214,0.20478 -0.67763,0.23861c-0.08153,0.01124 -0.16483,0.01705 -0.24952,0.01705c-0.98309,0 -1.78003,-0.78297 -1.78003,-1.74881z" data-paper-data="{&quot;index&quot;:null}" fill="#db5c5c" stroke="#c75a5a"/><path d="M247.94192,258.46603c0,0.96584 -0.79695,1.74881 -1.78004,1.74881c-0.98309,0 -1.78004,-0.78297 -1.78004,-1.74881c0,-0.96584 0.79695,-1.74881 1.78004,-1.74881c0.98309,0 1.78004,0.78297 1.78004,1.74881z" fill="none" stroke="#a34949"/></g><g stroke-width="0.5" stroke-linecap="butt"><path d="M252.72008,261.75166c0,0.96584 -0.79695,1.74881 -1.78004,1.74881c-0.98309,0 -1.78004,-0.78297 -1.78004,-1.74881c0,-0.96584 0.79695,-1.74881 1.78004,-1.74881c0.98309,0 1.78004,0.78297 1.78004,1.74881z" fill="#ff8282" stroke="#c75a5a"/><path d="M249.14757,261.64393c0,-0.96584 3.21869,1.18593 2.70718,1.49316c-0.20271,0.12175 -0.43214,0.20478 -0.67763,0.23861c-0.08153,0.01124 -0.16483,0.01705 -0.24952,0.01705c-0.98309,0 -1.78003,-0.78297 -1.78003,-1.74881z" data-paper-data="{&quot;index&quot;:null}" fill="#db5c5c" stroke="#c75a5a"/><path d="M252.72008,261.71925c0,0.96584 -0.79695,1.74881 -1.78004,1.74881c-0.98309,0 -1.78004,-0.78297 -1.78004,-1.74881c0,-0.96584 0.79695,-1.74881 1.78004,-1.74881c0.98309,0 1.78004,0.78297 1.78004,1.74881z" fill="none" stroke="#a34949"/></g></g><g fill="none" stroke="#ab5151" stroke-width="3" stroke-linecap="round"><path d="M240.00848,241.02228c-0.2581,3.12656 -4.21028,5.95024 -4.98219,5.2671c-0.38784,-0.34324 0.44286,-10.10255 0.49165,-10.81243c0.01095,-0.1592 4.78928,1.92643 4.49053,5.54534z"/><path d="M229.51711,241.40281l1.94253,-0.1018"/><path d="M241.1687,246.67704c0,0 3.76766,-8.90488 4.42981,-10.46988c0.0803,-0.18979 0.45168,-0.3962 0.53685,0.1028c0.27857,1.63203 1.7845,10.45462 1.7845,10.45462"/><path d="M243.16277,242.36584l3.89038,0.01337"/><path d="M223.81644,236.41087c-0.00365,-0.1674 0.0752,-0.23231 0.21002,-0.1797c0.66598,0.25984 2.65308,1.1367 2.76207,2.38597c0.13104,1.50218 -2.47122,2.79757 -2.54244,2.93102c-0.15582,0.29197 3.40058,0.21127 3.51477,2.18608c0.11418,1.97482 -2.48262,3.82201 -3.32103,3.22233c-0.38177,-0.27307 -0.5881,-8.92648 -0.6234,-10.5457z" data-paper-data="{&quot;index&quot;:null}"/><path d="M250.39177,236.63315l3.0763,5.51182c0,0 2.78622,-4.61197 3.25564,-5.38926c0.17586,-0.2912 -5.71616,9.67789 -5.71616,9.67789"/></g><path d="M231.33259,265.24426c0,1.10457 -2.93813,2 -6.5625,2c-3.62437,0 -6.0625,-0.27043 -6.0625,-1.375c0,-1.10457 2.56313,-1.625 6.1875,-1.625c2.47588,0 6.4375,0.64998 6.4375,1z" fill="#fec794" stroke="#c0966f" stroke-width="1.5" stroke-linecap="butt"/><g fill="none" stroke="#ff8282" stroke-width="2" stroke-linecap="round"><path d="M240.00848,241.02227c-0.2581,3.12655 -4.21028,5.95024 -4.98218,5.2671c-0.38784,-0.34324 0.44285,-10.10255 0.49165,-10.81243c0.01094,-0.1592 4.78929,1.92642 4.49053,5.54533z"/><path d="M229.51711,241.40281l1.94252,-0.10179"/><path d="M241.1687,246.67704c0,0 3.76766,-8.90488 4.42981,-10.46988c0.0803,-0.1898 0.45168,-0.3962 0.53686,0.1028c0.27857,1.63203 1.7845,10.45462 1.7845,10.45462"/><path d="M243.16278,242.36584l3.89037,0.01337"/><path d="M223.81644,236.41086c-0.00366,-0.1674 0.0752,-0.2323 0.21002,-0.1797c0.66598,0.25984 2.65309,1.13669 2.76207,2.38597c0.13105,1.50218 -2.47122,2.79757 -2.54244,2.93102c-0.15582,0.29197 3.40058,0.21127 3.51477,2.18608c0.11418,1.97482 -2.48262,3.822 -3.32103,3.22233c-0.38178,-0.27307 -0.58809,-8.92648 -0.6234,-10.5457z" data-paper-data="{&quot;index&quot;:null}"/><path d="M250.39177,236.63315l3.07629,5.51182c0,0 2.78623,-4.61198 3.25564,-5.38926c0.17586,-0.2912 -5.71616,9.67789 -5.71616,9.67789"/></g></g></g></svg>