<svg xmlns="http://www.w3.org/2000/svg" xmlns:xlink="http://www.w3.org/1999/xlink" version="1.1" width="240.65634" height="237.10888" viewBox="0,0,240.65634,237.10888"><defs><linearGradient x1="238.4646" y1="197.92582" x2="238.4646" y2="199.95197" gradientUnits="userSpaceOnUse" id="color-1"><stop offset="0" stop-color="#47c9ff"/><stop offset="1" stop-color="#5533b5"/></linearGradient></defs><g transform="translate(-119.29683,-62.23727)"><g stroke-miterlimit="10"><path d="M357.37967,176.34988c0,4.23744 -3.32871,26.13223 -5.41488,28.35884c-4.65107,4.96418 -11.06717,-12.3929 -16.91776,-6.59693c-13.60824,13.48116 -24.38557,31.54239 -24.63377,31.72685c-5.37774,3.99668 1.16688,44.45183 -5.91507,47.36546c-19.05404,7.83915 -42.64367,11.7584 -61.98339,11.7584c-32.98703,0 -47.71132,-33.15199 -68.66119,-54.98389c-19.33931,-20.15353 -46.20367,-27.77472 -46.20367,-57.62873c0,-33.53509 26.96362,-50.13301 50.6879,-70.76299c20.2748,-17.63041 34.94465,-41.84962 64.17697,-41.84962c38.32316,0 85.77641,12.3937 106.64312,40.67393c13.67492,18.53335 8.22175,47.31618 8.22175,71.93868z" fill="#abb5cc" fill-rule="nonzero" stroke="#42495b" stroke-width="3" stroke-linecap="butt" stroke-linejoin="miter"/><g fill-rule="nonzero" stroke-width="1"><path d="M330.30182,95.21552c1.66346,0 3.01018,1.3456 3.01018,3.01028c0,10.17408 0,30.52772 0,40.70174c0,1.66346 -1.34548,3.01049 -3.01018,3.01049c-18.65247,0 -55.95117,0 -74.60364,0c-1.66346,-0.00031 -3.01018,-1.34579 -3.01018,-3.01049c0,-10.17402 0,-30.52766 0,-40.70174c-0.00031,-1.66327 1.34548,-3.01028 3.01018,-3.01028c18.65247,0 55.95117,0 74.60364,0z" fill-opacity="0.15" fill="#000000" stroke="none" stroke-linecap="round" stroke-linejoin="round"/><path d="M254.24172,98.22866c0,-0.8027 0.65061,-1.45344 1.45334,-1.45344h74.60987c0.80274,0 1.45334,0.65073 1.45334,1.45344v40.69607c0,0.80274 -0.65061,1.45365 -1.45334,1.45365h-74.60987c-0.80274,0 -1.45334,-0.65092 -1.45334,-1.45365z" fill="#ffffff" stroke="none" stroke-linecap="round" stroke-linejoin="round"/><path d="M254.23673,98.22866c0,-0.8027 0.65092,-1.45344 1.45365,-1.45344h74.61922c0.80274,0 1.45334,0.65073 1.45334,1.45344v2.90687h-77.52622z" fill="#bfbfbf" stroke="none" stroke-linecap="round" stroke-linejoin="round"/><path d="M255.40452,98.9554c0,-0.60204 0.48788,-1.09007 1.09016,-1.09007c0.60197,0 1.08985,0.48803 1.08985,1.09007c0,0.60204 -0.48788,1.09007 -1.08985,1.09007c-0.60229,0 -1.09016,-0.48803 -1.09016,-1.09007z" fill="#ffffff" stroke="#bfbfbf" stroke-linecap="butt" stroke-linejoin="miter"/><path d="M258.3112,98.9554c0,-0.60204 0.48819,-1.09007 1.09016,-1.09007c0.60197,0 1.09016,0.48803 1.09016,1.09007c0,0.60204 -0.48819,1.09007 -1.09016,1.09007c-0.60197,0 -1.09016,-0.48803 -1.09016,-1.09007z" fill="#ffffff" stroke="#bfbfbf" stroke-linecap="butt" stroke-linejoin="miter"/><path d="M261.2182,98.9554c0,-0.60204 0.48819,-1.09007 1.09016,-1.09007c0.60197,0 1.08985,0.48803 1.08985,1.09007c0,0.60204 -0.48788,1.09007 -1.08985,1.09007c-0.60197,0 -1.09016,-0.48803 -1.09016,-1.09007z" fill="#ffffff" stroke="#bfbfbf" stroke-linecap="butt" stroke-linejoin="miter"/></g><path d="M333.52452,200.54773c-13.60824,13.48116 -21.52976,28.68658 -21.77796,28.87104c-5.37774,3.99668 1.16688,44.45183 -5.91507,47.36546c-19.05404,7.83915 -42.64367,11.7584 -61.98339,11.7584c-32.98703,0 -47.71132,-33.15199 -68.66119,-54.98389c-16.75918,-17.46477 -39.16947,-25.51811 -44.85084,-46.78456c7.37682,0.90582 14.82211,1.57394 22.23432,1.57902c6.74286,0.00463 17.27461,22.29298 31.45978,40.27192c11.26742,14.28085 27.59951,26.56801 29.39943,26.39446c11.23981,-1.08371 66.56636,-1.09604 76.31946,-3.71692c16.21806,-4.35815 14.56207,-28.63281 18.43625,-45.26184c1.15532,-4.95893 -2.40126,-11.83979 1.6771,-14.04856c6.24667,-3.38308 7.70437,-2.71318 15.30241,-2.68713c0.91605,0.00314 32.07403,-19.94907 33.30259,-19.02696c0.54099,0.40605 -5.80927,33.3137 -4.22246,29.66543c1.53496,-3.52907 -2.27961,7.81511 -4.01209,6.5482c-3.00251,-2.19564 -16.449,-6.201 -16.70834,-5.94408z" fill="#7d8aab" fill-rule="nonzero" stroke="#42495b" stroke-width="2.5" stroke-linecap="butt" stroke-linejoin="miter"/><g fill-rule="evenodd" stroke-width="1.3"><path d="M234.08242,212.57621c1.15456,0.57728 3.60799,1.87615 0.14432,6.78302c-3.46367,4.90686 -13.42171,5.9171 -14.57627,5.9171c-4.4739,0.14432 -9.95805,0.14432 -16.01947,-1.87615c-17.60698,-5.77278 -17.7513,-24.67864 -12.12284,-27.70934c5.48414,-3.03071 7.93757,8.65917 15.87515,15.73083c3.46367,3.17503 7.64893,4.32959 11.1126,5.05118c4.90686,0.86592 14.28763,-4.61822 15.58651,-3.89663z" fill="#ffab19" stroke="#001026" stroke-linecap="round" stroke-linejoin="round"/><path d="M198.29118,200.88633c2.30911,3.89663 6.78302,9.38077 6.78302,9.38077c0,0 -5.33982,-1.29888 -8.37053,1.15456c-2.45343,1.87615 -1.87615,5.05118 -1.58751,6.06142c-1.87615,-1.87615 -4.18527,-4.4739 -5.62846,-9.52509c-1.4432,-5.05118 0,-11.1126 2.88639,-11.97852c2.88639,-0.57728 3.60799,1.58751 5.9171,4.90686z" fill="#ffffff" stroke="none" stroke-linecap="butt" stroke-linejoin="miter"/></g><path d="M241.29839,227.58545c-2.59775,1.73183 -11.54556,8.08189 -22.9468,11.68988l-0.57728,0.14432c-0.57728,0.14432 -0.86592,0.86592 -0.57728,1.4432c2.45343,3.46367 6.92734,10.391 -1.01024,12.84444c-7.64893,2.45343 -21.93656,-17.89562 -15.87515,-23.23544c2.74207,-2.02047 5.1955,-1.01024 6.49438,-0.43296c0.7216,0.28864 1.4432,0.28864 2.16479,0.14432c1.73183,-0.57728 4.90686,-1.73183 7.36029,-3.03071c6.20574,-3.17503 7.64893,-4.4739 10.53532,-6.6387c2.88639,-2.16479 9.52509,-7.50461 14.86491,-2.88639c4.61822,3.89663 2.02047,8.22621 -0.43296,9.95805z" fill="#ffab19" fill-rule="evenodd" stroke="#001026" stroke-width="1.3" stroke-linecap="round" stroke-linejoin="round"/><path d="M265.22866,198.86384c0.95722,0.48345 12.97206,9.71277 16.30738,6.76459c4.0111,-3.45166 9.35035,-9.9387 16.30329,-5.8548c6.95294,4.0839 -4.46265,13.36107 -9.46,16.0421c-11.95833,5.70564 -22.8853,-1.74794 -25.27552,-3.82718c-2.39022,-2.07924 -6.5586,-5.57432 -6.93602,-9.30761c-0.22662,-4.03864 5.78601,-5.66187 9.06087,-3.81712z" fill="#ffab19" fill-rule="evenodd" stroke="#001026" stroke-width="1.3" stroke-linecap="round" stroke-linejoin="round"/><g fill-rule="evenodd" stroke-width="1.3"><path d="M264.38951,231.19344c3.03071,2.74207 9.66941,8.37053 9.66941,8.37053c0,0 20.63769,-3.60799 20.63769,6.78302c0,6.20574 -10.391,7.64893 -24.39,6.35006c-0.86592,-0.14432 -1.73183,-0.43296 -2.45343,-1.01024c-3.17503,-2.74207 -12.26716,-10.82396 -18.03994,-16.45242c-8.51485,-8.37053 -15.58651,-13.85467 -15.58651,-13.85467c-12.26716,-11.97852 -2.30911,-17.0297 1.58751,-23.95704c3.60799,-5.9171 5.1955,-4.76254 13.85467,-3.03071c4.90686,0.7216 7.79325,1.15456 10.96828,1.01024c4.76254,-0.14432 3.89663,6.78302 2.59775,10.391c0,0 -2.02047,5.33982 -3.89663,8.08189c-2.30911,3.31935 -4.04095,5.48414 -5.77278,6.78302z" fill="#ffab19" stroke="#001026" stroke-linecap="round" stroke-linejoin="round"/><path d="M252.26668,220.51378c0,0 -2.16479,-1.73183 -4.4739,-3.89663c-2.88639,-2.59775 -5.77278,-4.76254 -2.88639,-9.23645c2.59775,-3.46367 5.05118,-8.08189 11.54556,-3.89663c6.20574,3.89663 3.46367,7.50461 3.46367,7.50461c-3.17503,6.49438 -7.64893,9.52509 -7.64893,9.52509z" fill="#ffffff" stroke="none" stroke-linecap="butt" stroke-linejoin="miter"/></g><path d="M235.00517,206.26115c4.74835,1.96551 11.5014,3.96251 8.14435,10.65263c-5.08664,8.3253 -18.32534,-0.78658 -22.0595,-4.48162c-3.32538,-3.26263 -1.46994,-7.6179 0.0946,-11.31282c3.21555,-6.9417 5.76284,-13.01079 11.85559,-13.95404c7.56288,-1.2734 5.86459,6.30513 3.99345,10.33807c-1.10854,2.44492 -2.14633,5.01564 -3.03472,6.67442c-0.0236,0.84119 0.27511,1.66666 1.00623,2.08334z" fill="#ffab19" fill-rule="evenodd" stroke="#001026" stroke-width="1.3" stroke-linecap="round" stroke-linejoin="round"/><path d="M275.93508,111.40824c0.43296,-0.28864 1.15456,-0.14432 1.29888,0.43296l3.75231,15.44219c0,0 9.23645,6.78302 11.97852,11.54556c4.61822,7.93757 4.76254,14.43195 4.76254,14.43195c0,0 10.24668,3.03071 11.97852,11.25692c1.73183,8.22621 -4.61822,23.81272 -31.75029,29.15254c-27.13207,5.33982 -48.92431,-2.02047 -59.171,-18.4729c-10.24668,-16.45242 5.9171,-36.07988 5.05118,-34.92532l-3.03071,-25.83319c-0.14432,-0.57728 0.57728,-1.01024 1.15456,-0.7216l17.46266,11.40124c0,0 6.49438,-2.45343 13.27739,-2.74207c4.04095,-0.28864 7.50461,0 10.82396,0.57728z" fill="#ffab19" fill-rule="evenodd" stroke="#001026" stroke-width="1.3" stroke-linecap="butt" stroke-linejoin="miter"/><path d="M297.29436,153.83819c0,0 9.95805,2.59775 11.68988,10.82396c1.73183,8.22621 -5.1955,23.09112 -32.03893,28.28662c-34.92532,7.21598 -51.52206,-13.56603 -41.85266,-28.8639c9.66941,-15.44219 26.26615,-2.30911 38.38899,-3.17503c10.391,-0.7216 11.54556,-9.81373 23.81272,-7.07166z" fill="#ffffff" fill-rule="evenodd" stroke="none" stroke-width="1.3" stroke-linecap="butt" stroke-linejoin="miter"/><path d="M250.28408,197.92582c0.29309,0.94177 -1.95388,1.96204 -5.27202,2.02407c-2.612,0.04883 -5.93531,-0.78138 -8.88148,-0.76465c-5.25208,0.02982 -9.51113,0.70323 -9.51113,0.70323" fill="none" fill-rule="nonzero" stroke="url(#color-1)" stroke-width="1.5" stroke-linecap="round" stroke-linejoin="miter"/><path d="M323.84915,155.42568c-6.78302,5.48414 -17.17402,5.62846 -17.17402,5.62846" fill="none" fill-rule="evenodd" stroke="#001026" stroke-width="1.3" stroke-linecap="round" stroke-linejoin="round"/><path d="M321.973,171.58948c-9.09213,0.7216 -14.72059,-2.02047 -14.72059,-2.02047" fill="none" fill-rule="evenodd" stroke="#001026" stroke-width="1.3" stroke-linecap="round" stroke-linejoin="round"/><path d="M272.90437,157.15751c3.03071,0 6.20574,0.28864 6.35006,1.29888c0.14432,2.02047 -2.02047,6.06142 -4.32959,6.20574c-2.59775,0.28864 -8.65917,-3.31935 -8.65917,-5.62846c-0.14432,-1.73183 3.75231,-1.87615 6.6387,-1.87615z" fill="#001026" fill-rule="evenodd" stroke="#001026" stroke-width="1.3" stroke-linecap="round" stroke-linejoin="round"/><path d="M207.96059,154.99273c0,0 12.41148,4.04095 17.46266,8.51485" fill="none" fill-rule="evenodd" stroke="#001026" stroke-width="1.3" stroke-linecap="round" stroke-linejoin="round"/><path d="M225.85621,168.55878c-6.20574,2.45343 -16.88538,0.86592 -16.88538,0.86592" fill="none" fill-rule="evenodd" stroke="#001026" stroke-width="1.3" stroke-linecap="round" stroke-linejoin="round"/><g fill-rule="evenodd" stroke-width="1.3"><path d="M289.93407,140.27213c4.18527,6.49438 4.32959,13.85467 0.28864,16.45242c-4.04095,2.59775 -10.67964,-0.43296 -15.00923,-6.92734c-4.18527,-6.49438 -4.32959,-13.85467 -0.28864,-16.45242c4.04095,-2.74207 10.82396,0.43296 15.00923,6.92734z" fill="#ffffff" stroke="#001026" stroke-linecap="round" stroke-linejoin="round"/><path d="M289.35679,148.49836c0,1.58751 -1.15456,2.88639 -2.59775,2.88639c-1.4432,0 -2.59775,-1.29888 -2.59775,-2.88639c0,-1.58751 1.15456,-2.88639 2.59775,-2.88639c1.4432,0 2.59775,1.29888 2.59775,2.88639" fill="#001026" stroke="none" stroke-linecap="butt" stroke-linejoin="miter"/></g><g fill-rule="evenodd" stroke-width="1.3"><path d="M254.14283,144.31309c4.32959,6.35006 4.04095,14.14331 0.14432,16.88538c-4.76254,2.74207 -11.1126,0.7216 -15.44219,-5.62846c-4.4739,-6.35006 -4.76254,-14.57627 -0.28864,-17.7513c4.4739,-3.31935 11.25692,0.14432 15.58651,6.49438z" fill="#ffffff" stroke="#001026" stroke-linecap="round" stroke-linejoin="round"/><path d="M253.27691,152.68363c0,1.58751 -1.15456,2.88639 -2.59775,2.88639c-1.4432,0 -2.59775,-1.29888 -2.59775,-2.88639c0,-1.58751 1.15456,-2.88639 2.59775,-2.88639c1.4432,0.14432 2.59775,1.29888 2.59775,2.88639" fill="#001026" stroke="none" stroke-linecap="butt" stroke-linejoin="miter"/></g><path d="M168.29683,245.34616c0,7.45584 -10.74517,13.5 -24,13.5c-13.25483,0 -24,-6.04416 -24,-13.5c0,-7.45584 10.74517,-13.5 24,-13.5c13.25483,0 24,6.04416 24,13.5z" fill="#7d8aab" fill-rule="nonzero" stroke="#42495b" stroke-width="2" stroke-linecap="butt" stroke-linejoin="miter"/><path d="M303.57161,199.19752c0,3.16558 -4.61918,5.73179 -10.31723,5.73179c-5.69805,0 -10.31723,-2.56621 -10.31723,-5.73179c0,-3.16558 4.61918,-5.73179 10.31723,-5.73179c5.69805,0 10.31723,2.56621 10.31723,5.73179z" fill="#9abfd6" fill-rule="nonzero" stroke="#606b71" stroke-width="3" stroke-linecap="butt" stroke-linejoin="miter"/><path d="M251.25369,208.01871c0,3.16558 -4.61918,5.73179 -10.31722,5.73179c-5.69804,0 -10.31723,-2.56621 -10.31723,-5.73179c0,-0.98575 -6.55369,-9.25002 -5.83853,-10.06015c1.06559,-1.20709 9.80131,5.18335 12.13735,4.69449c1.13091,-0.23667 2.73851,-0.36614 4.01841,-0.36614c1.16514,0 1.28518,-0.55936 2.32983,-0.36158c2.26175,0.42822 11.64831,-5.76666 12.89618,-4.66082c0.99442,0.88125 -4.90879,9.63737 -4.90879,10.75419z" fill="#90b2c8" fill-rule="nonzero" stroke="#555f64" stroke-width="3" stroke-linecap="butt" stroke-linejoin="miter"/><path d="M207.56174,92.73726v0c0,-1.64946 1.33715,-2.98661 2.98661,-2.98661h27.79315c0.7921,0 1.55176,0.31466 2.11186,0.87476c0.56008,0.5601 0.87475,1.31975 0.87475,2.11185v11.94609c0,1.64946 -1.33715,2.9866 -2.98661,2.9866h-27.79315c-1.64946,0 -2.98661,-1.33715 -2.98661,-2.9866z" fill="#fc662c" fill-rule="evenodd" stroke-opacity="0.12941" stroke="#000000" stroke-width="8.5" stroke-linecap="square" stroke-linejoin="miter"/><path d="M207.56174,92.73727v0c0,-1.64946 1.33715,-2.98661 2.98661,-2.98661h27.79315c0.7921,0 1.55176,0.31465 2.11186,0.87475c0.56008,0.5601 0.87475,1.31976 0.87475,2.11186v11.94608c0,1.64946 -1.33715,2.98661 -2.98661,2.98661h-27.79315c-1.64946,0 -2.98661,-1.33715 -2.98661,-2.98661z" fill="#fc662c" fill-rule="evenodd" stroke="none" stroke-width="1" stroke-linecap="square" stroke-linejoin="miter"/><path d="M207.56174,92.73727v0c0,-1.64946 1.33715,-2.98661 2.98661,-2.98661h27.79315c0.7921,0 1.55176,0.31465 2.11186,0.87475c0.56008,0.5601 0.87475,1.31976 0.87475,2.11186v11.94608c0,1.64946 -1.33715,2.98661 -2.98661,2.98661h-27.79315c-1.64946,0 -2.98661,-1.33715 -2.98661,-2.98661z" fill="none" fill-rule="evenodd" stroke="#d65725" stroke-width="1.5" stroke-linecap="butt" stroke-linejoin="round"/><g fill="#727e9c" fill-rule="nonzero" stroke-linecap="butt" stroke-linejoin="miter"><path d="M166.97845,157.7369l0.70855,2.06605c0.31594,0.92126 -0.09256,1.87141 -1.0138,2.18735l-1.02963,0.35312c-0.83997,0.28807 -1.2982,1.24771 -1.00084,2.11477c0.14635,0.42676 0.46631,0.76369 0.89136,0.94346l0.88687,0.42263c0.87331,0.42728 1.23805,1.49078 0.81078,2.3641l-0.99485,2.02187c-0.20261,0.40259 -0.57574,0.7274 -1.02282,0.88072c-0.44708,0.15332 -0.941,0.12588 -1.34805,-0.06763l-0.85512,-0.41837c-0.42544,-0.22506 -0.89693,-0.27535 -1.33046,-0.12667c-0.86706,0.29736 -1.35026,1.25042 -1.06452,2.08362l0.35312,1.02963c0.31594,0.92126 -0.14847,1.95115 -1.06973,2.2671l-2.05927,0.70623c-0.92802,0.31827 -1.92909,-0.21661 -2.24271,-1.13109l-0.35312,-1.02963c-0.28574,-0.83319 -1.25216,-1.28911 -2.11922,-0.99175c-0.43353,0.14868 -0.77724,0.47097 -0.95256,0.88691l-0.43405,0.87564c-0.20261,0.40259 -0.57574,0.7274 -1.02282,0.88072c-0.44708,0.15332 -0.94546,0.13498 -1.34805,-0.06763l-2.02632,-0.98575c-0.87099,-0.4205 -1.23573,-1.484 -0.80845,-2.35731l0.4207,-0.84835c0.23415,-0.42099 0.28444,-0.89246 0.13576,-1.32599c-0.29504,-0.86029 -1.2481,-1.3435 -2.08807,-1.05543l-1.02964,0.35312c-0.92802,0.31827 -1.95792,-0.14616 -2.27154,-1.06064l-0.70623,-2.05927c-0.31594,-0.92126 0.21448,-1.91321 1.1425,-2.23148l1.02963,-0.35312c0.83997,-0.28807 1.2982,-1.2477 1.00084,-2.11477c-0.14868,-0.43353 -0.47774,-0.77493 -0.92098,-0.96359l-0.85512,-0.41837c-0.87099,-0.4205 -1.23573,-1.48401 -0.80845,-2.35733l1.01305,-2.01296c0.20261,-0.40259 0.57573,-0.7274 1.02281,-0.88072c0.44708,-0.15332 0.94546,-0.13499 1.34805,0.06762l0.8801,0.42495c0.40046,0.21848 0.86285,0.26431 1.29638,0.11563c0.86706,-0.29736 1.35027,-1.25042 1.06452,-2.08362l-0.35311,-1.02963c-0.31594,-0.92126 0.14847,-1.95115 1.06973,-2.2671l2.05927,-0.70623c0.92125,-0.31594 1.92909,0.21661 2.24272,1.13109l0.35544,1.03641c0.28574,0.83319 1.25216,1.2891 2.11922,0.99174c0.4403,-0.151 0.78401,-0.47329 0.97268,-0.91652l0.41837,-0.85513c0.20261,-0.40259 0.57574,-0.7274 1.02282,-0.88072c0.44708,-0.15332 0.94779,-0.12821 1.34806,0.06762l2.02399,0.97898c0.8801,0.42495 1.24482,1.48845 0.81077,2.36409l-0.44082,0.87796c-0.22525,0.40278 -0.27341,0.85841 -0.12473,1.29194c0.29504,0.86029 1.2481,1.34349 2.08807,1.05542l1.02964,-0.35312c0.92126,-0.31594 1.8269,0.18352 2.12929,1.10942zM152.54844,157.77992c-3.00084,1.02914 -4.58513,4.29034 -3.56063,7.27763c1.0245,2.9873 4.27679,4.58978 7.27763,3.56063c3.00084,-1.02914 4.58513,-4.29033 3.56063,-7.27763c-1.0245,-2.98729 -4.27678,-4.58978 -7.27763,-3.56063z" stroke-opacity="0.40392" stroke="#ffffff" stroke-width="3.5"/><path d="M199.74219,170.23289v2.31668c0,1.03302 -0.73678,1.84575 -1.76979,1.84575h-1.15455c-0.94187,0 -1.73181,0.80514 -1.73181,1.77739c0,0.47852 0.20508,0.92668 0.56967,1.25329l0.74438,0.72919c0.72919,0.72919 0.72919,1.92171 0,2.65089l-1.69384,1.68624c-0.3418,0.3342 -0.82792,0.53169 -1.32924,0.53169c-0.50132,0 -0.98744,-0.19749 -1.32925,-0.53169l-0.71399,-0.71399c-0.3494,-0.37219 -0.80515,-0.58487 -1.29127,-0.58487c-0.97225,0 -1.78499,0.78995 -1.78499,1.72422v1.15454c0,1.03302 -0.82033,1.90652 -1.85334,1.90652h-2.30909c-1.04061,0 -1.86094,-0.8811 -1.86094,-1.90652v-1.15454c0,-0.93427 -0.81274,-1.72422 -1.78499,-1.72422c-0.48612,0 -0.94187,0.20508 -1.26089,0.56208l-0.73678,0.72919c-0.3418,0.33421 -0.82792,0.5317 -1.32924,0.5317c-0.50132,0 -0.99504,-0.18989 -1.32924,-0.5317l-1.69385,-1.68624c-0.72919,-0.72159 -0.72919,-1.91411 0,-2.64329l0.714,-0.7064c0.37978,-0.3418 0.59246,-0.79755 0.59246,-1.28367c0,-0.96465 -0.78995,-1.77739 -1.73181,-1.77739h-1.15455c-1.04061,0 -1.91411,-0.82033 -1.91411,-1.84575v-2.30909c0,-1.03302 0.8735,-1.84574 1.91411,-1.84574h1.15455c0.94187,0 1.73181,-0.80514 1.73181,-1.77739c0,-0.48612 -0.21268,-0.94187 -0.59246,-1.28367l-0.714,-0.714c-0.72919,-0.72159 -0.72919,-1.91412 0,-2.6433l1.70904,-1.67105c0.3418,-0.33421 0.82792,-0.53169 1.32924,-0.53169c0.50132,0 0.99504,0.18989 1.32925,0.53169l0.73678,0.72919c0.32661,0.357 0.77476,0.56208 1.26088,0.56208c0.97225,0 1.78499,-0.78996 1.78499,-1.72423v-1.15454c0,-1.03302 0.82033,-1.90652 1.85334,-1.90652h2.30909c1.03301,0 1.86094,0.8811 1.86094,1.90652v1.16214c0,0.93427 0.81274,1.72422 1.78499,1.72422c0.49372,0 0.94947,-0.20507 1.29127,-0.58486l0.71399,-0.714c0.3418,-0.33421 0.82793,-0.5317 1.32925,-0.5317c0.50132,0 0.99503,0.19749 1.32924,0.5317l1.69384,1.67864c0.73678,0.72919 0.73678,1.92171 0,2.65089l-0.74437,0.72919c-0.36459,0.32661 -0.56968,0.76717 -0.56968,1.25329c0,0.96465 0.78995,1.77739 1.73182,1.77739h1.15454c1.03302,0 1.7698,0.81274 1.7546,1.84575zM185.24964,165.31088c-3.36489,0 -6.07655,2.72685 -6.07655,6.07655c0,3.3497 2.71166,6.07654 6.07655,6.07654c3.36489,0 6.07654,-2.72684 6.07654,-6.07654c0,-3.34969 -2.71165,-6.07655 -6.07654,-6.07655z" stroke-opacity="0.40392" stroke="#ffffff" stroke-width="3.5"/><path d="M185.6511,133.74802l0.92579,1.97825c0.41281,0.88211 0.10845,1.87055 -0.77366,2.28337l-0.98589,0.46138c-0.80427,0.37639 -1.15708,1.37959 -0.76855,2.20981c0.19123,0.40862 0.54544,0.70935 0.9873,0.84255l0.92703,0.3252c0.91406,0.33127 1.39061,1.34958 1.05935,2.26364l-0.77254,2.1168c-0.15832,0.42198 -0.49451,0.78488 -0.92258,0.98522c-0.42808,0.20033 -0.92211,0.22596 -1.34754,0.07717l-0.89502,-0.32437c-0.4471,-0.17819 -0.92126,-0.17768 -1.33637,0.01659c-0.83022,0.38853 -1.20855,1.38787 -0.83519,2.18565l0.46138,0.98589c0.41281,0.88211 0.06139,1.95583 -0.82072,2.36864l-1.97177,0.92275c-0.8886,0.41585 -1.94119,-0.00871 -2.35098,-0.88433l-0.46137,-0.98588c-0.37336,-0.79779 -1.38305,-1.14756 -2.21327,-0.75903c-0.41511,0.19427 -0.72232,0.55151 -0.85207,0.98385l-0.33776,0.91709c-0.15831,0.42198 -0.49451,0.78489 -0.92258,0.98522c-0.42808,0.20033 -0.92556,0.23549 -1.34754,0.07717l-2.12026,-0.76302c-0.91102,-0.32478 -1.38758,-1.34309 -1.05632,-2.25715l0.3274,-0.88854c0.18771,-0.44365 0.1872,-0.9178 -0.00706,-1.3329c-0.38549,-0.82373 -1.38484,-1.20207 -2.18911,-0.82568l-0.98588,0.46138c-0.8886,0.41585 -1.96231,0.06442 -2.37209,-0.8112l-0.92276,-1.97177c-0.41281,-0.88211 0.0083,-1.92518 0.89689,-2.34104l0.98588,-0.46138c0.80427,-0.37639 1.15708,-1.37959 0.76855,-2.20981c-0.19427,-0.41511 -0.55801,-0.71929 -1.0189,-0.85939l-0.89502,-0.32437c-0.91102,-0.32478 -1.38758,-1.34309 -1.05631,-2.25715l0.79158,-2.1099c0.15831,-0.42198 0.49451,-0.78488 0.92259,-0.98522c0.42808,-0.20033 0.92556,-0.23548 1.34754,-0.07717l0.92055,0.32824c0.42156,0.17433 0.8862,0.17036 1.30131,-0.02391c0.83022,-0.38853 1.20855,-1.38787 0.83519,-2.18566l-0.46138,-0.98588c-0.41281,-0.88211 -0.06139,-1.95583 0.82072,-2.36865l1.97177,-0.92275c0.8821,-0.41281 1.94119,0.00872 2.35098,0.88434l0.46442,0.99237c0.37335,0.79779 1.38304,1.14755 2.21326,0.75902c0.42159,-0.1973 0.72881,-0.55455 0.86892,-1.01544l0.32436,-0.89502c0.15831,-0.42198 0.49451,-0.78489 0.92259,-0.98522c0.42808,-0.20033 0.92859,-0.22899 1.34754,-0.07716l2.11722,0.75653c0.92055,0.32823 1.3971,1.34654 1.05935,2.26364l-0.34423,0.92013c-0.18081,0.4246 -0.17988,0.88276 0.01439,1.29786c0.38549,0.82373 1.38483,1.20206 2.1891,0.82567l0.98588,-0.46137c0.88211,-0.41281 1.83605,-0.01324 2.23589,0.87494zM171.30873,135.33655c-2.87333,1.34468 -4.09916,4.75681 -2.76056,7.61718c1.33861,2.86037 4.74384,4.10524 7.61718,2.76056c2.87333,-1.34468 4.09916,-4.75682 2.76055,-7.61718c-1.33861,-2.86036 -4.74384,-4.10523 -7.61717,-2.76055z" stroke-opacity="0.40392" stroke="#ffffff" stroke-width="3.5"/><path d="M185.6511,133.74802l0.92579,1.97825c0.41281,0.88211 0.10845,1.87055 -0.77366,2.28337l-0.98589,0.46138c-0.80427,0.37639 -1.15708,1.37959 -0.76855,2.20981c0.19123,0.40862 0.54544,0.70935 0.9873,0.84255l0.92703,0.3252c0.91406,0.33127 1.39061,1.34958 1.05935,2.26364l-0.77254,2.1168c-0.15832,0.42198 -0.49451,0.78488 -0.92258,0.98522c-0.42808,0.20033 -0.92211,0.22596 -1.34754,0.07717l-0.89502,-0.32437c-0.4471,-0.17819 -0.92126,-0.17768 -1.33637,0.01659c-0.83022,0.38853 -1.20855,1.38787 -0.83519,2.18565l0.46138,0.98589c0.41281,0.88211 0.06139,1.95583 -0.82072,2.36864l-1.97177,0.92275c-0.8886,0.41585 -1.94119,-0.00871 -2.35098,-0.88433l-0.46137,-0.98588c-0.37336,-0.79779 -1.38305,-1.14756 -2.21327,-0.75903c-0.41511,0.19427 -0.72232,0.55151 -0.85207,0.98385l-0.33776,0.91709c-0.15831,0.42198 -0.49451,0.78489 -0.92258,0.98522c-0.42808,0.20033 -0.92556,0.23549 -1.34754,0.07717l-2.12026,-0.76302c-0.91102,-0.32478 -1.38758,-1.34309 -1.05632,-2.25715l0.3274,-0.88854c0.18771,-0.44365 0.1872,-0.9178 -0.00706,-1.3329c-0.38549,-0.82373 -1.38484,-1.20207 -2.18911,-0.82568l-0.98588,0.46138c-0.8886,0.41585 -1.96231,0.06442 -2.37209,-0.8112l-0.92276,-1.97177c-0.41281,-0.88211 0.0083,-1.92518 0.89689,-2.34104l0.98588,-0.46138c0.80427,-0.37639 1.15708,-1.37959 0.76855,-2.20981c-0.19427,-0.41511 -0.55801,-0.71929 -1.0189,-0.85939l-0.89502,-0.32437c-0.91102,-0.32478 -1.38758,-1.34309 -1.05631,-2.25715l0.79158,-2.1099c0.15831,-0.42198 0.49451,-0.78488 0.92259,-0.98522c0.42808,-0.20033 0.92556,-0.23548 1.34754,-0.07717l0.92055,0.32824c0.42156,0.17433 0.8862,0.17036 1.30131,-0.02391c0.83022,-0.38853 1.20855,-1.38787 0.83519,-2.18566l-0.46138,-0.98588c-0.41281,-0.88211 -0.06139,-1.95583 0.82072,-2.36865l1.97177,-0.92275c0.8821,-0.41281 1.94119,0.00872 2.35098,0.88434l0.46442,0.99237c0.37335,0.79779 1.38304,1.14755 2.21326,0.75902c0.42159,-0.1973 0.72881,-0.55455 0.86892,-1.01544l0.32436,-0.89502c0.15831,-0.42198 0.49451,-0.78489 0.92259,-0.98522c0.42808,-0.20033 0.92859,-0.22899 1.34754,-0.07716l2.11722,0.75653c0.92055,0.32823 1.3971,1.34654 1.05935,2.26364l-0.34423,0.92013c-0.18081,0.4246 -0.17988,0.88276 0.01439,1.29786c0.38549,0.82373 1.38483,1.20206 2.1891,0.82567l0.98588,-0.46137c0.88211,-0.41281 1.83605,-0.01324 2.23589,0.87494zM171.30873,135.33655c-2.87333,1.34468 -4.09916,4.75681 -2.76056,7.61718c1.33861,2.86037 4.74384,4.10524 7.61718,2.76056c2.87333,-1.34468 4.09916,-4.75682 2.76055,-7.61718c-1.33861,-2.86036 -4.74384,-4.10523 -7.61717,-2.76055z" stroke="none" stroke-width="0.33748"/><path d="M166.97845,157.7369l0.70855,2.06605c0.31594,0.92126 -0.09256,1.87141 -1.0138,2.18735l-1.02963,0.35312c-0.83997,0.28807 -1.2982,1.24771 -1.00084,2.11477c0.14635,0.42676 0.46631,0.76369 0.89136,0.94346l0.88687,0.42263c0.87331,0.42728 1.23805,1.49078 0.81078,2.3641l-0.99485,2.02187c-0.20261,0.40259 -0.57574,0.7274 -1.02282,0.88072c-0.44708,0.15332 -0.941,0.12588 -1.34805,-0.06763l-0.85512,-0.41837c-0.42544,-0.22506 -0.89693,-0.27535 -1.33046,-0.12667c-0.86706,0.29736 -1.35026,1.25042 -1.06452,2.08362l0.35312,1.02963c0.31594,0.92126 -0.14847,1.95115 -1.06973,2.2671l-2.05927,0.70623c-0.92802,0.31827 -1.92909,-0.21661 -2.24271,-1.13109l-0.35312,-1.02963c-0.28574,-0.83319 -1.25216,-1.28911 -2.11922,-0.99175c-0.43353,0.14868 -0.77724,0.47097 -0.95256,0.88691l-0.43405,0.87564c-0.20261,0.40259 -0.57574,0.7274 -1.02282,0.88072c-0.44708,0.15332 -0.94546,0.13498 -1.34805,-0.06763l-2.02632,-0.98575c-0.87099,-0.4205 -1.23573,-1.484 -0.80845,-2.35731l0.4207,-0.84835c0.23415,-0.42099 0.28444,-0.89246 0.13576,-1.32599c-0.29504,-0.86029 -1.2481,-1.3435 -2.08807,-1.05543l-1.02964,0.35312c-0.92802,0.31827 -1.95792,-0.14616 -2.27154,-1.06064l-0.70623,-2.05927c-0.31594,-0.92126 0.21448,-1.91321 1.1425,-2.23148l1.02963,-0.35312c0.83997,-0.28807 1.2982,-1.2477 1.00084,-2.11477c-0.14868,-0.43353 -0.47774,-0.77493 -0.92098,-0.96359l-0.85512,-0.41837c-0.87099,-0.4205 -1.23573,-1.48401 -0.80845,-2.35733l1.01305,-2.01296c0.20261,-0.40259 0.57573,-0.7274 1.02281,-0.88072c0.44708,-0.15332 0.94546,-0.13499 1.34805,0.06762l0.8801,0.42495c0.40046,0.21848 0.86285,0.26431 1.29638,0.11563c0.86706,-0.29736 1.35027,-1.25042 1.06452,-2.08362l-0.35311,-1.02963c-0.31594,-0.92126 0.14847,-1.95115 1.06973,-2.2671l2.05927,-0.70623c0.92125,-0.31594 1.92909,0.21661 2.24272,1.13109l0.35544,1.03641c0.28574,0.83319 1.25216,1.2891 2.11922,0.99174c0.4403,-0.151 0.78401,-0.47329 0.97268,-0.91652l0.41837,-0.85513c0.20261,-0.40259 0.57574,-0.7274 1.02282,-0.88072c0.44708,-0.15332 0.94779,-0.12821 1.34806,0.06762l2.02399,0.97898c0.8801,0.42495 1.24482,1.48845 0.81077,2.36409l-0.44082,0.87796c-0.22525,0.40278 -0.27341,0.85841 -0.12473,1.29194c0.29504,0.86029 1.2481,1.34349 2.08807,1.05542l1.02964,-0.35312c0.92126,-0.31594 1.8269,0.18352 2.12929,1.10942zM152.54844,157.77992c-3.00084,1.02914 -4.58513,4.29034 -3.56063,7.27763c1.0245,2.9873 4.27679,4.58978 7.27763,3.56063c3.00084,-1.02914 4.58513,-4.29033 3.56063,-7.27763c-1.0245,-2.98729 -4.27678,-4.58978 -7.27763,-3.56063z" stroke-opacity="0.40392" stroke="#ffffff" stroke-width="0"/><path d="M199.74219,170.56622v2.31668c0,1.03302 -0.73678,1.84575 -1.76979,1.84575h-1.15455c-0.94187,0 -1.73181,0.80514 -1.73181,1.77739c0,0.47852 0.20508,0.92668 0.56967,1.25329l0.74438,0.72919c0.72919,0.72919 0.72919,1.92171 0,2.65089l-1.69384,1.68624c-0.3418,0.3342 -0.82792,0.53169 -1.32924,0.53169c-0.50132,0 -0.98744,-0.19749 -1.32925,-0.53169l-0.71399,-0.71399c-0.3494,-0.37219 -0.80515,-0.58487 -1.29127,-0.58487c-0.97225,0 -1.78499,0.78995 -1.78499,1.72422v1.15454c0,1.03302 -0.82033,1.90652 -1.85334,1.90652h-2.30909c-1.04061,0 -1.86094,-0.8811 -1.86094,-1.90652v-1.15454c0,-0.93427 -0.81274,-1.72422 -1.78499,-1.72422c-0.48612,0 -0.94187,0.20508 -1.26089,0.56208l-0.73678,0.72919c-0.3418,0.33421 -0.82792,0.5317 -1.32924,0.5317c-0.50132,0 -0.99504,-0.18989 -1.32924,-0.5317l-1.69385,-1.68624c-0.72919,-0.72159 -0.72919,-1.91411 0,-2.64329l0.714,-0.7064c0.37978,-0.3418 0.59246,-0.79755 0.59246,-1.28367c0,-0.96465 -0.78995,-1.77739 -1.73181,-1.77739h-1.15455c-1.04061,0 -1.91411,-0.82033 -1.91411,-1.84575v-2.30909c0,-1.03302 0.8735,-1.84574 1.91411,-1.84574h1.15455c0.94187,0 1.73181,-0.80514 1.73181,-1.77739c0,-0.48612 -0.21268,-0.94187 -0.59246,-1.28367l-0.714,-0.714c-0.72919,-0.72159 -0.72919,-1.91412 0,-2.6433l1.70904,-1.67105c0.3418,-0.33421 0.82792,-0.53169 1.32924,-0.53169c0.50132,0 0.99504,0.18989 1.32925,0.53169l0.73678,0.72919c0.32661,0.357 0.77476,0.56208 1.26088,0.56208c0.97225,0 1.78499,-0.78996 1.78499,-1.72423v-1.15454c0,-1.03302 0.82033,-1.90652 1.85334,-1.90652h2.30909c1.03301,0 1.86094,0.8811 1.86094,1.90652v1.16214c0,0.93427 0.81274,1.72422 1.78499,1.72422c0.49372,0 0.94947,-0.20507 1.29127,-0.58486l0.71399,-0.714c0.3418,-0.33421 0.82793,-0.5317 1.32925,-0.5317c0.50132,0 0.99503,0.19749 1.32924,0.5317l1.69384,1.67864c0.73678,0.72919 0.73678,1.92171 0,2.65089l-0.74437,0.72919c-0.36459,0.32661 -0.56968,0.76717 -0.56968,1.25329c0,0.96465 0.78995,1.77739 1.73182,1.77739h1.15454c1.03302,0 1.7698,0.81274 1.7546,1.84575zM185.24964,165.64416c-3.36489,0 -6.07655,2.72685 -6.07655,6.07655c0,3.3497 2.71166,6.07654 6.07655,6.07654c3.36489,0 6.07654,-2.72684 6.07654,-6.07654c0,-3.34969 -2.71165,-6.07655 -6.07654,-6.07655z" stroke="none" stroke-width="0.33748"/></g><path d="M199.29683,276.92427c0,5.20355 -7.49923,9.42188 -16.75,9.42188c-9.25077,0 -16.75,-4.21832 -16.75,-9.42187c0,-5.20355 7.49923,-9.42187 16.75,-9.42187c9.25077,0 16.75,4.21832 16.75,9.42188z" fill="#7d8aab" fill-rule="nonzero" stroke="#42495b" stroke-width="2" stroke-linecap="butt" stroke-linejoin="miter"/><path d="M334.29683,290.18818c0,4.50552 -8.95431,8.15796 -20,8.15796c-11.04569,0 -20,-3.65245 -20,-8.15796c0,-4.50552 8.95431,-8.15796 20,-8.15796c11.04569,0 20,3.65245 20,8.15796z" fill="#7d8aab" fill-rule="nonzero" stroke="#42495b" stroke-width="2" stroke-linecap="butt" stroke-linejoin="miter"/><path d="M256.87387,176.61815c0,0 -6.46481,2.82408 -10.53397,1.2155c-1.51954,-0.60069 -4.1327,-4.2155 -4.1327,-4.2155" fill="none" fill-rule="nonzero" stroke="#001026" stroke-width="1.3" stroke-linecap="round" stroke-linejoin="miter"/><path d="M244.27203,207.63847c0,1.21502 -1.52841,2.2 -3.41379,2.2c-1.88539,0 -3.41379,-0.98497 -3.41379,-2.2c0,-1.21502 1.5284,-2.2 3.41379,-2.2c1.88539,0 3.41379,0.98498 3.41379,2.2z" fill="#ff8383" fill-rule="nonzero" stroke="#a75555" stroke-width="1" stroke-linecap="butt" stroke-linejoin="miter"/><path d="M215.17238,99.20209c-0.15589,0.10596 -0.35782,0.17774 -0.60581,0.21534c-0.248,0.0376 -0.57748,0.08374 -0.98844,0.13843c-0.41096,0.05811 -0.71564,0.16578 -0.91404,0.32301c-0.19839,0.15723 -0.29759,0.37941 -0.29759,0.66652c0,0.25294 0.09566,0.44948 0.28696,0.58962c0.19131,0.14014 0.45879,0.21021 0.80244,0.21021c0.52079,0 0.93706,-0.12476 1.24883,-0.37428c0.31176,-0.24952 0.46765,-0.52809 0.46765,-0.83572zM213.99264,96.45397c0.76524,0 1.30788,0.1316 1.6279,0.39479c0.32121,0.26319 0.48181,0.61525 0.48181,1.05618c0,1.88336 0,2.92758 0,3.13266c0,0.20508 0.09742,0.30763 0.29227,0.30763c0.04251,0 0.08857,-0.00513 0.13817,-0.01538c0.0496,-0.01025 0.09742,-0.02222 0.14348,-0.03589v0.69216c-0.08502,0.04786 -0.18363,0.08431 -0.29582,0.10938c-0.11101,0.0262 -0.23205,0.0393 -0.36313,0.0393c-0.25508,0 -0.44994,-0.06893 -0.58456,-0.20679c-0.13463,-0.139 -0.20194,-0.35035 -0.20194,-0.63405c-0.24445,0.28029 -0.53319,0.4905 -0.86621,0.63063c-0.33302,0.14014 -0.70501,0.21021 -1.11598,0.21021c-0.58102,0 -1.03626,-0.13217 -1.36574,-0.39649c-0.32948,-0.26547 -0.49422,-0.64089 -0.49422,-1.12626c0,-0.48878 0.16119,-0.8756 0.48359,-1.16043c0.32239,-0.28598 1.08054,-0.50075 2.27446,-0.64431c0.40388,-0.05127 0.67727,-0.12647 0.82016,-0.2256c0.14408,-0.09912 0.21611,-0.24781 0.21611,-0.44606c0,-0.30079 -0.10038,-0.52524 -0.30114,-0.67336c-0.19957,-0.14926 -0.51724,-0.22388 -0.953,-0.22388c-0.45701,0 -0.80008,0.08374 -1.02918,0.25123c-0.22792,0.16748 -0.35073,0.42726 -0.36845,0.77932h-0.92467c0.02835,-0.60158 0.248,-1.05448 0.65896,-1.35869c0.41095,-0.30421 0.98666,-0.45631 1.72711,-0.45631z" fill="#ffffff" fill-rule="evenodd" stroke="none" stroke-width="1" stroke-linecap="square" stroke-linejoin="miter"/><path d="M220.17301,97.23841c-0.54204,0 -0.96304,0.19141 -1.263,0.57424c-0.29878,0.38283 -0.44816,0.87503 -0.44816,1.47661c0,0.62892 0.15765,1.12911 0.47296,1.50054c0.31531,0.37029 0.74929,0.55544 1.30197,0.55544c0.53496,0 0.94946,-0.18458 1.24352,-0.55373c0.29405,-0.36915 0.44108,-0.88357 0.44108,-1.54326c0,-0.58449 -0.1553,-1.0653 -0.46588,-1.44243c-0.3094,-0.37827 -0.7369,-0.5674 -1.28249,-0.5674zM220.31118,96.45397c0.80421,0 1.43719,0.26661 1.89893,0.79983c0.46292,0.53322 0.69438,1.21854 0.69438,2.05598c0,0.84085 -0.23028,1.52218 -0.69084,2.04401c-0.46056,0.52068 -1.08586,0.78103 -1.8759,0.78103c-0.35074,0 -0.6938,-0.07007 -1.02917,-0.21021c-0.3342,-0.14014 -0.59874,-0.35377 -0.79359,-0.64089h-0.02125v2.80453h-0.92467v-7.51122h0.92467v0.73831h0.02125c0.14525,-0.28029 0.37435,-0.49391 0.6873,-0.64089c0.31413,-0.14697 0.68375,-0.22047 1.10889,-0.22047z" fill="#ffffff" fill-rule="evenodd" stroke="none" stroke-width="1" stroke-linecap="square" stroke-linejoin="miter"/><path d="M226.62441,97.23841c-0.54204,0 -0.96305,0.19141 -1.263,0.57424c-0.29877,0.38283 -0.44816,0.87503 -0.44816,1.47661c0,0.62892 0.15766,1.12911 0.47296,1.50054c0.31531,0.37029 0.7493,0.55544 1.30197,0.55544c0.53495,0 0.94946,-0.18458 1.24352,-0.55373c0.29405,-0.36915 0.44108,-0.88357 0.44108,-1.54326c0,-0.58449 -0.1553,-1.0653 -0.46588,-1.44243c-0.3094,-0.37827 -0.7369,-0.5674 -1.28249,-0.5674zM226.76258,96.45397c0.80421,0 1.43718,0.26661 1.89892,0.79983c0.46293,0.53322 0.69439,1.21854 0.69439,2.05598c0,0.84085 -0.23028,1.52218 -0.69084,2.04401c-0.46056,0.52068 -1.08587,0.78103 -1.8759,0.78103c-0.35074,0 -0.69379,-0.07007 -1.02917,-0.21021c-0.3342,-0.14014 -0.59873,-0.35377 -0.79358,-0.64089h-0.02126v2.80453h-0.92466v-7.51122h0.92466v0.73831h0.02126c0.14525,-0.28029 0.37435,-0.49391 0.6873,-0.64089c0.31413,-0.14697 0.68375,-0.22047 1.10889,-0.22047z" fill="#ffffff" fill-rule="evenodd" stroke="none" stroke-width="1" stroke-linecap="square" stroke-linejoin="miter"/><path d="M231.41778,94.51079v7.49583h-0.92466v-7.49583z" fill="#ffffff" fill-rule="evenodd" stroke="none" stroke-width="1" stroke-linecap="square" stroke-linejoin="miter"/><path d="M235.13239,97.23841c-0.42513,0 -0.78826,0.13843 -1.0894,0.4153c-0.30114,0.27686 -0.47119,0.64944 -0.51016,1.11771h3.23101c-0.02834,-0.44093 -0.19426,-0.80666 -0.49776,-1.0972c-0.30232,-0.29054 -0.6802,-0.43581 -1.13368,-0.43581zM235.19616,96.45397c0.80775,0 1.43483,0.28028 1.88121,0.84085c0.4464,0.56057 0.66958,1.28007 0.66958,2.15851v0.10767h-4.21413v0.06665c0,0.51613 0.15588,0.93142 0.46765,1.24589c0.31177,0.31446 0.74044,0.47169 1.28603,0.47169c0.41095,0 0.7375,-0.09229 0.97957,-0.27686c0.24328,-0.18458 0.40211,-0.44606 0.47651,-0.78445h0.91403c-0.124,0.60158 -0.39678,1.06074 -0.81838,1.37749c-0.42158,0.3156 -0.94945,0.4734 -1.58363,0.4734c-0.59163,0 -1.09235,-0.12874 -1.50213,-0.38624c-0.4086,-0.25863 -0.71033,-0.61754 -0.90518,-1.0767c-0.19485,-0.4603 -0.29227,-0.93142 -0.29227,-1.41337c0,-0.79983 0.24976,-1.46692 0.74929,-2.00128c0.49954,-0.5355 1.13015,-0.80325 1.89185,-0.80325z" fill="#ffffff" fill-rule="evenodd" stroke="none" stroke-width="1" stroke-linecap="square" stroke-linejoin="miter"/></g></g></svg>
