<svg version="1.1" xmlns="http://www.w3.org/2000/svg" xmlns:xlink="http://www.w3.org/1999/xlink" width="338.73782" height="310.42118" viewBox="0,0,338.73782,310.42118"><defs><radialGradient cx="238.78087" cy="181.97625" r="129.18401" gradientUnits="userSpaceOnUse" id="color-1"><stop offset="0" stop-color="#67aeff" stop-opacity="0"/><stop offset="1" stop-color="#67aeff"/></radialGradient><radialGradient cx="238.66395" cy="179.71702" r="129.12356" gradientUnits="userSpaceOnUse" id="color-2"><stop offset="0" stop-color="#67aeff" stop-opacity="0"/><stop offset="1" stop-color="#67aeff"/></radialGradient><radialGradient cx="240" cy="181.4814" r="97.82213" gradientUnits="userSpaceOnUse" id="color-3"><stop offset="0" stop-color="#67aeff" stop-opacity="0"/><stop offset="1" stop-color="#67aeff"/></radialGradient><radialGradient cx="238.29025" cy="180" r="100.24966" gradientUnits="userSpaceOnUse" id="color-4"><stop offset="0" stop-color="#67aeff" stop-opacity="0"/><stop offset="1" stop-color="#67aeff"/></radialGradient><radialGradient cx="239.99998" cy="180" r="169.36891" gradientUnits="userSpaceOnUse" id="color-5"><stop offset="0" stop-color="#66adff"/><stop offset="1" stop-color="#66adff" stop-opacity="0"/></radialGradient></defs><g transform="translate(-70.63109,-24.78941)"><g data-paper-data="{&quot;isPaintingLayer&quot;:true}" fill-rule="nonzero" stroke-linecap="butt" stroke-linejoin="miter" stroke-miterlimit="10" stroke-dasharray="" stroke-dashoffset="0" style="mix-blend-mode: normal"><g fill="none" stroke-width="7"><g><path d="M273.11027,155.98066c43.07091,56.87882 62.61698,114.62683 43.65737,128.9838c-18.95961,14.35697 -69.24527,-20.1138 -112.31618,-76.99261c-43.07091,-56.87882 -62.61698,-114.62683 -43.65738,-128.9838c18.95961,-14.35697 69.24527,20.1138 112.31618,76.99262z" stroke="url(#color-1)"/><path d="M211.56679,146.25028c55.44952,-44.89603 112.53204,-66.30788 127.49739,-47.82471c14.96535,18.48317 -17.85356,69.86217 -73.30309,114.7582c-55.44952,44.89603 -112.53204,66.30788 -127.49739,47.82471c-14.96535,-18.48317 17.85356,-69.86217 73.30309,-114.7582z" stroke="url(#color-2)"/></g><g><path d="M245.05012,138.71722c70.85401,8.36732 126.03152,34.29656 123.24241,57.91456c-2.78911,23.618 -62.48865,35.98112 -133.34266,27.61379c-70.85401,-8.36732 -126.03151,-34.29655 -123.2424,-57.91456c2.78911,-23.618 62.48865,-35.98112 133.34266,-27.6138z" stroke="url(#color-3)"/><path d="M195.38458,176.34185c6.06103,-71.08844 30.18398,-127.07921 53.88013,-125.05886c23.69615,2.02034 37.99224,61.28673 31.93121,132.37517c-6.06103,71.08844 -30.18398,127.0792 -53.88013,125.05886c-23.69615,-2.02034 -37.99224,-61.28672 -31.93121,-132.37517z" stroke="url(#color-4)"/></g></g><path d="M131.41339,208.83913c-0.73513,-17.59016 -1.59641,-40.36953 -1.59641,-50.54198c0,-9.99954 14.13082,-22.73121 34.43916,-22.73121c24.25842,0 99.58407,-0.72008 136.29576,-0.72008c18.09611,0 30.63113,15.07602 30.63113,22.01114c0,9.96023 0,23.94564 0,44.64503c0,13.3165 -19.59661,30.65211 -35.87327,30.65211c-23.13642,0 -87.88646,0 -128.43255,0c-20.23318,0 -34.91652,-10.21943 -35.46381,-23.31501z" fill="#3ffa45" stroke="none" stroke-width="0"/><path d="M409.36889,180c0,85.72044 -75.82904,155.21059 -169.3689,155.21059c-93.53987,0 -169.3689,-69.49015 -169.3689,-155.21059c0,-85.72044 75.82904,-155.21059 169.36891,-155.21059c93.53987,0 169.36891,69.49015 169.36891,155.21059z" fill="url(#color-5)" stroke="none" stroke-width="0"/><path d="M143.41339,208.33913c-0.73513,-17.59016 -1.59641,-40.36953 -1.59641,-50.54198c0,-9.99954 14.13082,-22.73121 34.43916,-22.73121c24.25842,0 99.58407,-0.72008 136.29576,-0.72008c18.09611,0 30.63113,15.07602 30.63113,22.01114c0,9.96023 0,23.94564 0,44.64503c0,13.3165 -19.59661,30.65211 -35.87327,30.65211c-23.13642,0 -87.88646,0 -128.43255,0c-20.23318,0 -34.91652,-10.21943 -35.46381,-23.31501z" fill="#6a7cfa" stroke="none" stroke-width="0"/><path d="M136.91339,202.83913c-0.73513,-17.59016 -1.59641,-40.36953 -1.59641,-50.54198c0,-9.99954 14.13082,-22.73121 34.43916,-22.73121c24.25842,0 99.58407,-0.72008 136.29576,-0.72008c18.09611,0 30.63113,15.07602 30.63113,22.01114c0,9.96023 0,23.94564 0,44.64503c0,13.3165 -19.59661,30.65211 -35.87327,30.65211c-23.13642,0 -87.88646,0 -128.43255,0c-20.23318,0 -34.91652,-10.21943 -35.46381,-23.31501z" fill="#fb7979" stroke="none" stroke-width="0"/><path d="M140.91339,205.33913c-0.73513,-17.59016 -1.59641,-40.36953 -1.59641,-50.54198c0,-9.99954 14.13082,-22.73121 34.43916,-22.73121c24.25842,0 99.58407,-0.72008 136.29576,-0.72008c18.09611,0 30.63113,15.07602 30.63113,22.01114c0,9.96023 0,23.94564 0,44.64503c0,13.3165 -19.59661,30.65211 -35.87327,30.65211c-23.13642,0 -87.88646,0 -128.43255,0c-20.23318,0 -34.91652,-10.21943 -35.46381,-23.31501z" fill="#66788e" stroke="none" stroke-width="0"/><text transform="translate(170.75421,198.45089) scale(1.59921,1.59921)" font-size="40" xml:space="preserve" fill="#ffffff" fill-rule="nonzero" stroke="#ffffff" stroke-width="3" stroke-linecap="butt" stroke-linejoin="miter" stroke-miterlimit="10" stroke-dasharray="" stroke-dashoffset="0" font-family="Sans Serif" font-weight="normal" text-anchor="start" style="mix-blend-mode: normal"><tspan x="0" dy="0">СИН</tspan></text></g></g></svg>
