<svg version="1.1" xmlns="http://www.w3.org/2000/svg" xmlns:xlink="http://www.w3.org/1999/xlink" width="90.09476" height="89.78175" viewBox="0,0,90.09476,89.78175"><defs><linearGradient x1="197.20262" y1="180" x2="282.79737" y2="180" gradientUnits="userSpaceOnUse" id="color-1"><stop offset="0" stop-color="#addbff"/><stop offset="1" stop-color="#8ebdff"/></linearGradient><linearGradient x1="210.57032" y1="160.93798" x2="202.52696" y2="166.8416" gradientUnits="userSpaceOnUse" id="color-2"><stop offset="0" stop-color="#779eff" stop-opacity="0.19415"/><stop offset="1" stop-color="#7faeff" stop-opacity="0.21825"/></linearGradient><linearGradient x1="211.57403" y1="170.69996" x2="203.53067" y2="176.60358" gradientUnits="userSpaceOnUse" id="color-3"><stop offset="0" stop-color="#779eff" stop-opacity="0.19415"/><stop offset="1" stop-color="#7faeff" stop-opacity="0.21825"/></linearGradient><linearGradient x1="224.14534" y1="164.61703" x2="216.10198" y2="170.52065" gradientUnits="userSpaceOnUse" id="color-4"><stop offset="0" stop-color="#779eff" stop-opacity="0.19415"/><stop offset="1" stop-color="#7faeff" stop-opacity="0.21825"/></linearGradient><linearGradient x1="220.11741" y1="159.82028" x2="212.07405" y2="165.7239" gradientUnits="userSpaceOnUse" id="color-5"><stop offset="0" stop-color="#779eff" stop-opacity="0.19415"/><stop offset="1" stop-color="#7faeff" stop-opacity="0.21825"/></linearGradient><linearGradient x1="217.14705" y1="168.31877" x2="209.10369" y2="174.22239" gradientUnits="userSpaceOnUse" id="color-6"><stop offset="0" stop-color="#779eff" stop-opacity="0.19415"/><stop offset="1" stop-color="#7faeff" stop-opacity="0.21825"/></linearGradient><linearGradient x1="220.27497" y1="175.84322" x2="212.2316" y2="181.74685" gradientUnits="userSpaceOnUse" id="color-7"><stop offset="0" stop-color="#779eff" stop-opacity="0.19415"/><stop offset="1" stop-color="#7faeff" stop-opacity="0.21825"/></linearGradient><linearGradient x1="224.28636" y1="171.38091" x2="216.243" y2="177.28453" gradientUnits="userSpaceOnUse" id="color-8"><stop offset="0" stop-color="#779eff" stop-opacity="0.19415"/><stop offset="1" stop-color="#7faeff" stop-opacity="0.21825"/></linearGradient><linearGradient x1="226.9405" y1="180.18658" x2="218.89713" y2="186.09021" gradientUnits="userSpaceOnUse" id="color-9"><stop offset="0" stop-color="#779eff" stop-opacity="0.19415"/><stop offset="1" stop-color="#7faeff" stop-opacity="0.21825"/></linearGradient><linearGradient x1="217.33108" y1="210.96155" x2="209.28772" y2="205.05793" gradientUnits="userSpaceOnUse" id="color-10"><stop offset="0" stop-color="#779eff" stop-opacity="0.19415"/><stop offset="1" stop-color="#7faeff" stop-opacity="0.21825"/></linearGradient><linearGradient x1="218.33479" y1="201.19957" x2="210.29143" y2="195.29595" gradientUnits="userSpaceOnUse" id="color-11"><stop offset="0" stop-color="#779eff" stop-opacity="0.19415"/><stop offset="1" stop-color="#7faeff" stop-opacity="0.21825"/></linearGradient><linearGradient x1="230.90611" y1="207.28251" x2="222.86274" y2="201.37888" gradientUnits="userSpaceOnUse" id="color-12"><stop offset="0" stop-color="#779eff" stop-opacity="0.19415"/><stop offset="1" stop-color="#7faeff" stop-opacity="0.21825"/></linearGradient><linearGradient x1="226.87817" y1="212.07925" x2="218.83481" y2="206.17563" gradientUnits="userSpaceOnUse" id="color-13"><stop offset="0" stop-color="#779eff" stop-opacity="0.19415"/><stop offset="1" stop-color="#7faeff" stop-opacity="0.21825"/></linearGradient><linearGradient x1="223.90781" y1="203.58077" x2="215.86445" y2="197.67715" gradientUnits="userSpaceOnUse" id="color-14"><stop offset="0" stop-color="#779eff" stop-opacity="0.19415"/><stop offset="1" stop-color="#7faeff" stop-opacity="0.21825"/></linearGradient><linearGradient x1="227.03573" y1="196.05631" x2="218.99236" y2="190.15269" gradientUnits="userSpaceOnUse" id="color-15"><stop offset="0" stop-color="#779eff" stop-opacity="0.19415"/><stop offset="1" stop-color="#7faeff" stop-opacity="0.21825"/></linearGradient><linearGradient x1="231.04712" y1="200.51863" x2="223.00376" y2="194.61501" gradientUnits="userSpaceOnUse" id="color-16"><stop offset="0" stop-color="#779eff" stop-opacity="0.19415"/><stop offset="1" stop-color="#7faeff" stop-opacity="0.21825"/></linearGradient><linearGradient x1="233.70126" y1="191.71295" x2="225.65789" y2="185.80933" gradientUnits="userSpaceOnUse" id="color-17"><stop offset="0" stop-color="#779eff" stop-opacity="0.19415"/><stop offset="1" stop-color="#7faeff" stop-opacity="0.21825"/></linearGradient><radialGradient cx="203.75194" cy="217.22478" r="4.6605" gradientUnits="userSpaceOnUse" id="color-18"><stop offset="0" stop-color="#ffcfcf"/><stop offset="1" stop-color="#eb7070"/></radialGradient><radialGradient cx="278.37537" cy="216.06057" r="4.6605" gradientUnits="userSpaceOnUse" id="color-19"><stop offset="0" stop-color="#cfffd5"/><stop offset="1" stop-color="#71eb7b"/></radialGradient><radialGradient cx="276.29836" cy="141.51339" r="4.6605" gradientUnits="userSpaceOnUse" id="color-20"><stop offset="0" stop-color="#ffcfcf"/><stop offset="1" stop-color="#eb7070"/></radialGradient><radialGradient cx="219.2703" cy="146.22457" r="8.68207" gradientUnits="userSpaceOnUse" id="color-21"><stop offset="0" stop-color="#cef8ff"/><stop offset="1" stop-color="#c4ddea"/></radialGradient><radialGradient cx="200.58498" cy="144.27307" r="4.6605" gradientUnits="userSpaceOnUse" id="color-22"><stop offset="0" stop-color="#cfffd5"/><stop offset="1" stop-color="#71eb7b"/></radialGradient></defs><g transform="translate(-194.95262,-135.10912)"><g data-paper-data="{&quot;isPaintingLayer&quot;:true}" stroke-miterlimit="10" stroke-dasharray="" stroke-dashoffset="0" style="mix-blend-mode: normal"><path d="M197.20262,216.39286c0,-17.82069 0,-68.10172 0,-75.65965c0,-1.86987 1.60522,-3.37408 3.57886,-3.37408c8.47687,0 67.76402,0 79.86296,0c1.38617,0 2.15294,1.69459 2.15294,3.7562c0,8.1099 0,60.64961 0,76.80601c0,2.97771 -1.27993,4.71954 -2.91717,4.71954c-7.26761,0 -59.89596,0 -77.18813,0c-3.44664,0 -5.48945,-2.3458 -5.48945,-6.24802z" fill="url(#color-1)" fill-rule="nonzero" stroke="#6482a7" stroke-width="4.5" stroke-linecap="butt" stroke-linejoin="miter"/><g data-paper-data="{&quot;index&quot;:null}" fill-rule="nonzero" stroke-opacity="0.24446" stroke="#ffffff" stroke-width="1.5" stroke-linecap="butt" stroke-linejoin="miter"><path d="M212.16192,171.53758c-2.22111,1.63024 -6.53483,-0.47221 -9.63496,-4.69597c-3.10013,-4.22376 -3.81272,-8.96937 -1.5916,-10.59961c2.22111,-1.63024 6.53483,0.47222 9.63497,4.69598c3.10013,4.22376 3.81272,8.96936 1.5916,10.59961z" fill="url(#color-2)"/><path d="M213.16562,181.29955c-2.22111,1.63024 -6.53483,-0.47221 -9.63496,-4.69597c-3.10013,-4.22376 -3.81272,-8.96937 -1.59161,-10.59961c2.22111,-1.63024 6.53483,0.47222 9.63497,4.69598c3.10013,4.22376 3.81272,8.96936 1.5916,10.59961z" fill="url(#color-3)"/><path d="M225.73694,175.21662c-2.22111,1.63024 -6.53483,-0.47221 -9.63496,-4.69597c-3.10013,-4.22376 -3.81272,-8.96937 -1.5916,-10.59961c2.22111,-1.63024 6.53483,0.47222 9.63497,4.69598c3.10013,4.22376 3.81271,8.96936 1.5916,10.59961z" fill="url(#color-4)"/><path d="M221.70901,170.41988c-2.22111,1.63024 -6.53483,-0.47221 -9.63496,-4.69597c-3.10013,-4.22376 -3.81272,-8.96936 -1.5916,-10.59961c2.22111,-1.63024 6.53484,0.47222 9.63497,4.69598c3.10013,4.22376 3.81272,8.96936 1.5916,10.5996z" fill="url(#color-5)"/><path d="M218.73865,178.91836c-2.22111,1.63024 -6.53484,-0.47222 -9.63497,-4.69598c-3.10013,-4.22376 -3.81272,-8.96937 -1.5916,-10.59961c2.22111,-1.63024 6.53483,0.47221 9.63496,4.69597c3.10013,4.22376 3.81272,8.96937 1.5916,10.59961z" fill="url(#color-6)"/><path d="M221.86657,186.44282c-2.22111,1.63024 -6.53483,-0.47221 -9.63496,-4.69597c-3.10013,-4.22376 -3.81272,-8.96937 -1.5916,-10.59961c2.22111,-1.63024 6.53483,0.47222 9.63497,4.69598c3.10013,4.22376 3.81272,8.96936 1.5916,10.59961z" fill="url(#color-7)"/><path d="M225.87797,181.9805c-2.22111,1.63024 -6.53483,-0.47221 -9.63496,-4.69597c-3.10013,-4.22376 -3.81272,-8.96936 -1.5916,-10.59961c2.22111,-1.63024 6.53484,0.47222 9.63497,4.69598c3.10013,4.22376 3.81272,8.96936 1.59159,10.5996z" fill="url(#color-8)"/><path d="M228.53209,190.78618c-2.22111,1.63024 -6.53483,-0.47221 -9.63496,-4.69597c-3.10013,-4.22376 -3.81272,-8.96937 -1.5916,-10.59961c2.22111,-1.63024 6.53483,0.47222 9.63497,4.69598c3.10013,4.22376 3.81272,8.96936 1.5916,10.59961z" fill="url(#color-9)"/></g><g data-paper-data="{&quot;index&quot;:null}" fill-rule="nonzero" stroke-opacity="0.24446" stroke="#ffffff" stroke-width="1.5" stroke-linecap="butt" stroke-linejoin="miter"><path d="M218.92269,200.36194c2.22113,1.63025 1.50853,6.37584 -1.5916,10.5996c-3.10014,4.22376 -7.41385,6.32622 -9.63496,4.69598c-2.22112,-1.63024 -1.50853,-6.37584 1.5916,-10.5996c3.10013,-4.22377 7.41385,-6.32621 9.63496,-4.69597z" fill="url(#color-10)"/><path d="M219.92638,190.59998c2.22113,1.63025 1.50853,6.37584 -1.5916,10.5996c-3.10014,4.22377 -7.41386,6.32622 -9.63497,4.69598c-2.22111,-1.63024 -1.50852,-6.37585 1.59161,-10.59961c3.10013,-4.22376 7.41385,-6.3262 9.63496,-4.69597z" fill="url(#color-11)"/><path d="M232.49771,196.68291c2.22111,1.63024 1.50853,6.37584 -1.5916,10.5996c-3.10014,4.22376 -7.41386,6.32622 -9.63497,4.69599c-2.22113,-1.63025 -1.50853,-6.37586 1.5916,-10.59961c3.10013,-4.22377 7.41385,-6.32621 9.63496,-4.69597z" fill="url(#color-12)"/><path d="M228.46978,201.47966c2.22112,1.63024 1.50853,6.37584 -1.5916,10.5996c-3.10013,4.22376 -7.41386,6.32621 -9.63497,4.69597c-2.22113,-1.63025 -1.50853,-6.37584 1.5916,-10.5996c3.10013,-4.22377 7.41385,-6.3262 9.63496,-4.69597z" fill="url(#color-13)"/><path d="M225.49941,192.98118c2.22112,1.63024 1.50853,6.37584 -1.5916,10.5996c-3.10013,4.22376 -7.41385,6.3262 -9.63496,4.69597c-2.22112,-1.63024 -1.50853,-6.37584 1.5916,-10.5996c3.10013,-4.22376 7.41386,-6.32621 9.63497,-4.69598z" fill="url(#color-14)"/><path d="M228.62734,185.4567c2.22113,1.63025 1.50853,6.37584 -1.5916,10.5996c-3.10014,4.22376 -7.41385,6.32621 -9.63496,4.69598c-2.22112,-1.63024 -1.50854,-6.37584 1.59159,-10.5996c3.10013,-4.22377 7.41385,-6.3262 9.63496,-4.69597z" fill="url(#color-15)"/><path d="M232.63873,189.91904c2.22112,1.63024 1.50854,6.37583 -1.59159,10.59959c-3.10013,4.22376 -7.41386,6.32621 -9.63497,4.69598c-2.22113,-1.63025 -1.50853,-6.37584 1.5916,-10.5996c3.10013,-4.22376 7.41385,-6.32621 9.63496,-4.69597z" fill="url(#color-16)"/><path d="M235.29286,181.11334c2.22113,1.63025 1.50853,6.37585 -1.5916,10.59961c-3.10014,4.22377 -7.41386,6.32622 -9.63497,4.69598c-2.22112,-1.63024 -1.50853,-6.37584 1.5916,-10.5996c3.10013,-4.22376 7.41385,-6.32621 9.63496,-4.69598z" fill="url(#color-17)"/></g><path d="M205.55483,220.35915c-0.4474,0.7675 -3.27312,1.71136 -4.6014,0.93707c-1.05638,-0.61579 -2.64754,-2.01051 -3.03323,-2.99963c-0.42619,-1.09298 1.73791,-4.46717 2.44143,-4.771c1.27726,-0.5516 5.32531,1.6016 5.74901,2.39128c0.65494,1.22065 0.11881,3.28495 -0.55582,4.44227z" fill="url(#color-18)" fill-rule="nonzero" stroke="#c66868" stroke-width="1.5" stroke-linecap="butt" stroke-linejoin="miter"/><text transform="translate(223.61714,161.86018) scale(0.61782,0.61782)" font-size="40" xml:space="preserve" fill-opacity="0.40383" fill="#7579ff" fill-rule="nonzero" stroke="none" stroke-width="1" stroke-linecap="butt" stroke-linejoin="miter" stroke-miterlimit="10" stroke-dasharray="" stroke-dashoffset="0" font-family="Sans Serif" font-weight="normal" text-anchor="start" style="mix-blend-mode: normal"><tspan x="0" dy="0">2025</tspan></text><path d="M281.92078,216.77108c0.2822,0.84237 -0.87083,3.5894 -2.32867,4.07778c-1.15943,0.38842 -3.2571,0.66547 -4.25513,0.30346c-1.10283,-0.40002 -2.21348,-4.25165 -1.97818,-4.98096c0.42721,-1.32405 4.71486,-2.94859 5.58797,-2.74664c1.34961,0.31217 2.54847,2.07613 2.974,3.34634z" data-paper-data="{&quot;index&quot;:null}" fill="url(#color-19)" fill-rule="nonzero" stroke="#74c769" stroke-width="1.5" stroke-linecap="butt" stroke-linejoin="miter"/><path d="M274.49547,138.37902c0.4474,-0.7675 3.27312,-1.71136 4.6014,-0.93707c1.05638,0.61579 2.64754,2.01051 3.03323,2.99963c0.42619,1.09298 -1.73791,4.46717 -2.44143,4.771c-1.27726,0.5516 -5.32531,-1.6016 -5.74901,-2.39128c-0.65494,-1.22065 -0.11881,-3.28495 0.55582,-4.44227z" data-paper-data="{&quot;index&quot;:null}" fill="url(#color-20)" fill-rule="nonzero" stroke="#c66868" stroke-width="1.5" stroke-linecap="butt" stroke-linejoin="miter"/><path d="M251.41344,157.30145c0.25566,-0.17983 0.69115,-0.10401 0.78648,0.24049l2.48516,9.2168c0,0 5.64841,3.93456 7.36655,6.75332c2.89247,4.69723 3.07665,8.59498 3.07665,8.59498c0,0 6.19871,1.66609 7.36221,6.57999c1.1635,4.91389 -2.41571,14.36905 -18.62852,17.98306c-16.21282,3.61401 -29.40974,-0.47868 -35.80999,-10.20461c-6.40025,-9.72593 3.01149,-21.75507 2.50884,-21.04875l-2.20787,-15.4675c-0.09533,-0.34449 0.33149,-0.61533 0.68249,-0.45067l10.65765,6.58431c0,0 3.86308,-1.57082 7.932,-1.846c2.42228,-0.234 4.50657,-0.11268 6.50853,0.18412z" fill="#ffab19" fill-rule="evenodd" stroke="#001026" stroke-width="1.2" stroke-linecap="butt" stroke-linejoin="miter"/><path d="M264.87696,182.46016c0,0 6.01888,1.41044 7.18238,6.32433c1.1635,4.91389 4.20909,23.2776 -11.83256,26.80062c-1.78845,0.41638 -2.2215,0.73118 -3.85107,0.90904c-3.34749,0.36536 -10.47956,2.22161 -13.11383,1.7427c-1.23003,-0.22362 -6.23006,-3.85652 -8.43428,-7.34985c-1.74005,-2.75769 -0.77313,-5.50663 -1.50821,-5.8815c-6.6944,-3.41385 -8.93749,-9.94238 -5.64114,-15.45813c5.57468,-9.41834 15.73834,-1.78105 23.00519,-2.48307c6.22903,-0.58936 6.78583,-6.06658 14.19352,-4.60414z" fill="#ffffff" fill-rule="evenodd" stroke="none" stroke-width="1" stroke-linecap="butt" stroke-linejoin="miter"/><path d="M237.8094,192.41596c-0.00867,-0.34666 0.33148,-0.61533 0.68031,-0.53733c1.6618,0.56547 6.37637,1.8351 11.58494,2.05173c4.68641,0.14297 7.45319,-0.18636 8.74666,-0.47887c0.43115,-0.09751 0.78865,0.32715 0.62615,0.76481c-0.72147,2.35946 -3.85222,8.94167 -12.96502,8.64922c-7.90818,-0.66945 -8.82684,-6.19649 -8.67305,-10.44957z" fill="#ffffff" fill-rule="evenodd" stroke="#001026" stroke-width="1.2" stroke-linecap="round" stroke-linejoin="round"/><path d="M280.84713,183.01473c-3.9909,3.39512 -10.2286,3.63781 -10.2286,3.63781" fill="none" fill-rule="evenodd" stroke="#001026" stroke-width="1.2" stroke-linecap="round" stroke-linejoin="round"/><path d="M279.96319,192.74941c-5.44905,0.56985 -8.87015,-0.99227 -8.87015,-0.99227" fill="none" fill-rule="evenodd" stroke="#001026" stroke-width="1.2" stroke-linecap="round" stroke-linejoin="round"/><path d="M250.28043,184.81972c1.81996,-0.0455 3.73092,0.08015 3.83276,0.68463c0.11701,1.21114 -1.1223,3.67027 -2.50676,3.79161c-1.55563,0.21234 -5.24973,-1.86327 -5.2844,-3.2499c-0.11267,-1.03781 2.22511,-1.18299 3.95842,-1.22633z" fill="#001026" fill-rule="evenodd" stroke="#001026" stroke-width="1.2" stroke-linecap="round" stroke-linejoin="round"/><path d="M211.24873,184.49491c0,0 7.51385,2.24025 10.6143,4.85101" fill="none" fill-rule="evenodd" stroke="#001026" stroke-width="1.2" stroke-linecap="round" stroke-linejoin="round"/><path d="M222.19888,192.37271c-3.68975,1.56649 -10.12679,0.77355 -10.12679,0.77355" fill="none" fill-rule="evenodd" stroke="#001026" stroke-width="1.2" stroke-linecap="round" stroke-linejoin="round"/><g fill-rule="evenodd"><path d="M260.25334,174.4242c2.61079,3.83708 2.80799,8.25482 0.42037,9.87546c-2.38761,1.62064 -6.4197,-0.09963 -9.11717,-3.93455c-2.61079,-3.83708 -2.80799,-8.25481 -0.42037,-9.87546c2.38544,-1.70731 6.50636,0.09746 9.11717,3.93454z" fill="#ffffff" stroke="#001026" stroke-width="1.2" stroke-linecap="round" stroke-linejoin="round"/><path d="M260.03021,179.37278c0.02384,0.95332 -0.64998,1.75063 -1.51663,1.7723c-0.86665,0.02167 -1.57948,-0.74098 -1.6033,-1.69429c-0.02384,-0.95332 0.64998,-1.75063 1.51662,-1.7723c0.86665,-0.02167 1.57948,0.74098 1.60331,1.69429" fill="#001026" stroke="none" stroke-width="1" stroke-linecap="butt" stroke-linejoin="miter"/></g><g fill-rule="evenodd"><path d="M238.82113,177.38826c2.6953,3.74824 2.63898,8.43249 0.3402,10.13763c-2.81876,1.71814 -6.66236,0.60019 -9.35766,-3.14805c-2.78197,-3.74607 -3.07881,-8.68164 -0.43988,-10.65545c2.63677,-2.06047 6.76203,-0.08237 9.45733,3.66588z" fill="#ffffff" stroke="#001026" stroke-width="1.2" stroke-linecap="round" stroke-linejoin="round"/><path d="M238.42683,182.42783c0.02384,0.95332 -0.64998,1.75063 -1.51663,1.77231c-0.86665,0.02167 -1.57948,-0.74097 -1.60331,-1.69428c-0.02384,-0.95332 0.64998,-1.75064 1.51663,-1.77231c0.86881,0.065 1.57948,0.74098 1.60331,1.69429" fill="#001026" stroke="none" stroke-width="1" stroke-linecap="butt" stroke-linejoin="miter"/></g><path d="M250.75231,165.91178c-4.38599,3.69712 -11.05496,5.44817 -16.67115,4.74548c-7.04522,-0.8815 -9.17873,5.28265 -12.383,-1.42942c-2.26744,-4.74965 -10.29063,-22.90692 1.73999,-21.40165c11.26411,1.40937 32.32356,13.86295 27.31415,18.08558z" fill="#6fbff2" fill-rule="nonzero" stroke="#4966b3" stroke-width="2" stroke-linecap="butt" stroke-linejoin="miter"/><path d="M225.43813,148.07695c-0.07706,4.10925 -4.02594,7.36758 -8.82006,7.27768c-4.79413,-0.0899 -8.61808,-3.49399 -8.54102,-7.60325c0.07706,-4.10925 4.02594,-7.36758 8.82007,-7.27767c4.79413,0.0899 8.61807,3.49399 8.54101,7.60324z" fill="url(#color-21)" fill-rule="nonzero" stroke="#87bbc8" stroke-width="2" stroke-linecap="butt" stroke-linejoin="miter"/><path d="M233.56887,206.73147c0,0 -0.20253,3.72973 1.30899,5.54132c1.51152,1.8116 4.49753,5.29677 8.5731,5.54274c3.08579,0.18624 21.122,-4.12618 21.122,-4.12618c0,0 6.32325,-4.84802 7.7245,-7.74187c1.35037,-2.78878 0.536,-9.3177 0.536,-9.3177" fill="none" fill-rule="nonzero" stroke="#001026" stroke-width="1.5" stroke-linecap="round" stroke-linejoin="miter"/><path d="M272.72513,192.25557l0.0483,3.86702" fill="none" fill-rule="nonzero" stroke="#001026" stroke-width="1.2" stroke-linecap="round" stroke-linejoin="miter"/><path d="M241.64248,206.89553l5.26042,9.40149" fill="none" fill-rule="nonzero" stroke="#becfd1" stroke-width="1.5" stroke-linecap="round" stroke-linejoin="miter"/><path d="M249.27614,205.7097l5.63406,8.80441" fill="none" fill-rule="nonzero" stroke="#c0cfd1" stroke-width="1.5" stroke-linecap="round" stroke-linejoin="miter"/><path d="M257.28344,203.9268l4.78638,8.90934" fill="none" fill-rule="nonzero" stroke="#b4ced1" stroke-width="1" stroke-linecap="round" stroke-linejoin="miter"/><path d="M197.03957,143.56256c-0.28219,-0.84237 0.87083,-3.5894 2.32866,-4.07778c1.15943,-0.38842 3.2571,-0.66547 4.25513,-0.30345c1.10283,0.40002 2.21348,4.25165 1.97817,4.98095c-0.4272,1.32406 -4.71486,2.94859 -5.58797,2.74664c-1.34961,-0.31217 -2.54847,-2.07613 -2.974,-3.34635z" fill="url(#color-22)" fill-rule="nonzero" stroke="#74c769" stroke-width="1.5" stroke-linecap="butt" stroke-linejoin="miter"/><text transform="translate(336.56888,145.18323) scale(0.5,0.5)" font-size="40" xml:space="preserve" fill="#ffc600" fill-rule="nonzero" stroke="none" stroke-width="1" stroke-linecap="butt" stroke-linejoin="miter" stroke-miterlimit="10" stroke-dasharray="" stroke-dashoffset="0" font-family="Sans Serif" font-weight="normal" text-anchor="start" style="mix-blend-mode: normal"><tspan x="0" dy="0"> </tspan></text></g></g></svg>