<svg version="1.1" xmlns="http://www.w3.org/2000/svg" xmlns:xlink="http://www.w3.org/1999/xlink" width="102.97846" height="80.91163" viewBox="0,0,102.97846,80.91163"><g transform="translate(-187.54361,-137.82694)"><g data-paper-data="{&quot;isPaintingLayer&quot;:true}" fill="#3c3c3c" fill-rule="evenodd" stroke="none" stroke-width="1" stroke-linecap="butt" stroke-linejoin="miter" stroke-miterlimit="10" stroke-dasharray="" stroke-dashoffset="0" style="mix-blend-mode: normal"><path d="M258.38381,197.68052c-1.10698,0 -2.245,-0.29125 -3.27957,-0.90492c-3.07266,-1.83066 -4.09692,-5.81438 -2.27608,-8.90359c3.46581,-5.90802 3.46581,-13.23063 0,-19.12825c-1.82084,-3.09961 -0.79658,-7.08334 2.27608,-8.914c3.1037,-1.80985 7.05575,-0.79054 8.85589,2.28829c5.86602,9.98538 5.86602,22.38387 0,32.36925c-1.2001,2.0595 -3.36236,3.19321 -5.57632,3.19321zM277.69856,208.11213c-1.10698,0 -2.25534,-0.29125 -3.27957,-0.90492c-3.07266,-1.83066 -4.09689,-5.81442 -2.27604,-8.90363c7.25233,-12.33608 7.25233,-27.66781 0,-39.99348c-1.82084,-3.08921 -0.79661,-7.08334 2.27604,-8.914c3.08303,-1.79944 7.03508,-0.79054 8.85593,2.28829c9.66287,16.41344 9.66287,36.82105 0,53.23449c-1.21044,2.0595 -3.36239,3.19325 -5.57636,3.19325zM241.81716,146.49618v63.56308c0,7.53063 -8.87663,11.47276 -14.41158,6.39687l-11.94929,-10.97349c-4.23138,-3.87971 -9.74562,-6.03285 -15.47715,-6.03285h-2.08984c-5.71082,0 -10.34569,-4.64944 -10.34569,-10.40141v-21.42691c0,-5.7416 4.63488,-10.40145 10.34569,-10.40145h1.97605c5.73152,0 11.24576,-2.1531 15.47715,-6.03281l12.06308,-11.07754c5.53494,-5.07588 14.41158,-1.13372 14.41158,6.3865z"/></g></g></svg>