<svg version="1.1" xmlns="http://www.w3.org/2000/svg" xmlns:xlink="http://www.w3.org/1999/xlink" width="169.02941" height="162.29172" viewBox="0,0,169.02941,162.29172"><g transform="translate(-145.20491,-97.87627)"><g data-paper-data="{&quot;isPaintingLayer&quot;:true}" stroke-miterlimit="10" stroke-dasharray="" stroke-dashoffset="0" style="mix-blend-mode: normal"><path d="M145.20491,216.21798c0,-26.47908 0,-58.01592 0,-73.67949c0,-18.42289 25.09255,-44.66222 43.27625,-44.66222c30.99681,0 125.75316,0 125.75316,0v162.29172c0,0 -92.7354,0 -123.82689,0c-18.78518,0 -45.20251,-19.88647 -45.20251,-43.95z" fill="#ffffff" fill-rule="nonzero" stroke="none" stroke-width="0" stroke-linecap="butt" stroke-linejoin="miter"/><path d="M245.77513,120.80053c1.28547,5.49004 -2.37025,11.04053 -8.16527,12.3974c-5.79502,1.35687 -11.53489,-1.99369 -12.82035,-7.48374c-0.60094,-2.56657 -0.122,-5.14638 1.15063,-7.30473c0.26014,-0.44121 -9.39915,-4.46616 -17.13317,-5.63549c-5.43243,-0.82134 -9.81997,1.11982 -9.56289,0.8596c0.31315,-0.31702 1.37475,-7.44063 7.54947,-7.16621c2.15119,0.0956 7.10035,1.60456 9.49441,2.07385c7.03039,1.37811 13.40822,6.08353 13.82277,5.85759c0.87166,-0.47498 1.82476,-0.84338 2.84404,-1.08205c5.79502,-1.35687 11.53488,1.99369 12.82035,7.48374z" fill="#545454" fill-rule="nonzero" stroke="#000000" stroke-width="1" stroke-linecap="butt" stroke-linejoin="miter"/><path d="M266.58041,191.76712c7.84307,-2.75006 17.45236,-6.78188 27.54472,-3.61557c11.78582,4.52363 -17.11035,11.6416 -27.438,13.47918c-9.14309,1.64063 -15.99394,-0.20884 -21.81416,-1.77178c-10.69961,-3.11355 -20.27883,-5.66629 -16.92171,-9.71907c3.96865,-5.04621 17.19141,-2.81003 23.40506,-0.9992c3.7889,1.08122 7.88145,2.13604 10.33612,2.95709c1.60794,0.14238 3.45963,0.07554 4.888,-0.33065z" data-paper-data="{&quot;index&quot;:null}" fill="#ffab19" fill-rule="evenodd" stroke="#001026" stroke-width="1.2" stroke-linecap="round" stroke-linejoin="round"/><g data-paper-data="{&quot;index&quot;:null}" fill-rule="evenodd"><path d="M217.69881,212.15578c1.16759,0.27788 3.66402,0.9337 1.56846,6.11012c-2.09555,5.17642 -10.8965,8.20184 -11.94173,8.44656c-4.01967,1.07899 -8.98449,2.2415 -14.90022,1.69719c-17.16339,-1.49393 -21.30156,-18.57893 -16.84851,-22.51573c4.32241,-3.90621 9.02144,6.15666 17.70638,10.87613c3.8087,2.14018 7.84239,2.29824 11.13102,2.2173c4.62577,-0.2562 11.95573,-7.20948 13.28459,-6.83155z" fill="#ffab19" stroke="#001026" stroke-width="1.2" stroke-linecap="round" stroke-linejoin="round"/><path d="M182.81886,209.15962c2.91642,3.03818 8.12919,7.05465 8.12919,7.05465c0,0 -5.1095,-0.04399 -7.33316,2.81955c-1.82341,2.21856 -0.62779,4.97055 -0.15234,5.82395c-2.09618,-1.30081 -4.73729,-3.16309 -7.11455,-7.43005c-2.37725,-4.26695 -2.35557,-10.06031 0.07395,-11.45606c2.49071,-1.13446 3.60285,0.67239 6.39691,3.18794z" fill="#ffffff" stroke="none" stroke-width="1" stroke-linecap="butt" stroke-linejoin="miter"/></g><path d="M227.41304,224.21413c-1.98466,2.1185 -8.73912,9.76394 -18.29594,15.44702l-0.49202,0.25302c-0.49202,0.25302 -0.60037,0.96747 -0.21671,1.4289c2.95532,2.61564 8.47397,7.93865 1.80809,11.84229c-6.40457,3.84248 -23.6527,-11.55105 -19.29715,-17.6701c2.05413,-2.4104 4.48939,-2.01587 5.78763,-1.7686c0.71446,0.10834 1.36771,-0.0446 1.99039,-0.32822c1.44546,-0.8897 4.07512,-2.60797 6.02089,-4.30391c4.94508,-4.18983 5.97628,-5.67162 8.13047,-8.24325c2.15419,-2.57163 7.03235,-8.81302 12.84546,-5.76404c5.00688,2.5487 3.57288,7.01895 1.71887,9.10686z" data-paper-data="{&quot;index&quot;:null}" fill="#ffab19" fill-rule="evenodd" stroke="#001026" stroke-width="1.2" stroke-linecap="round" stroke-linejoin="round"/><g data-paper-data="{&quot;index&quot;:null}" fill-rule="evenodd"><path d="M249.08237,222.58577c3.32496,1.83999 10.5281,5.52825 10.5281,5.52825c0,0 17.91864,-7.64095 20.12124,1.76609c1.31545,5.6181 -7.78566,9.12722 -20.73439,10.91875c-0.8145,0.05291 -1.65962,-0.02486 -2.43525,-0.3945c-3.45562,-1.80938 -13.39995,-7.19871 -19.81913,-11.07052c-9.48289,-5.77298 -17.04737,-9.2388 -17.04737,-9.2388c-13.64466,-8.24393 -5.7003,-14.92763 -3.64106,-22.02496c2.01207,-6.12158 3.69399,-5.41286 11.9003,-5.68053c4.59518,-0.38685 7.30002,-0.60673 10.1438,-1.41041c4.28098,-1.14018 4.96545,5.31475 4.55437,8.85639c0,0 -0.69725,5.26247 -1.81451,8.14257c-1.38684,3.49451 -2.49581,5.82141 -3.78832,7.3644z" fill="#ffab19" stroke="#001026" stroke-width="1.2" stroke-linecap="round" stroke-linejoin="round"/><path d="M235.84369,215.48714c0,0 -2.3269,-1.10897 -4.87623,-2.57928c-3.16372,-1.73992 -6.23567,-3.08788 -4.57095,-7.74998c1.61757,-3.68634 2.85972,-8.38731 9.62628,-5.97498c6.44408,2.2122 4.72646,6.05976 4.72646,6.05976c-1.49774,6.55241 -4.90558,10.24449 -4.90558,10.24449z" fill="#ffffff" stroke="none" stroke-width="1" stroke-linecap="butt" stroke-linejoin="miter"/></g><path d="M253.13887,203.95954c7.92774,-1.36196 17.74747,-3.66288 26.86947,0.98356c10.51965,6.21439 -18.20335,8.35586 -28.35543,8.44704c-8.98986,0.09393 -15.23029,-2.77399 -20.53323,-5.20248c-9.71004,-4.69386 -18.44104,-8.67208 -14.58478,-11.99944c4.59982,-4.17699 16.85905,0.08566 22.49758,2.81408c3.44193,1.6418 7.17785,3.30729 9.38832,4.48599c1.51164,0.39473 3.28956,0.62899 4.7181,0.47129z" data-paper-data="{&quot;index&quot;:null}" fill="#ffab19" fill-rule="evenodd" stroke="#001026" stroke-width="1.2" stroke-linecap="round" stroke-linejoin="round"/><path d="M232.59309,118.75826c0.33077,-0.35308 3.7759,-1.02192 4.02892,-0.5299l5.4594,6.76895c0,0 9.79963,4.18283 13.29157,7.91315c5.86346,6.207 7.37076,12.05581 7.37076,12.05581c0,0 9.91882,0.57171 13.23039,7.65185c3.31158,7.08015 0.86674,22.53674 -22.56419,33.12217c-23.43094,10.58542 -44.71978,8.54146 -57.48363,-4.181c-12.76385,-12.72247 -2.29116,-33.9176 -2.83035,-32.68881l-8.21965,-22.74453c-0.25302,-0.49202 0.30845,-1.03694 0.89227,-0.898l18.2258,6.62c0,0 5.35934,-3.59774 11.43887,-5.29688c3.59713,-1.11788 6.79397,-1.59076 9.92137,-1.77178z" data-paper-data="{&quot;index&quot;:null}" fill="#ffab19" fill-rule="evenodd" stroke="#001026" stroke-width="1.2" stroke-linecap="butt" stroke-linejoin="miter"/><path d="M262.47414,145.58065c0,0 9.56573,0.24092 12.8773,7.32107c3.31158,7.08015 0.19116,22.00584 -23.00905,32.39944c-30.08852,13.93588 -49.51889,-1.36014 -44.00783,-17.25904c5.48046,-16.02956 23.28944,-7.65816 34.08078,-11.01179c9.25409,-2.85589 8.37202,-11.33175 20.05881,-11.44966z" data-paper-data="{&quot;index&quot;:null}" fill="#ffffff" fill-rule="evenodd" stroke="none" stroke-width="1" stroke-linecap="butt" stroke-linejoin="miter"/><path d="M224.59165,169.19696c-0.12237,-0.52261 0.30846,-1.03694 0.86168,-1.02866c2.69655,0.33334 10.24131,0.77182 18.20288,-0.54106c7.14705,-1.26 11.23619,-2.63089 13.10421,-3.48174c0.62267,-0.28361 1.29824,0.2473 1.1899,0.96174c-0.34991,3.80296 -3.02034,14.76447 -16.9225,17.19268c-12.19538,1.47733 -15.32912,-6.60917 -16.43616,-13.10297z" data-paper-data="{&quot;index&quot;:null}" fill="#ffffff" fill-rule="evenodd" stroke="#001026" stroke-width="1.2" stroke-linecap="round" stroke-linejoin="round"/><path d="M286.85086,141.38894c-4.97821,6.40265 -14.35466,8.73591 -14.35466,8.73591" data-paper-data="{&quot;index&quot;:null}" fill="none" fill-rule="evenodd" stroke="#001026" stroke-width="1.2" stroke-linecap="round" stroke-linejoin="round"/><path d="M288.57864,156.4198c-8.0782,2.58056 -13.75492,1.29123 -13.75492,1.29123" data-paper-data="{&quot;index&quot;:null}" fill="none" fill-rule="evenodd" stroke="#001026" stroke-width="1.2" stroke-linecap="round" stroke-linejoin="round"/><path d="M241.09734,153.75569c2.74374,-0.64243 5.67929,-1.05415 6.02406,-0.17016c0.55894,1.79856 -0.54429,5.91572 -2.60415,6.53585c-2.29058,0.81196 -8.5428,-1.16953 -9.03229,-3.25996c-0.49775,-1.53725 2.99929,-2.49388 5.61235,-3.10572z" data-paper-data="{&quot;index&quot;:null}" fill="#001026" fill-rule="evenodd" stroke="#001026" stroke-width="1.2" stroke-linecap="round" stroke-linejoin="round"/><path d="M181.84444,165.56219c0,0 12.09277,1.02739 17.61397,4.00694" data-paper-data="{&quot;index&quot;:null}" fill="none" fill-rule="evenodd" stroke="#001026" stroke-width="1.2" stroke-linecap="round" stroke-linejoin="round"/><path d="M200.92109,174.05022c-5.09804,3.53656 -15.10289,4.36317 -15.10289,4.36317" data-paper-data="{&quot;index&quot;:null}" fill="none" fill-rule="evenodd" stroke="#001026" stroke-width="1.2" stroke-linecap="round" stroke-linejoin="round"/><path d="M252.93519,134.8594c5.16558,4.99226 6.85643,11.62496 3.74877,14.83331c-3.10764,3.20834 -9.76012,1.87183 -15.05634,-3.0898c-5.16558,-4.99226 -6.85643,-11.62496 -3.74877,-14.8333c3.07705,-3.33899 9.89079,-1.90242 15.05636,3.0898z" data-paper-data="{&quot;index&quot;:null}" fill="#ffffff" fill-rule="evenodd" stroke="#001026" stroke-width="1.2" stroke-linecap="round" stroke-linejoin="round"/><path d="M255.30794,143.61571c0.33652,1.43719 -0.43338,2.8578 -1.73992,3.16372c-1.30654,0.30593 -2.6271,-0.62524 -2.96359,-2.06241c-0.33652,-1.43719 0.43338,-2.8578 1.73992,-3.16372c1.30654,-0.30593 2.6271,0.62524 2.96359,2.0624" data-paper-data="{&quot;index&quot;:null}" fill="#001026" fill-rule="evenodd" stroke="none" stroke-width="1" stroke-linecap="butt" stroke-linejoin="miter"/><path d="M221.38972,146.10447c5.26565,4.83099 6.6563,11.94747 3.7099,15.25585c-3.73032,3.49194 -9.90735,3.00883 -15.17299,-1.82215c-5.39628,-4.80039 -7.40134,-12.18647 -4.02408,-16.00917c3.34664,-3.95338 10.22156,-2.25551 15.48719,2.57548z" data-paper-data="{&quot;index&quot;:null}" fill="#ffffff" fill-rule="evenodd" stroke="#001026" stroke-width="1.2" stroke-linecap="round" stroke-linejoin="round"/><path d="M224.47196,156.58006c0.33652,1.43719 -0.43338,2.8578 -1.73992,3.16372c-1.30654,0.30593 -2.6271,-0.62524 -2.9636,-2.0624c-0.33652,-1.43719 0.43338,-2.8578 1.73992,-3.16372c1.33711,-0.17528 2.6271,0.62524 2.9636,2.0624" data-paper-data="{&quot;index&quot;:null}" fill="#001026" fill-rule="evenodd" stroke="none" stroke-width="1" stroke-linecap="butt" stroke-linejoin="miter"/><path d="M275.79074,211.1438c0,0 -2.52028,1.06519 -3.36609,-0.76291c-1.15998,-2.50714 -6.74691,-12.91274 -8.11147,-17.76108c-0.74983,-2.66415 1.18656,-3.71865 1.18656,-3.71865l29.45522,-15.59575c0,0 2.08378,0.29953 3.2303,1.97071c2.58062,3.76153 6.30471,13.02939 7.57596,15.83216c1.02752,2.26537 -0.72704,4.41887 -0.72704,4.41887z" data-paper-data="{&quot;index&quot;:null}" fill="#757575" fill-rule="nonzero" stroke="#001026" stroke-width="1.2" stroke-linecap="butt" stroke-linejoin="miter"/><path d="M273.69745,186.4013c3.73937,6.19908 8.17112,11.85185 12.42765,17.68842l-9.7788,5.22213c0,0 -2.21279,0.93522 -2.95542,-0.66984c-1.01846,-2.20123 -5.92376,-11.33733 -7.12184,-15.59416c-0.65835,-2.33911 1.04178,-3.26498 1.04178,-3.26498z" data-paper-data="{&quot;index&quot;:null}" fill="#444444" fill-rule="nonzero" stroke="#001026" stroke-width="0" stroke-linecap="butt" stroke-linejoin="miter"/><path d="M300.27363,197.01276c-2.08859,-3.15505 -4.25272,-6.29864 -6.52072,-9.43878c-2.16044,-2.99122 -4.162,-5.99001 -6.0511,-9.07902l7.20591,-3.81534c0,0 1.90218,0.27343 2.9488,1.79896c2.35573,3.43372 5.75526,11.89393 6.91575,14.45245c0.93797,2.06797 -0.66369,4.03377 -0.66369,4.03377z" data-paper-data="{&quot;index&quot;:null}" fill="#545454" fill-rule="nonzero" stroke="#001026" stroke-width="0" stroke-linecap="butt" stroke-linejoin="miter"/><path d="M203.08016,139.03654c1.28547,5.49002 -2.37026,11.04053 -8.16528,12.3974c-5.79502,1.35687 -11.53489,-1.99369 -12.82035,-7.48374c-0.90921,-3.88311 0.65355,-7.79652 3.69687,-10.23484c0.62605,-0.5016 -1.25211,-7.99953 1.65999,-13.93862c1.10825,-2.26025 5.36421,-7.0523 7.20711,-8.72788c0.53275,-0.48437 4.72731,-3.05331 7.30373,-3.95426c1.33312,-0.4662 4.1199,-1.28687 5.58418,-0.66166c1.78636,0.76276 2.58766,4.54762 2.84152,4.69192c1.44275,0.81996 -9.19551,2.66313 -8.86273,2.58522c0.5958,-0.1395 -5.1677,0.89352 -6.82188,6.61807c-1.56009,5.39885 -1.55479,10.91371 -1.01203,10.95458c4.4792,0.33728 8.36027,3.36053 9.38893,7.75379z" fill="#545454" fill-rule="nonzero" stroke="#000000" stroke-width="1" stroke-linecap="butt" stroke-linejoin="miter"/><path d="M204.78121,112.0807l0.04269,-4.31411c0,0 2.79623,-0.75807 3.93636,-0.67159c1.0143,0.07695 3.51835,1.46917 3.51835,1.46917l-0.12048,3.98191z" fill="#545454" fill-rule="nonzero" stroke="none" stroke-width="0" stroke-linecap="butt" stroke-linejoin="miter"/></g></g></svg>
