<svg version="1.1" xmlns="http://www.w3.org/2000/svg" xmlns:xlink="http://www.w3.org/1999/xlink" width="240.90634" height="237.19222" viewBox="0,0,240.90634,237.19222"><g transform="translate(-119.54683,-61.40389)"><g data-paper-data="{&quot;isPaintingLayer&quot;:true}" stroke-miterlimit="10" stroke-dasharray="" stroke-dashoffset="0" style="mix-blend-mode: normal"><path d="M357.87967,175.51651c0,4.23744 -3.32871,26.13223 -5.41488,28.35884c-4.65107,4.96418 -11.06717,-12.3929 -16.91776,-6.59693c-13.60824,13.48116 -24.38557,31.54239 -24.63377,31.72685c-5.37774,3.99668 1.16688,44.45183 -5.91507,47.36546c-19.05404,7.83915 -42.64367,11.7584 -61.98339,11.7584c-32.98703,0 -47.71132,-33.15199 -68.66119,-54.98389c-19.33931,-20.15353 -46.20367,-27.77472 -46.20367,-57.62873c0,-33.53509 26.96362,-50.13301 50.6879,-70.76299c20.2748,-17.63041 34.94465,-41.84962 64.17697,-41.84962c38.32316,0 85.77641,12.3937 106.64312,40.67393c13.67492,18.53335 8.22175,47.31618 8.22175,71.93868z" fill="#d0e6f4" fill-rule="nonzero" stroke="#9aabb5" stroke-width="3" stroke-linecap="butt" stroke-linejoin="miter"/><path d="M333.52452,200.5477c-13.60824,13.48116 -21.52976,28.68658 -21.77796,28.87104c-5.37774,3.99668 1.16688,44.45183 -5.91507,47.36546c-19.05404,7.83915 -42.64367,11.7584 -61.98339,11.7584c-32.98703,0 -47.71132,-33.15199 -68.66119,-54.98389c-16.75918,-17.46477 -39.16947,-25.51811 -44.85084,-46.78456c7.37682,0.90582 14.82211,1.57394 22.23432,1.57902c6.74286,0.00463 17.27461,22.29298 31.45978,40.27192c11.26742,14.28085 27.59951,26.56801 29.39943,26.39446c11.23981,-1.08371 66.56636,-1.09604 76.31946,-3.71692c16.21806,-4.35815 14.56207,-28.63281 18.43625,-45.26184c1.15532,-4.95893 -2.40126,-11.83979 1.6771,-14.04856c6.24667,-3.38308 7.70437,-2.71318 15.30241,-2.68713c0.91605,0.00314 32.07403,-19.94907 33.30259,-19.02696c0.54099,0.40605 -5.80927,33.3137 -4.22246,29.66543c1.53496,-3.52907 -2.27961,7.81511 -4.01209,6.5482c-3.00251,-2.19564 -16.449,-6.201 -16.70834,-5.94408z" fill="#2ab2de" fill-rule="nonzero" stroke="#1e7d9c" stroke-width="2.5" stroke-linecap="butt" stroke-linejoin="miter"/><g fill-rule="evenodd" stroke-width="1.3"><path d="M234.08242,212.57618c1.15456,0.57728 3.60799,1.87615 0.14432,6.78302c-3.46367,4.90686 -13.42171,5.9171 -14.57627,5.9171c-4.4739,0.14432 -9.95805,0.14432 -16.01947,-1.87615c-17.60698,-5.77278 -17.7513,-24.67864 -12.12284,-27.70934c5.48414,-3.03071 7.93757,8.65917 15.87515,15.73083c3.46367,3.17503 7.64893,4.32959 11.1126,5.05118c4.90686,0.86592 14.28763,-4.61822 15.58651,-3.89663z" fill="#ffab19" stroke="#001026" stroke-linecap="round" stroke-linejoin="round"/><path d="M198.29118,200.8863c2.30911,3.89663 6.78302,9.38077 6.78302,9.38077c0,0 -5.33982,-1.29888 -8.37053,1.15456c-2.45343,1.87615 -1.87615,5.05118 -1.58751,6.06142c-1.87615,-1.87615 -4.18527,-4.4739 -5.62846,-9.52509c-1.4432,-5.05118 0,-11.1126 2.88639,-11.97852c2.88639,-0.57728 3.60799,1.58751 5.9171,4.90686z" fill="#ffffff" stroke="none" stroke-linecap="butt" stroke-linejoin="miter"/></g><path d="M241.29839,227.58541c-2.59775,1.73183 -11.54556,8.08189 -22.9468,11.68988l-0.57728,0.14432c-0.57728,0.14432 -0.86592,0.86592 -0.57728,1.4432c2.45343,3.46367 6.92734,10.391 -1.01024,12.84444c-7.64893,2.45343 -21.93656,-17.89562 -15.87515,-23.23544c2.74207,-2.02047 5.1955,-1.01024 6.49438,-0.43296c0.7216,0.28864 1.4432,0.28864 2.16479,0.14432c1.73183,-0.57728 4.90686,-1.73183 7.36029,-3.03071c6.20574,-3.17503 7.64893,-4.4739 10.53532,-6.6387c2.88639,-2.16479 9.52509,-7.50461 14.86491,-2.88639c4.61822,3.89663 2.02047,8.22621 -0.43296,9.95805z" fill="#ffab19" fill-rule="evenodd" stroke="#001026" stroke-width="1.3" stroke-linecap="round" stroke-linejoin="round"/><path d="M265.22866,198.8638c0.95722,0.48345 12.97206,9.71277 16.30738,6.76459c4.0111,-3.45166 9.35035,-9.9387 16.30329,-5.8548c6.95294,4.0839 -4.46265,13.36107 -9.46,16.0421c-11.95833,5.70564 -22.8853,-1.74794 -25.27552,-3.82718c-2.39022,-2.07924 -6.5586,-5.57432 -6.93602,-9.30761c-0.22662,-4.03864 5.78601,-5.66187 9.06087,-3.81712z" fill="#ffab19" fill-rule="evenodd" stroke="#001026" stroke-width="1.3" stroke-linecap="round" stroke-linejoin="round"/><g fill-rule="evenodd" stroke-width="1.3"><path d="M264.38951,231.1934c3.03071,2.74207 9.66941,8.37053 9.66941,8.37053c0,0 20.63769,-3.60799 20.63769,6.78302c0,6.20574 -10.391,7.64893 -24.39,6.35006c-0.86592,-0.14432 -1.73183,-0.43296 -2.45343,-1.01024c-3.17503,-2.74207 -12.26716,-10.82396 -18.03994,-16.45242c-8.51485,-8.37053 -15.58651,-13.85467 -15.58651,-13.85467c-12.26716,-11.97852 -2.30911,-17.0297 1.58751,-23.95704c3.60799,-5.9171 5.1955,-4.76254 13.85467,-3.03071c4.90686,0.7216 7.79325,1.15456 10.96828,1.01024c4.76254,-0.14432 3.89663,6.78302 2.59775,10.391c0,0 -2.02047,5.33982 -3.89663,8.08189c-2.30911,3.31935 -4.04095,5.48414 -5.77278,6.78302z" fill="#ffab19" stroke="#001026" stroke-linecap="round" stroke-linejoin="round"/><path d="M252.26668,220.51376c0,0 -2.16479,-1.73183 -4.4739,-3.89663c-2.88639,-2.59775 -5.77278,-4.76254 -2.88639,-9.23645c2.59775,-3.46367 5.05118,-8.08189 11.54556,-3.89663c6.20574,3.89663 3.46367,7.50461 3.46367,7.50461c-3.17503,6.49438 -7.64893,9.52509 -7.64893,9.52509z" fill="#ffffff" stroke="none" stroke-linecap="butt" stroke-linejoin="miter"/></g><path d="M235.00517,206.26111c4.74836,1.96551 11.5014,3.96251 8.14435,10.65264c-5.08664,8.3253 -18.32534,-0.78659 -22.0595,-4.48162c-3.32538,-3.26263 -1.46994,-7.61791 0.0946,-11.31282c3.21555,-6.9417 5.76284,-13.01078 11.85559,-13.95404c7.56287,-1.2734 5.8646,6.30513 3.99345,10.33807c-1.10854,2.44492 -2.14634,5.01565 -3.03473,6.67442c-0.02361,0.84119 0.27511,1.66666 1.00624,2.08334z" fill="#ffab19" fill-rule="evenodd" stroke="#001026" stroke-width="1.3" stroke-linecap="round" stroke-linejoin="round"/><path d="M275.93508,111.40821c0.43296,-0.28864 1.15456,-0.14432 1.29888,0.43296l3.75231,15.44219c0,0 9.23645,6.78302 11.97852,11.54556c4.61822,7.93757 4.76254,14.43195 4.76254,14.43195c0,0 10.24668,3.03071 11.97852,11.25692c1.73183,8.22621 -4.61822,23.81272 -31.75029,29.15254c-27.13207,5.33982 -48.92431,-2.02047 -59.171,-18.4729c-10.24668,-16.45242 5.9171,-36.07988 5.05118,-34.92532l-3.03071,-25.83319c-0.14432,-0.57728 0.57728,-1.01024 1.15456,-0.7216l17.46266,11.40124c0,0 6.49438,-2.45343 13.27739,-2.74207c4.04095,-0.28864 7.50461,0 10.82396,0.57728z" fill="#ffab19" fill-rule="evenodd" stroke="#001026" stroke-width="1.3" stroke-linecap="butt" stroke-linejoin="miter"/><path d="M297.29436,153.83815c0,0 9.95805,2.59775 11.68988,10.82396c1.73183,8.22621 -5.1955,23.09112 -32.03893,28.28662c-34.92532,7.21598 -51.52206,-13.56603 -41.85266,-28.8639c9.66941,-15.44219 26.26615,-2.30911 38.38899,-3.17503c10.391,-0.7216 11.54556,-9.81373 23.81272,-7.07166z" fill="#ffffff" fill-rule="evenodd" stroke="none" stroke-width="1.3" stroke-linecap="butt" stroke-linejoin="miter"/><path d="M249.59337,170.75108c-0.0459,-0.5335 0.45318,-0.97955 0.99815,-0.89207c2.61446,0.71559 10.00033,2.22988 18.04874,2.07483c7.23668,-0.21958 11.47026,-0.98694 13.43646,-1.5592c0.65541,-0.19076 1.24629,0.43022 1.03692,1.12005c-0.89053,3.70442 -5.09807,14.14363 -19.17132,14.54836c-12.25189,-0.28943 -14.18674,-8.72216 -14.34893,-15.29198z" data-paper-data="{&quot;index&quot;:null}" fill="#ffffff" fill-rule="evenodd" stroke="#001026" stroke-width="1.3" stroke-linecap="round" stroke-linejoin="round"/><path d="M323.84915,155.42566c-6.78302,5.48414 -17.17402,5.62846 -17.17402,5.62846" fill="none" fill-rule="evenodd" stroke="#001026" stroke-width="1.3" stroke-linecap="round" stroke-linejoin="round"/><path d="M321.973,171.58944c-9.09213,0.7216 -14.72059,-2.02047 -14.72059,-2.02047" fill="none" fill-rule="evenodd" stroke="#001026" stroke-width="1.3" stroke-linecap="round" stroke-linejoin="round"/><path d="M272.90437,157.15749c3.03071,0 6.20574,0.28864 6.35006,1.29888c0.14432,2.02047 -2.02047,6.06142 -4.32959,6.20574c-2.59775,0.28864 -8.65917,-3.31935 -8.65917,-5.62846c-0.14432,-1.73183 3.75231,-1.87615 6.6387,-1.87615z" fill="#001026" fill-rule="evenodd" stroke="#001026" stroke-width="1.3" stroke-linecap="round" stroke-linejoin="round"/><path d="M207.96059,154.9927c0,0 12.41148,4.04095 17.46266,8.51485" fill="none" fill-rule="evenodd" stroke="#001026" stroke-width="1.3" stroke-linecap="round" stroke-linejoin="round"/><path d="M225.85621,168.55874c-6.20574,2.45343 -16.88538,0.86592 -16.88538,0.86592" fill="none" fill-rule="evenodd" stroke="#001026" stroke-width="1.3" stroke-linecap="round" stroke-linejoin="round"/><g fill-rule="evenodd" stroke-width="1.3"><path d="M289.93407,140.27211c4.18527,6.49438 4.32959,13.85467 0.28864,16.45242c-4.04095,2.59775 -10.67964,-0.43296 -15.00923,-6.92734c-4.18527,-6.49438 -4.32959,-13.85467 -0.28864,-16.45242c4.04095,-2.74207 10.82396,0.43296 15.00923,6.92734z" fill="#ffffff" stroke="#001026" stroke-linecap="round" stroke-linejoin="round"/><path d="M289.35679,148.49832c0,1.58751 -1.15456,2.88639 -2.59775,2.88639c-1.4432,0 -2.59775,-1.29888 -2.59775,-2.88639c0,-1.58751 1.15456,-2.88639 2.59775,-2.88639c1.4432,0 2.59775,1.29888 2.59775,2.88639" fill="#001026" stroke="none" stroke-linecap="butt" stroke-linejoin="miter"/></g><g fill-rule="evenodd" stroke-width="1.3"><path d="M254.14283,144.31306c4.32959,6.35006 4.04095,14.14331 0.14432,16.88538c-4.76254,2.74207 -11.1126,0.7216 -15.44219,-5.62846c-4.4739,-6.35006 -4.76254,-14.57627 -0.28864,-17.7513c4.4739,-3.31935 11.25692,0.14432 15.58651,6.49438z" fill="#ffffff" stroke="#001026" stroke-linecap="round" stroke-linejoin="round"/><path d="M253.27691,152.68359c0,1.58751 -1.15456,2.88639 -2.59775,2.88639c-1.4432,0 -2.59775,-1.29888 -2.59775,-2.88639c0,-1.58751 1.15456,-2.88639 2.59775,-2.88639c1.4432,0.14432 2.59775,1.29888 2.59775,2.88639" fill="#001026" stroke="none" stroke-linecap="butt" stroke-linejoin="miter"/></g><path d="M168.29683,245.34612c0,7.45584 -10.74517,13.5 -24,13.5c-13.25483,0 -24,-6.04416 -24,-13.5c0,-7.45584 10.74517,-13.5 24,-13.5c13.25483,0 24,6.04416 24,13.5z" fill="#a0b9ca" fill-rule="nonzero" stroke="#7886a7" stroke-width="1.5" stroke-linecap="butt" stroke-linejoin="miter"/><path d="M200.29683,276.84612c0,5.52285 -7.95938,10 -17.77778,10c-9.8184,0 -17.77778,-4.47715 -17.77778,-10c0,-5.52285 7.95938,-10 17.77778,-10c9.8184,0 17.77778,4.47715 17.77778,10z" fill="#a0b9ca" fill-rule="nonzero" stroke="#666f97" stroke-width="1.5" stroke-linecap="butt" stroke-linejoin="miter"/><path d="M333.63016,290.51279c0,4.05009 -9.07867,7.33333 -20.27778,7.33333c-11.19911,0 -20.27777,-3.28324 -20.27777,-7.33333c0,-4.05009 9.07867,-7.33333 20.27777,-7.33333c11.19911,0 20.27778,3.28324 20.27778,7.33333z" fill="#a0b9ca" fill-rule="nonzero" stroke="#666f97" stroke-width="1.5" stroke-linecap="butt" stroke-linejoin="miter"/><text transform="translate(230.35049,214.08335) scale(0.5,0.5)" font-size="40" xml:space="preserve" fill="#000000" fill-rule="nonzero" stroke-opacity="0.45222" stroke="#000000" stroke-width="7" stroke-linecap="butt" stroke-linejoin="miter" stroke-miterlimit="10" stroke-dasharray="" stroke-dashoffset="0" font-family="Sans Serif" font-weight="normal" text-anchor="start" style="mix-blend-mode: normal"><tspan x="0" dy="0">★</tspan></text><text transform="translate(287.86502,203.56994) scale(0.5,0.5)" font-size="40" xml:space="preserve" fill="#000000" fill-rule="nonzero" stroke-opacity="0.48448" stroke="#000000" stroke-width="6" stroke-linecap="butt" stroke-linejoin="miter" stroke-miterlimit="10" stroke-dasharray="" stroke-dashoffset="0" font-family="Sans Serif" font-weight="normal" text-anchor="start" style="mix-blend-mode: normal"><tspan x="0" dy="0">✓ </tspan></text></g></g></svg>