<svg version="1.1" xmlns="http://www.w3.org/2000/svg" xmlns:xlink="http://www.w3.org/1999/xlink" width="245.90634" height="233.4291" viewBox="0,0,245.90634,233.4291"><g transform="translate(-119.54683,-65.16702)"><g data-paper-data="{&quot;isPaintingLayer&quot;:true}" stroke-miterlimit="10" stroke-dasharray="" stroke-dashoffset="0" style="mix-blend-mode: normal"><g fill-rule="nonzero" stroke-linecap="butt" stroke-linejoin="miter"><path d="M362.87967,179.27963c0,4.23744 -3.32871,26.13223 -5.41488,28.35884c-4.65107,4.96418 -11.06717,-12.3929 -16.91776,-6.59693c-13.60824,13.48116 -24.38557,31.54239 -24.63377,31.72685c-5.37774,3.99668 1.16688,44.45183 -5.91507,47.36546c-19.05404,7.83915 -42.64367,11.7584 -61.98339,11.7584c-32.98703,0 -47.71132,-33.15199 -68.66119,-54.98389c-19.33931,-20.15353 -46.20367,-27.77472 -46.20367,-57.62873c0,-33.53509 26.96362,-50.13301 50.6879,-70.76299c20.2748,-17.63041 34.94465,-41.84962 64.17697,-41.84962c38.32316,0 85.77641,12.3937 106.64312,40.67393c13.67492,18.53335 8.22175,47.31618 8.22175,71.93868z" fill="#d0e6f4" stroke="#9aabb5" stroke-width="3"/><path d="M338.52452,204.31082c-13.60824,13.48116 -21.52976,28.68658 -21.77796,28.87104c-5.37774,3.99668 1.16688,44.45183 -5.91507,47.36546c-19.05404,7.83915 -42.64367,11.7584 -61.98339,11.7584c-32.98703,0 -47.71132,-33.15199 -68.66119,-54.98389c-16.75918,-17.46477 -39.16947,-25.51811 -44.85084,-46.78456c7.37682,0.90582 14.82211,1.57394 22.23432,1.57902c6.74286,0.00463 17.27461,22.29298 31.45978,40.27192c11.26742,14.28085 27.59951,26.56801 29.39943,26.39446c11.23981,-1.08371 66.56636,-1.09604 76.31946,-3.71692c16.21806,-4.35815 14.56207,-28.63281 18.43625,-45.26184c1.15532,-4.95893 -2.40126,-11.83979 1.6771,-14.04856c6.24667,-3.38308 7.70437,-2.71318 15.30241,-2.68713c0.91605,0.00314 32.07403,-19.94907 33.30259,-19.02696c0.54099,0.40605 -5.80927,33.3137 -4.22246,29.66543c1.53496,-3.52907 -2.27961,7.81511 -4.01209,6.5482c-3.00251,-2.19564 -16.449,-6.201 -16.70834,-5.94408z" fill="#2ab2de" stroke="#1e7d9c" stroke-width="2.5"/></g><path d="M168.29683,245.34612c0,7.45584 -10.74517,13.5 -24,13.5c-13.25483,0 -24,-6.04416 -24,-13.5c0,-7.45584 10.74517,-13.5 24,-13.5c13.25483,0 24,6.04416 24,13.5z" fill="#a0b9ca" fill-rule="nonzero" stroke="#7886a7" stroke-width="1.5" stroke-linecap="butt" stroke-linejoin="miter"/><path d="M200.29683,276.84612c0,5.52285 -7.95938,10 -17.77778,10c-9.8184,0 -17.77778,-4.47715 -17.77778,-10c0,-5.52285 7.95938,-10 17.77778,-10c9.8184,0 17.77778,4.47715 17.77778,10z" fill="#a0b9ca" fill-rule="nonzero" stroke="#666f97" stroke-width="1.5" stroke-linecap="butt" stroke-linejoin="miter"/><path d="M333.63016,290.51279c0,4.05009 -9.07867,7.33333 -20.27778,7.33333c-11.19911,0 -20.27777,-3.28324 -20.27777,-7.33333c0,-4.05009 9.07867,-7.33333 20.27777,-7.33333c11.19911,0 20.27778,3.28324 20.27778,7.33333z" fill="#a0b9ca" fill-rule="nonzero" stroke="#666f97" stroke-width="1.5" stroke-linecap="butt" stroke-linejoin="miter"/><g fill-opacity="0.08115" fill="#ffab19" fill-rule="evenodd" stroke="none" stroke-width="0"><path d="M311.25135,156.14418c-7.69547,0.61075 -12.45934,-1.7101 -12.45934,-1.7101" stroke-linecap="round" stroke-linejoin="round"/><g><path d="M236.8618,190.83487c0.97721,0.48861 3.05376,1.58795 0.12215,5.74107c-2.93161,4.15311 -11.35998,5.00816 -12.33718,5.00816c-3.78666,0.12215 -8.42837,0.12215 -13.55869,-1.58795c-14.90234,-4.88601 -15.02449,-20.88771 -10.26063,-23.45286c4.64171,-2.56516 6.71826,7.32901 13.43654,13.31438c2.93161,2.68731 6.47396,3.66452 9.40557,4.27526c4.15311,0.7329 12.09288,-3.90881 13.19224,-3.29806z" stroke-linecap="round" stroke-linejoin="round"/><path d="M206.56852,180.94069c1.9544,3.29806 5.74107,7.93978 5.74107,7.93978c0,0 -4.51956,-1.09936 -7.08472,0.97721c-2.07656,1.58795 -1.58795,4.27526 -1.34365,5.13032c-1.58795,-1.58795 -3.54237,-3.78666 -4.76386,-8.06193c-1.22151,-4.27526 0,-9.40557 2.443,-10.13848c2.443,-0.48861 3.05376,1.34365 5.00817,4.15311z" stroke-linecap="butt" stroke-linejoin="miter"/></g><path d="M242.96932,203.53851c-2.19871,1.4658 -9.77202,6.84041 -19.4219,9.89417l-0.4886,0.12215c-0.48861,0.12215 -0.73291,0.7329 -0.48861,1.22151c2.07656,2.93161 5.86322,8.79482 -0.85505,10.87139c-6.47396,2.07656 -18.56685,-15.14664 -13.43654,-19.6662c2.32085,-1.7101 4.39741,-0.85506 5.49677,-0.36645c0.61075,0.2443 1.22151,0.2443 1.83225,0.12215c1.4658,-0.48861 4.15311,-1.4658 6.22966,-2.56516c5.25246,-2.68731 6.47396,-3.78666 8.91697,-5.61892c2.443,-1.83225 8.06193,-6.35182 12.58149,-2.44301c3.90881,3.29806 1.7101,6.96257 -0.36645,8.42838z" stroke-linecap="round" stroke-linejoin="round"/><path d="M263.22362,179.22887c0.81018,0.40919 10.9794,8.22078 13.80237,5.72547c3.39495,-2.92144 7.91402,-8.412 13.79891,-4.95543c5.88489,3.45657 -3.77713,11.30865 -8.00683,13.57784c-10.12139,4.82919 -19.36985,-1.47943 -21.3929,-3.23928c-2.02305,-1.75985 -5.55112,-4.71804 -5.87056,-7.87785c-0.19181,-3.41826 4.89721,-4.79214 7.66901,-3.23077z" stroke-linecap="round" stroke-linejoin="round"/><g><path d="M262.51337,206.59227c2.56516,2.32085 8.18407,7.08472 8.18407,7.08472c0,0 17.4675,-3.05376 17.4675,5.74107c0,5.25246 -8.79482,6.47396 -20.64341,5.37461c-0.7329,-0.12215 -1.4658,-0.36645 -2.07656,-0.85505c-2.68731,-2.32085 -10.38278,-9.16127 -15.26879,-13.92514c-7.20687,-7.08472 -13.19224,-11.72643 -13.19224,-11.72643c-10.38278,-10.13848 -1.9544,-14.41373 1.34365,-20.27695c3.05376,-5.00817 4.39741,-4.03096 11.72643,-2.56516c4.15311,0.61075 6.59612,0.97721 9.28342,0.85505c4.03096,-0.12215 3.29806,5.74107 2.1987,8.79482c0,0 -1.7101,4.51957 -3.29806,6.84042c-1.9544,2.80946 -3.42022,4.64171 -4.88601,5.74107z" stroke-linecap="round" stroke-linejoin="round"/><path d="M252.25275,197.55315c0,0 -1.83225,-1.4658 -3.78666,-3.29806c-2.443,-2.19871 -4.88601,-4.03096 -2.443,-7.81762c2.19871,-2.93161 4.27526,-6.84041 9.77202,-3.29806c5.25246,3.29806 2.93161,6.35181 2.93161,6.35181c-2.68731,5.49677 -6.47396,8.06192 -6.47396,8.06192z" stroke-linecap="butt" stroke-linejoin="miter"/></g><path d="M237.64281,185.48987c4.01895,1.66358 9.73465,3.35382 6.89327,9.01627c-4.30527,7.04643 -15.51035,-0.66576 -18.6709,-3.79319c-2.81456,-2.76145 -1.24414,-6.44771 0.08007,-9.57504c2.72161,-5.87537 4.8776,-11.01218 10.03443,-11.81053c6.40113,-1.07779 4.96372,5.33658 3.38001,8.75002c-0.93826,2.06935 -1.81663,4.24518 -2.56856,5.64915c-0.01998,0.71197 0.23286,1.41064 0.85167,1.76332z" stroke-linecap="round" stroke-linejoin="round"/><path d="M272.2854,105.2075c0.36645,-0.2443 0.97721,-0.12215 1.09936,0.36645l3.17591,13.07009c0,0 7.81762,5.74107 10.13848,9.77202c3.90881,6.71827 4.03096,12.21503 4.03096,12.21503c0,0 8.67267,2.56516 10.13848,9.52773c1.4658,6.96256 -3.90881,20.1548 -26.87307,24.67436c-22.96426,4.51956 -41.40896,-1.7101 -50.08164,-15.63524c-8.67267,-13.92514 5.00817,-30.53758 4.27526,-29.56038l-2.56516,-21.86491c-0.12215,-0.48861 0.4886,-0.85505 0.97721,-0.61075l14.78019,9.64987c0,0 5.49677,-2.07655 11.23782,-2.32085c3.42022,-0.2443 6.35181,-0.00001 9.16127,0.4886z" stroke-linecap="butt" stroke-linejoin="miter"/><path d="M290.36364,141.1197c0,0 8.42838,2.19871 9.89418,9.16127c1.4658,6.96256 -4.39741,19.54405 -27.11737,23.94146c-29.56038,6.10752 -43.60766,-11.48213 -35.4236,-24.43007c8.18407,-13.07009 22.23136,-1.9544 32.49199,-2.68731c8.79482,-0.61075 9.77202,-8.30622 20.1548,-5.98537z" stroke-linecap="butt" stroke-linejoin="miter"/><path d="M249.99009,155.43461c-0.03885,-0.45155 0.38356,-0.82908 0.84482,-0.75504c2.21285,0.60566 8.46416,1.88735 15.27624,1.75611c6.12504,-0.18585 9.70829,-0.83534 11.37246,-1.31969c0.55473,-0.16146 1.05485,0.36413 0.87764,0.94799c-0.75373,3.13537 -4.31495,11.97101 -16.22638,12.31357c-10.36985,-0.24497 -12.00749,-7.38234 -12.14476,-12.94296z" data-paper-data="{&quot;index&quot;:null}" stroke-linecap="round" stroke-linejoin="round"/><path d="M312.8393,142.46335c-5.74107,4.64171 -14.53589,4.76386 -14.53589,4.76386" stroke-linecap="round" stroke-linejoin="round"/><path d="M269.72025,143.92915c2.56516,0 5.25246,0.2443 5.37461,1.09936c0.12215,1.7101 -1.7101,5.13032 -3.66451,5.25247c-2.19871,0.2443 -7.32902,-2.80946 -7.32902,-4.76386c-0.12215,-1.4658 3.17591,-1.58795 5.61892,-1.58795z" stroke-linecap="round" stroke-linejoin="round"/><path d="M214.7526,142.09689c0,0 10.50493,3.42021 14.78019,7.20687" stroke-linecap="round" stroke-linejoin="round"/><path d="M229.89924,153.57903c-5.25246,2.07656 -14.29159,0.73291 -14.29159,0.73291" stroke-linecap="round" stroke-linejoin="round"/><g><path d="M284.13398,129.63756c3.54236,5.49677 3.66452,11.72642 0.2443,13.92513c-3.42022,2.19871 -9.03912,-0.36645 -12.70363,-5.86321c-3.54236,-5.49677 -3.66452,-11.72643 -0.2443,-13.92514c3.42022,-2.32085 9.16127,0.36645 12.70363,5.86322z" stroke-linecap="round" stroke-linejoin="round"/><path d="M283.64538,136.60013c0,1.34365 -0.97721,2.443 -2.19871,2.443c-1.22151,0 -2.19871,-1.09936 -2.19871,-2.443c0,-1.34365 0.97721,-2.443 2.19871,-2.443c1.22151,0 2.19871,1.09936 2.19871,2.443" stroke-linecap="butt" stroke-linejoin="miter"/></g><g><path d="M253.8407,133.05777c3.66451,5.37461 3.42022,11.97074 0.12215,14.29159c-4.03096,2.32085 -9.40558,0.61075 -13.07009,-4.76386c-3.78666,-5.37461 -4.03096,-12.33718 -0.2443,-15.02449c3.78666,-2.80946 9.52773,0.12215 13.19224,5.49677z" stroke-linecap="round" stroke-linejoin="round"/><path d="M253.10779,140.14249c0,1.34365 -0.97721,2.44301 -2.1987,2.44301c-1.22151,0 -2.19871,-1.09936 -2.19871,-2.44301c0,-1.34365 0.97721,-2.443 2.19871,-2.443c1.22151,0.12215 2.1987,1.09936 2.1987,2.443" stroke-linecap="butt" stroke-linejoin="miter"/></g></g><g fill-opacity="0.08115" fill="#ffab19" fill-rule="evenodd" stroke="none" stroke-width="0"><path d="M316.25135,161.14419c-7.69547,0.61075 -12.45934,-1.7101 -12.45934,-1.7101" stroke-linecap="round" stroke-linejoin="round"/><g><path d="M241.8618,195.83488c0.97721,0.48861 3.05376,1.58795 0.12215,5.74107c-2.93161,4.15311 -11.35998,5.00816 -12.33718,5.00816c-3.78666,0.12215 -8.42837,0.12215 -13.55869,-1.58795c-14.90234,-4.88601 -15.02449,-20.88771 -10.26063,-23.45286c4.64171,-2.56516 6.71826,7.32901 13.43654,13.31438c2.93161,2.68731 6.47396,3.66452 9.40557,4.27526c4.15311,0.7329 12.09288,-3.90881 13.19224,-3.29806z" stroke-linecap="round" stroke-linejoin="round"/><path d="M211.56852,185.9407c1.9544,3.29806 5.74107,7.93978 5.74107,7.93978c0,0 -4.51956,-1.09936 -7.08472,0.97721c-2.07656,1.58795 -1.58795,4.27526 -1.34365,5.13032c-1.58795,-1.58795 -3.54237,-3.78666 -4.76386,-8.06193c-1.22151,-4.27526 0,-9.40557 2.443,-10.13848c2.443,-0.48861 3.05376,1.34365 5.00817,4.15311z" stroke-linecap="butt" stroke-linejoin="miter"/></g><path d="M247.96932,208.53852c-2.19871,1.4658 -9.77202,6.84041 -19.4219,9.89417l-0.4886,0.12215c-0.48861,0.12215 -0.73291,0.7329 -0.48861,1.22151c2.07656,2.93161 5.86322,8.79482 -0.85505,10.87139c-6.47396,2.07656 -18.56685,-15.14664 -13.43654,-19.6662c2.32085,-1.7101 4.39741,-0.85506 5.49677,-0.36645c0.61075,0.2443 1.22151,0.2443 1.83225,0.12215c1.4658,-0.48861 4.15311,-1.4658 6.22966,-2.56516c5.25246,-2.68731 6.47396,-3.78666 8.91697,-5.61892c2.443,-1.83225 8.06193,-6.35182 12.58149,-2.44301c3.90881,3.29806 1.7101,6.96257 -0.36645,8.42838z" stroke-linecap="round" stroke-linejoin="round"/><path d="M268.22362,184.22888c0.81018,0.40919 10.9794,8.22078 13.80237,5.72547c3.39495,-2.92144 7.91402,-8.412 13.79891,-4.95543c5.88489,3.45657 -3.77713,11.30865 -8.00683,13.57784c-10.12139,4.82919 -19.36985,-1.47943 -21.3929,-3.23928c-2.02305,-1.75985 -5.55112,-4.71804 -5.87056,-7.87785c-0.19181,-3.41826 4.89721,-4.79214 7.66901,-3.23077z" stroke-linecap="round" stroke-linejoin="round"/><g><path d="M267.51337,211.59228c2.56516,2.32085 8.18407,7.08472 8.18407,7.08472c0,0 17.4675,-3.05376 17.4675,5.74107c0,5.25246 -8.79482,6.47396 -20.64341,5.37461c-0.7329,-0.12215 -1.4658,-0.36645 -2.07656,-0.85505c-2.68731,-2.32085 -10.38278,-9.16127 -15.26879,-13.92514c-7.20687,-7.08472 -13.19224,-11.72643 -13.19224,-11.72643c-10.38278,-10.13848 -1.9544,-14.41373 1.34365,-20.27695c3.05376,-5.00817 4.39741,-4.03096 11.72643,-2.56516c4.15311,0.61075 6.59612,0.97721 9.28342,0.85505c4.03096,-0.12215 3.29806,5.74107 2.1987,8.79482c0,0 -1.7101,4.51957 -3.29806,6.84042c-1.9544,2.80946 -3.42022,4.64171 -4.88601,5.74107z" stroke-linecap="round" stroke-linejoin="round"/><path d="M257.25275,202.55316c0,0 -1.83225,-1.4658 -3.78666,-3.29806c-2.443,-2.19871 -4.88601,-4.03096 -2.443,-7.81762c2.19871,-2.93161 4.27526,-6.84041 9.77202,-3.29806c5.25246,3.29806 2.93161,6.35181 2.93161,6.35181c-2.68731,5.49677 -6.47396,8.06192 -6.47396,8.06192z" stroke-linecap="butt" stroke-linejoin="miter"/></g><path d="M242.64281,190.48988c4.01895,1.66358 9.73465,3.35382 6.89327,9.01627c-4.30527,7.04643 -15.51035,-0.66576 -18.6709,-3.79319c-2.81456,-2.76145 -1.24414,-6.44771 0.08007,-9.57504c2.72161,-5.87537 4.8776,-11.01218 10.03443,-11.81053c6.40113,-1.07779 4.96372,5.33658 3.38001,8.75002c-0.93826,2.06935 -1.81663,4.24518 -2.56856,5.64915c-0.01998,0.71197 0.23286,1.41064 0.85167,1.76332z" stroke-linecap="round" stroke-linejoin="round"/><path d="M277.2854,110.20751c0.36645,-0.2443 0.97721,-0.12215 1.09936,0.36645l3.17591,13.07009c0,0 7.81762,5.74107 10.13848,9.77202c3.90881,6.71827 4.03096,12.21503 4.03096,12.21503c0,0 8.67267,2.56516 10.13848,9.52773c1.4658,6.96256 -3.90881,20.1548 -26.87307,24.67436c-22.96426,4.51956 -41.40896,-1.7101 -50.08164,-15.63524c-8.67267,-13.92514 5.00817,-30.53758 4.27526,-29.56038l-2.56516,-21.86491c-0.12215,-0.48861 0.4886,-0.85505 0.97721,-0.61075l14.78019,9.64987c0,0 5.49677,-2.07655 11.23782,-2.32085c3.42022,-0.2443 6.35181,-0.00001 9.16127,0.4886z" stroke-linecap="butt" stroke-linejoin="miter"/><path d="M295.36364,146.11971c0,0 8.42838,2.19871 9.89418,9.16127c1.4658,6.96256 -4.39741,19.54405 -27.11737,23.94146c-29.56038,6.10752 -43.60766,-11.48213 -35.4236,-24.43007c8.18407,-13.07009 22.23136,-1.9544 32.49199,-2.68731c8.79482,-0.61075 9.77202,-8.30622 20.1548,-5.98537z" stroke-linecap="butt" stroke-linejoin="miter"/><path d="M254.99009,160.43462c-0.03885,-0.45155 0.38356,-0.82908 0.84482,-0.75504c2.21285,0.60566 8.46416,1.88735 15.27624,1.75611c6.12504,-0.18585 9.70829,-0.83534 11.37246,-1.31969c0.55473,-0.16146 1.05485,0.36413 0.87764,0.94799c-0.75373,3.13537 -4.31495,11.97101 -16.22638,12.31357c-10.36985,-0.24497 -12.00749,-7.38234 -12.14476,-12.94296z" data-paper-data="{&quot;index&quot;:null}" stroke-linecap="round" stroke-linejoin="round"/><path d="M317.8393,147.46336c-5.74107,4.64171 -14.53589,4.76386 -14.53589,4.76386" stroke-linecap="round" stroke-linejoin="round"/><path d="M274.72025,148.92916c2.56516,0 5.25246,0.2443 5.37461,1.09936c0.12215,1.7101 -1.7101,5.13032 -3.66451,5.25247c-2.19871,0.2443 -7.32902,-2.80946 -7.32902,-4.76386c-0.12215,-1.4658 3.17591,-1.58795 5.61892,-1.58795z" stroke-linecap="round" stroke-linejoin="round"/><path d="M219.7526,147.09689c0,0 10.50493,3.42021 14.78019,7.20687" stroke-linecap="round" stroke-linejoin="round"/><path d="M234.89924,158.57904c-5.25246,2.07656 -14.29159,0.73291 -14.29159,0.73291" stroke-linecap="round" stroke-linejoin="round"/><g><path d="M289.13398,134.63757c3.54236,5.49677 3.66452,11.72642 0.2443,13.92513c-3.42022,2.19871 -9.03912,-0.36645 -12.70363,-5.86321c-3.54236,-5.49677 -3.66452,-11.72643 -0.2443,-13.92514c3.42022,-2.32085 9.16127,0.36645 12.70363,5.86322z" stroke-linecap="round" stroke-linejoin="round"/><path d="M288.64538,141.60014c0,1.34365 -0.97721,2.443 -2.19871,2.443c-1.22151,0 -2.19871,-1.09936 -2.19871,-2.443c0,-1.34365 0.97721,-2.443 2.19871,-2.443c1.22151,0 2.19871,1.09936 2.19871,2.443" stroke-linecap="butt" stroke-linejoin="miter"/></g><g><path d="M258.8407,138.05778c3.66451,5.37461 3.42022,11.97074 0.12215,14.29159c-4.03096,2.32085 -9.40558,0.61075 -13.07009,-4.76386c-3.78666,-5.37461 -4.03096,-12.33718 -0.2443,-15.02449c3.78666,-2.80946 9.52773,0.12215 13.19224,5.49677z" stroke-linecap="round" stroke-linejoin="round"/><path d="M258.10779,145.1425c0,1.34365 -0.97721,2.44301 -2.1987,2.44301c-1.22151,0 -2.19871,-1.09936 -2.19871,-2.44301c0,-1.34365 0.97721,-2.443 2.19871,-2.443c1.22151,0.12215 2.1987,1.09936 2.1987,2.443" stroke-linecap="butt" stroke-linejoin="miter"/></g></g><g fill-opacity="0.08115" fill="#ffab19" fill-rule="evenodd" stroke="none" stroke-width="0"><path d="M306.40889,153.77547c-7.69547,0.61075 -12.45934,-1.7101 -12.45934,-1.7101" stroke-linecap="round" stroke-linejoin="round"/><g><path d="M232.01934,188.46616c0.97721,0.48861 3.05376,1.58795 0.12215,5.74107c-2.93161,4.15311 -11.35998,5.00816 -12.33718,5.00816c-3.78666,0.12215 -8.42837,0.12215 -13.55869,-1.58795c-14.90234,-4.88601 -15.02449,-20.88771 -10.26063,-23.45286c4.64171,-2.56516 6.71826,7.32901 13.43654,13.31438c2.93161,2.68731 6.47396,3.66452 9.40557,4.27526c4.15311,0.7329 12.09288,-3.90881 13.19224,-3.29806z" stroke-linecap="round" stroke-linejoin="round"/><path d="M201.72606,178.57198c1.9544,3.29806 5.74107,7.93978 5.74107,7.93978c0,0 -4.51956,-1.09936 -7.08472,0.97721c-2.07656,1.58795 -1.58795,4.27526 -1.34365,5.13032c-1.58795,-1.58795 -3.54237,-3.78666 -4.76386,-8.06193c-1.22151,-4.27526 0,-9.40557 2.443,-10.13848c2.443,-0.48861 3.05376,1.34365 5.00817,4.15311z" stroke-linecap="butt" stroke-linejoin="miter"/></g><path d="M238.12686,201.1698c-2.19871,1.4658 -9.77202,6.84041 -19.4219,9.89417l-0.4886,0.12215c-0.48861,0.12215 -0.73291,0.7329 -0.48861,1.22151c2.07656,2.93161 5.86322,8.79482 -0.85505,10.87139c-6.47396,2.07656 -18.56685,-15.14664 -13.43654,-19.6662c2.32085,-1.7101 4.39741,-0.85506 5.49677,-0.36645c0.61075,0.2443 1.22151,0.2443 1.83225,0.12215c1.4658,-0.48861 4.15311,-1.4658 6.22966,-2.56516c5.25246,-2.68731 6.47396,-3.78666 8.91697,-5.61892c2.443,-1.83225 8.06193,-6.35182 12.58149,-2.44301c3.90881,3.29806 1.7101,6.96257 -0.36645,8.42838z" stroke-linecap="round" stroke-linejoin="round"/><path d="M258.38116,176.86016c0.81018,0.40919 10.9794,8.22078 13.80237,5.72547c3.39495,-2.92144 7.91402,-8.412 13.79891,-4.95543c5.88489,3.45657 -3.77713,11.30865 -8.00683,13.57784c-10.12139,4.82919 -19.36985,-1.47943 -21.3929,-3.23928c-2.02305,-1.75985 -5.55112,-4.71804 -5.87056,-7.87785c-0.19181,-3.41826 4.89721,-4.79214 7.66901,-3.23077z" stroke-linecap="round" stroke-linejoin="round"/><g><path d="M257.67091,204.22356c2.56516,2.32085 8.18407,7.08472 8.18407,7.08472c0,0 17.4675,-3.05376 17.4675,5.74107c0,5.25246 -8.79482,6.47396 -20.64341,5.37461c-0.7329,-0.12215 -1.4658,-0.36645 -2.07656,-0.85505c-2.68731,-2.32085 -10.38278,-9.16127 -15.26879,-13.92514c-7.20687,-7.08472 -13.19224,-11.72643 -13.19224,-11.72643c-10.38278,-10.13848 -1.9544,-14.41373 1.34365,-20.27695c3.05376,-5.00817 4.39741,-4.03096 11.72643,-2.56516c4.15311,0.61075 6.59612,0.97721 9.28342,0.85505c4.03096,-0.12215 3.29806,5.74107 2.1987,8.79482c0,0 -1.7101,4.51957 -3.29806,6.84042c-1.9544,2.80946 -3.42022,4.64171 -4.88601,5.74107z" stroke-linecap="round" stroke-linejoin="round"/><path d="M247.41029,195.18444c0,0 -1.83225,-1.4658 -3.78666,-3.29806c-2.443,-2.19871 -4.88601,-4.03096 -2.443,-7.81762c2.19871,-2.93161 4.27526,-6.84041 9.77202,-3.29806c5.25246,3.29806 2.93161,6.35181 2.93161,6.35181c-2.68731,5.49677 -6.47396,8.06192 -6.47396,8.06192z" stroke-linecap="butt" stroke-linejoin="miter"/></g><path d="M232.80035,183.12116c4.01895,1.66358 9.73465,3.35382 6.89327,9.01627c-4.30527,7.04643 -15.51035,-0.66576 -18.6709,-3.79319c-2.81456,-2.76145 -1.24414,-6.44771 0.08007,-9.57504c2.72161,-5.87537 4.8776,-11.01218 10.03443,-11.81053c6.40113,-1.07779 4.96372,5.33658 3.38001,8.75002c-0.93826,2.06935 -1.81663,4.24518 -2.56856,5.64915c-0.01998,0.71197 0.23286,1.41064 0.85167,1.76332z" stroke-linecap="round" stroke-linejoin="round"/><path d="M267.44294,102.83879c0.36645,-0.2443 0.97721,-0.12215 1.09936,0.36645l3.17591,13.07009c0,0 7.81762,5.74107 10.13848,9.77202c3.90881,6.71827 4.03096,12.21503 4.03096,12.21503c0,0 8.67267,2.56516 10.13848,9.52773c1.4658,6.96256 -3.90881,20.1548 -26.87307,24.67436c-22.96426,4.51956 -41.40896,-1.7101 -50.08164,-15.63524c-8.67267,-13.92514 5.00817,-30.53758 4.27526,-29.56038l-2.56516,-21.86491c-0.12215,-0.48861 0.4886,-0.85505 0.97721,-0.61075l14.78019,9.64987c0,0 5.49677,-2.07655 11.23782,-2.32085c3.42022,-0.2443 6.35181,-0.00001 9.16127,0.4886z" stroke-linecap="butt" stroke-linejoin="miter"/><path d="M285.52118,138.75099c0,0 8.42838,2.19871 9.89418,9.16127c1.4658,6.96256 -4.39741,19.54405 -27.11737,23.94146c-29.56038,6.10752 -43.60766,-11.48213 -35.4236,-24.43007c8.18407,-13.07009 22.23136,-1.9544 32.49199,-2.68731c8.79482,-0.61075 9.77202,-8.30622 20.1548,-5.98537z" stroke-linecap="butt" stroke-linejoin="miter"/><path d="M245.14763,153.0659c-0.03885,-0.45155 0.38356,-0.82908 0.84482,-0.75504c2.21285,0.60566 8.46416,1.88735 15.27624,1.75611c6.12504,-0.18585 9.70829,-0.83534 11.37246,-1.31969c0.55473,-0.16146 1.05485,0.36413 0.87764,0.94799c-0.75373,3.13537 -4.31495,11.97101 -16.22638,12.31357c-10.36985,-0.24497 -12.00749,-7.38234 -12.14476,-12.94296z" data-paper-data="{&quot;index&quot;:null}" stroke-linecap="round" stroke-linejoin="round"/><path d="M307.99684,140.09464c-5.74107,4.64171 -14.53589,4.76386 -14.53589,4.76386" stroke-linecap="round" stroke-linejoin="round"/><path d="M264.87779,141.56044c2.56516,0 5.25246,0.2443 5.37461,1.09936c0.12215,1.7101 -1.7101,5.13032 -3.66451,5.25247c-2.19871,0.2443 -7.32902,-2.80946 -7.32902,-4.76386c-0.12215,-1.4658 3.17591,-1.58795 5.61892,-1.58795z" stroke-linecap="round" stroke-linejoin="round"/><path d="M209.91014,139.72818c0,0 10.50493,3.42021 14.78019,7.20687" stroke-linecap="round" stroke-linejoin="round"/><path d="M225.05678,151.21032c-5.25246,2.07656 -14.29159,0.73291 -14.29159,0.73291" stroke-linecap="round" stroke-linejoin="round"/><g><path d="M279.29152,127.26885c3.54236,5.49677 3.66452,11.72642 0.2443,13.92513c-3.42022,2.19871 -9.03912,-0.36645 -12.70363,-5.86321c-3.54236,-5.49677 -3.66452,-11.72643 -0.2443,-13.92514c3.42022,-2.32085 9.16127,0.36645 12.70363,5.86322z" stroke-linecap="round" stroke-linejoin="round"/><path d="M278.80292,134.23142c0,1.34365 -0.97721,2.443 -2.19871,2.443c-1.22151,0 -2.19871,-1.09936 -2.19871,-2.443c0,-1.34365 0.97721,-2.443 2.19871,-2.443c1.22151,0 2.19871,1.09936 2.19871,2.443" stroke-linecap="butt" stroke-linejoin="miter"/></g><g><path d="M248.99824,130.68906c3.66451,5.37461 3.42022,11.97074 0.12215,14.29159c-4.03096,2.32085 -9.40558,0.61075 -13.07009,-4.76386c-3.78666,-5.37461 -4.03096,-12.33718 -0.2443,-15.02449c3.78666,-2.80946 9.52773,0.12215 13.19224,5.49677z" stroke-linecap="round" stroke-linejoin="round"/><path d="M248.26533,137.77378c0,1.34365 -0.97721,2.44301 -2.1987,2.44301c-1.22151,0 -2.19871,-1.09936 -2.19871,-2.44301c0,-1.34365 0.97721,-2.443 2.19871,-2.443c1.22151,0.12215 2.1987,1.09936 2.1987,2.443" stroke-linecap="butt" stroke-linejoin="miter"/></g></g><g fill-opacity="0.08115" fill="#ffab19" fill-rule="evenodd" stroke="none" stroke-width="0"><path d="M316.35638,153.20955c-7.69547,0.61075 -12.45934,-1.7101 -12.45934,-1.7101" stroke-linecap="round" stroke-linejoin="round"/><g><path d="M241.96683,187.90024c0.97721,0.48861 3.05376,1.58795 0.12215,5.74107c-2.93161,4.15311 -11.35998,5.00816 -12.33718,5.00816c-3.78666,0.12215 -8.42837,0.12215 -13.55869,-1.58795c-14.90234,-4.88601 -15.02449,-20.88771 -10.26063,-23.45286c4.64171,-2.56516 6.71826,7.32901 13.43654,13.31438c2.93161,2.68731 6.47396,3.66452 9.40557,4.27526c4.15311,0.7329 12.09288,-3.90881 13.19224,-3.29806z" stroke-linecap="round" stroke-linejoin="round"/><path d="M211.67355,178.00606c1.9544,3.29806 5.74107,7.93978 5.74107,7.93978c0,0 -4.51956,-1.09936 -7.08472,0.97721c-2.07656,1.58795 -1.58795,4.27526 -1.34365,5.13032c-1.58795,-1.58795 -3.54237,-3.78666 -4.76386,-8.06193c-1.22151,-4.27526 0,-9.40557 2.443,-10.13848c2.443,-0.48861 3.05376,1.34365 5.00817,4.15311z" stroke-linecap="butt" stroke-linejoin="miter"/></g><path d="M248.07435,200.60388c-2.19871,1.4658 -9.77202,6.84041 -19.4219,9.89417l-0.4886,0.12215c-0.48861,0.12215 -0.73291,0.7329 -0.48861,1.22151c2.07656,2.93161 5.86322,8.79482 -0.85505,10.87139c-6.47396,2.07656 -18.56685,-15.14664 -13.43654,-19.6662c2.32085,-1.7101 4.39741,-0.85506 5.49677,-0.36645c0.61075,0.2443 1.22151,0.2443 1.83225,0.12215c1.4658,-0.48861 4.15311,-1.4658 6.22966,-2.56516c5.25246,-2.68731 6.47396,-3.78666 8.91697,-5.61892c2.443,-1.83225 8.06193,-6.35182 12.58149,-2.44301c3.90881,3.29806 1.7101,6.96257 -0.36645,8.42838z" stroke-linecap="round" stroke-linejoin="round"/><path d="M268.32865,176.29424c0.81018,0.40919 10.9794,8.22078 13.80237,5.72547c3.39495,-2.92144 7.91402,-8.412 13.79891,-4.95543c5.88489,3.45657 -3.77713,11.30865 -8.00683,13.57784c-10.12139,4.82919 -19.36985,-1.47943 -21.3929,-3.23928c-2.02305,-1.75985 -5.55112,-4.71804 -5.87056,-7.87785c-0.19181,-3.41826 4.89721,-4.79214 7.66901,-3.23077z" stroke-linecap="round" stroke-linejoin="round"/><g><path d="M267.6184,203.65764c2.56516,2.32085 8.18407,7.08472 8.18407,7.08472c0,0 17.4675,-3.05376 17.4675,5.74107c0,5.25246 -8.79482,6.47396 -20.64341,5.37461c-0.7329,-0.12215 -1.4658,-0.36645 -2.07656,-0.85505c-2.68731,-2.32085 -10.38278,-9.16127 -15.26879,-13.92514c-7.20687,-7.08472 -13.19224,-11.72643 -13.19224,-11.72643c-10.38278,-10.13848 -1.9544,-14.41373 1.34365,-20.27695c3.05376,-5.00817 4.39741,-4.03096 11.72643,-2.56516c4.15311,0.61075 6.59612,0.97721 9.28342,0.85505c4.03096,-0.12215 3.29806,5.74107 2.1987,8.79482c0,0 -1.7101,4.51957 -3.29806,6.84042c-1.9544,2.80946 -3.42022,4.64171 -4.88601,5.74107z" stroke-linecap="round" stroke-linejoin="round"/><path d="M257.35778,194.61852c0,0 -1.83225,-1.4658 -3.78666,-3.29806c-2.443,-2.19871 -4.88601,-4.03096 -2.443,-7.81762c2.19871,-2.93161 4.27526,-6.84041 9.77202,-3.29806c5.25246,3.29806 2.93161,6.35181 2.93161,6.35181c-2.68731,5.49677 -6.47396,8.06192 -6.47396,8.06192z" stroke-linecap="butt" stroke-linejoin="miter"/></g><path d="M242.74784,182.55524c4.01895,1.66358 9.73465,3.35382 6.89327,9.01627c-4.30527,7.04643 -15.51035,-0.66576 -18.6709,-3.79319c-2.81456,-2.76145 -1.24414,-6.44771 0.08007,-9.57504c2.72161,-5.87537 4.8776,-11.01218 10.03443,-11.81053c6.40113,-1.07779 4.96372,5.33658 3.38001,8.75002c-0.93826,2.06935 -1.81663,4.24518 -2.56856,5.64915c-0.01998,0.71197 0.23286,1.41064 0.85167,1.76332z" stroke-linecap="round" stroke-linejoin="round"/><path d="M277.39043,102.27287c0.36645,-0.2443 0.97721,-0.12215 1.09936,0.36645l3.17591,13.07009c0,0 7.81762,5.74107 10.13848,9.77202c3.90881,6.71827 4.03096,12.21503 4.03096,12.21503c0,0 8.67267,2.56516 10.13848,9.52773c1.4658,6.96256 -3.90881,20.1548 -26.87307,24.67436c-22.96426,4.51956 -41.40896,-1.7101 -50.08164,-15.63524c-8.67267,-13.92514 5.00817,-30.53758 4.27526,-29.56038l-2.56516,-21.86491c-0.12215,-0.48861 0.4886,-0.85505 0.97721,-0.61075l14.78019,9.64987c0,0 5.49677,-2.07655 11.23782,-2.32085c3.42022,-0.2443 6.35181,-0.00001 9.16127,0.4886z" stroke-linecap="butt" stroke-linejoin="miter"/><path d="M295.46867,138.18507c0,0 8.42838,2.19871 9.89418,9.16127c1.4658,6.96256 -4.39741,19.54405 -27.11737,23.94146c-29.56038,6.10752 -43.60766,-11.48213 -35.4236,-24.43007c8.18407,-13.07009 22.23136,-1.9544 32.49199,-2.68731c8.79482,-0.61075 9.77202,-8.30622 20.1548,-5.98537z" stroke-linecap="butt" stroke-linejoin="miter"/><path d="M255.09512,152.49998c-0.03885,-0.45155 0.38356,-0.82908 0.84482,-0.75504c2.21285,0.60566 8.46416,1.88735 15.27624,1.75611c6.12504,-0.18585 9.70829,-0.83534 11.37246,-1.31969c0.55473,-0.16146 1.05485,0.36413 0.87764,0.94799c-0.75373,3.13537 -4.31495,11.97101 -16.22638,12.31357c-10.36985,-0.24497 -12.00749,-7.38234 -12.14476,-12.94296z" data-paper-data="{&quot;index&quot;:null}" stroke-linecap="round" stroke-linejoin="round"/><path d="M317.94433,139.52872c-5.74107,4.64171 -14.53589,4.76386 -14.53589,4.76386" stroke-linecap="round" stroke-linejoin="round"/><path d="M274.82528,140.99452c2.56516,0 5.25246,0.2443 5.37461,1.09936c0.12215,1.7101 -1.7101,5.13032 -3.66451,5.25247c-2.19871,0.2443 -7.32902,-2.80946 -7.32902,-4.76386c-0.12215,-1.4658 3.17591,-1.58795 5.61892,-1.58795z" stroke-linecap="round" stroke-linejoin="round"/><path d="M219.85763,139.16226c0,0 10.50493,3.42021 14.78019,7.20687" stroke-linecap="round" stroke-linejoin="round"/><path d="M235.00427,150.6444c-5.25246,2.07656 -14.29159,0.73291 -14.29159,0.73291" stroke-linecap="round" stroke-linejoin="round"/><g><path d="M289.23901,126.70293c3.54236,5.49677 3.66452,11.72642 0.2443,13.92513c-3.42022,2.19871 -9.03912,-0.36645 -12.70363,-5.86321c-3.54236,-5.49677 -3.66452,-11.72643 -0.2443,-13.92514c3.42022,-2.32085 9.16127,0.36645 12.70363,5.86322z" stroke-linecap="round" stroke-linejoin="round"/><path d="M288.75041,133.6655c0,1.34365 -0.97721,2.443 -2.19871,2.443c-1.22151,0 -2.19871,-1.09936 -2.19871,-2.443c0,-1.34365 0.97721,-2.443 2.19871,-2.443c1.22151,0 2.19871,1.09936 2.19871,2.443" stroke-linecap="butt" stroke-linejoin="miter"/></g><g><path d="M258.94573,130.12314c3.66451,5.37461 3.42022,11.97074 0.12215,14.29159c-4.03096,2.32085 -9.40558,0.61075 -13.07009,-4.76386c-3.78666,-5.37461 -4.03096,-12.33718 -0.2443,-15.02449c3.78666,-2.80946 9.52773,0.12215 13.19224,5.49677z" stroke-linecap="round" stroke-linejoin="round"/><path d="M258.21282,137.20786c0,1.34365 -0.97721,2.44301 -2.1987,2.44301c-1.22151,0 -2.19871,-1.09936 -2.19871,-2.44301c0,-1.34365 0.97721,-2.443 2.19871,-2.443c1.22151,0.12215 2.1987,1.09936 2.1987,2.443" stroke-linecap="butt" stroke-linejoin="miter"/></g></g><g fill-opacity="0.08115" fill="#ffab19" fill-rule="evenodd" stroke="none" stroke-width="0"><path d="M310.22453,158.82799c-7.69547,0.61075 -12.45934,-1.7101 -12.45934,-1.7101" stroke-linecap="round" stroke-linejoin="round"/><g><path d="M235.83498,193.51868c0.97721,0.48861 3.05376,1.58795 0.12215,5.74107c-2.93161,4.15311 -11.35998,5.00816 -12.33718,5.00816c-3.78666,0.12215 -8.42837,0.12215 -13.55869,-1.58795c-14.90234,-4.88601 -15.02449,-20.88771 -10.26063,-23.45286c4.64171,-2.56516 6.71826,7.32901 13.43654,13.31438c2.93161,2.68731 6.47396,3.66452 9.40557,4.27526c4.15311,0.7329 12.09288,-3.90881 13.19224,-3.29806z" stroke-linecap="round" stroke-linejoin="round"/><path d="M205.5417,183.6245c1.9544,3.29806 5.74107,7.93978 5.74107,7.93978c0,0 -4.51956,-1.09936 -7.08472,0.97721c-2.07656,1.58795 -1.58795,4.27526 -1.34365,5.13032c-1.58795,-1.58795 -3.54237,-3.78666 -4.76386,-8.06193c-1.22151,-4.27526 0,-9.40557 2.443,-10.13848c2.443,-0.48861 3.05376,1.34365 5.00817,4.15311z" stroke-linecap="butt" stroke-linejoin="miter"/></g><path d="M241.9425,206.22232c-2.19871,1.4658 -9.77202,6.84041 -19.4219,9.89417l-0.4886,0.12215c-0.48861,0.12215 -0.73291,0.7329 -0.48861,1.22151c2.07656,2.93161 5.86322,8.79482 -0.85505,10.87139c-6.47396,2.07656 -18.56685,-15.14664 -13.43654,-19.6662c2.32085,-1.7101 4.39741,-0.85506 5.49677,-0.36645c0.61075,0.2443 1.22151,0.2443 1.83225,0.12215c1.4658,-0.48861 4.15311,-1.4658 6.22966,-2.56516c5.25246,-2.68731 6.47396,-3.78666 8.91697,-5.61892c2.443,-1.83225 8.06193,-6.35182 12.58149,-2.44301c3.90881,3.29806 1.7101,6.96257 -0.36645,8.42838z" stroke-linecap="round" stroke-linejoin="round"/><path d="M262.1968,181.91268c0.81018,0.40919 10.9794,8.22078 13.80237,5.72547c3.39495,-2.92144 7.91402,-8.412 13.79891,-4.95543c5.88489,3.45657 -3.77713,11.30865 -8.00683,13.57784c-10.12139,4.82919 -19.36985,-1.47943 -21.3929,-3.23928c-2.02305,-1.75985 -5.55112,-4.71804 -5.87056,-7.87785c-0.19181,-3.41826 4.89721,-4.79214 7.66901,-3.23077z" stroke-linecap="round" stroke-linejoin="round"/><g><path d="M261.48655,209.27608c2.56516,2.32085 8.18407,7.08472 8.18407,7.08472c0,0 17.4675,-3.05376 17.4675,5.74107c0,5.25246 -8.79482,6.47396 -20.64341,5.37461c-0.7329,-0.12215 -1.4658,-0.36645 -2.07656,-0.85505c-2.68731,-2.32085 -10.38278,-9.16127 -15.26879,-13.92514c-7.20687,-7.08472 -13.19224,-11.72643 -13.19224,-11.72643c-10.38278,-10.13848 -1.9544,-14.41373 1.34365,-20.27695c3.05376,-5.00817 4.39741,-4.03096 11.72643,-2.56516c4.15311,0.61075 6.59612,0.97721 9.28342,0.85505c4.03096,-0.12215 3.29806,5.74107 2.1987,8.79482c0,0 -1.7101,4.51957 -3.29806,6.84042c-1.9544,2.80946 -3.42022,4.64171 -4.88601,5.74107z" stroke-linecap="round" stroke-linejoin="round"/><path d="M251.22593,200.23696c0,0 -1.83225,-1.4658 -3.78666,-3.29806c-2.443,-2.19871 -4.88601,-4.03096 -2.443,-7.81762c2.19871,-2.93161 4.27526,-6.84041 9.77202,-3.29806c5.25246,3.29806 2.93161,6.35181 2.93161,6.35181c-2.68731,5.49677 -6.47396,8.06192 -6.47396,8.06192z" stroke-linecap="butt" stroke-linejoin="miter"/></g><path d="M236.61599,188.17368c4.01895,1.66358 9.73465,3.35382 6.89327,9.01627c-4.30527,7.04643 -15.51035,-0.66576 -18.6709,-3.79319c-2.81456,-2.76145 -1.24414,-6.44771 0.08007,-9.57504c2.72161,-5.87537 4.8776,-11.01218 10.03443,-11.81053c6.40113,-1.07779 4.96372,5.33658 3.38001,8.75002c-0.93826,2.06935 -1.81663,4.24518 -2.56856,5.64915c-0.01998,0.71197 0.23286,1.41064 0.85167,1.76332z" stroke-linecap="round" stroke-linejoin="round"/><path d="M271.25858,107.89131c0.36645,-0.2443 0.97721,-0.12215 1.09936,0.36645l3.17591,13.07009c0,0 7.81762,5.74107 10.13848,9.77202c3.90881,6.71827 4.03096,12.21503 4.03096,12.21503c0,0 8.67267,2.56516 10.13848,9.52773c1.4658,6.96256 -3.90881,20.1548 -26.87307,24.67436c-22.96426,4.51956 -41.40896,-1.7101 -50.08164,-15.63524c-8.67267,-13.92514 5.00817,-30.53758 4.27526,-29.56038l-2.56516,-21.86491c-0.12215,-0.48861 0.4886,-0.85505 0.97721,-0.61075l14.78019,9.64987c0,0 5.49677,-2.07655 11.23782,-2.32085c3.42022,-0.2443 6.35181,-0.00001 9.16127,0.4886z" stroke-linecap="butt" stroke-linejoin="miter"/><path d="M289.33682,143.80351c0,0 8.42838,2.19871 9.89418,9.16127c1.4658,6.96256 -4.39741,19.54405 -27.11737,23.94146c-29.56038,6.10752 -43.60766,-11.48213 -35.4236,-24.43007c8.18407,-13.07009 22.23136,-1.9544 32.49199,-2.68731c8.79482,-0.61075 9.77202,-8.30622 20.1548,-5.98537z" stroke-linecap="butt" stroke-linejoin="miter"/><path d="M248.96327,158.11842c-0.03885,-0.45155 0.38356,-0.82908 0.84482,-0.75504c2.21285,0.60566 8.46416,1.88735 15.27624,1.75611c6.12504,-0.18585 9.70829,-0.83534 11.37246,-1.31969c0.55473,-0.16146 1.05485,0.36413 0.87764,0.94799c-0.75373,3.13537 -4.31495,11.97101 -16.22638,12.31357c-10.36985,-0.24497 -12.00749,-7.38234 -12.14476,-12.94296z" data-paper-data="{&quot;index&quot;:null}" stroke-linecap="round" stroke-linejoin="round"/><path d="M311.81248,145.14716c-5.74107,4.64171 -14.53589,4.76386 -14.53589,4.76386" stroke-linecap="round" stroke-linejoin="round"/><path d="M268.69343,146.61296c2.56516,0 5.25246,0.2443 5.37461,1.09936c0.12215,1.7101 -1.7101,5.13032 -3.66451,5.25247c-2.19871,0.2443 -7.32902,-2.80946 -7.32902,-4.76386c-0.12215,-1.4658 3.17591,-1.58795 5.61892,-1.58795z" stroke-linecap="round" stroke-linejoin="round"/><path d="M213.72578,144.7807c0,0 10.50493,3.42021 14.78019,7.20687" stroke-linecap="round" stroke-linejoin="round"/><path d="M228.87242,156.26284c-5.25246,2.07656 -14.29159,0.73291 -14.29159,0.73291" stroke-linecap="round" stroke-linejoin="round"/><g><path d="M283.10716,132.32137c3.54236,5.49677 3.66452,11.72642 0.2443,13.92513c-3.42022,2.19871 -9.03912,-0.36645 -12.70363,-5.86321c-3.54236,-5.49677 -3.66452,-11.72643 -0.2443,-13.92514c3.42022,-2.32085 9.16127,0.36645 12.70363,5.86322z" stroke-linecap="round" stroke-linejoin="round"/><path d="M282.61856,139.28394c0,1.34365 -0.97721,2.443 -2.19871,2.443c-1.22151,0 -2.19871,-1.09936 -2.19871,-2.443c0,-1.34365 0.97721,-2.443 2.19871,-2.443c1.22151,0 2.19871,1.09936 2.19871,2.443" stroke-linecap="butt" stroke-linejoin="miter"/></g><g><path d="M252.81388,135.74158c3.66451,5.37461 3.42022,11.97074 0.12215,14.29159c-4.03096,2.32085 -9.40558,0.61075 -13.07009,-4.76386c-3.78666,-5.37461 -4.03096,-12.33718 -0.2443,-15.02449c3.78666,-2.80946 9.52773,0.12215 13.19224,5.49677z" stroke-linecap="round" stroke-linejoin="round"/><path d="M252.08097,142.8263c0,1.34365 -0.97721,2.44301 -2.1987,2.44301c-1.22151,0 -2.19871,-1.09936 -2.19871,-2.44301c0,-1.34365 0.97721,-2.443 2.19871,-2.443c1.22151,0.12215 2.1987,1.09936 2.1987,2.443" stroke-linecap="butt" stroke-linejoin="miter"/></g></g><g fill-opacity="0.08115" fill="#ffab19" fill-rule="evenodd" stroke="none" stroke-width="0"><path d="M317.69827,157.02519c-7.69547,0.61075 -12.45934,-1.7101 -12.45934,-1.7101" stroke-linecap="round" stroke-linejoin="round"/><g><path d="M243.30872,191.71588c0.97721,0.48861 3.05376,1.58795 0.12215,5.74107c-2.93161,4.15311 -11.35998,5.00816 -12.33718,5.00816c-3.78666,0.12215 -8.42837,0.12215 -13.55869,-1.58795c-14.90234,-4.88601 -15.02449,-20.88771 -10.26063,-23.45286c4.64171,-2.56516 6.71826,7.32901 13.43654,13.31438c2.93161,2.68731 6.47396,3.66452 9.40557,4.27526c4.15311,0.7329 12.09288,-3.90881 13.19224,-3.29806z" stroke-linecap="round" stroke-linejoin="round"/><path d="M213.01544,181.8217c1.9544,3.29806 5.74107,7.93978 5.74107,7.93978c0,0 -4.51956,-1.09936 -7.08472,0.97721c-2.07656,1.58795 -1.58795,4.27526 -1.34365,5.13032c-1.58795,-1.58795 -3.54237,-3.78666 -4.76386,-8.06193c-1.22151,-4.27526 0,-9.40557 2.443,-10.13848c2.443,-0.48861 3.05376,1.34365 5.00817,4.15311z" stroke-linecap="butt" stroke-linejoin="miter"/></g><path d="M249.41624,204.41952c-2.19871,1.4658 -9.77202,6.84041 -19.4219,9.89417l-0.4886,0.12215c-0.48861,0.12215 -0.73291,0.7329 -0.48861,1.22151c2.07656,2.93161 5.86322,8.79482 -0.85505,10.87139c-6.47396,2.07656 -18.56685,-15.14664 -13.43654,-19.6662c2.32085,-1.7101 4.39741,-0.85506 5.49677,-0.36645c0.61075,0.2443 1.22151,0.2443 1.83225,0.12215c1.4658,-0.48861 4.15311,-1.4658 6.22966,-2.56516c5.25246,-2.68731 6.47396,-3.78666 8.91697,-5.61892c2.443,-1.83225 8.06193,-6.35182 12.58149,-2.44301c3.90881,3.29806 1.7101,6.96257 -0.36645,8.42838z" stroke-linecap="round" stroke-linejoin="round"/><path d="M269.67054,180.10988c0.81018,0.40919 10.9794,8.22078 13.80237,5.72547c3.39495,-2.92144 7.91402,-8.412 13.79891,-4.95543c5.88489,3.45657 -3.77713,11.30865 -8.00683,13.57784c-10.12139,4.82919 -19.36985,-1.47943 -21.3929,-3.23928c-2.02305,-1.75985 -5.55112,-4.71804 -5.87056,-7.87785c-0.19181,-3.41826 4.89721,-4.79214 7.66901,-3.23077z" stroke-linecap="round" stroke-linejoin="round"/><g><path d="M268.96029,207.47328c2.56516,2.32085 8.18407,7.08472 8.18407,7.08472c0,0 17.4675,-3.05376 17.4675,5.74107c0,5.25246 -8.79482,6.47396 -20.64341,5.37461c-0.7329,-0.12215 -1.4658,-0.36645 -2.07656,-0.85505c-2.68731,-2.32085 -10.38278,-9.16127 -15.26879,-13.92514c-7.20687,-7.08472 -13.19224,-11.72643 -13.19224,-11.72643c-10.38278,-10.13848 -1.9544,-14.41373 1.34365,-20.27695c3.05376,-5.00817 4.39741,-4.03096 11.72643,-2.56516c4.15311,0.61075 6.59612,0.97721 9.28342,0.85505c4.03096,-0.12215 3.29806,5.74107 2.1987,8.79482c0,0 -1.7101,4.51957 -3.29806,6.84042c-1.9544,2.80946 -3.42022,4.64171 -4.88601,5.74107z" stroke-linecap="round" stroke-linejoin="round"/><path d="M258.69967,198.43416c0,0 -1.83225,-1.4658 -3.78666,-3.29806c-2.443,-2.19871 -4.88601,-4.03096 -2.443,-7.81762c2.19871,-2.93161 4.27526,-6.84041 9.77202,-3.29806c5.25246,3.29806 2.93161,6.35181 2.93161,6.35181c-2.68731,5.49677 -6.47396,8.06192 -6.47396,8.06192z" stroke-linecap="butt" stroke-linejoin="miter"/></g><path d="M244.08973,186.37088c4.01895,1.66358 9.73465,3.35382 6.89327,9.01627c-4.30527,7.04643 -15.51035,-0.66576 -18.6709,-3.79319c-2.81456,-2.76145 -1.24414,-6.44771 0.08007,-9.57504c2.72161,-5.87537 4.8776,-11.01218 10.03443,-11.81053c6.40113,-1.07779 4.96372,5.33658 3.38001,8.75002c-0.93826,2.06935 -1.81663,4.24518 -2.56856,5.64915c-0.01998,0.71197 0.23286,1.41064 0.85167,1.76332z" stroke-linecap="round" stroke-linejoin="round"/><path d="M278.73232,106.08851c0.36645,-0.2443 0.97721,-0.12215 1.09936,0.36645l3.17591,13.07009c0,0 7.81762,5.74107 10.13848,9.77202c3.90881,6.71827 4.03096,12.21503 4.03096,12.21503c0,0 8.67267,2.56516 10.13848,9.52773c1.4658,6.96256 -3.90881,20.1548 -26.87307,24.67436c-22.96426,4.51956 -41.40896,-1.7101 -50.08164,-15.63524c-8.67267,-13.92514 5.00817,-30.53758 4.27526,-29.56038l-2.56516,-21.86491c-0.12215,-0.48861 0.4886,-0.85505 0.97721,-0.61075l14.78019,9.64987c0,0 5.49677,-2.07655 11.23782,-2.32085c3.42022,-0.2443 6.35181,-0.00001 9.16127,0.4886z" stroke-linecap="butt" stroke-linejoin="miter"/><path d="M296.81056,142.00071c0,0 8.42838,2.19871 9.89418,9.16127c1.4658,6.96256 -4.39741,19.54405 -27.11737,23.94146c-29.56038,6.10752 -43.60766,-11.48213 -35.4236,-24.43007c8.18407,-13.07009 22.23136,-1.9544 32.49199,-2.68731c8.79482,-0.61075 9.77202,-8.30622 20.1548,-5.98537z" stroke-linecap="butt" stroke-linejoin="miter"/><path d="M256.43701,156.31562c-0.03885,-0.45155 0.38356,-0.82908 0.84482,-0.75504c2.21285,0.60566 8.46416,1.88735 15.27624,1.75611c6.12504,-0.18585 9.70829,-0.83534 11.37246,-1.31969c0.55473,-0.16146 1.05485,0.36413 0.87764,0.94799c-0.75373,3.13537 -4.31495,11.97101 -16.22638,12.31357c-10.36985,-0.24497 -12.00749,-7.38234 -12.14476,-12.94296z" data-paper-data="{&quot;index&quot;:null}" stroke-linecap="round" stroke-linejoin="round"/><path d="M319.28622,143.34436c-5.74107,4.64171 -14.53589,4.76386 -14.53589,4.76386" stroke-linecap="round" stroke-linejoin="round"/><path d="M276.16717,144.81016c2.56516,0 5.25246,0.2443 5.37461,1.09936c0.12215,1.7101 -1.7101,5.13032 -3.66451,5.25247c-2.19871,0.2443 -7.32902,-2.80946 -7.32902,-4.76386c-0.12215,-1.4658 3.17591,-1.58795 5.61892,-1.58795z" stroke-linecap="round" stroke-linejoin="round"/><path d="M221.19952,142.9779c0,0 10.50493,3.42021 14.78019,7.20687" stroke-linecap="round" stroke-linejoin="round"/><path d="M236.34616,154.46004c-5.25246,2.07656 -14.29159,0.73291 -14.29159,0.73291" stroke-linecap="round" stroke-linejoin="round"/><g><path d="M290.5809,130.51857c3.54236,5.49677 3.66452,11.72642 0.2443,13.92513c-3.42022,2.19871 -9.03912,-0.36645 -12.70363,-5.86321c-3.54236,-5.49677 -3.66452,-11.72643 -0.2443,-13.92514c3.42022,-2.32085 9.16127,0.36645 12.70363,5.86322z" stroke-linecap="round" stroke-linejoin="round"/><path d="M290.0923,137.48114c0,1.34365 -0.97721,2.443 -2.19871,2.443c-1.22151,0 -2.19871,-1.09936 -2.19871,-2.443c0,-1.34365 0.97721,-2.443 2.19871,-2.443c1.22151,0 2.19871,1.09936 2.19871,2.443" stroke-linecap="butt" stroke-linejoin="miter"/></g><g><path d="M260.28762,133.93878c3.66451,5.37461 3.42022,11.97074 0.12215,14.29159c-4.03096,2.32085 -9.40558,0.61075 -13.07009,-4.76386c-3.78666,-5.37461 -4.03096,-12.33718 -0.2443,-15.02449c3.78666,-2.80946 9.52773,0.12215 13.19224,5.49677z" stroke-linecap="round" stroke-linejoin="round"/><path d="M259.55471,141.0235c0,1.34365 -0.97721,2.44301 -2.1987,2.44301c-1.22151,0 -2.19871,-1.09936 -2.19871,-2.44301c0,-1.34365 0.97721,-2.443 2.19871,-2.443c1.22151,0.12215 2.1987,1.09936 2.1987,2.443" stroke-linecap="butt" stroke-linejoin="miter"/></g></g><g fill-opacity="0.08115" fill="#ffab19" fill-rule="evenodd" stroke="none" stroke-width="0"><path d="M309.71112,160.78832c-7.69547,0.61075 -12.45934,-1.7101 -12.45934,-1.7101" stroke-linecap="round" stroke-linejoin="round"/><g><path d="M235.32157,195.47901c0.97721,0.48861 3.05376,1.58795 0.12215,5.74107c-2.93161,4.15311 -11.35998,5.00816 -12.33718,5.00816c-3.78666,0.12215 -8.42837,0.12215 -13.55869,-1.58795c-14.90234,-4.88601 -15.02449,-20.88771 -10.26063,-23.45286c4.64171,-2.56516 6.71826,7.32901 13.43654,13.31438c2.93161,2.68731 6.47396,3.66452 9.40557,4.27526c4.15311,0.7329 12.09288,-3.90881 13.19224,-3.29806z" stroke-linecap="round" stroke-linejoin="round"/><path d="M205.02829,185.58483c1.9544,3.29806 5.74107,7.93978 5.74107,7.93978c0,0 -4.51956,-1.09936 -7.08472,0.97721c-2.07656,1.58795 -1.58795,4.27526 -1.34365,5.13032c-1.58795,-1.58795 -3.54237,-3.78666 -4.76386,-8.06193c-1.22151,-4.27526 0,-9.40557 2.443,-10.13848c2.443,-0.48861 3.05376,1.34365 5.00817,4.15311z" stroke-linecap="butt" stroke-linejoin="miter"/></g><path d="M241.42909,208.18265c-2.19871,1.4658 -9.77202,6.84041 -19.4219,9.89417l-0.4886,0.12215c-0.48861,0.12215 -0.73291,0.7329 -0.48861,1.22151c2.07656,2.93161 5.86322,8.79482 -0.85505,10.87139c-6.47396,2.07656 -18.56685,-15.14664 -13.43654,-19.6662c2.32085,-1.7101 4.39741,-0.85506 5.49677,-0.36645c0.61075,0.2443 1.22151,0.2443 1.83225,0.12215c1.4658,-0.48861 4.15311,-1.4658 6.22966,-2.56516c5.25246,-2.68731 6.47396,-3.78666 8.91697,-5.61892c2.443,-1.83225 8.06193,-6.35182 12.58149,-2.44301c3.90881,3.29806 1.7101,6.96257 -0.36645,8.42838z" stroke-linecap="round" stroke-linejoin="round"/><path d="M261.68339,183.87301c0.81018,0.40919 10.9794,8.22078 13.80237,5.72547c3.39495,-2.92144 7.91402,-8.412 13.79891,-4.95543c5.88489,3.45657 -3.77713,11.30865 -8.00683,13.57784c-10.12139,4.82919 -19.36985,-1.47943 -21.3929,-3.23928c-2.02305,-1.75985 -5.55112,-4.71804 -5.87056,-7.87785c-0.19181,-3.41826 4.89721,-4.79214 7.66901,-3.23077z" stroke-linecap="round" stroke-linejoin="round"/><g><path d="M260.97314,211.23641c2.56516,2.32085 8.18407,7.08472 8.18407,7.08472c0,0 17.4675,-3.05376 17.4675,5.74107c0,5.25246 -8.79482,6.47396 -20.64341,5.37461c-0.7329,-0.12215 -1.4658,-0.36645 -2.07656,-0.85505c-2.68731,-2.32085 -10.38278,-9.16127 -15.26879,-13.92514c-7.20687,-7.08472 -13.19224,-11.72643 -13.19224,-11.72643c-10.38278,-10.13848 -1.9544,-14.41373 1.34365,-20.27695c3.05376,-5.00817 4.39741,-4.03096 11.72643,-2.56516c4.15311,0.61075 6.59612,0.97721 9.28342,0.85505c4.03096,-0.12215 3.29806,5.74107 2.1987,8.79482c0,0 -1.7101,4.51957 -3.29806,6.84042c-1.9544,2.80946 -3.42022,4.64171 -4.88601,5.74107z" stroke-linecap="round" stroke-linejoin="round"/><path d="M250.71252,202.19729c0,0 -1.83225,-1.4658 -3.78666,-3.29806c-2.443,-2.19871 -4.88601,-4.03096 -2.443,-7.81762c2.19871,-2.93161 4.27526,-6.84041 9.77202,-3.29806c5.25246,3.29806 2.93161,6.35181 2.93161,6.35181c-2.68731,5.49677 -6.47396,8.06192 -6.47396,8.06192z" stroke-linecap="butt" stroke-linejoin="miter"/></g><path d="M236.10258,190.13401c4.01895,1.66358 9.73465,3.35382 6.89327,9.01627c-4.30527,7.04643 -15.51035,-0.66576 -18.6709,-3.79319c-2.81456,-2.76145 -1.24414,-6.44771 0.08007,-9.57504c2.72161,-5.87537 4.8776,-11.01218 10.03443,-11.81053c6.40113,-1.07779 4.96372,5.33658 3.38001,8.75002c-0.93826,2.06935 -1.81663,4.24518 -2.56856,5.64915c-0.01998,0.71197 0.23286,1.41064 0.85167,1.76332z" stroke-linecap="round" stroke-linejoin="round"/><path d="M270.74517,109.85164c0.36645,-0.2443 0.97721,-0.12215 1.09936,0.36645l3.17591,13.07009c0,0 7.81762,5.74107 10.13848,9.77202c3.90881,6.71827 4.03096,12.21503 4.03096,12.21503c0,0 8.67267,2.56516 10.13848,9.52773c1.4658,6.96256 -3.90881,20.1548 -26.87307,24.67436c-22.96426,4.51956 -41.40896,-1.7101 -50.08164,-15.63524c-8.67267,-13.92514 5.00817,-30.53758 4.27526,-29.56038l-2.56516,-21.86491c-0.12215,-0.48861 0.4886,-0.85505 0.97721,-0.61075l14.78019,9.64987c0,0 5.49677,-2.07655 11.23782,-2.32085c3.42022,-0.2443 6.35181,-0.00001 9.16127,0.4886z" stroke-linecap="butt" stroke-linejoin="miter"/><path d="M288.82341,145.76384c0,0 8.42838,2.19871 9.89418,9.16127c1.4658,6.96256 -4.39741,19.54405 -27.11737,23.94146c-29.56038,6.10752 -43.60766,-11.48213 -35.4236,-24.43007c8.18407,-13.07009 22.23136,-1.9544 32.49199,-2.68731c8.79482,-0.61075 9.77202,-8.30622 20.1548,-5.98537z" stroke-linecap="butt" stroke-linejoin="miter"/><path d="M248.44986,160.07875c-0.03885,-0.45155 0.38356,-0.82908 0.84482,-0.75504c2.21285,0.60566 8.46416,1.88735 15.27624,1.75611c6.12504,-0.18585 9.70829,-0.83534 11.37246,-1.31969c0.55473,-0.16146 1.05485,0.36413 0.87764,0.94799c-0.75373,3.13537 -4.31495,11.97101 -16.22638,12.31357c-10.36985,-0.24497 -12.00749,-7.38234 -12.14476,-12.94296z" data-paper-data="{&quot;index&quot;:null}" stroke-linecap="round" stroke-linejoin="round"/><path d="M311.29907,147.10749c-5.74107,4.64171 -14.53589,4.76386 -14.53589,4.76386" stroke-linecap="round" stroke-linejoin="round"/><path d="M268.18002,148.57329c2.56516,0 5.25246,0.2443 5.37461,1.09936c0.12215,1.7101 -1.7101,5.13032 -3.66451,5.25247c-2.19871,0.2443 -7.32902,-2.80946 -7.32902,-4.76386c-0.12215,-1.4658 3.17591,-1.58795 5.61892,-1.58795z" stroke-linecap="round" stroke-linejoin="round"/><path d="M213.21237,146.74103c0,0 10.50493,3.42021 14.78019,7.20687" stroke-linecap="round" stroke-linejoin="round"/><path d="M228.35901,158.22317c-5.25246,2.07656 -14.29159,0.73291 -14.29159,0.73291" stroke-linecap="round" stroke-linejoin="round"/><g><path d="M282.59375,134.2817c3.54236,5.49677 3.66452,11.72642 0.2443,13.92513c-3.42022,2.19871 -9.03912,-0.36645 -12.70363,-5.86321c-3.54236,-5.49677 -3.66452,-11.72643 -0.2443,-13.92514c3.42022,-2.32085 9.16127,0.36645 12.70363,5.86322z" stroke-linecap="round" stroke-linejoin="round"/><path d="M282.10515,141.24427c0,1.34365 -0.97721,2.443 -2.19871,2.443c-1.22151,0 -2.19871,-1.09936 -2.19871,-2.443c0,-1.34365 0.97721,-2.443 2.19871,-2.443c1.22151,0 2.19871,1.09936 2.19871,2.443" stroke-linecap="butt" stroke-linejoin="miter"/></g><g><path d="M252.30047,137.70191c3.66451,5.37461 3.42022,11.97074 0.12215,14.29159c-4.03096,2.32085 -9.40558,0.61075 -13.07009,-4.76386c-3.78666,-5.37461 -4.03096,-12.33718 -0.2443,-15.02449c3.78666,-2.80946 9.52773,0.12215 13.19224,5.49677z" stroke-linecap="round" stroke-linejoin="round"/><path d="M251.56756,144.78663c0,1.34365 -0.97721,2.44301 -2.1987,2.44301c-1.22151,0 -2.19871,-1.09936 -2.19871,-2.44301c0,-1.34365 0.97721,-2.443 2.19871,-2.443c1.22151,0.12215 2.1987,1.09936 2.1987,2.443" stroke-linecap="butt" stroke-linejoin="miter"/></g></g></g></g></svg>