<svg version="1.1" xmlns="http://www.w3.org/2000/svg" xmlns:xlink="http://www.w3.org/1999/xlink" width="85.66667" height="85.77388" viewBox="0,0,85.66667,85.77388"><g transform="translate(-197.16666,-137.41667)"><g data-paper-data="{&quot;isPaintingLayer&quot;:true}" fill-rule="nonzero" stroke-linecap="butt" stroke-miterlimit="10" stroke-dasharray="" stroke-dashoffset="0" style="mix-blend-mode: normal"><path d="M207.66667,212.58335c0,0 0,-48.48188 0,-58.18757c0,-3.23868 0,-6.4791 0,-6.4791c0,0 4.79802,0 9.12794,0c10.68051,0 55.53873,0 55.53873,0v64.66667z" fill="#233944" stroke="#233944" stroke-width="21" stroke-linejoin="round"/><path d="M259.25978,173.27773l23.50651,-0.75c0,0 -0.16747,51.41229 -0.33985,41.42958c-0.01989,-1.15186 0.43209,8.58512 -9.73175,8.91962c-5.23909,0.17242 -11.02342,0.59265 -14.59715,-0.75345c-2.27243,-0.85594 -3.47821,1.05813 -3.9159,1.06708z" fill="#3d6376" stroke="#737373" stroke-width="0" stroke-linejoin="miter"/><path d="M211.7,222.96667v-37h56.66667v37z" fill="#4b7990" stroke="none" stroke-width="0" stroke-linejoin="miter"/><path d="M222.37501,196.68752v-33.375h35.25v33.375z" fill-opacity="0.00806" fill="#ffffff" stroke="#8a2d2d" stroke-width="0" stroke-linejoin="miter"/><path d="M225.55261,187.59454c-2.79751,-2.96088 -2.54827,-22.73976 0,-25.97255c2.14782,-2.82349 24.73003,-2.50068 27.16396,0c2.30461,5.06479 3.12779,24.81666 0,25.97255c-5.43796,2.00961 -25.62346,1.12333 -27.16396,0z" fill="#ff5454" stroke="#8a2d2d" stroke-width="3.5" stroke-linejoin="miter"/><text transform="translate(228.09935,179.87953) rotate(0.82738) scale(0.43248,0.43248)" font-size="40" xml:space="preserve" fill="#ffffff" fill-rule="nonzero" stroke="none" stroke-width="1" stroke-linecap="butt" stroke-linejoin="miter" stroke-miterlimit="10" stroke-dasharray="" stroke-dashoffset="0" font-family="Sans Serif" font-weight="normal" text-anchor="start" style="mix-blend-mode: normal"><tspan x="0" dy="0">XD</tspan></text></g></g></svg>