<svg version="1.1" xmlns="http://www.w3.org/2000/svg" xmlns:xlink="http://www.w3.org/1999/xlink" width="123.33333" height="122.57392" viewBox="0,0,123.33333,122.57392"><defs><linearGradient x1="240" y1="143.83783" x2="240" y2="216.16216" gradientUnits="userSpaceOnUse" id="color-1"><stop offset="0" stop-color="#bad1ff"/><stop offset="1" stop-color="#cad9ff"/></linearGradient><linearGradient x1="240" y1="143.83783" x2="240" y2="216.16216" gradientUnits="userSpaceOnUse" id="color-2"><stop offset="0" stop-color="#abc9ff"/><stop offset="1" stop-color="#d9e1ff"/></linearGradient><linearGradient x1="241.2" y1="205.8" x2="241.2" y2="238.46666" gradientUnits="userSpaceOnUse" id="color-3"><stop offset="0" stop-color="#e7f4ff"/><stop offset="1" stop-color="#b3cad6"/></linearGradient><linearGradient x1="237.84589" y1="166.24995" x2="245.24646" y2="203.06964" gradientUnits="userSpaceOnUse" id="color-4"><stop offset="0" stop-color="#ff5454"/><stop offset="1" stop-color="#e66464"/></linearGradient><radialGradient cx="203.86461" cy="139.24129" r="5.80635" gradientUnits="userSpaceOnUse" id="color-5"><stop offset="0" stop-color="#cef8ff"/><stop offset="1" stop-color="#c4ddea"/></radialGradient></defs><g transform="translate(-178.20001,-118.83783)"><g data-paper-data="{&quot;isPaintingLayer&quot;:true}" stroke-miterlimit="10" stroke-dasharray="" stroke-dashoffset="0" style="mix-blend-mode: normal"><path d="M203.83784,216.16216c0,0 0,-54.22298 0,-65.07799c0,-3.6222 0,-7.24634 0,-7.24634c0,0 5.36619,0 10.20885,0c11.94527,0 62.11548,0 62.11548,0v72.32433z" fill="url(#color-1)" fill-rule="nonzero" stroke="url(#color-2)" stroke-width="50" stroke-linecap="butt" stroke-linejoin="round"/><path d="M300.53334,222.46666c-0.12139,2.15662 -2.81218,5.90757 -5.73498,9.45252c-3.77697,4.58094 -10.38798,8.48456 -14.99969,8.49257c-25.54347,0.04439 -70.70674,-0.66044 -80.73149,-1.23234c-13.66674,-0.77967 -19.86717,-15.14833 -19.86717,-19.37942c0,-9.02065 32.72891,-14 62,-14c29.27109,0 59.84029,7.66027 59.33333,16.66667z" fill="url(#color-3)" fill-rule="nonzero" stroke="#a3b1bb" stroke-width="2" stroke-linecap="butt" stroke-linejoin="miter"/><g fill="none" fill-rule="nonzero" stroke-linecap="round" stroke-linejoin="miter"><path d="M287.01339,193.70175c0,0 2.13724,1.98804 3.0171,2.80648c0.68417,0.63641 0.76875,1.86292 -0.84332,2.11652c-4.43308,0.69738 -13.07513,2.05694 -15.55146,2.447c-1.2896,0.20314 -2.76371,-0.51283 -2.75036,-1.17956c0.02149,-1.0739 0.08419,-4.20538 0.08419,-4.20538" stroke="#c69120" stroke-width="7.5"/><path d="M286.93518,193.8394c0,0 2.13723,1.98804 3.0171,2.80648c0.68417,0.63641 0.76876,1.86293 -0.84332,2.11652c-4.43308,0.69738 -13.07513,2.05693 -15.55147,2.44699c-1.2896,0.20314 -2.7637,-0.51283 -2.75035,-1.17956c0.02149,-1.0739 0.08419,-4.20538 0.08419,-4.20538" stroke="#ffcf69" stroke-width="4"/></g><g fill="none" fill-rule="nonzero" stroke-linecap="round" stroke-linejoin="miter"><path d="M259.65546,200.15784c0,0 2.1358,1.93027 3.01506,2.72493c0.6837,0.61791 0.78448,1.82625 -0.80169,2.09915c-4.36184,0.75047 -12.86503,2.21352 -15.30156,2.63322c-1.26888,0.21857 -2.7327,-0.46661 -2.72897,-1.12431c0.006,-1.05934 0.0235,-4.14835 0.0235,-4.14835" stroke="#c69120" stroke-width="7.5"/><path d="M259.58028,200.2947c0,0 2.13578,1.93027 3.01506,2.72492c0.6837,0.61791 0.78448,1.82626 -0.80169,2.09916c-4.36184,0.75047 -12.86503,2.21352 -15.30155,2.63322c-1.26888,0.21857 -2.7327,-0.46661 -2.72897,-1.12431c0.006,-1.05934 0.0235,-4.14835 0.0235,-4.14835" stroke="#ffcf69" stroke-width="4"/></g><g fill="none" fill-rule="nonzero" stroke-linecap="round" stroke-linejoin="miter"><path d="M231.3071,204.91049c0,0 2.52264,2.27989 3.56116,3.21848c0.80753,0.72983 0.92657,2.15704 -0.9469,2.47936c-5.15189,0.8864 -15.19519,2.61444 -18.07304,3.11016c-1.4987,0.25816 -3.22766,-0.55112 -3.22326,-1.32794c0.00709,-1.25121 0.02776,-4.89972 0.02776,-4.89972" stroke="#c69120" stroke-width="7.5"/><path d="M231.21829,205.07213c0,0 2.52263,2.27989 3.56116,3.21848c0.80753,0.72984 0.92656,2.15703 -0.9469,2.47937c-5.15189,0.8864 -15.19519,2.61444 -18.07304,3.11016c-1.4987,0.25816 -3.22766,-0.55112 -3.22326,-1.32794c0.00709,-1.25121 0.02776,-4.89972 0.02776,-4.89972" stroke="#ffcf69" stroke-width="4"/></g><path d="M217.86462,200.4045l-3.96928,-19.74814c0,0 26.93641,-5.41409 32.01277,-6.43441c1.58431,-0.31844 3.53223,1.43352 3.8702,3.11503c0.69903,3.47782 3.2172,16.00639 3.2172,16.00639z" fill="#715729" fill-rule="nonzero" stroke="#001026" stroke-width="1.2" stroke-linecap="butt" stroke-linejoin="miter"/><path d="M218.30246,199.28685l-3.10559,-15.45109c0,0 21.07525,-4.23602 25.04704,-5.03433c1.23957,-0.24915 2.76364,1.1216 3.02807,2.43722c0.54692,2.72107 2.51716,12.52352 2.51716,12.52352z" fill="#b98d42" fill-rule="nonzero" stroke="#001026" stroke-width="1.2" stroke-linecap="butt" stroke-linejoin="miter"/><path d="M237.58205,174.21502c0.35367,0.1825 4.95256,3.82273 5.95081,2.48095c1.20525,-1.57359 2.71396,-4.47611 5.3118,-2.90616c2.59784,1.56995 -0.85989,5.81517 -2.4433,7.08438c-3.82486,2.73409 -7.95985,-0.17523 -8.88704,-1.00322c-0.92718,-0.82799 -2.53752,-2.21604 -2.85596,-3.80036c-0.282,-1.71844 1.70406,-2.5614 2.92368,-1.85559z" fill="#ffab19" fill-rule="evenodd" stroke="#001026" stroke-width="1.2" stroke-linecap="round" stroke-linejoin="round"/><g fill-rule="evenodd"><path d="M226.96347,187.85816c0.36917,0.34581 1.14558,1.10776 -0.70357,2.56385c-1.84915,1.45609 -5.7023,0.72307 -6.13595,0.59408c-1.69654,-0.4456 -3.75641,-1.05827 -5.80739,-2.49433c-5.96836,-4.13527 -3.91046,-11.25253 -1.45781,-11.76209c2.39845,-0.52568 2.01402,4.13919 4.20539,7.68209c0.94627,1.57951 2.3893,2.48073 3.60965,3.1387c1.7463,0.87342 5.88243,-0.13846 6.28968,0.27768z" fill="#ffab19" stroke="#001026" stroke-width="1.2" stroke-linecap="round" stroke-linejoin="round"/><path d="M214.82607,179.46893c0.432,1.72155 1.49975,4.28124 1.49975,4.28124c0,0 -1.86055,-1.08441 -3.27299,-0.50147c-1.13112,0.4306 -1.269,1.68766 -1.27344,2.09935c-0.4951,-0.91429 -1.07219,-2.14798 -1.04996,-4.20646c0.02223,-2.05848 1.24146,-4.17394 2.42234,-4.17673c1.14863,0.10563 1.17782,0.99935 1.67431,2.50408z" fill="#ffffff" stroke="none" stroke-width="1" stroke-linecap="butt" stroke-linejoin="miter"/></g><path d="M232.06198,192.36739c-0.89211,0.89382 -3.93427,4.12516 -8.16791,6.46467l-0.21743,0.10324c-0.21743,0.10324 -0.27436,0.41239 -0.11389,0.61832c1.24899,1.17798 3.57529,3.56846 0.62315,5.17405c-2.83767,1.58258 -10.12543,-5.34813 -8.14735,-7.94878c0.92633,-1.01978 1.97978,-0.81473 2.54087,-0.68933c0.30916,0.05695 0.59531,-0.00057 0.86996,-0.11532c0.64075,-0.36696 1.8078,-1.07787 2.6772,-1.78849c2.20785,-1.75371 2.67663,-2.38381 3.6487,-3.47233c0.97207,-1.08852 3.17906,-3.73519 5.66468,-2.32943c2.14197,1.17713 1.4569,3.1011 0.62203,3.98342z" fill="#ffab19" fill-rule="evenodd" stroke="#001026" stroke-width="1.2" stroke-linecap="round" stroke-linejoin="round"/><g fill-rule="evenodd"><path d="M242.9279,187.88899c1.79401,0.57877 5.65213,1.68761 5.65213,1.68761c0,0 7.99455,-5.42775 9.96351,-1.05829c1.17591,2.60953 -2.92008,5.18536 -9.05282,7.29181c-0.39146,0.10339 -0.81028,0.1461 -1.2231,0.04009c-1.8547,-0.55142 -7.20938,-2.22705 -10.70337,-3.49997c-5.16663,-1.90639 -9.17946,-2.8725 -9.17946,-2.8725c-7.42816,-2.71254 -4.19789,-6.72351 -3.87199,-10.37484c0.39596,-3.17183 1.28228,-2.98714 5.25166,-3.89971c2.20008,-0.62635 3.49586,-0.99122 4.80363,-1.65353c1.97532,-0.96313 2.92383,2.11392 3.06132,3.87721c0,0 0.16221,2.62827 -0.10714,4.13683c-0.34201,1.83334 -0.66006,3.07181 -1.14218,3.94615z" fill="#ffab19" stroke="#001026" stroke-width="1.2" stroke-linecap="round" stroke-linejoin="round"/><path d="M235.80655,185.69529c0,0 -1.23847,-0.31804 -2.61966,-0.7908c-1.70597,-0.54542 -3.32992,-0.9088 -2.96393,-3.33703c0.43604,-1.94872 0.59263,-4.3556 4.11659,-3.82628c3.3479,0.46264 2.87851,2.4994 2.87851,2.4994c-0.10451,3.33253 -1.41152,5.45471 -1.41152,5.45471z" fill="#ffffff" stroke="none" stroke-width="1" stroke-linecap="butt" stroke-linejoin="miter"/></g><path d="M223.11902,183.61945c1.56435,1.33505 3.88783,2.92987 1.78312,5.06129c-2.96515,2.54001 -6.87771,-2.56456 -7.84227,-4.43253c-0.8624,-1.65286 0.38216,-3.08121 1.43438,-4.29416c2.08195,-2.24466 3.80169,-4.2398 6.2373,-3.8457c3.03596,0.45016 1.45279,3.12476 0.24209,4.42848c-0.72415,0.79356 -1.4369,1.64373 -1.98009,2.16528c-0.11296,0.31726 -0.1013,0.66836 0.12547,0.91733z" fill="#ffab19" fill-rule="evenodd" stroke="#001026" stroke-width="1.2" stroke-linecap="round" stroke-linejoin="round"/><path d="M226.45222,141.84495c0.14107,-0.15427 0.43639,-0.16749 0.54827,0.04376l2.95073,5.66128c0,0 4.25564,1.75589 5.78377,3.34925c2.56566,2.65098 3.24744,5.16997 3.24744,5.16997c0,0 4.28825,0.19513 5.75597,3.23668c1.46772,3.04154 0.49229,9.73209 -9.5753,14.42785c-10.06759,4.69576 -19.27577,3.92401 -24.85669,-1.50578c-5.58092,-5.4298 -1.1672,-14.64155 -1.39372,-14.10786l-3.67008,-9.78342c-0.11188,-0.21125 0.12785,-0.4496 0.3808,-0.39263l7.90876,2.76477c0,0 2.2966,-1.58236 4.91428,-2.34822c1.54823,-0.50176 2.9269,-0.72279 4.27709,-0.81734z" fill="#ffab19" fill-rule="evenodd" stroke="#001026" stroke-width="1.2" stroke-linecap="butt" stroke-linejoin="miter"/><path d="M238.86917,156.33603c0,0 4.13397,0.05408 5.6017,3.09562c1.46772,3.04154 6.10212,14.59572 -3.8668,19.20739c-1.10801,0.52957 -1.34548,0.79754 -2.38409,1.14844c-2.13353,0.72083 -6.52392,2.96052 -8.31329,3.02723c-0.83552,0.03115 -4.62425,-1.62113 -6.56702,-3.58502c-1.53364,-1.55031 -1.29817,-3.48487 -1.83223,-3.6238c-4.86374,-1.26514 -7.26912,-5.20565 -5.91093,-9.28271c2.28393,-6.95395 10.02177,-3.43035 14.66645,-4.93564c3.98313,-1.28222 3.55774,-4.93948 8.60621,-5.05151z" fill="#ffffff" fill-rule="evenodd" stroke="none" stroke-width="1" stroke-linecap="butt" stroke-linejoin="miter"/><path d="M222.62616,166.73715c-0.0556,-0.22514 0.12784,-0.4496 0.36689,-0.44892c1.16675,0.12991 4.42862,0.27991 7.86142,-0.32893c3.08118,-0.58173 4.84065,-1.19538 5.64325,-1.57274c0.26753,-0.12579 0.56218,0.10004 0.5191,0.40928c-0.13128,1.64484 -1.2277,6.39453 -7.22119,7.51628c-5.26109,0.70201 -6.65724,-2.77524 -7.16947,-5.57498z" fill="#ffffff" fill-rule="evenodd" stroke="#001026" stroke-width="1.2" stroke-linecap="round" stroke-linejoin="round"/><path d="M249.37881,154.39762c-2.11727,2.79218 -6.15602,3.84925 -6.15602,3.84925" fill="none" fill-rule="evenodd" stroke="#001026" stroke-width="1.2" stroke-linecap="round" stroke-linejoin="round"/><path d="M250.20386,160.88245c-3.47656,1.15712 -5.93583,0.62976 -5.93583,0.62976" fill="none" fill-rule="evenodd" stroke="#001026" stroke-width="1.2" stroke-linecap="round" stroke-linejoin="round"/><path d="M229.67643,159.97971c1.18202,-0.29189 2.44812,-0.48512 2.60171,-0.10502c0.25089,0.77411 -0.20422,2.55864 -1.0909,2.83732c-0.98536,0.36277 -3.6969,-0.46061 -3.91929,-1.36119c-0.22308,-0.66154 1.28276,-1.09312 2.40849,-1.37111z" fill="#001026" fill-rule="evenodd" stroke="#001026" stroke-width="1.2" stroke-linecap="round" stroke-linejoin="round"/><path d="M204.13894,165.3903c0,0 5.22984,0.38064 7.63077,1.63904" fill="none" fill-rule="evenodd" stroke="#001026" stroke-width="1.2" stroke-linecap="round" stroke-linejoin="round"/><path d="M212.42506,168.95768c-2.18403,1.55456 -6.50214,1.964 -6.50214,1.964" fill="none" fill-rule="evenodd" stroke="#001026" stroke-width="1.2" stroke-linecap="round" stroke-linejoin="round"/><g fill-rule="evenodd"><path d="M234.69197,151.75399c2.2578,2.12981 3.02298,4.98652 1.69715,6.38888c-1.32583,1.40235 -4.20691,0.85972 -6.521,-1.25618c-2.2578,-2.12981 -3.02298,-4.98652 -1.69715,-6.38888c1.31193,-1.45864 4.26319,-0.87362 6.521,1.25618z" fill="#ffffff" stroke="#001026" stroke-width="1.2" stroke-linecap="round" stroke-linejoin="round"/><path d="M235.25912,155.01794c0.1529,0.61916 -0.1723,1.23693 -0.73517,1.37593c-0.56286,0.139 -1.13826,-0.25638 -1.29115,-0.87553c-0.1529,-0.61916 0.1723,-1.23693 0.73516,-1.37593c0.56286,-0.139 1.13826,0.25638 1.29116,0.87553" fill="#001026" stroke="none" stroke-width="1" stroke-linecap="butt" stroke-linejoin="miter"/></g><g fill-rule="evenodd"><path d="M221.12209,156.77717c2.30019,2.05961 2.9382,5.1269 1.68256,6.57164c-1.59336,1.52813 -4.26457,1.35171 -6.56476,-0.7079c-2.35648,-2.04572 -3.26134,-5.22626 -1.82225,-6.89546c1.4252,-1.72548 4.40426,-1.0279 6.70445,1.03172z" fill="#ffffff" stroke="#001026" stroke-width="1.2" stroke-linecap="round" stroke-linejoin="round"/><path d="M221.59055,160.12519c0.1529,0.61916 -0.1723,1.23693 -0.73517,1.37593c-0.56286,0.139 -1.13826,-0.25638 -1.29115,-0.87553c-0.1529,-0.61916 0.1723,-1.23693 0.73516,-1.37593c0.57677,-0.08271 1.13826,0.25638 1.29116,0.87553" fill="#001026" stroke="none" stroke-width="1" stroke-linecap="butt" stroke-linejoin="miter"/></g><path d="M219.76998,202.23568l-2.7932,-13.89684c0,0 26.8117,-5.38902 31.86456,-6.40462c1.57697,-0.31696 3.39509,0.82597 3.63292,2.00926c0.49191,2.44735 2.26396,11.26376 2.26396,11.26376z" fill="#c19446" fill-rule="nonzero" stroke="#001026" stroke-width="1.2" stroke-linecap="butt" stroke-linejoin="miter"/><path d="M204.27203,201.55273c-2.62014,-3.91103 -1.42022,-9.36998 -3.74411,-13.3978c-2.00278,-3.47127 -7.70028,-5.66301 -8.05536,-7.42961c-0.63413,-3.15495 10.5762,-6.71244 10.5762,-6.71244c0,0 2.96034,0.15427 5.32618,3.38213c2.24079,3.05723 6.73431,3.06083 9.32004,6.51912c2.67138,3.57281 3.43391,10.54481 5.65626,10.09813c4.5711,-0.91877 17.2924,-0.47805 25.15347,-6.32356c6.97919,-5.18975 -11.45809,-13.75163 -7.73423,-19.52302c2.3825,-3.69251 17.28192,-6.08199 24.77526,-7.06553c2.58829,-0.33973 5.42844,1.2178 6.9906,3.5318c1.813,2.68554 4.20073,6.15831 6.05524,8.6284c2.65889,3.54145 7.81433,10.00595 11.2664,14.30615c2.02849,2.52685 0.86887,4.88645 -3.34631,5.82689c-15.15912,3.38212 -51.20902,11.42515 -62.34939,13.91066c-6.36063,1.41911 -16.54709,-0.76105 -19.89026,-5.75131z" fill="url(#color-4)" fill-rule="nonzero" stroke="#9c4040" stroke-width="2" stroke-linecap="butt" stroke-linejoin="miter"/><path d="M227.26081,147.5634c-2.3318,3.04632 -6.4349,5.1506 -10.20393,5.50073c-4.72805,0.43922 -5.23343,4.77221 -8.29296,0.85031c-2.16502,-2.77525 -10.02043,-13.47756 -1.94667,-14.22757c7.55935,-0.70223 23.10679,4.3972 20.44355,7.87653z" fill="#6fbff2" fill-rule="nonzero" stroke="#4966b3" stroke-width="2" stroke-linecap="butt" stroke-linejoin="miter"/><path d="M208.15952,139.56252c0.54163,2.69476 -1.56791,5.39155 -4.71179,6.02346c-3.14389,0.63191 -6.13159,-1.04037 -6.67323,-3.73512c-0.54163,-2.69476 1.56791,-5.39155 4.7118,-6.02346c3.14389,-0.63191 6.13159,1.04037 6.67322,3.73513z" fill="url(#color-5)" fill-rule="nonzero" stroke="#87bbc8" stroke-width="2" stroke-linecap="butt" stroke-linejoin="miter"/><g fill-rule="nonzero" stroke-linejoin="miter"><path d="M253.63328,171.92357c0.20004,0.99523 -0.38697,1.9526 -1.31111,2.13835c-0.92415,0.18575 -1.83547,-0.47046 -2.03551,-1.46569c-0.20004,-0.99523 0.38697,-1.9526 1.31111,-2.13835c0.92415,-0.18575 1.83547,0.47047 2.03551,1.4657z" fill="#ffffff" stroke="none" stroke-width="NaN" stroke-linecap="butt"/><path d="M248.13694,170.2784l7.70817,4.27195" fill="none" stroke="#ffffff" stroke-width="1.5" stroke-linecap="round"/><path d="M251.17439,168.0897l1.64586,8.65775" fill="none" stroke="#ffffff" stroke-width="1.5" stroke-linecap="round"/><path d="M249.70451,176.33423l4.3759,-7.64965" fill="none" stroke="#ffffff" stroke-width="1.5" stroke-linecap="round"/><path d="M256.27697,171.35277l-8.60898,1.88443" fill="none" stroke="#ffffff" stroke-width="1.5" stroke-linecap="round"/></g><g fill-rule="nonzero" stroke-linejoin="miter"><path d="M210.76072,198.88665c0.13225,0.65796 -0.25583,1.29088 -0.8668,1.41368c-0.61096,0.1228 -1.21345,-0.31102 -1.34569,-0.96898c-0.13225,-0.65796 0.25583,-1.29089 0.86679,-1.41369c0.61096,-0.1228 1.21346,0.31103 1.3457,0.969z" fill="#ffffff" stroke="none" stroke-width="NaN" stroke-linecap="butt"/><path d="M207.12702,197.79901l5.09596,2.82424" fill="none" stroke="#ffffff" stroke-width="1.5" stroke-linecap="round"/><path d="M209.13512,196.35204l1.08809,5.72374" fill="none" stroke="#ffffff" stroke-width="1.5" stroke-linecap="round"/><path d="M208.16336,201.80259l2.89295,-5.05727" fill="none" stroke="#ffffff" stroke-width="1.5" stroke-linecap="round"/><path d="M206.817,199.7551l5.69148,-1.24582" fill="none" stroke="#ffffff" stroke-width="1.5" stroke-linecap="round"/></g><g fill-rule="nonzero" stroke-linejoin="miter"><path d="M210.8935,184.32195c0.13225,0.65796 -0.25582,1.29088 -0.86678,1.41368c-0.61096,0.1228 -1.21345,-0.31103 -1.34569,-0.96898c-0.13225,-0.65796 0.25583,-1.29089 0.86679,-1.41369c0.61096,-0.1228 1.21345,0.31104 1.34569,0.969z" fill="#ffffff" stroke="none" stroke-width="NaN" stroke-linecap="butt"/><path d="M207.25981,183.23431l5.09596,2.82423" fill="none" stroke="#ffffff" stroke-width="1.5" stroke-linecap="round"/><path d="M209.2679,181.78734l1.08809,5.72374" fill="none" stroke="#ffffff" stroke-width="1.5" stroke-linecap="round"/><path d="M208.29614,187.23788l2.89295,-5.05727" fill="none" stroke="#ffffff" stroke-width="1.5" stroke-linecap="round"/><path d="M212.64127,183.9446l-5.69148,1.24581" fill="none" stroke="#ffffff" stroke-width="1.5" stroke-linecap="round"/></g><g fill-rule="nonzero" stroke-linejoin="miter"><path d="M254.41573,191.15623c0.13225,0.65796 -0.25583,1.29088 -0.8668,1.41368c-0.61096,0.1228 -1.21345,-0.31103 -1.34569,-0.96898c-0.13225,-0.65796 0.25583,-1.29089 0.86679,-1.41369c0.61096,-0.1228 1.21346,0.31103 1.3457,0.96899z" fill="#ffffff" stroke="none" stroke-width="NaN" stroke-linecap="butt"/><path d="M250.78203,190.06859l5.09596,2.82424" fill="none" stroke="#ffffff" stroke-width="1.5" stroke-linecap="round"/><path d="M252.79013,188.62161l1.08809,5.72374" fill="none" stroke="#ffffff" stroke-width="1.5" stroke-linecap="round"/><path d="M254.71133,189.01489l-2.89295,5.05727" fill="none" stroke="#ffffff" stroke-width="1.5" stroke-linecap="round"/><path d="M250.47201,192.02468l5.69149,-1.24581" fill="none" stroke="#ffffff" stroke-width="1.5" stroke-linecap="round"/></g><g fill-rule="nonzero" stroke-linejoin="miter"><path d="M282.03772,186.35822c0.15861,0.78912 -0.30683,1.54822 -1.03958,1.6955c-0.73275,0.14728 -1.45534,-0.37303 -1.61395,-1.16215c-0.15861,-0.78912 0.30682,-1.54823 1.03958,-1.69551c0.73275,-0.14728 1.45535,0.37304 1.61396,1.16216z" fill="#ffffff" stroke="none" stroke-width="NaN" stroke-linecap="butt"/><path d="M277.67967,185.05376l6.11182,3.38723" fill="none" stroke="#ffffff" stroke-width="1.5" stroke-linecap="round"/><path d="M281.39307,190.18308l-1.305,-6.86474" fill="none" stroke="#ffffff" stroke-width="1.5" stroke-linecap="round"/><path d="M282.39225,183.79001l-3.46965,6.06541" fill="none" stroke="#ffffff" stroke-width="1.5" stroke-linecap="round"/><path d="M277.30783,187.39979l6.82607,-1.49416" fill="none" stroke="#ffffff" stroke-width="1.5" stroke-linecap="round"/></g><path d="M243.13776,197.16245c0,0 -20.9133,6.82058 -25.1451,4.5464c-3.24681,-1.74485 -4.14269,-9.45225 -7.03686,-9.75373c-2.89417,-0.30148 -6.30796,3.97529 -6.30796,3.97529" fill="none" fill-rule="nonzero" stroke="#ffffff" stroke-width="2" stroke-linecap="round" stroke-linejoin="miter"/><path d="M256.69303,165.80362l3.09021,-0.62112" fill="none" fill-rule="nonzero" stroke="#ffffff" stroke-width="2" stroke-linecap="round" stroke-linejoin="miter"/><path d="M266.80704,165.51415l-3.20311,-0.67114" fill="none" fill-rule="nonzero" stroke="#ffffff" stroke-width="2" stroke-linecap="round" stroke-linejoin="miter"/><path d="M269.80727,167.3136l2.00797,2.37817" fill="none" fill-rule="nonzero" stroke="#ffffff" stroke-width="2" stroke-linecap="round" stroke-linejoin="miter"/><path d="M273.60957,172.39106l2.78455,3.47388" fill="none" fill-rule="nonzero" stroke="#ffffff" stroke-width="2" stroke-linecap="round" stroke-linejoin="miter"/><path d="M261.94099,191.14881c0,0 1.93302,-0.94488 3.36839,-1.23339c0.84858,-0.17056 2.42604,0.15772 3.88467,-0.02867c2.18856,-0.27965 4.24407,-1.04881 4.24407,-1.04881" fill="none" fill-rule="nonzero" stroke="#ffffff" stroke-width="2" stroke-linecap="round" stroke-linejoin="miter"/><path d="M243.16936,176.77488c0,0 -11.1578,5.41455 -13.19989,5.73744c-2.6971,0.42647 -5.14924,-1.41946 -6.39735,-2.38483c-1.24811,-0.96536 -1.65312,-3.43034 -1.65312,-3.43034" fill="none" fill-rule="nonzero" stroke="#001026" stroke-width="1.5" stroke-linecap="round" stroke-linejoin="miter"/><path d="M245.40571,161.60262l0.58861,2.5185" fill="none" fill-rule="nonzero" stroke="#001026" stroke-width="1.2" stroke-linecap="round" stroke-linejoin="miter"/><path d="M227.21532,175.64124l4.78979,5.3821" fill="none" fill-rule="nonzero" stroke="#becfd1" stroke-width="1.5" stroke-linecap="round" stroke-linejoin="miter"/><path d="M232.02985,173.76714l4.9478,4.93834" fill="none" fill-rule="nonzero" stroke="#c0cfd1" stroke-width="1.5" stroke-linecap="round" stroke-linejoin="miter"/><path d="M237.00239,171.44928l4.40931,5.12897" fill="none" fill-rule="nonzero" stroke="#b4ced1" stroke-width="1" stroke-linecap="round" stroke-linejoin="miter"/></g></g></svg>