<svg version="1.1" xmlns="http://www.w3.org/2000/svg" xmlns:xlink="http://www.w3.org/1999/xlink" width="231.727" height="193.85839" viewBox="0,0,231.727,193.85839"><g transform="translate(-124.1365,-83.07052)"><g data-paper-data="{&quot;isPaintingLayer&quot;:true}" fill-rule="nonzero" stroke-linecap="butt" stroke-linejoin="miter" stroke-miterlimit="10" stroke-dasharray="" stroke-dashoffset="0" style="mix-blend-mode: normal"><g><path d="M332.6715,192.8225c-14.817,64.116 -68.511,84.608 -108.8903,79.507c-40.3792,-5.101 -66.4516,-50.353 -53.9187,-100.5415c12.533,-50.1884 58.925,-86.30758 99.304,-81.2066c40.38,5.101 76.038,52.0522 63.505,102.2411z" fill="none" stroke="#ccc48a" stroke-width="2.5"/><path d="M332.2915,193.6495c-14.817,65.735 -68.511,86.745 -108.8904,81.515c-40.3792,-5.229 -66.4516,-51.624 -53.9187,-103.08c12.5329,-51.4557 58.9251,-88.48683 99.3041,-83.25705c40.38,5.22975 76.037,53.36645 63.505,104.82205z" fill="#fff5ad" stroke="#ccc48a" stroke-width="2"/><path d="M354.8635,109.8816c0,14.2551 -11.818,25.8111 -26.397,25.8111c-14.58,0 -26.398,-11.556 -26.398,-25.8111c0,-14.2551 11.818,-25.81108 26.398,-25.81108c14.579,0 26.397,11.55598 26.397,25.81108z" fill="#ffadad" stroke="#cc8b8b" stroke-width="2"/><path d="M157.8638,196.6925c0,8.837 -7.3263,16 -16.3637,16c-9.03735,0 -16.3636,-7.163 -16.3636,-16c0,-8.836 7.32625,-15.9998 16.3636,-15.9998c9.0374,0 16.3637,7.1638 16.3637,15.9998z" fill="#adffc8" stroke="#8fcc8b" stroke-width="2"/><path d="M191.8638,243.2705c0,13.488 -11.1827,24.422 -24.9773,24.422c-13.7946,0 -24.9773,-10.934 -24.9773,-24.422c0,-13.488 11.1827,-24.422 24.9773,-24.422c13.7946,0 24.9773,10.934 24.9773,24.422z" fill="#adc7ff" stroke="#8ba9cc" stroke-width="2"/><path d="M299.0405,222.1625l-41.753,24.525c-0.367,0.216 -0.799,0.357 -1.249,0.424c-2.603,0.585 -5.331,0.129 -7.602,-1.269l-65.9714,-40.484c-0.8296,-0.482 -0.7312,-1.329 0.2238,-1.891l41.7526,-24.5257c0.955,-0.5618 2.408,-0.6318 3.237,-0.1505l71.586,41.4802c0.829,0.481 0.721,1.338 -0.224,1.891z" fill="#989898" stroke="none" stroke-width="1" opacity="0.34"/><path d="M306.2485,215.2665l-1.762,1.133l-0.745,-2.53l2.695,-0.009zM243.7865,124.2788l1.763,-1.1417l3.045,2.8761l-3.779,0.6085z" fill="#463757" stroke="none" stroke-width="1"/><path d="M304.1505,215.8585l-74.001,-41.2815c-1.638,-0.9086 -2.449,-3.4417 -1.818,-5.6117l12.898,-44.1288c0.631,-2.1699 2.494,-3.2035 4.132,-2.2948l74.196,41.6482c1.638,0.9087 2.127,2.5852 1.486,4.7645l-12.771,44.6091c-0.631,2.18 -2.484,3.213 -4.122,2.295z" fill="#5b78b7" stroke="none" stroke-width="1"/><path d="M302.0495,216.1305c0,0 -53.021,-30.723 -63.506,-36.7989c-3.451,-1.9999 -6.881,-3.9873 -6.881,-3.9873c-1.558,-0.8978 -2.33,-3.4 -1.73,-5.5433l12.262,-43.5876c0.6,-2.1433 2.372,-3.1641 3.93,-2.2663l71.06,41.2491c1.558,0.8977 1.874,2.1074 1.265,4.2599l-12.47,44.4074c-0.61,2.153 -2.372,3.174 -3.93,2.267z" fill="#e4edff" stroke="none" stroke-width="1"/><path d="M233.7585,156.5183l8.426,-29.9716c0.6,-2.1433 2.372,-3.1644 3.929,-2.2662l45.346,26.3267z" fill-opacity="0.62" fill="#ffffff" stroke="none" stroke-width="1"/><path d="M302.1545,220.5595l-41.395,24.115c-0.955,0.562 -2.408,0.576 -3.238,0.095l-71.595,-41.592c-0.2766,-0.157 -0.4519,-0.352 -0.5268,-0.808l-0.0901,-2.104l0.6354,0.258l4.5093,-2.231l0.0017,0.484l29.6896,-17.3616c0.9458,-0.5619 2.5919,-0.6325 3.4215,-0.1512l68.7924,39.8598l0.594,1.367l10.291,-6.105l0.007,2.318c0,0 0.014,1.276 -1.097,1.856z" fill="#4b6499" stroke="none" stroke-width="1"/><path d="M234.1575,171.8713l1.196,-5.4602c0.933,-4.3048 4.569,-6.0952 8.063,-3.9749l54.424,33.1393c2.53139,1.93449 6.47777,5.5726 4.44602,9.61349c-1.94637,3.8711 -0.47902,1.89551 -3.16102,4.70051c-3.04403,3.18363 -6.569,4.762 -10.063,2.642l-50.257,-28.972c-3.503,-2.1205 -5.59,-7.3741 -4.648,-11.6882z" fill="#7fcbb4" stroke="none" stroke-width="1"/><path d="M302.1545,220.5595l-41.395,24.134c-0.478,0.281 -1.075,0.422 -1.664,0.434c-0.588,0.011 -1.159,-0.108 -1.574,-0.349l1.096,-43.205l33.742,19.55l0.594,1.367l10.291,-6.105l0.007,2.318c0,0 0.014,1.276 -1.097,1.856z" fill="#5b78b7" stroke="none" stroke-width="1"/><path d="M302.4685,218.1565l-41.753,24.526c-0.955,0.562 -2.408,0.632 -3.238,0.15l-71.5847,-41.48c-0.8296,-0.481 -0.7312,-1.329 0.2238,-1.891l41.7529,-24.5252c0.954,-0.5619 2.407,-0.6319 3.237,-0.1506l71.585,41.4798c0.83,0.473 0.722,1.329 -0.223,1.891z" fill="#a4baea" stroke="none" stroke-width="1"/><path d="M227.8435,186.5465c-0.101,0.066 -0.313,0.039 -0.469,-0.054l-4.3506,-2.518c-0.1567,-0.092 -0.2034,-0.213 -0.0931,-0.279l2.8647,-1.6855c0.101,-0.0654 0.312,-0.0382 0.469,0.0542l4.35,2.5173c0.157,0.093 0.203,0.214 0.093,0.279zM232.9005,194.0805c-0.101,0.066 -0.313,0.039 -0.47,-0.054l-4.35,-2.518c-0.157,-0.092 -0.203,-0.213 -0.093,-0.279l2.865,-1.685c0.1,-0.057 0.312,-0.039 0.469,0.054l4.35,2.518c0.157,0.092 0.203,0.213 0.102,0.279zM230.3645,197.2365c-0.101,0.065 -0.312,0.038 -0.47,-0.055l-4.349,-2.517c-0.157,-0.093 -0.204,-0.214 -0.093,-0.279l2.873,-1.686c0.101,-0.056 0.313,-0.038 0.469,0.054l4.351,2.518c0.156,0.093 0.202,0.214 0.102,0.27zM223.4859,197.8645c-0.1011,0.056 -0.3125,0.038 -0.4692,-0.054l-4.3502,-2.518c-0.1567,-0.093 -0.1938,-0.213 -0.0931,-0.27l2.8644,-1.685c0.1011,-0.057 0.3125,-0.038 0.4692,0.054l4.3505,2.518c0.156,0.093 0.194,0.213 0.093,0.279zM211.5401,196.1355c-0.1011,0.066 -0.3126,0.039 -0.4692,-0.054l-4.3503,-2.518c-0.157,-0.092 -0.2033,-0.213 -0.0931,-0.279l3.3691,-1.985c0.1011,-0.056 0.3126,-0.038 0.4696,0.054l4.3499,2.518c0.157,0.093 0.1941,0.214 0.093,0.279zM219.0416,200.4775c-0.1011,0.065 -0.3497,0.01 -0.5615,-0.11l-5.6957,-3.295c-0.2031,-0.121 -0.2861,-0.269 -0.1854,-0.326l3.3695,-1.985c0.1007,-0.056 0.3585,-0.01 0.5615,0.101l5.6957,3.295c0.2026,0.121 0.2861,0.269 0.185,0.325zM256.4445,222.1755c-0.083,0.047 -0.285,0.019 -0.442,-0.073l-4.341,-2.518c-0.157,-0.093 -0.222,-0.204 -0.13,-0.26l1.249,-0.731c0.083,-0.046 0.285,-0.019 0.442,0.073l4.341,2.518c0.157,0.093 0.212,0.205 0.129,0.261zM262.2505,225.6285c-0.083,0.047 -0.285,0.02 -0.442,-0.073l-4.341,-2.517c-0.157,-0.093 -0.221,-0.204 -0.13,-0.26l1.249,-0.731c0.083,-0.047 0.285,-0.02 0.442,0.073l4.341,2.518c0.157,0.092 0.212,0.204 0.13,0.26zM268.4065,229.1095c-0.082,0.046 -0.275,0.01 -0.432,-0.074l-4.341,-2.517c-0.157,-0.093 -0.222,-0.205 -0.139,-0.251l1.203,-0.703c0.082,-0.047 0.276,-0.01 0.432,0.073l4.341,2.518c0.157,0.093 0.212,0.204 0.139,0.251zM264.6185,224.2805c-0.082,0.047 -0.276,0.01 -0.432,-0.073l-4.341,-2.518c-0.157,-0.093 -0.222,-0.204 -0.139,-0.251l1.202,-0.702c0.083,-0.047 0.276,-0.011 0.433,0.073l4.341,2.517c0.157,0.093 0.212,0.204 0.139,0.251zM248.9315,217.7875c-0.102,0.066 -0.313,0.039 -0.47,-0.054l-28.2854,-16.376c-0.1566,-0.092 -0.2033,-0.213 -0.093,-0.279l3.369,-1.985c0.1012,-0.056 0.3222,-0.038 0.4697,0.055l28.2857,16.375c0.157,0.092 0.203,0.213 0.102,0.279z" fill="#849fda" stroke="none" stroke-width="1"/><path d="M218.2567,199.3905c-0.0092,0 -0.0275,0 -0.0459,-0.009l-3.3181,-1.926c-0.0183,-0.009 -0.0275,-0.018 -0.0184,-0.028l0.211,-0.121c0.0158,-0.001 0.0315,0.002 0.0459,0.009l3.318,1.925c0.0184,0.01 0.0276,0.019 0.0185,0.028zM209.74,194.0935h-0.0275l-1.4102,-0.815c-0.0092,0 -0.0092,-0.009 -0.0001,-0.018l0.2114,-0.122h0.0275l1.4102,0.814c0.0092,0 0.0092,0.01 0.0001,0.019zM229.4485,201.3075c-0.101,0.057 -0.313,0.039 -0.47,-0.054l-4.35,-2.518c-0.156,-0.092 -0.203,-0.213 -0.092,-0.279l2.864,-1.685c0.101,-0.056 0.322,-0.038 0.469,0.054l4.35,2.518c0.157,0.093 0.203,0.213 0.093,0.279zM235.4315,204.7705c-0.101,0.056 -0.313,0.038 -0.469,-0.055l-4.341,-2.517c-0.157,-0.093 -0.203,-0.214 -0.103,-0.279l2.865,-1.686c0.101,-0.056 0.322,-0.039 0.469,0.054l4.341,2.518c0.157,0.093 0.194,0.214 0.093,0.279zM241.4125,208.2415c-0.101,0.056 -0.313,0.038 -0.469,-0.054l-4.351,-2.518c-0.156,-0.093 -0.193,-0.214 -0.093,-0.27l2.865,-1.685c0.101,-0.056 0.312,-0.039 0.469,0.054l4.35,2.518c0.157,0.092 0.194,0.213 0.093,0.279zM247.4015,211.7035c-0.101,0.056 -0.312,0.038 -0.469,-0.054l-4.35,-2.518c-0.157,-0.093 -0.204,-0.213 -0.093,-0.279l2.864,-1.686c0.101,-0.056 0.313,-0.038 0.469,0.055l4.351,2.517c0.156,0.093 0.194,0.214 0.093,0.279zM253.3845,215.1745c-0.102,0.056 -0.313,0.039 -0.47,-0.054l-4.341,-2.518c-0.157,-0.092 -0.194,-0.213 -0.093,-0.27l2.865,-1.685c0.1,-0.057 0.312,-0.038 0.469,0.054l4.341,2.518c0.157,0.093 0.203,0.213 0.102,0.279zM259.3645,218.6375c-0.101,0.056 -0.313,0.038 -0.469,-0.055l-4.341,-2.517c-0.157,-0.093 -0.204,-0.214 -0.094,-0.279l2.865,-1.686c0.101,-0.056 0.312,-0.039 0.469,0.054l4.341,2.518c0.157,0.092 0.203,0.213 0.093,0.279zM272.8495,226.4405c-0.101,0.056 -0.312,0.038 -0.469,-0.054l-11.843,-6.86c-0.157,-0.092 -0.203,-0.213 -0.093,-0.279l2.864,-1.685c0.101,-0.056 0.312,-0.038 0.47,0.054l11.843,6.859c0.156,0.093 0.203,0.214 0.093,0.279zM236.3265,200.6795c-0.101,0.066 -0.312,0.039 -0.469,-0.054l-4.35,-2.518c-0.157,-0.092 -0.204,-0.213 -0.093,-0.27l2.873,-1.685c0.101,-0.056 0.313,-0.038 0.47,0.054l4.35,2.518c0.156,0.093 0.194,0.213 0.093,0.27zM242.3105,204.1415c-0.101,0.066 -0.313,0.039 -0.469,-0.054l-4.351,-2.518c-0.156,-0.092 -0.203,-0.213 -0.093,-0.27l2.874,-1.685c0.101,-0.056 0.312,-0.038 0.469,0.054l4.35,2.518c0.157,0.093 0.194,0.214 0.093,0.27zM248.2905,207.6135c-0.101,0.065 -0.313,0.038 -0.47,-0.055l-4.35,-2.517c-0.156,-0.093 -0.203,-0.214 -0.102,-0.279l2.874,-1.686c0.101,-0.056 0.322,-0.038 0.469,0.054l4.35,2.518c0.157,0.093 0.203,0.214 0.102,0.27zM254.2805,211.0755c-0.1,0.065 -0.312,0.038 -0.469,-0.055l-4.341,-2.517c-0.157,-0.093 -0.203,-0.214 -0.093,-0.279l2.873,-1.686c0.102,-0.056 0.313,-0.038 0.47,0.054l4.341,2.518c0.157,0.093 0.203,0.214 0.093,0.27zM260.2625,214.5375c-0.101,0.065 -0.313,0.038 -0.47,-0.054l-4.35,-2.518c-0.157,-0.093 -0.203,-0.214 -0.093,-0.27l2.874,-1.686c0.101,-0.056 0.312,-0.038 0.469,0.055l4.35,2.517c0.157,0.093 0.203,0.214 0.093,0.27zM266.2455,218.0085c-0.101,0.066 -0.313,0.039 -0.47,-0.054l-4.341,-2.518c-0.156,-0.093 -0.203,-0.214 -0.102,-0.279l2.874,-1.686c0.101,-0.056 0.312,-0.038 0.469,0.055l4.341,2.517c0.157,0.093 0.194,0.214 0.093,0.27zM272.2345,221.4705c-0.101,0.066 -0.313,0.038 -0.469,-0.054l-4.351,-2.518c-0.156,-0.093 -0.203,-0.213 -0.093,-0.27l2.874,-1.685c0.101,-0.056 0.313,-0.038 0.469,0.054l4.35,2.518c0.157,0.093 0.194,0.213 0.093,0.27zM238.8565,197.5335c-0.101,0.065 -0.313,0.038 -0.47,-0.054l-4.35,-2.518c-0.157,-0.093 -0.194,-0.214 -0.093,-0.27l2.865,-1.685c0.101,-0.057 0.312,-0.039 0.469,0.054l4.35,2.518c0.157,0.092 0.203,0.213 0.102,0.269zM244.8355,200.9955c-0.101,0.066 -0.313,0.039 -0.469,-0.054l-4.351,-2.518c-0.156,-0.092 -0.202,-0.213 -0.092,-0.279l2.864,-1.686c0.101,-0.056 0.313,-0.038 0.469,0.055l4.351,2.518c0.156,0.092 0.193,0.213 0.092,0.27zM250.8275,204.4665c-0.101,0.066 -0.312,0.039 -0.469,-0.054l-4.341,-2.518c-0.157,-0.092 -0.194,-0.213 -0.093,-0.279l2.864,-1.685c0.101,-0.056 0.313,-0.039 0.469,0.054l4.342,2.518c0.156,0.093 0.202,0.213 0.102,0.279zM256.8085,207.9295c-0.101,0.065 -0.312,0.038 -0.469,-0.054l-4.35,-2.519c-0.157,-0.092 -0.203,-0.213 -0.093,-0.279l2.864,-1.685c0.101,-0.056 0.313,-0.038 0.469,0.054l4.351,2.518c0.156,0.093 0.193,0.213 0.093,0.27zM262.7895,211.3915c-0.101,0.065 -0.312,0.038 -0.469,-0.055l-4.35,-2.518c-0.157,-0.092 -0.203,-0.213 -0.093,-0.279l2.864,-1.685c0.101,-0.056 0.313,-0.038 0.469,0.054l4.351,2.518c0.156,0.092 0.194,0.214 0.093,0.27zM268.7815,214.8625c-0.101,0.066 -0.313,0.038 -0.479,-0.054l-4.35,-2.518c-0.157,-0.093 -0.203,-0.214 -0.093,-0.279l2.865,-1.686c0.1,-0.056 0.312,-0.038 0.469,0.054l4.35,2.519c0.157,0.092 0.203,0.213 0.102,0.279zM274.7615,218.3245c-0.1,0.065 -0.312,0.038 -0.469,-0.054l-4.35,-2.518c-0.157,-0.093 -0.203,-0.213 -0.093,-0.279l2.864,-1.686c0.101,-0.056 0.313,-0.038 0.47,0.055l4.35,2.517c0.157,0.093 0.194,0.214 0.093,0.27zM226.9195,190.6185c-0.1,0.066 -0.312,0.038 -0.469,-0.054l-7.3732,-4.267c-0.1567,-0.093 -0.203,-0.214 -0.0927,-0.279l2.8639,-1.686c0.1012,-0.056 0.313,-0.039 0.4697,0.054l7.3733,4.268c0.157,0.092 0.203,0.213 0.102,0.279zM284.7005,219.4645c-0.1,0.065 -0.312,0.038 -0.469,-0.054l-7.373,-4.268c-0.157,-0.093 -0.203,-0.213 -0.093,-0.279l2.865,-1.685c0.1,-0.066 0.321,-0.039 0.469,0.054l7.373,4.267c0.157,0.093 0.203,0.214 0.093,0.279zM224.3805,193.7655c-0.101,0.065 -0.3125,0.038 -0.4692,-0.055l-8.7832,-5.091c-0.1566,-0.093 -0.2033,-0.214 -0.093,-0.279l2.8735,-1.686c0.1011,-0.056 0.3126,-0.038 0.4692,0.054l8.7837,5.092c0.157,0.092 0.203,0.213 0.102,0.27zM217.504,194.3935c-0.1011,0.056 -0.3126,0.038 -0.4692,-0.054l-5.862,-3.388c-0.1567,-0.093 -0.2029,-0.214 -0.0926,-0.279l2.8639,-1.686c0.1011,-0.056 0.313,-0.038 0.4696,0.054l5.8616,3.388c0.1566,0.093 0.2029,0.214 0.0931,0.279zM233.8265,190.0085c-0.1,0.066 -0.312,0.039 -0.469,-0.054l-4.341,-2.518c-0.157,-0.092 -0.203,-0.213 -0.093,-0.279l2.864,-1.685c0.101,-0.066 0.313,-0.039 0.47,0.054l4.341,2.518c0.157,0.092 0.203,0.213 0.093,0.279zM239.7895,193.4525c-0.101,0.065 -0.313,0.038 -0.469,-0.055l-4.35,-2.517c-0.158,-0.093 -0.204,-0.214 -0.094,-0.279l2.865,-1.686c0.101,-0.065 0.312,-0.038 0.469,0.054l4.35,2.518c0.157,0.093 0.203,0.214 0.093,0.279zM245.7695,196.9235c-0.101,0.066 -0.312,0.039 -0.469,-0.054l-4.35,-2.518c-0.157,-0.092 -0.204,-0.213 -0.093,-0.279l2.864,-1.685c0.101,-0.066 0.313,-0.039 0.469,0.054l4.351,2.518c0.156,0.092 0.194,0.213 0.093,0.269zM251.7515,200.3855c-0.101,0.065 -0.312,0.038 -0.469,-0.054l-4.341,-2.518c-0.157,-0.093 -0.203,-0.214 -0.093,-0.279l2.865,-1.686c0.1,-0.065 0.312,-0.038 0.469,0.055l4.341,2.517c0.156,0.093 0.203,0.214 0.092,0.279zM257.7335,203.8475c-0.101,0.066 -0.313,0.039 -0.47,-0.054l-4.341,-2.518c-0.156,-0.092 -0.203,-0.213 -0.093,-0.279l2.865,-1.686c0.101,-0.065 0.312,-0.038 0.469,0.055l4.341,2.518c0.157,0.092 0.194,0.213 0.093,0.27zM263.7235,207.3185c-0.101,0.066 -0.313,0.039 -0.47,-0.054l-4.35,-2.517c-0.157,-0.093 -0.194,-0.214 -0.093,-0.27l2.865,-1.686c0.1,-0.065 0.312,-0.038 0.469,0.055l4.35,2.517c0.157,0.093 0.203,0.214 0.093,0.27zM269.7055,210.7815c-0.101,0.065 -0.313,0.038 -0.469,-0.054l-4.351,-2.518c-0.156,-0.093 -0.203,-0.214 -0.093,-0.279l2.865,-1.686c0.101,-0.066 0.312,-0.038 0.469,0.054l4.35,2.518c0.157,0.093 0.203,0.214 0.093,0.279zM275.6875,214.2435c-0.101,0.065 -0.313,0.038 -0.47,-0.055l-4.35,-2.517c-0.156,-0.093 -0.194,-0.214 -0.093,-0.27l2.864,-1.686c0.102,-0.065 0.313,-0.038 0.47,0.055l4.35,2.517c0.157,0.093 0.194,0.214 0.093,0.27zM279.1745,217.3135c-0.073,-0.047 -0.156,-0.074 -0.257,-0.083c-0.093,-0.009 -0.166,0 -0.212,0.029l-2.864,1.685c-0.046,0.028 -0.074,0.075 -0.055,0.13c0.018,0.056 0.074,0.103 0.148,0.149l1.133,0.657l-3.764,2.22c-0.045,0.028 -0.064,0.074 -0.045,0.13c0.018,0.056 0.074,0.102 0.148,0.149l2.93,1.694c0.079,0.047 0.167,0.075 0.258,0.083c0.092,0.008 0.166,-0.001 0.221,-0.029l6.821,-4.018c0.046,-0.028 0.064,-0.074 0.046,-0.13c-0.019,-0.056 -0.075,-0.102 -0.148,-0.149z" fill="#849fda" stroke="none" stroke-width="1"/><path d="M216.728,192.9805c-0.0092,0 -0.028,0 -0.0464,-0.009l-3.318,-1.926c-0.0184,-0.009 -0.0276,-0.018 -0.0184,-0.027l0.2114,-0.122c0.0157,-0.001 0.0315,0.002 0.0458,0.009l3.3181,1.925c0.0183,0.01 0.0276,0.019 0.0184,0.028z" fill="#849fda" stroke="none" stroke-width="1"/><path d="M233.7575,221.6185l-16.8116,-9.738c-0.9032,-0.527 -0.8505,-1.356 0.1226,-1.853l5.6017,-2.84c0.9734,-0.497 2.5103,-0.465 3.4223,0.054l16.811,9.738c0.903,0.528 0.851,1.356 -0.123,1.853l-5.601,2.84c-0.974,0.497 -2.51,0.474 -3.422,-0.054z" fill="#9bb1e0" stroke="none" stroke-width="1"/><path d="M242.9395,149.7262l1.196,-5.4602c0.933,-4.3048 4.57,-6.0952 8.063,-3.9749l12.591,7.6388c3.494,2.1204 5.59,7.3831 4.648,11.688l24.804,23.4606c-0.933,4.304 -6.902,2.095 -10.396,-0.0255l-36.258,-21.6388c-3.493,-2.1207 -5.581,-7.3835 -4.648,-11.688z" fill="#e3cfcf" stroke="none" stroke-width="1" opacity="0.34"/><path d="M242.8245,146.2047l1.195,-5.4602c0.933,-4.3049 4.57,-6.0953 8.063,-3.9749l44.925,26.6388c4.826,2.1203 6.59,5.7168 5.647,10.0213l-2.195,5.7935c-0.933,4.3053 -6.57,6.7623 -10.063,4.6413l-42.924,-25.9719c-3.503,-2.1203 -5.591,-7.3738 -4.648,-11.6879z" fill="#7fcbb4" stroke="none" stroke-width="1"/><path d="M293.0085,174.6484c0.761,-3.4943 3.709,-4.9471 6.539,-3.2248l4.765,2.8886c2.839,1.7131 4.528,5.9812 3.767,9.4663c-0.761,3.494 -3.709,4.947 -6.539,3.224l-4.765,-2.889c-2.83,-1.7124 -4.528,-5.9805 -3.767,-9.4651z" fill="#f37e60" stroke="none" stroke-width="1"/><path d="M295.6845,183.1835l-3.142,-0.1661l1.344,-2.4229z" fill="#ff9963" stroke="none" stroke-width="1"/><path d="M302.3425,181.8548c-0.169,-0.646 0.064,-1.2696 0.52,-1.393c0.457,-0.1233 0.964,0.3006 1.134,0.9462c0.17,0.646 -0.063,1.2696 -0.52,1.393c-0.456,0.1229 -0.964,-0.3006 -1.134,-0.9462zM299.5745,179.9875c-0.17,-0.6456 0.063,-1.2692 0.52,-1.3926c0.456,-0.1233 0.964,0.3002 1.133,0.9462c0.17,0.646 -0.062,1.2696 -0.519,1.3926c-0.457,0.1233 -0.965,-0.3002 -1.134,-0.9462zM296.7885,177.332c-0.154,0.5803 0.09,1.2993 0.556,1.6087c0.465,0.3098 0.962,0.0893 1.117,-0.491c0.154,-0.5803 -0.09,-1.2993 -0.555,-1.6087c-0.465,-0.3098 -0.963,-0.0893 -1.118,0.491z" fill="#ffffff" stroke="none" stroke-width="1"/><path d="M252.8935,144.4131l-3.574,5.9584l-0.722,-0.4328l3.121,-5.202l-0.035,-0.021l-2.034,0.0933l0.44,-0.7332l2.083,-0.0956zM251.1645,151.5421c-0.143,-0.0861 -0.236,-0.2114 -0.277,-0.3758c-0.041,-0.1645 -0.018,-0.3185 0.068,-0.462c0.086,-0.1436 0.211,-0.2359 0.376,-0.277c0.164,-0.0412 0.318,-0.0187 0.462,0.0674c0.143,0.0861 0.236,0.2114 0.277,0.3759c0.041,0.1645 0.018,0.3185 -0.068,0.462c-0.057,0.095 -0.133,0.1678 -0.23,0.2182c-0.094,0.0516 -0.195,0.0778 -0.304,0.0786c-0.105,0 -0.207,-0.0291 -0.304,-0.0873zM254.6775,153.6968c-0.384,-0.2304 -0.687,-0.5017 -0.908,-0.814c-0.22,-0.311 -0.348,-0.6369 -0.383,-0.9775c-0.033,-0.3413 0.037,-0.6728 0.208,-0.9944l0.734,0.4399c-0.1,0.2013 -0.134,0.4067 -0.101,0.6162c0.034,0.2075 0.122,0.4055 0.265,0.594c0.143,0.1885 0.328,0.3514 0.557,0.4887c0.256,0.1536 0.51,0.2452 0.761,0.2746c0.252,0.0295 0.481,-0.0015 0.689,-0.0931c0.208,-0.0916 0.375,-0.2421 0.501,-0.4516c0.131,-0.2191 0.193,-0.4447 0.184,-0.6767c-0.007,-0.2339 -0.087,-0.4612 -0.24,-0.6819c-0.152,-0.2207 -0.38,-0.4218 -0.682,-0.6033l-0.477,-0.2863l0.383,-0.6401l0.478,0.2863c0.236,0.1419 0.469,0.2238 0.699,0.2455c0.232,0.0229 0.444,-0.013 0.638,-0.1077c0.196,-0.0935 0.357,-0.245 0.483,-0.4545c0.121,-0.2017 0.181,-0.404 0.182,-0.6069c0,-0.2028 -0.056,-0.3948 -0.169,-0.576c-0.111,-0.18 -0.276,-0.3357 -0.495,-0.4672c-0.206,-0.1233 -0.422,-0.2019 -0.65,-0.2356c-0.225,-0.0345 -0.437,-0.0153 -0.636,0.0577c-0.198,0.071 -0.362,0.2025 -0.49,0.3945l-0.698,-0.4189c0.199,-0.3053 0.457,-0.5224 0.774,-0.6512c0.319,-0.1307 0.66,-0.1765 1.024,-0.1373c0.366,0.0403 0.721,0.1634 1.064,0.3694c0.369,0.221 0.64,0.4854 0.814,0.793c0.176,0.3056 0.262,0.6222 0.258,0.9496c-0.004,0.3274 -0.09,0.6317 -0.259,0.9129c-0.201,0.3356 -0.461,0.5687 -0.78,0.6995c-0.316,0.1319 -0.652,0.1532 -1.008,0.064l-0.027,0.0466c0.339,0.2878 0.536,0.6241 0.593,1.0089c0.058,0.3828 -0.027,0.7634 -0.254,1.1416c-0.194,0.3239 -0.457,0.5619 -0.788,0.714c-0.328,0.1513 -0.688,0.2099 -1.079,0.1758c-0.391,-0.0341 -0.779,-0.1669 -1.165,-0.3985zM264.7845,155.163l-0.384,0.6401l-2.606,-1.5639l0.384,-0.6401zM266.3185,160.5694l2.68,-4.4689l0.687,0.4119l-2.681,4.4689zM269.7945,155.5652c-0.133,-0.0803 -0.221,-0.1951 -0.264,-0.3445c-0.04,-0.1482 -0.022,-0.2863 0.055,-0.4143c0.077,-0.128 0.19,-0.2091 0.34,-0.2432c0.151,-0.033 0.294,-0.0093 0.428,0.0709c0.134,0.0803 0.221,0.1946 0.261,0.3427c0.042,0.1494 0.025,0.2881 -0.052,0.4161c-0.076,0.128 -0.191,0.2085 -0.342,0.2415c-0.15,0.0341 -0.292,0.011 -0.426,-0.0692zM270.5615,159.4593l-1.613,2.6883l-0.686,-0.4119l2.681,-4.4688l0.663,0.3979l-0.419,0.6983l0.058,0.0349c0.241,-0.1641 0.51,-0.251 0.806,-0.2607c0.297,-0.0117 0.614,0.0837 0.952,0.2862c0.302,0.1815 0.53,0.4024 0.682,0.6627c0.154,0.2583 0.219,0.5504 0.194,0.8762c-0.022,0.3239 -0.148,0.676 -0.376,1.0561l-1.703,2.8396l-0.687,-0.4119l1.676,-2.793c0.21,-0.3511 0.283,-0.6793 0.218,-0.9846c-0.063,-0.3072 -0.254,-0.5562 -0.572,-0.747c-0.22,-0.1315 -0.444,-0.2015 -0.674,-0.21c-0.227,-0.0074 -0.445,0.0504 -0.654,0.1734c-0.208,0.123 -0.39,0.3144 -0.546,0.5743zM272.0495,166.2866l3.686,-6.1446l0.664,0.3979l-0.426,0.7099l0.081,0.0489c0.097,-0.0474 0.226,-0.1044 0.388,-0.1711c0.164,-0.0675 0.359,-0.0982 0.585,-0.092c0.229,0.0054 0.489,0.0954 0.78,0.2699c0.376,0.2258 0.651,0.5188 0.825,0.8792c0.175,0.3603 0.239,0.7614 0.192,1.2032c-0.046,0.4419 -0.209,0.8975 -0.491,1.3669c-0.284,0.4732 -0.611,0.8352 -0.98,1.0858c-0.368,0.2486 -0.752,0.3825 -1.151,0.4015c-0.398,0.0171 -0.783,-0.086 -1.155,-0.3094c-0.287,-0.1723 -0.489,-0.3577 -0.604,-0.5563c-0.115,-0.2005 -0.182,-0.3898 -0.202,-0.5678c-0.018,-0.18 -0.028,-0.3259 -0.03,-0.4376l-0.058,-0.0349l-1.417,2.3624zM275.0705,162.7813c-0.203,0.3375 -0.332,0.6649 -0.388,0.9822c-0.054,0.3154 -0.03,0.6028 0.072,0.8623c0.104,0.2576 0.294,0.469 0.57,0.6342c0.287,0.1722 0.572,0.2403 0.854,0.2042c0.286,-0.0369 0.555,-0.1552 0.807,-0.355c0.255,-0.2006 0.477,-0.4599 0.668,-0.778c0.189,-0.3142 0.31,-0.6265 0.364,-0.9368c0.058,-0.3111 0.034,-0.5985 -0.072,-0.8623c-0.102,-0.2646 -0.299,-0.4841 -0.59,-0.6586c-0.279,-0.1676 -0.556,-0.2376 -0.831,-0.21c-0.274,0.0256 -0.535,0.1354 -0.783,0.3293c-0.248,0.1921 -0.471,0.4549 -0.671,0.7885zM281.9595,167.4683l1.585,-2.6417l0.687,0.4119l-2.681,4.4688l-0.687,-0.4119l0.454,-0.7564l-0.047,-0.028c-0.24,0.1641 -0.519,0.2594 -0.836,0.2858c-0.315,0.0244 -0.642,-0.0646 -0.979,-0.267c-0.279,-0.1676 -0.491,-0.3776 -0.635,-0.6301c-0.143,-0.2545 -0.202,-0.5431 -0.177,-0.8658c0.026,-0.3247 0.153,-0.6771 0.381,-1.0573l1.704,-2.8396l0.686,0.4119l-1.675,2.7931c-0.196,0.3258 -0.26,0.6404 -0.194,0.9438c0.067,0.3045 0.244,0.5422 0.529,0.7133c0.171,0.1024 0.371,0.1629 0.599,0.1815c0.231,0.0198 0.461,-0.0245 0.689,-0.1327c0.231,-0.1071 0.43,-0.3003 0.597,-0.5796zM287.4325,167.1588l-0.349,0.5819l-2.316,-1.3893l0.349,-0.5819zM286.4335,165.1038l0.687,0.4119l-2.555,4.2594c-0.117,0.1939 -0.176,0.3563 -0.178,0.487c0.001,0.1299 0.037,0.2382 0.106,0.3247c0.073,0.0857 0.159,0.1588 0.26,0.2193c0.076,0.0454 0.14,0.0787 0.193,0.1001c0.055,0.0194 0.098,0.0349 0.131,0.0465l-0.231,0.7006c-0.057,-0.0105 -0.132,-0.032 -0.226,-0.0646c-0.095,-0.0306 -0.207,-0.0843 -0.335,-0.1611c-0.194,-0.1164 -0.359,-0.2721 -0.495,-0.4672c-0.134,-0.194 -0.211,-0.413 -0.231,-0.6569c-0.018,-0.2429 0.051,-0.4942 0.207,-0.7542zM287.5365,169.8802c0.44,-0.7332 0.939,-1.3502 1.498,-1.851c0.562,-0.5016 1.176,-0.9049 1.842,-1.2098l0.605,0.363c-0.255,0.1083 -0.528,0.2663 -0.819,0.4743c-0.288,0.2071 -0.578,0.4512 -0.87,0.732c-0.291,0.2789 -0.57,0.5811 -0.837,0.9066c-0.264,0.3266 -0.501,0.6636 -0.709,1.0107c-0.277,0.4617 -0.513,0.9569 -0.709,1.4856c-0.196,0.5287 -0.341,1.0421 -0.434,1.5402c-0.093,0.4981 -0.123,0.931 -0.09,1.2987l-0.605,-0.363c-0.045,-0.7308 0.022,-1.4613 0.198,-2.1913c0.18,-0.7309 0.49,-1.4629 0.93,-2.196zM291.7265,172.394c-0.439,0.7331 -0.94,1.3505 -1.502,1.8521c-0.559,0.5008 -1.172,0.9037 -1.837,1.2087l-0.605,-0.3631c0.254,-0.1082 0.526,-0.2669 0.815,-0.476c0.29,-0.206 0.581,-0.4485 0.872,-0.7274c0.292,-0.2808 0.571,-0.5846 0.835,-0.9112c0.268,-0.3274 0.505,-0.6638 0.712,-1.009c0.277,-0.4616 0.514,-0.9568 0.71,-1.4855c0.196,-0.5288 0.34,-1.0422 0.433,-1.5403c0.093,-0.498 0.123,-0.9309 0.091,-1.2987l0.605,0.3631c0.044,0.7308 -0.024,1.4616 -0.204,2.1924c-0.176,0.7301 -0.485,1.4617 -0.925,2.1949z" fill="#ffffff" stroke="none" stroke-width="1"/><path d="M244.7185,169.0043l-3.523,5.8733l-0.712,-0.4266l3.076,-5.1277l-0.034,-0.0207l-2.005,0.0919l0.433,-0.7227l2.054,-0.0942zM243.0145,176.0315c-0.142,-0.0849 -0.233,-0.2084 -0.273,-0.3705c-0.041,-0.1621 -0.019,-0.3139 0.066,-0.4554c0.085,-0.1415 0.209,-0.2325 0.371,-0.273c0.162,-0.0406 0.314,-0.0184 0.455,0.0665c0.142,0.0848 0.233,0.2083 0.273,0.3704c0.041,0.1622 0.019,0.314 -0.066,0.4554c-0.056,0.0937 -0.132,0.1654 -0.227,0.2151c-0.093,0.0509 -0.193,0.0767 -0.3,0.0775c-0.104,0 -0.204,-0.0287 -0.299,-0.086zM246.4765,178.1554c-0.378,-0.2271 -0.677,-0.4946 -0.895,-0.8024c-0.217,-0.3066 -0.342,-0.6278 -0.378,-0.9635c-0.032,-0.3365 0.037,-0.6632 0.206,-0.9802l0.723,0.4336c-0.098,0.1984 -0.131,0.4009 -0.099,0.6073c0.033,0.2046 0.12,0.3998 0.261,0.5856c0.14,0.1858 0.324,0.3464 0.549,0.4818c0.253,0.1514 0.503,0.2416 0.75,0.2706c0.248,0.0291 0.475,-0.0015 0.68,-0.0918c0.204,-0.0902 0.369,-0.2386 0.493,-0.4451c0.129,-0.216 0.19,-0.4384 0.182,-0.667c-0.008,-0.2306 -0.087,-0.4547 -0.237,-0.6722c-0.15,-0.2176 -0.374,-0.4158 -0.673,-0.5947l-0.47,-0.2822l0.379,-0.6309l0.47,0.2821c0.233,0.14 0.463,0.2206 0.689,0.242c0.229,0.0226 0.438,-0.0128 0.629,-0.1061c0.194,-0.0922 0.352,-0.2415 0.476,-0.448c0.119,-0.1988 0.179,-0.3982 0.179,-0.5982c0.001,-0.2 -0.055,-0.3892 -0.166,-0.5678c-0.109,-0.1774 -0.272,-0.3309 -0.488,-0.4605c-0.203,-0.1216 -0.416,-0.199 -0.641,-0.2323c-0.221,-0.034 -0.43,-0.015 -0.627,0.0569c-0.195,0.0699 -0.356,0.1996 -0.483,0.3889l-0.688,-0.413c0.196,-0.3009 0.451,-0.5148 0.763,-0.6418c0.314,-0.1289 0.651,-0.174 1.01,-0.1354c0.361,0.0397 0.711,0.1611 1.049,0.3641c0.363,0.2179 0.631,0.4785 0.802,0.7817c0.173,0.3013 0.258,0.6133 0.254,0.936c-0.004,0.3227 -0.089,0.6227 -0.255,0.8999c-0.199,0.3308 -0.455,0.5606 -0.769,0.6895c-0.312,0.13 -0.643,0.151 -0.993,0.0631l-0.028,0.0459c0.335,0.2837 0.53,0.6152 0.585,0.9945c0.057,0.3774 -0.026,0.7525 -0.25,1.1253c-0.191,0.3193 -0.45,0.5539 -0.777,0.7038c-0.323,0.1491 -0.678,0.2069 -1.063,0.1733c-0.385,-0.0337 -0.768,-0.1646 -1.149,-0.3928zM249.9785,180.2091c-0.142,-0.0848 -0.233,-0.2083 -0.273,-0.3705c-0.041,-0.1621 -0.019,-0.3139 0.066,-0.4554c0.085,-0.1414 0.209,-0.2324 0.371,-0.273c0.162,-0.0405 0.314,-0.0184 0.455,0.0665c0.142,0.0849 0.233,0.2084 0.273,0.3705c0.041,0.1621 0.018,0.3139 -0.066,0.4554c-0.057,0.0937 -0.132,0.1654 -0.227,0.2151c-0.093,0.0509 -0.193,0.0767 -0.3,0.0774c-0.104,0 -0.204,-0.0286 -0.299,-0.086zM251.7245,181.1946l0.31,-0.5162l3.212,-0.9591c0.377,-0.1121 0.694,-0.2157 0.951,-0.311c0.258,-0.0971 0.472,-0.2057 0.64,-0.3258c0.171,-0.1208 0.311,-0.2711 0.419,-0.4508c0.123,-0.2065 0.181,-0.4151 0.172,-0.6258c-0.007,-0.2095 -0.071,-0.4064 -0.191,-0.5907c-0.121,-0.1843 -0.288,-0.3401 -0.5,-0.4674c-0.226,-0.1353 -0.451,-0.2066 -0.675,-0.2139c-0.221,-0.008 -0.428,0.0436 -0.62,0.1549c-0.189,0.1124 -0.351,0.2805 -0.485,0.5042l-0.677,-0.406c0.206,-0.3442 0.467,-0.5987 0.782,-0.7635c0.314,-0.1648 0.652,-0.2378 1.012,-0.2191c0.363,0.0198 0.715,0.1324 1.058,0.3377c0.344,0.2065 0.605,0.4621 0.784,0.7668c0.178,0.3047 0.269,0.6257 0.272,0.9629c0.003,0.3373 -0.086,0.657 -0.267,0.959c-0.13,0.2161 -0.296,0.4038 -0.498,0.5633c-0.199,0.1587 -0.47,0.3069 -0.813,0.4445c-0.339,0.1369 -0.786,0.2851 -1.339,0.4446l-2.165,0.6196l-0.028,0.0459l2.73,1.6378l-0.378,0.631zM263.3725,183.7595l-0.379,0.631l-2.569,-1.5418l0.378,-0.6309zM265.2825,187.7995l0.723,0.433c-0.104,0.208 -0.105,0.413 -0.003,0.615c0.105,0.203 0.29,0.384 0.556,0.544c0.271,0.163 0.537,0.246 0.796,0.251c0.261,0.003 0.467,-0.12 0.617,-0.371c0.088,-0.147 0.129,-0.297 0.121,-0.449c-0.006,-0.155 -0.056,-0.302 -0.152,-0.443c-0.095,-0.14 -0.232,-0.264 -0.412,-0.372l-0.757,-0.454l0.365,-0.608l0.757,0.454c0.269,0.162 0.505,0.22 0.706,0.175c0.204,-0.045 0.36,-0.159 0.471,-0.342c0.118,-0.197 0.143,-0.397 0.074,-0.599c-0.067,-0.204 -0.229,-0.383 -0.485,-0.537c-0.258,-0.155 -0.508,-0.225 -0.75,-0.212c-0.241,0.011 -0.421,0.105 -0.54,0.281l-0.711,-0.427c0.15,-0.232 0.348,-0.398 0.595,-0.497c0.248,-0.101 0.521,-0.132 0.82,-0.093c0.3,0.037 0.603,0.147 0.909,0.331c0.31,0.186 0.546,0.401 0.708,0.647c0.165,0.245 0.254,0.497 0.267,0.757c0.016,0.259 -0.045,0.505 -0.185,0.739c-0.15,0.248 -0.34,0.407 -0.571,0.476c-0.231,0.07 -0.472,0.074 -0.721,0.012l-0.028,0.046c0.16,0.112 0.272,0.252 0.337,0.421c0.068,0.168 0.091,0.349 0.068,0.543c-0.022,0.193 -0.088,0.381 -0.198,0.564c-0.161,0.268 -0.372,0.458 -0.635,0.571c-0.261,0.111 -0.55,0.146 -0.866,0.104c-0.315,-0.043 -0.632,-0.161 -0.954,-0.353c-0.311,-0.187 -0.56,-0.406 -0.746,-0.655c-0.185,-0.251 -0.295,-0.511 -0.331,-0.78c-0.034,-0.269 0.018,-0.527 0.155,-0.772zM270.1085,192.3635c-0.279,-0.168 -0.501,-0.372 -0.666,-0.614c-0.163,-0.243 -0.251,-0.506 -0.265,-0.787c-0.012,-0.283 0.068,-0.568 0.24,-0.854c0.151,-0.253 0.324,-0.427 0.517,-0.525c0.195,-0.099 0.402,-0.143 0.623,-0.133c0.22,0.01 0.444,0.053 0.671,0.129c0.23,0.076 0.455,0.162 0.676,0.258c0.288,0.126 0.521,0.23 0.697,0.313c0.18,0.082 0.321,0.124 0.424,0.126c0.105,0.003 0.19,-0.05 0.255,-0.159l0.014,-0.023c0.17,-0.283 0.224,-0.55 0.164,-0.799c-0.059,-0.249 -0.245,-0.467 -0.556,-0.654c-0.323,-0.193 -0.619,-0.275 -0.888,-0.243c-0.268,0.031 -0.488,0.105 -0.658,0.221l-0.505,-0.615c0.275,-0.199 0.553,-0.316 0.834,-0.35c0.283,-0.035 0.557,-0.014 0.82,0.063c0.266,0.076 0.51,0.181 0.732,0.314c0.141,0.085 0.293,0.2 0.456,0.344c0.166,0.144 0.304,0.319 0.414,0.526c0.112,0.207 0.163,0.45 0.153,0.727c-0.01,0.277 -0.12,0.591 -0.33,0.941l-1.741,2.902l-0.677,-0.406l0.358,-0.597l-0.035,-0.02c-0.103,0.068 -0.241,0.124 -0.413,0.169c-0.173,0.045 -0.371,0.052 -0.594,0.022c-0.224,-0.031 -0.464,-0.122 -0.72,-0.276zM270.5765,191.8175c0.267,0.16 0.525,0.243 0.771,0.248c0.249,0.006 0.47,-0.046 0.663,-0.156c0.196,-0.109 0.348,-0.255 0.458,-0.439l0.372,-0.619c-0.049,0.017 -0.131,0.011 -0.246,-0.019c-0.112,-0.031 -0.237,-0.073 -0.376,-0.128c-0.135,-0.055 -0.267,-0.111 -0.395,-0.167c-0.125,-0.056 -0.226,-0.102 -0.304,-0.136c-0.19,-0.082 -0.377,-0.144 -0.561,-0.184c-0.181,-0.041 -0.348,-0.039 -0.503,0.006c-0.151,0.045 -0.279,0.153 -0.382,0.325c-0.141,0.235 -0.161,0.465 -0.059,0.69c0.105,0.224 0.292,0.417 0.562,0.579zM272.1975,195.1925l1.135,-1.893l0.367,0.22c0.146,-0.04 0.284,-0.095 0.415,-0.165c0.13,-0.07 0.264,-0.165 0.401,-0.285c0.141,-0.122 0.293,-0.28 0.457,-0.475c0.165,-0.198 0.353,-0.442 0.565,-0.734l1.195,-1.654l2.799,1.679l-2.264,3.774l0.677,0.406l-1.136,1.893l-0.677,-0.406l0.757,-1.262l-3.258,-1.954l-0.757,1.262zM274.4685,193.9805l2.122,1.273l1.886,-3.143l-1.492,-0.895l-0.782,1.044c-0.324,0.432 -0.625,0.799 -0.902,1.101c-0.277,0.302 -0.555,0.508 -0.832,0.62zM279.6985,198.1165c-0.279,-0.167 -0.501,-0.372 -0.666,-0.614c-0.163,-0.243 -0.251,-0.506 -0.265,-0.787c-0.012,-0.283 0.068,-0.567 0.24,-0.854c0.151,-0.253 0.324,-0.427 0.517,-0.524c0.195,-0.099 0.402,-0.144 0.623,-0.134c0.22,0.01 0.444,0.053 0.671,0.129c0.23,0.076 0.455,0.162 0.676,0.258c0.288,0.126 0.521,0.23 0.697,0.313c0.18,0.082 0.321,0.124 0.424,0.126c0.105,0.003 0.19,-0.05 0.255,-0.159l0.014,-0.023c0.17,-0.283 0.224,-0.549 0.164,-0.799c-0.059,-0.249 -0.245,-0.466 -0.556,-0.653c-0.323,-0.194 -0.619,-0.275 -0.887,-0.244c-0.269,0.031 -0.489,0.105 -0.659,0.221l-0.505,-0.615c0.275,-0.199 0.553,-0.315 0.834,-0.35c0.283,-0.035 0.557,-0.014 0.82,0.063c0.266,0.077 0.51,0.181 0.732,0.314c0.141,0.085 0.293,0.2 0.456,0.344c0.166,0.144 0.304,0.319 0.414,0.526c0.112,0.207 0.163,0.45 0.153,0.727c-0.01,0.277 -0.12,0.591 -0.33,0.941l-1.741,2.902l-0.677,-0.406l0.358,-0.597l-0.035,-0.02c-0.103,0.068 -0.241,0.124 -0.413,0.169c-0.173,0.045 -0.371,0.052 -0.594,0.022c-0.224,-0.03 -0.464,-0.122 -0.72,-0.276zM280.1665,197.5705c0.267,0.161 0.525,0.243 0.771,0.248c0.249,0.006 0.47,-0.046 0.663,-0.156c0.196,-0.109 0.348,-0.255 0.458,-0.439l0.372,-0.619c-0.049,0.017 -0.131,0.011 -0.246,-0.019c-0.112,-0.031 -0.237,-0.073 -0.376,-0.128c-0.135,-0.055 -0.267,-0.111 -0.395,-0.167c-0.125,-0.056 -0.226,-0.102 -0.304,-0.136c-0.19,-0.082 -0.377,-0.144 -0.561,-0.184c-0.181,-0.041 -0.348,-0.038 -0.503,0.007c-0.151,0.044 -0.279,0.152 -0.382,0.324c-0.141,0.235 -0.161,0.465 -0.059,0.69c0.105,0.224 0.292,0.417 0.562,0.579zM287.4695,199.2215l-0.378,0.631l-2.432,-1.459l0.378,-0.631zM286.3335,195.9665l-2.642,4.405l-0.677,-0.406l2.643,-4.405zM289.1215,197.6385l-2.643,4.405l-0.677,-0.406l2.643,-4.405zM288.9905,202.1935l4.166,-2.134l0.78,0.468l-2.643,4.405l-0.676,-0.406l2.043,-3.407l-4.154,2.141l-0.792,-0.475l2.643,-4.405l0.677,0.406zM294.3255,206.8755c-0.425,-0.254 -0.735,-0.568 -0.93,-0.94c-0.192,-0.372 -0.27,-0.778 -0.233,-1.216c0.039,-0.439 0.194,-0.884 0.465,-1.335c0.271,-0.452 0.592,-0.8 0.963,-1.045c0.373,-0.247 0.767,-0.378 1.179,-0.393c0.415,-0.016 0.821,0.095 1.219,0.334c0.229,0.138 0.433,0.312 0.611,0.522c0.178,0.211 0.307,0.457 0.387,0.74c0.082,0.28 0.093,0.593 0.033,0.94c-0.06,0.346 -0.213,0.725 -0.459,1.136l-0.173,0.287l-3.395,-2.037l0.351,-0.585l2.707,1.624c0.149,-0.249 0.233,-0.5 0.25,-0.755c0.02,-0.254 -0.028,-0.491 -0.142,-0.713c-0.112,-0.221 -0.29,-0.404 -0.535,-0.551c-0.269,-0.162 -0.543,-0.235 -0.82,-0.219c-0.274,0.015 -0.527,0.097 -0.76,0.246c-0.232,0.149 -0.421,0.345 -0.567,0.588l-0.234,0.39c-0.2,0.333 -0.311,0.649 -0.335,0.949c-0.021,0.3 0.035,0.571 0.169,0.816c0.136,0.242 0.34,0.445 0.614,0.609c0.177,0.107 0.353,0.178 0.526,0.215c0.176,0.035 0.347,0.034 0.513,-0.004c0.168,-0.04 0.326,-0.12 0.475,-0.238l0.543,0.575c-0.201,0.181 -0.434,0.307 -0.697,0.377c-0.263,0.069 -0.542,0.079 -0.837,0.029c-0.294,-0.052 -0.59,-0.167 -0.888,-0.346z" fill="#ffffff" stroke="none" stroke-width="1"/></g></g></g></svg>