<svg version="1.1" xmlns="http://www.w3.org/2000/svg" xmlns:xlink="http://www.w3.org/1999/xlink" width="359.70876" height="352.34883" viewBox="0,0,359.70876,352.34883"><defs><linearGradient x1="244.33563" y1="294.77794" x2="243.47694" y2="75.01999" gradientUnits="userSpaceOnUse" id="color-1"><stop offset="0.13" stop-color="#ffdd55" stop-opacity="0.4"/><stop offset="0.4" stop-color="#ffdd55" stop-opacity="0.7"/><stop offset="1" stop-color="#ffdd55"/></linearGradient><linearGradient x1="243.7491" y1="270.1435" x2="243.26638" y2="74.6927" gradientUnits="userSpaceOnUse" id="color-2"><stop offset="0.27" stop-color="#ffffff" stop-opacity="0"/><stop offset="0.74" stop-color="#ffffff" stop-opacity="0.5"/><stop offset="1" stop-color="#ffffff"/></linearGradient><linearGradient x1="286.35147" y1="306.73116" x2="235.20732" y2="235.18437" gradientUnits="userSpaceOnUse" id="color-3"><stop offset="0.41" stop-color="#ffffff" stop-opacity="0"/><stop offset="0.79" stop-color="#ffffff" stop-opacity="0.5"/><stop offset="1" stop-color="#ffffff"/></linearGradient><linearGradient x1="111.16062" y1="205.55307" x2="163.70287" y2="192.42639" gradientUnits="userSpaceOnUse" id="color-4"><stop offset="0.41" stop-color="#ffffff" stop-opacity="0"/><stop offset="0.79" stop-color="#ffffff" stop-opacity="0.5"/><stop offset="1" stop-color="#ffffff"/></linearGradient><linearGradient x1="207.48379" y1="54.10991" x2="173.1299" y2="52.52272" gradientUnits="userSpaceOnUse" id="color-5"><stop offset="0.41" stop-color="#ffffff" stop-opacity="0"/><stop offset="0.79" stop-color="#ffffff" stop-opacity="0.5"/><stop offset="1" stop-color="#ffffff"/></linearGradient><linearGradient x1="357.4829" y1="184.55265" x2="363.22443" y2="220.133" gradientUnits="userSpaceOnUse" id="color-6"><stop offset="0.41" stop-color="#ffffff" stop-opacity="0"/><stop offset="0.79" stop-color="#ffffff" stop-opacity="0.5"/><stop offset="1" stop-color="#ffffff"/></linearGradient></defs><g transform="translate(-60.14562,-3.82558)"><g data-paper-data="{&quot;isPaintingLayer&quot;:true}" fill-rule="nonzero" stroke-miterlimit="10" stroke-dasharray="" stroke-dashoffset="0" style="mix-blend-mode: normal"><path d="M60.41477,3.82558l359.43961,0.27478l-0.26915,352.07405l-359.43961,-0.27478z" fill="none" stroke="#000000" stroke-width="0" stroke-linecap="butt" stroke-linejoin="miter"/><g stroke-width="6"><g><g fill="#f2940c" stroke="none" stroke-linecap="butt" stroke-linejoin="miter"><path d="M357.09683,179.23069c0,62.92398 -51.01029,113.93427 -113.93427,113.93427c-62.92398,0 -113.93427,-51.0103 -113.93427,-113.93427c0,-62.92398 51.0103,-113.93427 113.93427,-113.93427c62.92398,0 113.93427,51.0103 113.93427,113.93427z"/></g><g fill="url(#color-1)" stroke="none" stroke-linecap="butt" stroke-linejoin="miter"><path d="M349.12349,174.39941c0,55.98646 -47.00486,101.37189 -104.98787,101.37189c-57.98301,0 -104.98786,-45.38543 -104.98786,-101.37189c0,-55.98645 47.00485,-101.37247 104.98786,-101.37247c57.98301,0 104.98787,45.38602 104.98787,101.37247z"/></g><g fill="url(#color-2)" stroke="none" stroke-linecap="butt" stroke-linejoin="miter"><path d="M339.10842,173.40348c0,52.50654 -42.56479,95.07133 -95.07133,95.07133c-52.50654,0 -95.07075,-42.56479 -95.07075,-95.07133c0,-52.50654 42.5642,-95.07075 95.07075,-95.07075c52.50654,0 95.07133,42.56421 95.07133,95.07075z"/></g><g fill-opacity="0" fill="#000000" stroke="#cc6100" stroke-linecap="round" stroke-linejoin="round"><path d="M357.09683,179.23069c0,62.92398 -51.01029,113.93427 -113.93427,113.93427c-62.92398,0 -113.93427,-51.0103 -113.93427,-113.93427c0,-62.92398 51.0103,-113.93427 113.93427,-113.93427c62.92398,0 113.93427,51.0103 113.93427,113.93427z"/></g></g><path d="M136.11168,199.27333c0,0 39.68345,-9.14097 45.47103,1.06893c5.78759,10.2099 -1.02161,32.92089 -14.73812,33.34198c-13.71651,0.42109 -24.57163,2.06481 -24.57163,2.06481c-5.96553,-13.18605 -6.16128,-36.47572 -6.16128,-36.47572z" fill="#cc6100" stroke="none" stroke-linecap="butt" stroke-linejoin="miter"/><path d="M267.54172,283.51756c-17.65398,14.82243 -44.83467,7.49918 -44.83467,7.49918c0,0 -19.53457,-14.77206 -21.99703,-27.10512c-2.46245,-12.33307 8.53801,-26.00135 8.53801,-26.00135c0,0 69.22566,36.42883 58.29368,45.60729z" fill="#cc6100" stroke="none" stroke-linecap="butt" stroke-linejoin="miter"/><g fill-opacity="0" fill="#000000" stroke="#852e01" stroke-linecap="round" stroke-linejoin="round"><g><path d="M301.00932,128.22104c0,0 16.48225,-10.25147 30.48376,3.20156c14.00151,13.45303 3.22121,33.50183 3.22121,33.50183"/></g><g><path d="M345.08959,92.77907c0,0 10.17986,8.57332 7.7395,21.06637"/></g></g><g fill-opacity="0" fill="#000000" stroke="#852e01" stroke-linecap="round" stroke-linejoin="round"><g><path d="M236.89379,69.70905c0,0 16.48225,-10.25148 30.48376,3.20156c14.00151,13.45303 3.22121,33.50184 3.22121,33.50184"/></g><g><path d="M285.41362,57.6018c14.59023,-2.46427 20.9022,6.5586 20.9022,6.5586"/></g></g><g><g fill="#7f0d0d" stroke="none" stroke-linecap="butt" stroke-linejoin="miter"><path d="M313.32134,175.93111c-0.61499,26.75699 -51.03248,46.14446 -91.5008,19.43761c-37.84342,-24.97519 -42.80772,-88.05108 -5.71898,-100.22529c32.59569,-10.6995 32.32854,23.45473 39.68495,31.09145c18.22498,18.91877 58.38136,12.86595 57.53483,49.69623z"/></g><g><g fill="#ffffff" stroke="none" stroke-linecap="butt" stroke-linejoin="miter"><path d="M256.25211,126.90273c8.56988,10.10969 33.61673,17.98308 46.73608,24.23674c13.11935,6.25366 11.45526,22.16137 11.45526,22.16137c0,0 -15.09399,-0.83353 -50.3706,-24.61735c-35.27661,-23.78383 -42.24286,-52.67651 -42.24286,-52.67651c28.80335,-10.69496 25.85224,20.78605 34.42211,30.89575z"/></g><g fill="#ff6c93" stroke="none" stroke-linecap="butt" stroke-linejoin="miter"><path d="M285.07834,196.19543c-5.21129,12.19009 -29.20042,13.62275 -53.58068,3.19933c-24.38026,-10.42342 -39.91893,-28.75495 -34.70763,-40.94505c5.21129,-12.19009 29.19997,-13.62313 53.58023,-3.19971c24.38026,10.42342 39.91938,28.75533 34.70809,40.94543z"/></g><g fill-opacity="0" fill="#000000" stroke="#b71c02" stroke-linecap="round" stroke-linejoin="round"><path d="M313.32134,175.93111c-0.61499,26.75699 -51.03248,46.14446 -91.5008,19.43761c-37.84342,-24.97519 -42.80772,-88.05108 -5.71898,-100.22529c32.59569,-10.6995 32.32854,23.45473 39.68495,31.09145c18.22498,18.91877 58.38136,12.86595 57.53483,49.69623z"/></g></g></g><g><g><g><g><path d="M262.7815,260.69037c0,0 -3.80143,-23.96086 0.11517,-28.79013c3.91659,-4.82928 13.90449,-2.70689 15.18104,2.88073c1.27655,5.58761 9.21535,42.33387 9.21535,42.33387" fill="#ffdd7d" stroke="none" stroke-linecap="butt" stroke-linejoin="miter"/><path d="M262.7815,260.69037c0,0 -3.80143,-23.96086 0.11517,-28.79013c3.91659,-4.82928 13.90449,-2.70689 15.18104,2.88073c1.27655,5.58761 9.21535,42.33387 9.21535,42.33387" fill-opacity="0" fill="#000000" stroke="#cc6100" stroke-linecap="round" stroke-linejoin="round"/></g><g><path d="M256.51852,309.52724c0,0 -36.63332,-45.48948 -44.46833,-55.9512c-7.835,-10.46172 1.85082,-25.90304 6.75735,-29.55411c11.76714,-8.75554 25.13869,-5.0092 25.13869,-5.0092c0,0 24.62627,8.56345 46.30983,55.12903c10.14421,21.78401 -20.67731,49.47057 -33.73753,35.38548z" fill="#ffdd7d" stroke="none" stroke-linecap="butt" stroke-linejoin="miter"/><path d="M256.51852,309.52724c0,0 -36.63332,-45.48948 -44.46833,-55.9512c-7.835,-10.46172 1.85082,-25.90304 6.75735,-29.55411c11.76714,-8.75554 25.13869,-5.0092 25.13869,-5.0092c0,0 24.62627,8.56345 46.30983,55.12903c10.14421,21.78401 -20.67731,49.47057 -33.73753,35.38548z" fill-opacity="0" fill="#000000" stroke="#cc6100" stroke-linecap="round" stroke-linejoin="round"/></g></g><g fill="url(#color-3)" stroke="none" stroke-linecap="butt" stroke-linejoin="miter"><path d="M258.80501,301.54258c-9.24942,-9.13517 -14.9257,-17.30915 -18.41861,-26.18102c-3.49291,-8.87187 16.22093,-35.72554 26.72675,-28.84c10.50583,6.88553 18.37345,30.93956 18.37345,30.93956c5.10771,16.18606 -17.43219,33.21663 -26.6816,24.08146z"/></g></g><g fill-opacity="0" fill="#000000" stroke="#cc6100" stroke-linecap="round" stroke-linejoin="round"><path d="M231.789,220.0005c0,0 11.001,5.8595 25.91845,22.06809"/></g><g fill-opacity="0" fill="#000000" stroke="#cc6100" stroke-linecap="round" stroke-linejoin="round"><path d="M219.52508,225.35327c0,0 5.78285,0.91031 26.96869,24.48903"/></g><g fill-opacity="0" fill="#000000" stroke="#cc6100" stroke-linecap="round" stroke-linejoin="round"><path d="M212.03745,237.01418c0,0 0.86702,-3.56165 23.54759,22.0825"/></g></g><g><g><g><g><path d="M115.44013,184.12689c0,0 18.83483,-19.27291 23.46579,-22.65018c4.63096,-3.37727 13.55847,1.57715 13.34314,7.7914c-0.21533,6.21425 -18.81063,21.7953 -18.81063,21.7953" fill="#ffdd7d" stroke="none" stroke-linecap="butt" stroke-linejoin="miter"/><path d="M115.44013,184.12689c0,0 18.83483,-19.27291 23.46579,-22.65018c4.63096,-3.37727 13.55847,1.57715 13.34314,7.7914c-0.21533,6.21425 -18.81063,21.7953 -18.81063,21.7953" fill-opacity="0" fill="#000000" stroke="#cc6100" stroke-linecap="round" stroke-linejoin="round"/></g><g><path d="M115.15677,179.93825c46.92433,-20.89634 59.84886,-7.95295 59.84886,-7.95295c0,0 15.39044,14.17107 15.67681,20.27974c0.28637,6.10867 -1.52423,23.98217 -14.30183,26.73162c-12.77759,2.74945 -58.99904,9.78279 -58.99904,9.78279c-19.09828,2.05334 -24.17672,-39.06543 -2.2248,-48.84119z" fill="#ffdd7d" stroke="none" stroke-linecap="butt" stroke-linejoin="miter"/><path d="M115.15677,179.93825c46.92433,-20.89634 59.84886,-7.95295 59.84886,-7.95295c0,0 15.39044,14.17107 15.67681,20.27974c0.28637,6.10867 -1.52423,23.98217 -14.30183,26.73162c-12.77759,2.74945 -58.99904,9.78279 -58.99904,9.78279c-19.09828,2.05334 -24.17672,-39.06543 -2.2248,-48.84119z" fill-opacity="0" fill="#000000" stroke="#cc6100" stroke-linecap="round" stroke-linejoin="round"/></g></g><g fill="url(#color-4)" stroke="none" stroke-linecap="butt" stroke-linejoin="miter"><path d="M114.54773,185.90131c0,0 17.44361,-11.22568 29.88934,-9.52396c12.44574,1.70172 9.69163,34.89979 1.23269,39.30023c-8.45895,4.40044 -11.75932,4.85547 -24.73378,5.67582c-12.97446,0.82035 -20.86638,-26.59342 -6.38825,-35.45209z"/></g></g><g fill-opacity="0" fill="#000000" stroke="#cc6100" stroke-linecap="round" stroke-linejoin="round"><path d="M155.24562,179.69532c21.69387,-3.82375 28.72092,1.91328 28.72092,1.91328"/></g><g fill-opacity="0" fill="#000000" stroke="#cc6100" stroke-linecap="round" stroke-linejoin="round"><path d="M158.30483,193.07886c17.78115,-2.96057 31.13204,-0.71809 31.13204,-0.71809"/></g><g fill-opacity="0" fill="#000000" stroke="#cc6100" stroke-linecap="round" stroke-linejoin="round"><path d="M188.97123,203.61603c0,0 -3.31286,3.507 -29.99949,4.29181"/></g></g><g><g><path d="M184.0832,63.38568c-10.21201,0.63366 -15.31804,-9.40532 -8.38273,-17.26498c15.0081,-17.00908 45.82908,12.94922 48.62689,15.85609c-19.67197,-2.76033 -32.94592,0.95614 -40.24416,1.40889z" fill="#8dc6ff" stroke="none" stroke-linecap="butt" stroke-linejoin="miter"/><path d="M184.0832,63.38568c-10.21201,0.63366 -15.31804,-9.40532 -8.38273,-17.26498c15.0081,-17.00908 45.82908,12.94922 48.62689,15.85609c-19.67197,-2.76033 -32.94592,0.95614 -40.24416,1.40889z" fill-opacity="0" fill="#000000" stroke="#3b9ff2" stroke-linecap="round" stroke-linejoin="round"/></g><g fill="url(#color-5)" stroke="none" stroke-linecap="butt" stroke-linejoin="miter"><path d="M184.12878,58.78691c-7.24675,0.96064 -10.60697,-4.79513 -5.61823,-10.42344c9.34866,-10.54755 32.34271,7.15405 34.06152,8.54667c-10.67631,-1.52534 -25.15233,1.44022 -28.44329,1.87677z"/></g></g><g><g><path d="M347.35541,169.88459c3.40068,2.16295 44.33267,28.55615 29.84758,49.4661c-6.69368,9.66194 -17.46942,5.10629 -21.19901,-5.59862c-2.42992,-6.97376 -2.83339,-31.24035 -8.64857,-43.86748z" fill="#8dc6ff" stroke="none" stroke-linecap="butt" stroke-linejoin="miter"/><path d="M347.35541,169.88459c3.40068,2.16295 44.33267,28.55615 29.84758,49.4661c-6.69368,9.66194 -17.46942,5.10629 -21.19901,-5.59862c-2.42992,-6.97376 -2.83339,-31.24035 -8.64857,-43.86748z" fill-opacity="0" fill="#000000" stroke="#3b9ff2" stroke-linecap="round" stroke-linejoin="round"/></g><g fill="url(#color-6)" stroke="none" stroke-linecap="butt" stroke-linejoin="miter"><path d="M355.5657,181.51788c0,0 26.74033,20.96277 18.53016,33.1748c-4.70562,6.99927 -13.42057,4.203 -14.11844,-3.90096c-1.03609,-12.03211 -4.41173,-29.27384 -4.41173,-29.27384z"/></g></g></g></g></g></svg>