<svg version="1.1" xmlns="http://www.w3.org/2000/svg" xmlns:xlink="http://www.w3.org/1999/xlink" width="125.93117" height="116.70715" viewBox="0,0,125.93117,116.70715"><defs><linearGradient x1="217.73656" y1="169.88365" x2="217.73656" y2="218.91641" gradientUnits="userSpaceOnUse" id="color-1"><stop offset="0" stop-color="#ff5454"/><stop offset="1" stop-color="#e66464"/></linearGradient><radialGradient cx="181.18945" cy="126.57044" r="7.58071" gradientUnits="userSpaceOnUse" id="color-2"><stop offset="0" stop-color="#cef8ff"/><stop offset="1" stop-color="#c4ddea"/></radialGradient></defs><g transform="translate(-154.93508,-120.58882)"><g data-paper-data="{&quot;isPaintingLayer&quot;:true}" stroke-miterlimit="10" stroke-dasharray="" stroke-dashoffset="0" style="mix-blend-mode: normal"><g fill-rule="nonzero" stroke="#848484" stroke-linecap="butt" stroke-linejoin="miter"><path d="M195.49061,236.54598l7.4425,-21.30525l20.59979,-0.10547l8.23992,21.41072z" fill="#d2d2d2" stroke-width="1.5"/><path d="M207.1816,228.72957c-0.83899,3.46352 -2.76494,5.96947 -4.30173,5.5972c-1.53679,-0.37227 -2.10247,-3.48178 -1.26349,-6.9453c0.83899,-3.46352 2.76494,-5.96947 4.30173,-5.5972c1.53679,0.37227 2.10247,3.48178 1.26349,6.9453z" fill="#dedede" stroke-width="0"/></g><g fill="none" fill-rule="nonzero" stroke-linecap="round" stroke-linejoin="miter"><path d="M273.60787,217.67105c0,0 2.22418,3.09452 3.13983,4.36848c0.712,0.99061 0.50472,2.5823 -1.62396,2.49216c-5.85371,-0.24787 -17.26522,-0.731 -20.53525,-0.86882c-1.70294,-0.07177 -3.40558,-1.36743 -3.21696,-2.21741c0.3038,-1.36905 1.18968,-5.36118 1.18968,-5.36118" stroke="#c69120" stroke-width="7.5"/><path d="M273.47235,217.82712c0,0 2.22417,3.09451 3.13983,4.36847c0.712,0.99061 0.50472,2.58231 -1.62396,2.49216c-5.85371,-0.24787 -17.26522,-0.73101 -20.53525,-0.86883c-1.70294,-0.07177 -3.40557,-1.36743 -3.21695,-2.21741c0.3038,-1.36905 1.18968,-5.36118 1.18968,-5.36118" stroke="#ffcf69" stroke-width="4"/></g><g fill="none" fill-rule="nonzero" stroke-linecap="round" stroke-linejoin="miter"><path d="M236.92904,218.89637c0,0 2.23719,3.0202 3.1582,4.26357c0.71616,0.96682 0.53428,2.53941 -1.56621,2.48064c-5.77619,-0.16159 -17.03657,-0.47652 -20.26328,-0.56616c-1.68038,-0.04668 -3.37779,-1.3003 -3.20381,-2.14119c0.28022,-1.3544 1.09734,-5.3038 1.09734,-5.3038" stroke="#c69120" stroke-width="7.5"/><path d="M236.7976,219.0522c0,0 2.23718,3.0202 3.1582,4.26356c0.71616,0.96682 0.53428,2.53942 -1.56621,2.48065c-5.77619,-0.16159 -17.03657,-0.47653 -20.26328,-0.56616c-1.68038,-0.04668 -3.37778,-1.3003 -3.2038,-2.14119c0.28022,-1.3544 1.09733,-5.3038 1.09733,-5.3038" stroke="#ffcf69" stroke-width="4"/></g><g fill="none" fill-rule="nonzero" stroke-linecap="round" stroke-linejoin="miter"><path d="M199.42072,217.68648c0,0 2.6424,3.56723 3.73022,5.0358c0.84587,1.14193 0.63105,2.99936 -1.84989,2.92995c-6.8224,-0.19086 -20.1223,-0.56283 -23.93345,-0.6687c-1.98474,-0.05513 -3.98958,-1.53582 -3.7841,-2.52901c0.33097,-1.59971 1.29609,-6.26445 1.29609,-6.26445" stroke="#c69120" stroke-width="7.5"/><path d="M199.26547,217.87052c0,0 2.64239,3.56723 3.73022,5.0358c0.84587,1.14194 0.63105,2.99936 -1.84989,2.92996c-6.8224,-0.19086 -20.1223,-0.56284 -23.93345,-0.66871c-1.98474,-0.05513 -3.98958,-1.53582 -3.78409,-2.52901c0.33097,-1.59971 1.29609,-6.26445 1.29609,-6.26445" stroke="#ffcf69" stroke-width="4"/></g><path d="M183.37376,208.46049v-26.29859c0,0 35.8712,0 42.63139,0c2.10982,0 4.15241,2.74363 4.15241,4.98289c0,4.63141 0,21.3157 0,21.3157z" fill="#715729" fill-rule="nonzero" stroke="#001026" stroke-width="1.2" stroke-linecap="butt" stroke-linejoin="miter"/><path d="M184.22173,207.14255v-20.57621c0,0 28.0659,0 33.35512,0c1.65073,0 3.24888,2.14664 3.24888,3.89865c0,3.62365 0,16.67756 0,16.67756z" fill="#b98d42" fill-rule="nonzero" stroke="#001026" stroke-width="1.2" stroke-linecap="butt" stroke-linejoin="miter"/><path d="M215.34966,180.01097c0.40574,0.32459 5.35574,6.16721 6.97869,4.70656c1.94754,-1.7041 4.62541,-5.03115 7.54672,-2.35328c2.92131,2.67787 -2.59672,7.22213 -4.95,8.43934c-5.59918,2.51557 -10.14344,-2.27213 -11.11721,-3.57049c-0.97377,-1.29836 -2.67787,-3.48934 -2.67787,-5.59918c0.08115,-2.27213 2.84016,-2.84016 4.21967,-1.62295z" fill="#ffab19" fill-rule="evenodd" stroke="#001026" stroke-width="1.2" stroke-linecap="round" stroke-linejoin="round"/><g fill-rule="evenodd"><path d="M198.24801,194.74219c0.38356,0.53761 1.18133,1.71265 -1.56017,3.1007c-2.7415,1.38805 -7.4849,-0.54152 -8.00679,-0.81819c-2.05692,-1.00684 -4.5359,-2.32099 -6.79168,-4.68679c-6.57554,-6.82859 -2.1104,-15.40916 1.16007,-15.43039c3.20523,-0.05581 1.51303,5.81626 3.40647,10.91491c0.80485,2.2652 2.42005,3.79 3.81281,4.94617c2.01054,1.56724 7.56507,1.33615 7.97929,1.97358z" fill="#ffab19" stroke="#001026" stroke-width="1.2" stroke-linecap="round" stroke-linejoin="round"/><path d="M184.87058,180.88145c0.11004,2.31471 0.81822,5.86578 0.81822,5.86578c0,0 -2.1025,-1.8667 -4.06038,-1.48392c-1.5586,0.26016 -2.05848,1.8337 -2.17009,2.35952c-0.3985,-1.29765 -0.81979,-3.02524 -0.26174,-5.65435c0.55804,-2.62911 2.66289,-5.02321 4.17512,-4.72297c1.44306,0.43071 1.2505,1.58218 1.49887,3.63595z" fill="#ffffff" stroke="none" stroke-width="1" stroke-linecap="butt" stroke-linejoin="miter"/></g><path d="M203.61394,201.82565c-1.37185,0.91457 -6.09711,4.26798 -12.11801,6.17333l-0.30486,0.07621c-0.30486,0.07621 -0.45728,0.45728 -0.30486,0.76214c1.29564,1.82913 3.65827,5.4874 -0.5335,6.78304c-4.03934,1.29564 -11.58452,-9.45053 -8.38353,-12.27044c1.44806,-1.06699 2.7437,-0.5335 3.42963,-0.22864c0.38107,0.15243 0.76214,0.15243 1.14321,0.07621c0.91457,-0.30486 2.59127,-0.91457 3.88691,-1.60049c3.2772,-1.67671 4.03934,-2.36263 5.56362,-3.50584c1.52428,-1.14321 5.03012,-3.96312 7.85003,-1.52428c2.43885,2.05778 1.06699,4.34419 -0.22864,5.25876z" fill="#ffab19" fill-rule="evenodd" stroke="#001026" stroke-width="1.2" stroke-linecap="round" stroke-linejoin="round"/><g fill-rule="evenodd"><path d="M218.67437,198.88884c2.14741,1.20237 6.80049,3.61426 6.80049,3.61426c0,0 11.62935,-4.89068 13.02546,1.20873c0.83379,3.6427 -5.07172,5.88595 -13.46349,7.0044c-0.52767,0.03163 -1.07474,-0.02146 -1.57587,-0.26336c-2.23213,-1.18298 -8.65498,-4.70537 -12.79976,-7.2336c-6.12277,-3.76938 -11.0106,-6.03838 -11.0106,-6.03838c-8.8101,-5.38308 -3.64349,-9.68601 -2.28696,-14.27583c1.32284,-3.95804 2.40982,-3.49362 7.72535,-3.64048c2.97723,-0.2357 4.72968,-0.36937 6.574,-0.88067c2.77617,-0.7246 3.19863,3.45802 2.92096,5.75038c0,0 -0.46855,3.40589 -1.20142,5.26753c-0.90944,2.25867 -1.63516,3.76207 -2.47721,4.75718z" fill="#ffab19" stroke="#001026" stroke-width="1.2" stroke-linecap="round" stroke-linejoin="round"/><path d="M210.1235,194.2488c0,0 -1.5034,-0.72571 -3.14968,-1.68618c-2.04331,-1.13704 -4.02845,-2.01995 -2.93527,-5.03389c1.05948,-2.38216 1.87913,-5.42265 6.25358,-3.83851c4.16625,1.45349 3.04144,3.93976 3.04144,3.93976c-0.99114,4.23872 -3.21008,6.61882 -3.21008,6.61882z" fill="#ffffff" stroke="none" stroke-width="1" stroke-linecap="butt" stroke-linejoin="miter"/></g><path d="M194.41765,188.32761c1.65888,2.11131 4.22261,4.75044 0.98025,6.93715c-4.44883,2.48833 -8.14361,-5.05206 -8.89765,-7.69119c-0.67863,-2.33752 1.28187,-3.8456 2.94075,-5.12746c3.24236,-2.33752 5.9569,-4.44883 8.97306,-3.31777c3.77019,1.35727 1.05565,4.37342 -0.82944,5.73069c-1.13106,0.82944 -2.26211,1.73429 -3.09156,2.26211c-0.22621,0.37702 -0.30162,0.82944 -0.0754,1.20646z" fill="#ffab19" fill-rule="evenodd" stroke="#001026" stroke-width="1.2" stroke-linecap="round" stroke-linejoin="round"/><path d="M209.4315,135.71425c0.22025,-0.16118 0.60167,-0.10211 0.69053,0.19707l2.32041,8.00551c0,0 4.99543,3.34237 6.5415,5.775c2.602,4.05329 2.8266,7.45298 2.8266,7.45298c0,0 5.43871,1.35301 6.53488,5.62376c1.09617,4.27074 -1.87366,12.58362 -15.96816,16.00404c-14.0945,3.42042 -25.68231,0.06358 -31.4289,-8.3223c-5.74659,-8.38589 2.27286,-19.04131 1.84561,-18.41647l-2.18067,-13.46687c-0.08886,-0.29918 0.27931,-0.5426 0.58843,-0.4046l9.41184,5.57358c0,0 3.34672,-1.43456 6.89435,-1.7414c2.1108,-0.24394 3.93236,-0.17215 5.68491,0.05419z" fill="#ffab19" fill-rule="evenodd" stroke="#001026" stroke-width="1.2" stroke-linecap="butt" stroke-linejoin="miter"/><path d="M221.59692,157.4572c0,0 5.27753,1.13277 6.3737,5.40351c1.09617,4.27074 4.05558,20.25226 -9.89098,23.59044c-1.55449,0.39278 -1.92738,0.67468 -3.34707,0.85663c-2.91635,0.37376 -9.1122,2.11101 -11.41974,1.73605c-1.07747,-0.17508 -5.50193,-3.26472 -7.48339,-6.27829c-1.56419,-2.37895 -0.76508,-4.79459 -1.41294,-5.10981c-5.90005,-2.87067 -7.96513,-8.53331 -5.17774,-13.40248c4.71246,-8.3134 13.71029,-1.81249 20.0427,-2.54431c5.42825,-0.61648 5.82466,-5.40717 12.31546,-4.25174z" fill="#ffffff" fill-rule="evenodd" stroke="none" stroke-width="1" stroke-linecap="butt" stroke-linejoin="miter"/><path d="M198.13013,166.59166c-0.01324,-0.30249 0.27931,-0.5426 0.58511,-0.48022c1.46,0.46645 5.59657,1.49764 10.14715,1.60149c4.09354,0.04809 6.50352,-0.28471 7.62792,-0.56124c0.3748,-0.09218 0.69384,0.27269 0.55915,0.65743c-0.59121,2.0716 -3.21657,7.86907 -11.17677,7.76295c-6.91474,-0.45496 -7.80721,-5.26499 -7.74257,-8.98041z" fill="#ffffff" fill-rule="evenodd" stroke="#001026" stroke-width="1.2" stroke-linecap="round" stroke-linejoin="round"/><path d="M235.54784,157.67989c-3.42844,3.02925 -8.86994,3.34323 -8.86994,3.34323" fill="none" fill-rule="evenodd" stroke="#001026" stroke-width="1.2" stroke-linecap="round" stroke-linejoin="round"/><path d="M234.93553,166.19266c-4.74765,0.58668 -7.75982,-0.72103 -7.75982,-0.72103" fill="none" fill-rule="evenodd" stroke="#001026" stroke-width="1.2" stroke-linecap="round" stroke-linejoin="round"/><path d="M208.89289,159.75604c1.58807,-0.06952 3.25838,0.00889 3.35718,0.53493c0.12197,1.0554 -0.91967,3.22249 -2.12631,3.35108c-1.35458,0.21084 -4.61348,-1.54068 -4.66645,-2.75063c-0.11535,-0.90416 1.92314,-1.06917 3.43559,-1.13538z" fill="#001026" fill-rule="evenodd" stroke="#001026" stroke-width="1.2" stroke-linecap="round" stroke-linejoin="round"/><path d="M174.8132,160.11147c0,0 6.59621,1.83271 9.34562,4.06113" fill="none" fill-rule="evenodd" stroke="#001026" stroke-width="1.2" stroke-linecap="round" stroke-linejoin="round"/><path d="M184.50156,166.80946c-3.19548,1.42794 -8.82795,0.84108 -8.82795,0.84108" fill="none" fill-rule="evenodd" stroke="#001026" stroke-width="1.2" stroke-linecap="round" stroke-linejoin="round"/><g fill-rule="evenodd"><path d="M217.42898,150.51756c2.34202,3.307 2.58649,7.16042 0.52865,8.61432c-2.05783,1.4539 -5.60598,0.01812 -8.02363,-3.28557c-2.34202,-3.307 -2.58649,-7.16042 -0.52865,-8.61432c2.05452,-1.52952 5.6816,-0.02143 8.02363,3.28557z" fill="#ffffff" stroke="#001026" stroke-width="1.2" stroke-linecap="round" stroke-linejoin="round"/><path d="M217.3152,154.84129c0.03642,0.83185 -0.53877,1.53893 -1.29499,1.57204c-0.75622,0.03311 -1.391,-0.62101 -1.42741,-1.45285c-0.03642,-0.83185 0.53877,-1.53893 1.29499,-1.57204c0.75622,-0.03311 1.391,0.62101 1.42741,1.45285" fill="#001026" stroke="none" stroke-width="1" stroke-linecap="butt" stroke-linejoin="miter"/></g><g fill-rule="evenodd"><path d="M198.76735,153.45603c2.41434,3.22806 2.44186,7.31829 0.46296,8.8445c-2.43263,1.54607 -5.80636,0.63303 -8.2207,-2.59503c-2.48996,-3.22475 -2.82991,-7.5286 -0.55845,-9.29492c2.26815,-1.84194 5.90185,-0.18261 8.31619,3.04546z" fill="#ffffff" stroke="#001026" stroke-width="1.2" stroke-linecap="round" stroke-linejoin="round"/><path d="M198.50563,157.86199c0.03642,0.83185 -0.53877,1.53893 -1.29499,1.57204c-0.75622,0.03311 -1.391,-0.62101 -1.42741,-1.45285c-0.03642,-0.83185 0.53877,-1.53893 1.29499,-1.57204c0.75953,0.04252 1.391,0.62101 1.42741,1.45285" fill="#001026" stroke="none" stroke-width="1" stroke-linecap="butt" stroke-linejoin="miter"/></g><path d="M185.34148,211.29458v-18.50641c0,0 35.70513,0 42.43402,0c2.10005,0 4.13318,1.9307 4.13318,3.50648c0,3.25914 0,14.99994 0,14.99994z" fill="#c19446" fill-rule="nonzero" stroke="#001026" stroke-width="1.2" stroke-linecap="butt" stroke-linejoin="miter"/><path d="M165.67998,206.43323c-2.34756,-5.68016 0.59276,-12.35885 -1.34555,-18.11229c-1.67048,-4.95844 -8.39935,-9.22965 -8.39935,-11.58223c0,-4.20144 15.26434,-5.8709 15.26434,-5.8709c0,0 3.74951,0.95907 5.94733,5.69937c2.08165,4.48972 7.83238,5.65037 10.25238,10.74218c2.50015,5.26042 1.68248,14.38069 4.64199,14.38069c6.08733,0 22.25708,3.83695 33.82304,-1.62281c10.26847,-4.84728 -11.12833,-20.54978 -4.87701,-26.97906c3.99955,-4.11342 23.6854,-3.33873 33.52983,-2.66983c3.40039,0.23104 6.63503,2.95536 8.03926,6.31915c1.62971,3.9039 3.79253,8.9633 5.5308,12.6021c2.49223,5.21707 7.42801,14.81792 10.7403,21.21024c1.94635,3.75621 -0.145,6.47814 -5.78233,6.59745c-20.27363,0.42907 -68.48637,1.44944 -83.38537,1.76477c-8.50663,0.18004 -20.9843,-5.23123 -23.97966,-12.47881z" fill="url(#color-1)" fill-rule="nonzero" stroke="#9c4040" stroke-width="2" stroke-linecap="butt" stroke-linejoin="miter"/><path d="M208.9953,143.24183c-3.76841,3.29936 -9.56171,4.93719 -14.4761,4.41569c-6.16485,-0.6542 -7.92648,4.76197 -10.83366,-1.04515c-2.05721,-4.10929 -9.35865,-19.8291 1.16863,-18.71196c9.85655,1.04596 28.44517,11.57309 24.14112,15.34142z" fill="#6fbff2" fill-rule="nonzero" stroke="#4966b3" stroke-width="2" stroke-linecap="butt" stroke-linejoin="miter"/><path d="M186.60424,128.08657c0,3.58861 -3.394,6.49775 -7.58071,6.49775c-4.18671,0 -7.58071,-2.90914 -7.58071,-6.49775c0,-3.58861 3.394,-6.49775 7.58071,-6.49775c4.18671,0 7.58071,2.90914 7.58071,6.49775z" fill="url(#color-2)" fill-rule="nonzero" stroke="#87bbc8" stroke-width="2" stroke-linecap="butt" stroke-linejoin="miter"/><g fill-rule="nonzero" stroke-linejoin="miter"><path d="M236.4846,181.20747c0,1.32535 -0.99767,2.39975 -2.22835,2.39975c-1.23069,0 -2.22834,-1.0744 -2.22834,-2.39975c0,-1.32535 0.99766,-2.39976 2.22834,-2.39976c1.23069,0 2.22835,1.07441 2.22835,2.39976z" fill="#ffffff" stroke="none" stroke-width="NaN" stroke-linecap="butt"/><path d="M229.87259,177.68761l8.76732,7.45115" fill="none" stroke="#ffffff" stroke-width="1.5" stroke-linecap="round"/><path d="M234.20287,187.17282l0.12072,-11.50527" fill="none" stroke="#ffffff" stroke-width="1.5" stroke-linecap="round"/><path d="M230.32107,185.8423l7.56914,-8.66567" fill="none" stroke="#ffffff" stroke-width="1.5" stroke-linecap="round"/><path d="M240.01534,181.157l-11.50421,0.1972" fill="none" stroke="#ffffff" stroke-width="1.5" stroke-linecap="round"/></g><g fill-rule="nonzero" stroke-linejoin="miter"><path d="M174.67134,204.69003c0,0.87621 -0.65957,1.5865 -1.47319,1.5865c-0.81362,0 -1.47318,-0.71029 -1.47318,-1.5865c0,-0.87621 0.65956,-1.58651 1.47318,-1.58651c0.81362,0 1.47319,0.7103 1.47319,1.58651z" fill="#ffffff" stroke="none" stroke-width="NaN" stroke-linecap="butt"/><path d="M170.30007,202.36301l5.79617,4.92604" fill="none" stroke="#ffffff" stroke-width="1.5" stroke-linecap="round"/><path d="M173.24268,201.02753l-0.07981,7.60626" fill="none" stroke="#ffffff" stroke-width="1.5" stroke-linecap="round"/><path d="M170.59657,207.75417l5.00404,-5.72897" fill="none" stroke="#ffffff" stroke-width="1.5" stroke-linecap="round"/><path d="M169.4,204.78703l7.60555,-0.13037" fill="none" stroke="#ffffff" stroke-width="1.5" stroke-linecap="round"/></g><g fill-rule="nonzero" stroke-linejoin="miter"><path d="M178.58838,186.08153c0,0.8762 -0.65956,1.5865 -1.47318,1.5865c-0.81362,0 -1.47318,-0.7103 -1.47318,-1.5865c0,-0.8762 0.65956,-1.58651 1.47318,-1.58651c0.81362,0 1.47318,0.71031 1.47318,1.58651z" fill="#ffffff" stroke="none" stroke-width="NaN" stroke-linecap="butt"/><path d="M174.21712,183.75452l5.79618,4.92603" fill="none" stroke="#ffffff" stroke-width="1.5" stroke-linecap="round"/><path d="M177.15972,182.41904l-0.07981,7.60626" fill="none" stroke="#ffffff" stroke-width="1.5" stroke-linecap="round"/><path d="M179.51765,183.4167l-5.00404,5.72897" fill="none" stroke="#ffffff" stroke-width="1.5" stroke-linecap="round"/><path d="M180.92259,186.04817l-7.60555,0.13037" fill="none" stroke="#ffffff" stroke-width="1.5" stroke-linecap="round"/></g><g fill-rule="nonzero" stroke-linejoin="miter"><path d="M232.5381,206.02637c0,0.8762 -0.65957,1.5865 -1.47319,1.5865c-0.81362,0 -1.47318,-0.7103 -1.47318,-1.5865c0,-0.8762 0.65956,-1.58651 1.47318,-1.58651c0.81362,0 1.47319,0.71031 1.47319,1.58651z" fill="#ffffff" stroke="none" stroke-width="NaN" stroke-linecap="butt"/><path d="M233.96301,208.62539l-5.79618,-4.92604" fill="none" stroke="#ffffff" stroke-width="1.5" stroke-linecap="round"/><path d="M231.10944,202.36386l-0.07981,7.60626" fill="none" stroke="#ffffff" stroke-width="1.5" stroke-linecap="round"/><path d="M233.46737,203.36153l-5.00404,5.72897" fill="none" stroke="#ffffff" stroke-width="1.5" stroke-linecap="round"/><path d="M227.26676,206.12336l7.60556,-0.13037" fill="none" stroke="#ffffff" stroke-width="1.5" stroke-linecap="round"/></g><g fill-rule="nonzero" stroke-linejoin="miter"><path d="M269.12834,206.99132c0,1.05087 -0.79105,1.90276 -1.76686,1.90276c-0.97581,0 -1.76685,-0.85189 -1.76685,-1.90276c0,-1.05087 0.79104,-1.90278 1.76685,-1.90278c0.97581,0 1.76686,0.8519 1.76686,1.90278z" fill="#ffffff" stroke="none" stroke-width="NaN" stroke-linecap="butt"/><path d="M263.88568,204.20042l6.95162,5.90802" fill="none" stroke="#ffffff" stroke-width="1.5" stroke-linecap="round"/><path d="M267.31917,211.72125l0.09572,-9.12254" fill="none" stroke="#ffffff" stroke-width="1.5" stroke-linecap="round"/><path d="M264.24128,210.66627l6.00158,-6.87102" fill="none" stroke="#ffffff" stroke-width="1.5" stroke-linecap="round"/><path d="M271.92787,206.95129l-9.1217,0.15636" fill="none" stroke="#ffffff" stroke-width="1.5" stroke-linecap="round"/></g><path d="M216.55719,210.81276c0,0 -28.52354,3.34988 -33.35512,-0.64978c-3.70699,-3.06871 -2.8708,-13.16457 -6.49775,-14.29505c-3.62695,-1.13048 -9.09685,3.46547 -9.09685,3.46547" fill="none" fill-rule="nonzero" stroke="#ffffff" stroke-width="2" stroke-linecap="round" stroke-linejoin="miter"/><path d="M246.09077,174.16118h-4.11524" fill="none" fill-rule="nonzero" stroke="#ffffff" stroke-width="2" stroke-linecap="round" stroke-linejoin="miter"/><path d="M251.06854,174.70959l3.92728,1.68312" fill="none" fill-rule="nonzero" stroke="#ffffff" stroke-width="2" stroke-linecap="round" stroke-linejoin="miter"/><path d="M260.33148,183.02849l-1.95835,-3.56063" fill="none" fill-rule="nonzero" stroke="#ffffff" stroke-width="2" stroke-linecap="round" stroke-linejoin="miter"/><path d="M261.93375,186.94518l2.67047,5.16291" fill="none" fill-rule="nonzero" stroke="#ffffff" stroke-width="2" stroke-linecap="round" stroke-linejoin="miter"/><path d="M242.17226,207.9529c0,0 2.71734,-0.71213 4.62882,-0.71213c1.13006,0 3.06473,0.82603 4.9797,0.96272c2.87328,0.2051 5.70219,-0.2506 5.70219,-0.2506" fill="none" fill-rule="nonzero" stroke="#ffffff" stroke-width="2" stroke-linecap="round" stroke-linejoin="miter"/><path d="M194.66254,179.15841c0,0 -0.11575,3.25934 1.23345,4.8161c1.3492,1.55677 4.01302,4.55041 7.57499,4.69842c2.69692,0.11207 18.3718,-3.94791 18.3718,-3.94791" fill="none" fill-rule="nonzero" stroke="#001026" stroke-width="1.5" stroke-linecap="round" stroke-linejoin="miter"/><path d="M228.60867,165.88004l0.10547,3.37509" fill="none" fill-rule="nonzero" stroke="#001026" stroke-width="1.2" stroke-linecap="round" stroke-linejoin="miter"/><path d="M201.71343,179.16946l4.74622,8.12131" fill="none" fill-rule="nonzero" stroke="#becfd1" stroke-width="1.5" stroke-linecap="round" stroke-linejoin="miter"/><path d="M208.35814,178.00927l5.06263,7.59395" fill="none" fill-rule="nonzero" stroke="#c0cfd1" stroke-width="1.5" stroke-linecap="round" stroke-linejoin="miter"/><path d="M215.31926,176.32173l4.32433,7.69942" fill="none" fill-rule="nonzero" stroke="#b4ced1" stroke-width="1" stroke-linecap="round" stroke-linejoin="miter"/></g></g></svg>