<svg version="1.1" xmlns="http://www.w3.org/2000/svg" xmlns:xlink="http://www.w3.org/1999/xlink" width="117.82172" height="109.65699" viewBox="0,0,117.82172,109.65699"><g transform="translate(-187.44222,-121.86099)"><g data-paper-data="{&quot;isPaintingLayer&quot;:true}" stroke-miterlimit="10" stroke-dasharray="" stroke-dashoffset="0" style="mix-blend-mode: normal"><path d="M201.41423,230.51798v-12.08064h23.97341v12.08064z" fill="#8cbcff" fill-rule="nonzero" stroke="#364963" stroke-width="2" stroke-linecap="butt" stroke-linejoin="miter"/><path d="M244.79857,214.38358v-12.08063h22.9737v12.08063z" fill="#8cbcff" fill-rule="nonzero" stroke="#364963" stroke-width="2" stroke-linecap="butt" stroke-linejoin="miter"/><path d="M281.53327,195.78487v-11.61724h22.73067v11.61724z" fill="#8cbcff" fill-rule="nonzero" stroke="#364963" stroke-width="2" stroke-linecap="butt" stroke-linejoin="miter"/><g><path d="M264.17508,158.53895c-4.46076,2.16063 -10.2299,0.90104 -10.2299,0.90104" fill="none" fill-rule="evenodd" stroke="#000000" stroke-width="1.2" stroke-linecap="round" stroke-linejoin="round"/><path d="M261.05318,167.24238c-5.12473,-0.77269 -7.88614,-3.01573 -7.88614,-3.01573" fill="none" fill-rule="evenodd" stroke="#000000" stroke-width="1.2" stroke-linecap="round" stroke-linejoin="round"/><g><path d="M225.83438,182.06863c-0.95708,-1.48786 -3.19555,-3.61251 -3.53275,-5.52974c0,0 0.88801,-1.49507 1.31635,-1.90011c0.58398,-0.55222 2.16772,-2.08909 2.16772,-2.08909l0.94124,0.12894c0.74944,-0.08301 7.02749,6.21167 7.68699,6.22566c5.58839,0.11851 7.78655,3.13404 7.44537,4.5455c-0.88913,3.82374 -4.4072,5.36127 -12.38307,1.8613z" fill="#ffab19" fill-rule="nonzero" stroke="#000000" stroke-width="1.2" stroke-linecap="round" stroke-linejoin="round"/><path d="M222.90195,184.27557l2.80931,13.53678c0,0 5.45226,-2.70917 6.49204,4.26305c0.37606,2.28654 -8.25432,3.94115 -10.69924,4.08483c-2.33628,0.12047 -3.40746,-0.69209 -3.59985,-2.64011c-0.48872,-3.87195 -3.06142,-13.73861 -3.06142,-13.73861" data-paper-data="{&quot;index&quot;:null}" fill="#ffab19" fill-rule="nonzero" stroke="#000000" stroke-width="1.2" stroke-linecap="round" stroke-linejoin="round"/><g fill-rule="evenodd"><path d="M212.55239,180.29544c0.56453,0.46831 1.75487,1.50338 -0.7945,3.77242c-2.54937,2.26904 -8.19052,1.54447 -8.82947,1.39564c-2.49453,-0.49685 -5.52953,-1.20378 -8.62356,-3.10329c-8.99981,-5.46438 -6.6426,-15.94576 -3.13706,-16.89746c3.42568,-0.9703 3.27655,5.81531 6.75774,10.75207c1.50756,2.2036 3.67492,3.38205 5.49875,4.22788c2.60391,1.11174 8.5023,-0.71403 9.1281,-0.14726z" fill="#ffab19" stroke="#000000" stroke-width="1.2" stroke-linecap="round" stroke-linejoin="round"/><path d="M194.2519,169.21239c0.7756,2.45411 2.54459,6.06582 2.54459,6.06582c0,0 -2.7877,-1.40715 -4.7812,-0.44006c-1.59961,0.72203 -1.68942,2.55355 -1.65991,3.14984c-0.79644,-1.28014 -1.73947,-3.01543 -1.88703,-5.99686c-0.14756,-2.98143 1.43248,-6.14988 3.14147,-6.25702c1.67179,0.0526 1.79207,1.34365 2.64208,3.47828z" fill="#ffffff" stroke="none" stroke-width="1" stroke-linecap="butt" stroke-linejoin="miter"/></g><g fill-rule="evenodd"><path d="M222.00407,188.62527c-2.25245,0.991 -7.30174,0.12547 -7.30174,0.12547c-8.98742,-3.76085 -4.78383,-8.51332 -4.17503,-12.98842c0.66774,-3.881 1.53708,-6.62694 6.47404,-7.52421c2.74324,-0.64569 4.56964,2.00262 6.21676,1.26192c2.48579,-1.07294 3.47807,2.76789 3.54697,4.94578c0,0 0.05012,3.24379 -0.36717,5.08503c-0.52521,2.23681 -1.04553,4.93527 -1.68861,5.9839c0,0 -0.45276,2.11955 -2.70522,3.11053z" fill="#ffab19" stroke="#000000" stroke-width="1.2" stroke-linecap="round" stroke-linejoin="round"/><path d="M223.7678,186.20608c0,0 -1.80385,0.34588 -3.47677,-0.3145c-3.62842,-1.13165 -3.46502,-3.80376 -2.87646,-6.77133c0.64748,-2.37346 0.97711,-5.32666 5.28389,-4.47477c4.09389,0.75981 3.40036,3.23972 3.40036,3.23972c-0.31819,4.09535 -2.33101,8.32089 -2.33101,8.32089z" fill="#ffffff" stroke="none" stroke-width="1" stroke-linecap="butt" stroke-linejoin="miter"/></g><path d="M214.417,188.74963l-4.73388,8.90897c0,0 5.89765,1.51148 2.12927,7.46903c-1.20929,1.97669 -8.82384,-2.40964 -10.7686,-3.89833c-1.84735,-1.43528 -2.12735,-2.7503 -1.00019,-4.35071c2.15988,-3.2505 8.95106,-16.13689 8.95106,-16.13689" data-paper-data="{&quot;index&quot;:null}" fill="#ffab19" fill-rule="nonzero" stroke="#000000" stroke-width="1.2" stroke-linecap="round" stroke-linejoin="round"/><g data-paper-data="{&quot;index&quot;:null}" fill="#ffab19" fill-rule="nonzero" stroke="#000000" stroke-width="1.2" stroke-linecap="round" stroke-linejoin="round"><path d="M220.67709,179.71167c-0.46057,0.02278 -6.309,3.48517 -6.72428,3.41011c-2.92697,-1.72993 -3.90473,-3.62467 -3.97569,-7.18949c-0.03771,-1.894 -0.1936,-5.19339 0.57499,-7.13104c0,0 0.95602,-0.75949 1.57397,-0.88844c0.84249,-0.17581 3.14935,-0.68842 3.14935,-0.68842"/><path d="M217.62458,173.48143c0.73004,0.34494 1.35894,3.99775 1.95251,4.38066c5.02969,3.24467 5.34173,7.22837 4.23838,8.32403c-2.95698,2.98793 -7.02817,2.41545 -12.33715,-5.25288"/></g><path d="M243.33284,128.00265c0.27681,-0.10393 0.65755,0.06896 0.66301,0.40704l0.08599,9.02963c0,0 4.23722,4.94445 5.1408,7.93358c1.53259,4.98809 0.77529,8.60077 0.77529,8.60077c0,0 5.27999,2.9981 5.178,7.77385c-0.10199,4.77575 -5.62539,12.58299 -21.32901,12.04064c-15.70361,-0.54235 -26.81498,-7.42479 -30.36483,-17.85066c-3.54985,-10.42587 7.92552,-19.20438 7.29748,-18.67705l1.65282,-14.68714c-0.00546,-0.33808 0.44969,-0.48467 0.73196,-0.25051l8.1944,8.56065c0,0 3.91034,-0.5206 7.70137,0.19403c2.27353,0.36117 4.15316,0.96739 5.91572,1.71474z" fill="#ffab19" fill-rule="evenodd" stroke="#000000" stroke-width="1.2" stroke-linecap="butt" stroke-linejoin="miter"/><path d="M249.68391,154.23733c0,0 5.17606,2.72129 5.07408,7.49703c-0.10199,4.77575 -5.85185,12.10923 -21.37712,11.52422c-20.25836,-0.50866 -26.76432,-14.14914 -19.44114,-21.36876c7.34178,-7.29949 14.83373,2.10796 21.65431,3.19146c5.84355,0.94012 7.65453,-3.94277 14.08988,-0.84396z" fill="#ffffff" fill-rule="evenodd" stroke="none" stroke-width="1" stroke-linecap="butt" stroke-linejoin="miter"/><path d="M235.75825,152.93029c1.67724,0.39068 3.39714,0.95969 3.34678,1.53738c-0.18058,1.13676 -1.89951,3.09403 -3.19601,2.87624c-1.47484,-0.17513 -4.36423,-2.95319 -4.06657,-4.23109c0.14338,-0.97703 2.31843,-0.5546 3.9158,-0.18253z" fill="#000000" fill-rule="evenodd" stroke="#000000" stroke-width="1.2" stroke-linecap="round" stroke-linejoin="round"/><path d="M200.09647,143.36062c0,0 6.34779,3.83623 8.56647,6.96328" fill="none" fill-rule="evenodd" stroke="#000000" stroke-width="1.2" stroke-linecap="round" stroke-linejoin="round"/><path d="M208.25142,153.17512c-3.75061,0.55781 -9.45624,-1.69742 -9.45624,-1.69742" fill="none" fill-rule="evenodd" stroke="#000000" stroke-width="1.2" stroke-linecap="round" stroke-linejoin="round"/><g fill-rule="evenodd"><path d="M247.35936,145.7809c1.47902,4.13359 0.61011,8.22549 -1.96108,9.14222c-2.57118,0.91673 -5.85446,-1.61627 -7.41335,-5.76847c-1.47902,-4.13359 -0.61011,-8.22549 1.96108,-9.14222c2.58979,-0.9966 5.93433,1.63488 7.41335,5.76847z" fill="#ffffff" stroke="#000000" stroke-width="1.2" stroke-linecap="round" stroke-linejoin="round"/><path d="M245.97948,150.25899c-0.20464,0.87855 -1.01102,1.44854 -1.8097,1.2625c-0.79868,-0.18604 -1.2702,-1.05368 -1.06556,-1.93224c0.20464,-0.87855 1.01102,-1.44854 1.80971,-1.2625c0.79868,0.18604 1.2702,1.05368 1.06556,1.93224" fill="#000000" stroke="none" stroke-width="1" stroke-linecap="butt" stroke-linejoin="miter"/></g><g fill-rule="evenodd"><path d="M227.03107,143.40352c1.5775,4.07232 0.41316,8.34802 -2.09676,9.36322c-2.98913,0.90358 -6.24289,-1.03314 -7.82039,-5.10546c-1.65736,-4.09093 -0.7567,-8.68065 2.12851,-9.86104c2.90381,-1.26026 6.21114,1.53096 7.78864,5.60328z" fill="#ffffff" stroke="#000000" stroke-width="1.2" stroke-linecap="round" stroke-linejoin="round"/><path d="M225.47284,147.92427c-0.20464,0.87855 -1.01102,1.44854 -1.80971,1.2625c-0.79868,-0.18604 -1.2702,-1.05368 -1.06556,-1.93224c0.20464,-0.87855 1.01102,-1.44854 1.80971,-1.2625c0.78008,0.26591 1.2702,1.05368 1.06556,1.93224" fill="#000000" stroke="none" stroke-width="1" stroke-linecap="butt" stroke-linejoin="miter"/></g><path d="M221.28792,156.93445l11.50391,3.95728" fill="none" fill-rule="nonzero" stroke="#000000" stroke-width="1.2" stroke-linecap="round" stroke-linejoin="miter"/></g></g></g></g></svg>