<svg version="1.1" xmlns="http://www.w3.org/2000/svg" xmlns:xlink="http://www.w3.org/1999/xlink" width="231.72728" height="193.85869" viewBox="0,0,231.72728,193.85869"><g transform="translate(-124.13636,-83.88078)"><g data-paper-data="{&quot;isPaintingLayer&quot;:true}" fill-rule="nonzero" stroke-miterlimit="10" stroke-dasharray="" stroke-dashoffset="0" style="mix-blend-mode: normal"><path d="M332.67098,193.6323c-14.81658,64.11654 -68.51065,84.6088 -108.88989,79.50781c-40.37925,-5.10097 -66.45163,-50.35332 -53.9187,-100.54179c12.53293,-50.18845 58.9252,-86.30763 99.30444,-81.20665c40.37925,5.10097 76.03708,52.05216 63.50415,102.24063z" fill="none" stroke="#ccc48a" stroke-width="2.5" stroke-linecap="butt" stroke-linejoin="miter"/><path d="M332.29087,194.45981c-14.81658,65.73541 -68.51065,86.74507 -108.8899,81.51529c-40.37925,-5.22977 -66.45163,-51.62469 -53.9187,-103.08036c12.53292,-51.45565 58.9252,-88.4868 99.30444,-83.25702c40.37925,5.22977 76.03708,53.36642 63.50415,104.82209z" fill="#fff5ad" stroke="#ccc48a" stroke-width="2" stroke-linecap="butt" stroke-linejoin="miter"/><path d="" fill="#6f9f54" stroke="none" stroke-width="2" stroke-linecap="butt" stroke-linejoin="miter"/><g stroke-width="2" stroke-linejoin="miter"><path d="" fill="#1fa2de" stroke="#0067db" stroke-linecap="butt"/><path d="" fill="#f0f0f0" stroke="#bcbcbc" stroke-linecap="butt"/><path d="" fill="none" stroke="#bcbcbc" stroke-linecap="round"/><path d="" fill="none" stroke="#bcbcbc" stroke-linecap="round"/><g fill="none" stroke="#d3d3d3" stroke-linecap="round"><path d=""/><path d=""/><path d=""/></g><path d="" fill="#f0f0f0" stroke="#bcbcbc" stroke-linecap="butt"/></g><g stroke-width="2" stroke-linejoin="miter"><path d="" fill="#1fa2de" stroke="#0067db" stroke-linecap="butt"/><path d="" fill="#f0f0f0" stroke="#bcbcbc" stroke-linecap="butt"/><path d="" fill="none" stroke="#bcbcbc" stroke-linecap="round"/><path d="" fill="none" stroke="#bcbcbc" stroke-linecap="round"/><g fill="none" stroke="#d3d3d3" stroke-linecap="round"><path d=""/><path d=""/><path d=""/></g><path d="" fill="#f0f0f0" stroke="#bcbcbc" stroke-linecap="butt"/></g><path d="M354.86364,110.69189c0,14.25508 -11.81867,25.81111 -26.39773,25.81111c-14.57906,0 -26.39773,-11.55603 -26.39773,-25.81111c0,-14.25508 11.81867,-25.81111 26.39773,-25.81111c14.57906,0 26.39773,11.55603 26.39773,25.81111z" fill="#ffadad" stroke="#cc8b8b" stroke-width="2" stroke-linecap="butt" stroke-linejoin="miter"/><path d="M157.86364,197.50299c0,8.83655 -7.32625,16 -16.36364,16c-9.03739,0 -16.36364,-7.16345 -16.36364,-16c0,-8.83655 7.32625,-16 16.36364,-16c9.03739,0 16.36364,7.16345 16.36364,16z" fill="#adffc8" stroke="#8fcc8b" stroke-width="2" stroke-linecap="butt" stroke-linejoin="miter"/><path d="M191.86364,244.08076c0,13.48802 -11.1827,24.42222 -24.97727,24.42222c-13.79457,0 -24.97727,-10.93421 -24.97727,-24.42222c0,-13.48802 11.1827,-24.42222 24.97727,-24.42222c13.79457,0 24.97727,10.93421 24.97727,24.42222z" fill="#adc7ff" stroke="#8ba9cc" stroke-width="2" stroke-linecap="butt" stroke-linejoin="miter"/><path d="M299.04047,222.97249l-41.75268,24.5256c-0.36741,0.21553 -0.79927,0.35665 -1.24973,0.42321c-2.6025,0.58502 -5.33058,0.12982 -7.60213,-1.26849l-65.97099,-40.48405c-0.82961,-0.48166 -0.73116,-1.32916 0.22377,-1.89105l41.75268,-24.52559c0.95451,-0.56188 2.40764,-0.63182 3.23726,-0.15058l71.58519,41.48032c0.82961,0.48125 0.72201,1.33837 -0.22336,1.89063z" data-paper-data="{&quot;index&quot;:null}" fill="#989898" stroke="none" stroke-width="1" stroke-linecap="butt" stroke-linejoin="miter" opacity="0.34"/><path d="M306.24821,216.07703l-1.76223,1.13286l-0.7448,-2.53025l2.69533,-0.00908zM243.78675,125.08902l1.7622,-1.14161l3.04525,2.87604l-3.77853,0.6085z" data-paper-data="{&quot;index&quot;:null}" fill="#463757" stroke="none" stroke-width="1" stroke-linecap="butt" stroke-linejoin="miter"/><path d="M304.15049,216.66854l-74.00123,-41.28122c-1.63768,-0.90869 -2.44884,-3.44179 -1.81791,-5.6117l12.89849,-44.12882c0.63093,-2.1699 2.49397,-3.20351 4.13164,-2.29481l74.19623,41.6482c1.63725,0.9087 2.12684,2.58522 1.48585,4.76444l-12.77106,44.60914c-0.6309,2.17962 -2.48428,3.21319 -4.122,2.29478z" data-paper-data="{&quot;index&quot;:null}" fill="#5b78b7" stroke="none" stroke-width="1" stroke-linecap="butt" stroke-linejoin="miter"/><path d="M302.04932,217.27396c0,0 -53.02121,-30.72329 -63.50609,-36.79879c-3.4513,-1.99987 -6.88106,-3.98725 -6.88106,-3.98725c-1.5577,-0.89779 -2.3295,-3.40001 -1.72969,-5.5433l12.2622,-43.58765c0.59981,-2.14329 2.372,-3.16403 3.92929,-2.26624l71.06035,41.24904c1.5577,0.89779 1.87446,2.10744 1.26551,4.25994l-12.47082,44.40758c-0.60937,2.15292 -2.37197,3.17363 -3.9297,2.26667z" data-paper-data="{&quot;index&quot;:null}" fill="#e4edff" stroke="none" stroke-width="1" stroke-linecap="butt" stroke-linejoin="miter"/><path d="M233.75809,157.32862l8.42619,-29.97163c0.59981,-2.14329 2.37201,-3.16446 3.92929,-2.26624l45.34605,26.32674z" data-paper-data="{&quot;index&quot;:null}" fill-opacity="0.62" fill="#ffffff" stroke="none" stroke-width="1" stroke-linecap="butt" stroke-linejoin="miter"/><path d="M302.15443,221.37021l-41.39553,24.11457c-0.95451,0.56188 -2.40783,0.57595 -3.23744,0.09471l-71.59515,-41.5916c-0.27653,-0.1575 -0.45187,-0.35244 -0.52678,-0.80829l-0.09006,-2.10387l0.63541,0.25843l4.50933,-2.23109l0.00164,0.48403l29.68962,-17.36196c0.94575,-0.56185 2.59191,-0.63244 3.42153,-0.1512l68.79266,39.86001l0.59329,1.36673l10.29099,-6.10537l0.00781,2.31843c0,0 0.01347,1.27572 -1.09732,1.85647z" data-paper-data="{&quot;index&quot;:null}" fill="#4b6499" stroke="none" stroke-width="1" stroke-linecap="butt" stroke-linejoin="miter"/><path d="M302.15443,221.37021l-41.39546,24.13333c-0.47726,0.28094 -1.07464,0.42262 -1.66328,0.43377c-0.58864,0.01116 -1.15939,-0.10782 -1.5742,-0.34824l1.09601,-43.20566l33.74216,19.55052l0.59329,1.36673l10.29099,-6.10537l0.00781,2.31843c0,0 0.01347,1.27572 -1.09732,1.85647z" data-paper-data="{&quot;index&quot;:null}" fill="#5b78b7" stroke="none" stroke-width="1" stroke-linecap="butt" stroke-linejoin="miter"/><path d="M302.46819,218.96689l-41.75268,24.5256c-0.95493,0.56188 -2.40806,0.63182 -3.23767,0.15058l-71.58518,-41.48032c-0.82961,-0.48125 -0.73116,-1.32874 0.22377,-1.89063l41.75268,-24.5256c0.95451,-0.56188 2.40764,-0.63182 3.23726,-0.15057l71.58519,41.48032c0.82959,0.47207 0.72199,1.32878 -0.22335,1.89063z" data-paper-data="{&quot;index&quot;:null}" fill="#a4baea" stroke="none" stroke-width="1" stroke-linecap="butt" stroke-linejoin="miter"/><path d="M227.84318,187.35685c-0.10109,0.0658 -0.31256,0.03858 -0.46921,-0.05428l-4.35023,-2.51769c-0.15666,-0.09244 -0.20334,-0.2136 -0.09308,-0.27901l2.86436,-1.68565c0.10109,-0.06538 0.31256,-0.03816 0.46921,0.05428l4.35023,2.51769c0.15666,0.09286 0.20334,0.21361 0.09307,0.27902zM232.9003,194.89097c-0.10109,0.0658 -0.31256,0.03858 -0.46963,-0.05428l-4.34981,-2.51769c-0.15707,-0.09244 -0.20334,-0.21361 -0.09308,-0.27902l2.86436,-1.68564c0.10071,-0.05621 0.31256,-0.03816 0.46922,0.05428l4.35023,2.51769c0.15666,0.09286 0.20292,0.21361 0.10225,0.27899zM230.36442,198.04639c-0.10109,0.0658 -0.31255,0.03857 -0.46963,-0.05429l-4.34982,-2.51769c-0.15707,-0.09244 -0.20334,-0.21361 -0.09307,-0.27902l2.87354,-1.68568c0.10071,-0.05621 0.31255,-0.03816 0.46921,0.05428l4.35024,2.5181c0.15666,0.09244 0.20292,0.21319 0.10221,0.2694zM223.48578,198.67492c-0.10112,0.05621 -0.31256,0.03816 -0.46921,-0.05429l-4.35023,-2.51769c-0.15666,-0.09286 -0.19375,-0.21364 -0.09305,-0.26984l2.86436,-1.68565c0.10112,-0.05621 0.31256,-0.03816 0.46921,0.05428l4.35023,2.5181c0.15666,0.09244 0.19416,0.21322 0.09307,0.2786zM211.53993,196.9462c-0.10109,0.06538 -0.31256,0.03816 -0.46921,-0.05428l-4.35023,-2.51769c-0.15707,-0.09286 -0.20334,-0.21361 -0.09308,-0.27902l3.36907,-1.98544c0.10112,-0.05621 0.31256,-0.03816 0.46963,0.05428l4.34982,2.5181c0.15707,0.09244 0.19416,0.21322 0.09307,0.27902zM219.04151,201.28769c-0.10109,0.06538 -0.34976,0.01035 -0.56154,-0.10984l-5.69574,-3.29529c-0.20302,-0.12064 -0.28608,-0.26919 -0.18537,-0.3254l3.36948,-1.98544c0.10071,-0.05621 0.35851,-0.01038 0.56151,0.10067l5.69574,3.29528c0.20261,0.12064 0.28608,0.2692 0.18496,0.32541zM256.44433,222.98591c-0.08281,0.04656 -0.2851,0.01931 -0.44176,-0.07314l-4.34106,-2.51772c-0.15666,-0.09286 -0.22165,-0.20437 -0.12971,-0.26055l1.2487,-0.73048c0.08239,-0.04656 0.2851,-0.0193 0.44176,0.07314l4.34106,2.51771c0.15666,0.09286 0.21206,0.20441 0.12928,0.26056zM262.25025,226.43926c-0.08239,0.04697 -0.2851,0.01972 -0.44176,-0.07314l-4.34106,-2.51772c-0.15666,-0.09244 -0.22123,-0.20396 -0.12971,-0.26013l1.2487,-0.73047c0.08281,-0.04698 0.28511,-0.01972 0.44176,0.07272l4.34106,2.51814c0.15666,0.09244 0.21206,0.20399 0.12971,0.26013zM268.40646,229.91935c-0.08239,0.04656 -0.27555,0.0101 -0.43259,-0.07317l-4.34064,-2.51772c-0.15708,-0.09286 -0.22165,-0.20437 -0.13885,-0.25093l1.20252,-0.70238c0.08281,-0.04698 0.27596,-0.01051 0.43258,0.07276l4.34107,2.51813c0.15666,0.09244 0.21206,0.20399 0.13885,0.25093zM264.61878,225.09048c-0.08281,0.04698 -0.27596,0.0101 -0.43259,-0.07317l-4.34106,-2.51772c-0.15666,-0.09244 -0.22165,-0.20396 -0.13885,-0.25093l1.20252,-0.70238c0.08281,-0.04698 0.27596,-0.0101 0.43259,0.07317l4.34107,2.51771c0.15666,0.09244 0.21206,0.20399 0.13884,0.25093zM248.93092,218.59776c-0.10109,0.0658 -0.31256,0.03858 -0.46921,-0.05428l-28.28572,-16.37534c-0.15666,-0.09244 -0.20334,-0.2132 -0.09307,-0.27902l3.36907,-1.98503c0.10112,-0.05621 0.32215,-0.03861 0.46963,0.05428l28.28572,16.37534c0.15666,0.09244 0.20292,0.21319 0.10183,0.27899z" data-paper-data="{&quot;index&quot;:null}" fill="#849fda" stroke="none" stroke-width="1" stroke-linecap="butt" stroke-linejoin="miter"/><path d="M218.25655,200.20094c-0.00917,0.00003 -0.02752,0.00009 -0.0459,-0.00943l-3.31804,-1.92539c-0.01837,-0.00911 -0.02758,-0.01825 -0.01844,-0.02787l0.21097,-0.12162c0.01579,-0.00066 0.03152,0.00243 0.04589,0.00902l3.31804,1.9254c0.01837,0.00952 0.02758,0.01866 0.01844,0.02787zM209.7399,194.90355l-0.02752,0.00009l-1.41025,-0.81448c-0.00917,0.00003 -0.00921,-0.00914 -0.00007,-0.01876l0.21139,-0.12162l0.02751,-0.00009l1.41025,0.81449c0.00917,-0.00003 0.0092,0.00955 0.00006,0.01876zM229.44842,202.11815c-0.10112,0.05621 -0.31298,0.03858 -0.46963,-0.05428l-4.35023,-2.51769c-0.15666,-0.09244 -0.20293,-0.21361 -0.09267,-0.27902l2.86436,-1.68565c0.10071,-0.05621 0.32173,-0.03818 0.46921,0.05429l4.35023,2.51768c0.15666,0.09286 0.20292,0.21361 0.09266,0.27902zM235.43114,205.58047c-0.10071,0.05621 -0.31256,0.03816 -0.46922,-0.05428l-4.34106,-2.51772c-0.15666,-0.09286 -0.20292,-0.21361 -0.10225,-0.27899l2.86436,-1.68565c0.10112,-0.05621 0.32214,-0.03861 0.46963,0.05428l4.34064,2.51772c0.15707,0.09286 0.19417,0.21364 0.09308,0.27902zM241.41222,209.05157c-0.10112,0.05621 -0.31256,0.03858 -0.46921,-0.05428l-4.35023,-2.51769c-0.15666,-0.09244 -0.19376,-0.21364 -0.09305,-0.26985l2.86436,-1.68523c0.10112,-0.05621 0.31256,-0.03858 0.46921,0.05428l4.35023,2.51769c0.15666,0.09244 0.19417,0.21364 0.09308,0.27902zM247.40161,212.51388c-0.10112,0.05621 -0.31256,0.03816 -0.46921,-0.05428l-4.35023,-2.51769c-0.15666,-0.09286 -0.20334,-0.21361 -0.09308,-0.27902l2.86436,-1.68564c0.10112,-0.05621 0.31256,-0.03858 0.46921,0.05428l4.35023,2.51769c0.15666,0.09286 0.19417,0.21364 0.09308,0.27902zM253.38394,215.98497c-0.10112,0.05621 -0.31297,0.03858 -0.46963,-0.05428l-4.34106,-2.51772c-0.15666,-0.09244 -0.19375,-0.21364 -0.09263,-0.26985l2.86436,-1.68565c0.10071,-0.05621 0.31256,-0.03816 0.46921,0.05428l4.34106,2.51814c0.15666,0.09244 0.20292,0.21319 0.10225,0.27899zM259.36415,219.44731c-0.10112,0.05621 -0.31255,0.03816 -0.46921,-0.05429l-4.34106,-2.51771c-0.15666,-0.09286 -0.20334,-0.21361 -0.09308,-0.27902l2.86436,-1.68564c0.10112,-0.05621 0.31256,-0.03858 0.46922,0.05428l4.34106,2.51772c0.15666,0.09244 0.20293,0.21361 0.09308,0.27902zM272.8497,227.25072c-0.10112,0.05621 -0.31255,0.03816 -0.46921,-0.05429l-11.84348,-6.8592c-0.15666,-0.09286 -0.20292,-0.21361 -0.09266,-0.27902l2.86395,-1.68565c0.10112,-0.05621 0.31256,-0.03816 0.46963,0.05429l11.84306,6.85921c0.15666,0.09286 0.20334,0.21361 0.09308,0.27902zM236.32665,201.49003c-0.10109,0.0658 -0.31256,0.03858 -0.46922,-0.05428l-4.35023,-2.51769c-0.15666,-0.09244 -0.20335,-0.21361 -0.09305,-0.26985l2.87354,-1.68568c0.10112,-0.05621 0.31256,-0.03816 0.46921,0.05428l4.35023,2.5181c0.15666,0.09244 0.19375,0.21322 0.09305,0.26943zM242.3102,204.95194c-0.10109,0.0658 -0.31256,0.03858 -0.46921,-0.05428l-4.35023,-2.51769c-0.15666,-0.09244 -0.20335,-0.21361 -0.09305,-0.26985l2.87354,-1.68527c0.10112,-0.05621 0.31256,-0.03857 0.46921,0.05387l4.35023,2.5181c0.15666,0.09244 0.19416,0.21364 0.09304,0.26985zM248.29003,208.42346c-0.10067,0.06538 -0.31256,0.03857 -0.46921,-0.05429l-4.35023,-2.51769c-0.15666,-0.09286 -0.20293,-0.21361 -0.10225,-0.27899l2.87354,-1.68568c0.10112,-0.05621 0.32215,-0.03819 0.46963,0.05428l4.35023,2.51768c0.15666,0.09286 0.20293,0.21362 0.10181,0.26982zM254.28067,211.88535c-0.10067,0.0658 -0.31256,0.03858 -0.46921,-0.05428l-4.34106,-2.51772c-0.15666,-0.09286 -0.20292,-0.21361 -0.09266,-0.27902l2.87311,-1.68568c0.10112,-0.05621 0.31297,-0.03816 0.46963,0.05428l4.34106,2.51772c0.15666,0.09286 0.20292,0.21361 0.09263,0.26985zM260.26213,215.34767c-0.10109,0.06538 -0.31256,0.03817 -0.46963,-0.05428l-4.35023,-2.51811c-0.15666,-0.09244 -0.20293,-0.21319 -0.09263,-0.26943l2.87354,-1.68568c0.10071,-0.05621 0.31255,-0.03816 0.46921,0.05428l4.35023,2.51769c0.15666,0.09286 0.20292,0.21362 0.09305,0.26985zM266.2453,218.81877c-0.10109,0.0658 -0.31297,0.03858 -0.46963,-0.05428l-4.34107,-2.51772c-0.15666,-0.09286 -0.20292,-0.21361 -0.10183,-0.27899l2.87353,-1.68568c0.10071,-0.05621 0.31256,-0.03816 0.46921,0.05428l4.34106,2.51772c0.15666,0.09286 0.19375,0.21364 0.09263,0.26985zM272.23427,222.28108c-0.10109,0.06538 -0.31256,0.03816 -0.46921,-0.05428l-4.35023,-2.51769c-0.15666,-0.09286 -0.20335,-0.21361 -0.09305,-0.26985l2.87354,-1.68568c0.10112,-0.05621 0.31256,-0.03816 0.46922,0.05428l4.35023,2.5181c0.15666,0.09244 0.19376,0.21322 0.09305,0.26943zM238.85631,198.3438c-0.10109,0.06538 -0.31297,0.03816 -0.46963,-0.05428l-4.35023,-2.51769c-0.15666,-0.09286 -0.19375,-0.21364 -0.09263,-0.26985l2.86436,-1.68565c0.10071,-0.05621 0.31256,-0.03816 0.46921,0.05429l4.35023,2.5181c0.15666,0.09244 0.20292,0.2132 0.1018,0.2694zM244.83569,201.80615c-0.10109,0.06538 -0.31297,0.03816 -0.46963,-0.05428l-4.35023,-2.5181c-0.15666,-0.09244 -0.20292,-0.2132 -0.09266,-0.27902l2.86436,-1.68565c0.10071,-0.05621 0.31256,-0.03816 0.46922,0.05429l4.35023,2.5181c0.15666,0.09244 0.19375,0.21364 0.09263,0.26985zM250.82761,205.2772c-0.10109,0.06538 -0.31256,0.03816 -0.46963,-0.05428l-4.34064,-2.51772c-0.15707,-0.09286 -0.19416,-0.21364 -0.09307,-0.27902l2.86436,-1.68565c0.10071,-0.05621 0.31256,-0.03857 0.46921,0.05429l4.34106,2.51772c0.15666,0.09286 0.20292,0.21361 0.10225,0.27899zM256.80866,208.73955c-0.10109,0.06538 -0.31255,0.03816 -0.46921,-0.05428l-4.35023,-2.5181c-0.15707,-0.09244 -0.20334,-0.21319 -0.09308,-0.27902l2.86436,-1.68565c0.10071,-0.05621 0.31256,-0.03816 0.46922,0.05428l4.35023,2.5181c0.15666,0.09244 0.19375,0.21322 0.09305,0.26943zM262.78971,212.20147c-0.10109,0.06538 -0.31256,0.03816 -0.46922,-0.05428l-4.35023,-2.5181c-0.15666,-0.09244 -0.20292,-0.2132 -0.09308,-0.27902l2.86437,-1.68523c0.10112,-0.05621 0.31255,-0.03857 0.46921,0.05387l4.35023,2.5181c0.15666,0.09244 0.19416,0.21364 0.09305,0.26985zM268.78121,215.67253c-0.10109,0.0658 -0.31255,0.03857 -0.47838,-0.05426l-4.35023,-2.51769c-0.15707,-0.09244 -0.20334,-0.21361 -0.09308,-0.27902l2.86437,-1.68564c0.10071,-0.05621 0.31255,-0.03816 0.46921,0.05429l4.35023,2.5181c0.15666,0.09244 0.20292,0.2132 0.10225,0.27899zM274.76185,219.13487c-0.10068,0.06538 -0.31255,0.03816 -0.46921,-0.05429l-4.35023,-2.5181c-0.15666,-0.09244 -0.20293,-0.21319 -0.09308,-0.27902l2.86437,-1.68524c0.10112,-0.05621 0.31255,-0.03858 0.46963,0.05428l4.34982,2.51769c0.15707,0.09244 0.19417,0.21364 0.09305,0.26985zM226.91967,191.42904c-0.10067,0.06538 -0.31256,0.03816 -0.46921,-0.05428l-7.37334,-4.26729c-0.15666,-0.09286 -0.20292,-0.21361 -0.09266,-0.27902l2.86395,-1.68565c0.10112,-0.05621 0.31297,-0.03858 0.46963,0.05428l7.37334,4.2673c0.15666,0.09244 0.20292,0.21361 0.10183,0.27899zM284.70077,220.27458c-0.10068,0.06538 -0.31255,0.03815 -0.46921,-0.05429l-7.37334,-4.26729c-0.15666,-0.09286 -0.20292,-0.21361 -0.09266,-0.27902l2.86436,-1.68565c0.10067,-0.0658 0.32173,-0.0386 0.46921,0.05429l7.37334,4.26729c0.15666,0.09244 0.20292,0.21361 0.09267,0.27902zM224.38042,194.5753c-0.10067,0.06538 -0.31256,0.03816 -0.46921,-0.05428l-8.78321,-5.09137c-0.15666,-0.09244 -0.20334,-0.21361 -0.09307,-0.27902l2.87354,-1.68568c0.10112,-0.05621 0.31256,-0.03816 0.46921,0.05428l8.78362,5.09137c0.15666,0.09244 0.20292,0.21361 0.1018,0.26982zM217.50386,195.20383c-0.10112,0.05621 -0.31256,0.03816 -0.46921,-0.05428l-5.86198,-3.38811c-0.15666,-0.09244 -0.20292,-0.21361 -0.09266,-0.27902l2.86395,-1.68565c0.10112,-0.05621 0.31297,-0.03816 0.46963,0.05429l5.86156,3.38811c0.15666,0.09244 0.20293,0.2132 0.09308,0.27902zM233.82673,190.81918c-0.10067,0.06538 -0.31256,0.03816 -0.46921,-0.05428l-4.34107,-2.51813c-0.15666,-0.09244 -0.20292,-0.21319 -0.09266,-0.27902l2.86395,-1.68523c0.10109,-0.0658 0.31297,-0.03858 0.46963,0.05428l4.34106,2.51772c0.15666,0.09244 0.20293,0.21361 0.09267,0.27902zM239.78937,194.2624c-0.10109,0.0658 -0.31256,0.03857 -0.46921,-0.05429l-4.35023,-2.51768c-0.15707,-0.09244 -0.20334,-0.21361 -0.09308,-0.27902l2.86436,-1.68565c0.10067,-0.06538 0.31256,-0.03816 0.46921,0.05429l4.35023,2.51769c0.15666,0.09286 0.20292,0.2136 0.09307,0.27901zM245.76962,197.73392c-0.10109,0.0658 -0.31255,0.03857 -0.46921,-0.05429l-4.35023,-2.51768c-0.15666,-0.09244 -0.20334,-0.21361 -0.09308,-0.27902l2.86436,-1.68565c0.10109,-0.06538 0.31256,-0.03816 0.46922,0.05428l4.35023,2.5181c0.15666,0.09244 0.19417,0.21322 0.09305,0.26943zM251.7515,201.19583c-0.10067,0.06538 -0.31256,0.03816 -0.46921,-0.05428l-4.34106,-2.51772c-0.15666,-0.09286 -0.20292,-0.21361 -0.09266,-0.27902l2.86436,-1.68564c0.10067,-0.06538 0.31256,-0.03816 0.46921,0.05428l4.34106,2.51772c0.15666,0.09286 0.20292,0.21361 0.09266,0.27902zM257.73297,204.65817c-0.10109,0.06538 -0.31256,0.03816 -0.46922,-0.05428l-4.34106,-2.51814c-0.15666,-0.09244 -0.20334,-0.2132 -0.09308,-0.27902l2.86436,-1.68565c0.10109,-0.06538 0.31256,-0.03816 0.46921,0.05429l4.34106,2.51813c0.15666,0.09244 0.19376,0.21365 0.09305,0.26985zM263.72322,208.12923c-0.10109,0.0658 -0.31256,0.03858 -0.46963,-0.05428l-4.35023,-2.51769c-0.15666,-0.09244 -0.19375,-0.21364 -0.09263,-0.26985l2.86436,-1.68565c0.10068,-0.06538 0.31256,-0.03815 0.46921,0.05471l4.35023,2.51769c0.15666,0.09244 0.20292,0.21361 0.09305,0.26985zM269.70511,211.59157c-0.10109,0.06538 -0.31255,0.03815 -0.46921,-0.05429l-4.35024,-2.51768c-0.15666,-0.09286 -0.20334,-0.21361 -0.09308,-0.27902l2.86437,-1.68565c0.10109,-0.0658 0.31255,-0.03858 0.46921,0.05428l4.35023,2.51769c0.15666,0.09244 0.20333,0.21361 0.09307,0.27902zM275.68699,215.05349c-0.10068,0.06538 -0.31256,0.03816 -0.46921,-0.05428l-4.35023,-2.51769c-0.15666,-0.09286 -0.19376,-0.21364 -0.09305,-0.26985l2.86437,-1.68565c0.10109,-0.06538 0.31255,-0.03816 0.46921,0.05429l4.35023,2.51768c0.15708,0.09286 0.19416,0.21364 0.09305,0.26985zM279.17482,218.12357c-0.07395,-0.04645 -0.1566,-0.0741 -0.25794,-0.08293c-0.09217,-0.00886 -0.16551,0.00056 -0.21128,0.02865l-2.86436,1.68564c-0.04618,0.02809 -0.07355,0.07446 -0.05502,0.13027c0.01853,0.0558 0.07414,0.10232 0.14767,0.14876l1.13372,0.65699l-3.76394,2.21941c-0.04577,0.02809 -0.06395,0.07484 -0.04542,0.13064c0.01853,0.0558 0.07372,0.1019 0.14767,0.14835l2.93079,1.69405c0.07851,0.04698 0.16674,0.07534 0.25793,0.08293c0.09175,0.00886 0.16551,-0.00055 0.22045,-0.02867l6.82137,-4.01745c0.04577,-0.02809 0.06395,-0.07442 0.04542,-0.13023c-0.01853,-0.0558 -0.07414,-0.10231 -0.14767,-0.14875z" data-paper-data="{&quot;index&quot;:null}" fill="#849fda" stroke="none" stroke-width="1" stroke-linecap="butt" stroke-linejoin="miter"/><path d="M216.72781,193.79102c-0.00917,0.00003 -0.02793,0.00009 -0.04631,-0.00943l-3.31804,-1.92539c-0.01837,-0.00911 -0.02757,-0.01825 -0.01843,-0.02787l0.21138,-0.12162c0.01579,-0.00066 0.03152,0.00243 0.04589,0.00902l3.31804,1.92539c0.01837,0.00952 0.02758,0.01866 0.01844,0.02787z" data-paper-data="{&quot;index&quot;:null}" fill="#849fda" stroke="none" stroke-width="1" stroke-linecap="butt" stroke-linejoin="miter"/><path d="M233.75687,222.42906l-16.81113,-9.73794c-0.90315,-0.52769 -0.85049,-1.35669 0.12258,-1.85318l5.60169,-2.84014c0.97349,-0.4969 2.50994,-0.46456 3.42222,0.05351l16.81113,9.73836c0.90315,0.52769 0.85091,1.35628 -0.12258,1.85318l-5.60169,2.84014c-0.97349,0.49649 -2.50948,0.47373 -3.42222,-0.05393z" data-paper-data="{&quot;index&quot;:null}" fill="#9bb1e0" stroke="none" stroke-width="1" stroke-linecap="butt" stroke-linejoin="miter"/><path d="M242.93984,150.5365l1.19566,-5.46019c0.93315,-4.30487 4.56969,-6.09527 8.06308,-3.97493l12.59113,7.63882c3.49338,2.12034 5.58986,7.38307 4.64796,11.68797l-1.19608,5.46019c-0.93273,4.30445 -4.56928,6.09527 -8.06267,3.97493l-12.59113,-7.63881c-3.49338,-2.12075 -5.5811,-7.38352 -4.64796,-11.68797z" data-paper-data="{&quot;index&quot;:null}" fill="#e3cfcf" stroke="none" stroke-width="1" stroke-linecap="butt" stroke-linejoin="miter" opacity="0.34"/><path d="M242.82391,147.01495l1.19566,-5.46019c0.93314,-4.30487 4.5697,-6.09527 8.06308,-3.97493l12.59114,7.63882c3.49338,2.12034 5.58985,7.38349 4.64754,11.68797l-1.19566,5.46019c-0.93273,4.30487 -4.5697,6.09527 -8.06308,3.97493l-12.59071,-7.63882c-3.50297,-2.1203 -5.59024,-7.37389 -4.64795,-11.68797z" data-paper-data="{&quot;index&quot;:null}" fill="#7fcbb4" stroke="none" stroke-width="1" stroke-linecap="butt" stroke-linejoin="miter"/><path d="M255.97605,157.38324l-5.35153,-7.5519c-0.4252,-0.60351 -0.23512,-1.47925 0.32604,-1.48114l7.00938,-0.06114c0.50571,-0.0017 0.94964,0.7139 0.81371,1.32889l-1.66661,7.61222c-0.13593,0.61499 -0.74309,0.70084 -1.131,0.15307z" data-paper-data="{&quot;index&quot;:null}" fill="#ffffff" stroke="none" stroke-width="1" stroke-linecap="butt" stroke-linejoin="miter"/><path d="M258.34193,161.45864c0.76077,-3.49422 3.70846,-4.94709 6.53845,-3.22476l4.76547,2.88859c2.83871,1.71313 4.52742,5.98123 3.76662,9.46587c-0.76119,3.49423 -3.70888,4.9471 -6.53886,3.22477l-4.76506,-2.889c-2.82995,-1.71274 -4.52783,-5.98082 -3.76661,-9.46546z" data-paper-data="{&quot;index&quot;:null}" fill="#f37e60" stroke="none" stroke-width="1" stroke-linecap="butt" stroke-linejoin="miter"/><path d="M259.76524,169.31859l-3.04943,-0.7755l1.79101,-2.11414z" data-paper-data="{&quot;index&quot;:null}" fill="#ff9963" stroke="none" stroke-width="1" stroke-linecap="butt" stroke-linejoin="miter"/><path d="M267.34268,168.66506c-0.16965,-0.646 0.06326,-1.26961 0.51983,-1.39297c0.45658,-0.12336 0.96407,0.30055 1.13374,0.94614c0.16965,0.646 -0.06284,1.26963 -0.51942,1.39299c-0.45656,0.12295 -0.96448,-0.30056 -1.13415,-0.94615zM264.57414,166.79778c-0.16967,-0.64559 0.06324,-1.2692 0.51982,-1.39256c0.45658,-0.12336 0.96409,0.30013 1.13374,0.94614c0.16965,0.646 -0.06284,1.26963 -0.5194,1.39257c-0.45658,0.12336 -0.96451,-0.30015 -1.13416,-0.94615zM261.78873,164.14227c-0.15462,0.58033 0.08984,1.29933 0.55524,1.60871c0.46496,0.30977 0.96256,0.08932 1.11718,-0.49101c0.15462,-0.58033 -0.08983,-1.29934 -0.55482,-1.60869c-0.46538,-0.30979 -0.96298,-0.08933 -1.1176,0.491z" data-paper-data="{&quot;index&quot;:null}" fill="#ffffff" stroke="none" stroke-width="1" stroke-linecap="butt" stroke-linejoin="miter"/><g data-paper-data="{&quot;index&quot;:null}" stroke="none" stroke-width="1" stroke-linecap="butt" stroke-linejoin="miter"><path d="M286.04663,188.00462c-0.28929,0.12431 -0.64773,0.08452 -1.07533,-0.11936l-7.39074,-3.52399c-0.09719,-0.04633 -0.18811,-0.09624 -0.27277,-0.14972c-0.33379,-0.2116 -0.56428,-0.48214 -0.69147,-0.81159c-0.07813,-0.1946 -0.12011,-0.40475 -0.12591,-0.63043c-0.00738,-0.1281 0.00087,-0.26511 0.02478,-0.41106c-0.00722,-0.03465 -0.0061,-0.07346 0.00336,-0.11641l2.1292,-8.94695c0.11481,-0.43697 0.28393,-0.7497 0.50734,-0.93821c0.06821,-0.05926 0.14404,-0.10507 0.22748,-0.1374c0.28649,-0.11254 0.63866,-0.06918 1.05655,0.13008l7.39074,3.52399c0.08261,0.03939 0.16208,0.08057 0.23843,0.12352c0.24081,0.1476 0.43326,0.32788 0.57736,0.54082c0.027,0.04566 0.05401,0.09132 0.08103,0.13698c0.0256,0.05155 0.05051,0.10603 0.07471,0.16347c0.02074,0.04923 0.03836,0.10025 0.05286,0.15304c0.07243,0.26401 0.08993,0.55427 0.05248,0.87078c-0.00281,0.01178 -0.00318,0.02471 -0.00113,0.0388c-0.0014,0.00589 -0.0028,0.01178 -0.0042,0.01766c-0.0098,0.04121 -0.01718,0.08359 -0.02214,0.12713c-0.00981,0.04122 -0.01891,0.07949 -0.02732,0.11481l-0.05675,0.23846c-0.00981,0.04122 -0.01891,0.07949 -0.02733,0.11482l-2.04514,8.59366c-0.00813,0.03136 -0.0207,0.06142 -0.03769,0.0902c-0.14883,0.42075 -0.36163,0.68972 -0.6384,0.80689M278.05196,182.61915l1.79303,0.85493l5.49568,2.62041l0.08407,-0.35328l1.43979,-6.05l0.36152,-1.51912c0.00841,-0.03533 0.01751,-0.0736 0.02732,-0.11482l0.05675,-0.23847c0.00841,-0.03533 0.01752,-0.07359 0.02733,-0.11481l0.02101,-0.08832l-1.78572,-0.85145l-0.30613,-0.14596l-5.19685,-2.47792l-1.43979,6.05001l-0.08407,0.35328z" fill="#ae7640"/><path d="M285.2666,176.61823l-2.83891,1.52784c-0.01878,0.01072 -0.03442,0.01964 -0.04694,0.02678l-3.75077,2.01747l1.43978,-6.05l5.19684,2.47791M286.86451,179.69121l-1.43979,6.05l-5.19685,-2.47791l3.31363,-1.78337c0.01252,-0.00714 0.02817,-0.01607 0.04695,-0.02678z" fill="#a06d3d"/><path d="M278.54589,180.54361l0.08407,-0.35328l3.75078,-2.01747c0.01252,-0.00714 0.02817,-0.01606 0.04695,-0.02678l2.8389,-1.52784l0.30613,0.14597l-3.22911,1.73516c-0.01878,0.01072 -0.03442,0.01965 -0.04694,0.02679l-3.75077,2.01746M285.34065,186.09449l-5.49568,-2.62041l0.3829,-0.21079l5.19685,2.47792z" fill="#946538"/><path d="M279.84497,183.47409l-1.79302,-0.85494l0.49394,-2.07555l3.75077,-2.01747c0.01252,-0.00714 0.02817,-0.01607 0.04695,-0.02678l3.22911,-1.73515l1.78573,0.85145l-0.02103,0.08832c-0.00981,0.04122 -0.01891,0.07949 -0.02732,0.11482l-0.05675,0.23846c-0.00981,0.04122 -0.01891,0.07948 -0.02732,0.11481l-0.36153,1.51913l-3.27605,1.76193c-0.01878,0.01072 -0.03444,0.01965 -0.04696,0.02679l-3.31361,1.78337l-0.38291,0.2108M286.69961,187.20466c-0.09669,0.40627 -0.23417,0.71115 -0.41244,0.91463c-0.33076,0.36679 -0.79741,0.40653 -1.39994,0.11924l-7.39074,-3.524c-0.5831,-0.27803 -0.93143,-0.68997 -1.045,-1.23584c-0.0358,-0.16787 -0.04898,-0.35117 -0.03956,-0.54992c-0.00345,-0.0082 -0.00448,-0.01525 -0.00308,-0.02114l0.01163,-0.08297c0.00074,-0.02587 0.0022,-0.05469 0.00435,-0.08644c0.01065,-0.11293 0.03068,-0.23123 0.0601,-0.35488c0.0042,-0.01766 0.0077,-0.03237 0.01051,-0.04415l0.02312,-0.09716c-0.00946,0.04295 -0.01058,0.08175 -0.00335,0.11641c-0.02391,0.14595 -0.03217,0.28298 -0.02478,0.41107c0.00581,0.22568 0.04778,0.43582 0.1259,0.63043c0.12719,0.32945 0.35769,0.59999 0.69148,0.81159c0.08466,0.05348 0.17558,0.10339 0.27277,0.14972l7.39074,3.524c0.42761,0.20389 0.78605,0.24367 1.07534,0.11936c0.27677,-0.11716 0.48957,-0.38613 0.6384,-0.80688c0.01699,-0.02877 0.02956,-0.05884 0.0377,-0.0902z" fill="#bb844d"/></g><path d="M273.99075,184.84259l4.52133,-14.79709l12.43366,5.85718l-3.59651,14.38606z" fill="none" stroke="#7579ff" stroke-width="1" stroke-linecap="round" stroke-linejoin="miter"/><path d="M284.22786,190.66175l0.91925,-8.73284l5.82189,6.58793c0,0 -1.2357,0.58534 -1.76034,0.83385c-0.42415,0.20092 -0.78394,1.3117 -0.55587,1.78857c0.30883,0.64574 1.09055,2.28024 1.09055,2.28024c0,0 0.08073,1.26963 -0.45962,1.68529c-0.54035,0.41565 -1.53208,-0.15321 -1.53208,-0.15321c0,0 -0.65578,-2.81048 -0.84785,-3.63363c-0.09886,-0.42367 -0.82978,-0.88696 -1.18496,-0.84256c-0.44256,0.05532 -1.49097,0.18637 -1.49097,0.18637z" fill="#ffffff" stroke="#000000" stroke-width="0.5" stroke-linecap="round" stroke-linejoin="round"/><path d="M279.95069,170.30239c0,0.8229 -0.62108,1.48998 -1.38723,1.48998c-0.76614,0 -1.38723,-0.66709 -1.38723,-1.48998c0,-0.8229 0.62108,-1.48998 1.38723,-1.48998c0.76614,0 1.38723,0.66709 1.38723,1.48998z" fill="#8e92ff" stroke="#7579ff" stroke-width="1" stroke-linecap="butt" stroke-linejoin="miter"/><path d="M292.24648,176.22721c0,0.82289 -0.62108,1.48998 -1.38723,1.48998c-0.76614,0 -1.38723,-0.66709 -1.38723,-1.48998c0,-0.82289 0.62108,-1.48998 1.38723,-1.48998c0.76614,0 1.38723,0.66709 1.38723,1.48998z" fill="#8e92ff" stroke="#7579ff" stroke-width="1" stroke-linecap="butt" stroke-linejoin="miter"/><path d="M275.77015,184.92648c0,0.82289 -0.62108,1.48998 -1.38723,1.48998c-0.76614,0 -1.38723,-0.66709 -1.38723,-1.48998c0,-0.82289 0.62108,-1.48999 1.38723,-1.48999c0.76614,0 1.38723,0.66709 1.38723,1.48999z" fill="#8e92ff" stroke="#7579ff" stroke-width="1" stroke-linecap="butt" stroke-linejoin="miter"/><g stroke-width="0.5"><path d="M289.47655,169.54435l0.78154,0.46548c0.42037,1.13166 0.04555,3.11913 -1.1596,3.32539c-0.08754,0.01516 -1.26929,-0.73727 -1.36554,-0.74193" fill="#faa51f" stroke="#8e5322" stroke-linecap="round" stroke-linejoin="round"/><path d="M290.01456,172.59072c-1.1713,1.55293 -2.2036,1.94491 -2.79949,1.33923c-0.2556,-0.25515 -0.03413,-1.26005 1.1668,-1.79893" fill="#faa51f" stroke="#8e5322" stroke-linecap="round" stroke-linejoin="round"/><path d="M285.87925,171.75665c0.07626,0.19636 0.24715,0.54904 -0.63829,0.88912c-0.88504,0.34025 -2.20431,-0.39343 -2.34622,-0.49687c-0.54585,-0.35764 -1.22448,-0.83888 -1.76644,-1.62263c-1.58179,-2.23863 0.22339,-4.66364 1.19375,-4.56638c0.97026,0.09747 0.15461,1.79552 0.42979,3.37673c0.12479,0.71464 0.50843,1.22219 0.87764,1.60526c0.50376,0.55488 2.1642,0.63897 2.24977,0.81476z" fill="#faa51f" stroke="none" stroke-linecap="butt" stroke-linejoin="miter"/><path d="M282.7504,167.15053c-0.03548,0.65125 -0.07111,1.82513 -0.07111,1.82513c0,0 -0.63469,-0.63047 -1.2539,-0.56537c-0.61903,0.06469 -0.76939,1.07457 -0.9019,0.68974c-0.03427,-0.3934 -0.07721,-1.02828 0.22028,-1.78987c0.3178,-0.75383 1.18868,-1.47979 1.62735,-1.35445c0.44044,0.17355 0.43644,0.59939 0.37928,1.19482z" fill="#ffffff" stroke="none" stroke-linecap="butt" stroke-linejoin="miter"/><path d="M285.87925,171.75665c0.07626,0.19636 0.24715,0.54904 -0.63829,0.88912c-0.88504,0.34025 -2.20431,-0.39343 -2.34622,-0.49687c-0.54585,-0.35764 -1.22448,-0.83888 -1.76644,-1.62263c-1.58179,-2.23863 0.22339,-4.66364 1.19375,-4.56638c0.97026,0.09747 0.15461,1.79552 0.42979,3.37673c0.12479,0.71464 0.50843,1.22219 0.87764,1.60526c0.50376,0.55488 2.1642,0.63897 2.24977,0.81476z" fill="none" stroke="#8e5322" stroke-linecap="round" stroke-linejoin="round"/><path d="M288.31368,173.31012c0,0 -0.84221,0.97484 -1.48514,2.81247c-0.28669,0.78985 1.5271,0.48295 0.75185,1.93535c-0.23175,0.40784 -2.05525,-0.35845 -2.40276,-0.68522c-0.3165,-0.29103 -0.35273,-0.47161 -0.11037,-0.85127c0.88654,-1.38502 0.9121,-3.37065 0.9121,-3.37065" fill="#faa51f" stroke="#8e5322" stroke-linecap="round" stroke-linejoin="round"/><path d="M286.49502,176.44257c0.32767,0.05784 0.56968,0.20072 0.56968,0.20072" fill="#faa51f" stroke="#8e5322" stroke-linecap="round" stroke-linejoin="round"/><path d="M289.46837,171.1757c-0.61137,1.3509 -1.16527,3.46096 -3.54764,2.52219c-2.38237,-0.93876 -1.34091,-2.66663 -0.72954,-4.01753c0.61137,-1.3509 1.59644,-1.39039 2.93777,-0.86184c1.34133,0.52855 1.95078,1.00628 1.33941,2.35718z" fill="#faa51f" stroke="#8e5322" stroke-linecap="round" stroke-linejoin="round"/><path d="M288.68332,171.55511c-0.38325,0.84683 -0.77794,2.18808 -2.05921,1.6832c-1.28107,-0.5048 -0.66095,-1.61443 -0.2777,-2.46126c0.38325,-0.84683 0.93318,-0.91523 1.67372,-0.62343c0.74083,0.29168 1.04635,0.55486 0.66319,1.40149z" fill="#ffffff" stroke="none" stroke-linecap="butt" stroke-linejoin="miter"/><path d="M285.75319,173.70268c0,0 -1.13067,1.71647 -1.45385,2.58697c-0.15167,0.4394 -0.41201,0.59815 -0.86893,0.51314c-0.47694,-0.0929 -2.0167,-0.65212 -1.8086,-1.16408c0.61332,-1.56372 1.30566,-0.1745 1.77253,-0.89335c1.05413,-1.6516 1.03548,-2.96566 1.03548,-2.96566" fill="#faa51f" stroke="#8e5322" stroke-linecap="round" stroke-linejoin="round"/><path d="M282.74961,174.91896c0,0 0.33848,0.0861 0.58235,0.27699" fill="#faa51f" stroke="#8e5322" stroke-linecap="round" stroke-linejoin="round"/><path d="M284.87998,171.28021c-0.02475,-0.03185 -1.73328,-0.21971 -1.75056,-0.25502c-0.40861,-0.83551 1.244,-2.57416 3.02315,-3.10425l1.45362,0.90541" fill="#faa51f" stroke="#8e5322" stroke-linecap="round" stroke-linejoin="round"/><path d="M285.92139,169.68276c-0.5193,0.5402 -1.24983,1.15515 -1.24983,1.15515" fill="#faa51f" stroke="#8e5322" stroke-linecap="round" stroke-linejoin="round"/><path d="M284.72549,170.8986l-0.21257,-0.15528" fill="none" stroke="#8e5322" stroke-linecap="round" stroke-linejoin="round"/><path d="M292.92357,159.6837l2.08018,-0.8434l-0.46143,2.47911c0,0 0.8214,1.41679 0.90987,2.21168c0.13691,1.31338 -0.23556,2.18798 -0.23556,2.18798c0,0 1.18995,0.96782 0.92832,2.17143c-0.26163,1.20361 -2.08061,2.98148 -6.05253,2.27166c-3.97212,-0.7099 -6.44811,-2.84971 -6.81642,-5.63201c-0.35761,-2.75433 3.00903,-4.56382 2.81571,-4.44993l1.22942,-3.86333l1.77427,2.64733c0,0 1.01578,-0.00363 1.95515,0.31901c0.34926,0.11387 0.95183,0.39882 1.243,0.53732z" fill="#faa51f" stroke="none" stroke-linecap="butt" stroke-linejoin="miter"/><path d="M295.09103,165.78862c0,0 1.17532,0.84326 0.91368,2.04688c-0.20157,1.22728 -2.13174,2.93757 -5.85784,2.20583c-0.84465,-0.16652 -1.60922,-0.30149 -2.71032,-0.73537c-1.71073,-0.65058 -3.08905,-2.45266 -1.93604,-4.6355c0.66387,-1.25894 2.24006,-0.51905 2.24006,-0.51905l1.58566,0.19717c0,0 1.27551,0.8825 2.19838,1.03257c0.92296,0.14986 1.22408,-0.51551 1.22408,-0.51551l1.99909,0.16978l0.29798,0.59258z" fill="#ffffff" stroke="none" stroke-linecap="butt" stroke-linejoin="miter"/><path d="M298.12112,167.17268c0,0 -0.50616,0.18068 -1.109,0.15696c-0.51364,-0.01233 -1.45819,-0.21822 -1.45819,-0.21822" fill="none" stroke="#8e5322" stroke-linecap="round" stroke-linejoin="round"/><path d="M296.97881,169.38349c0,0 -0.37861,-0.10167 -0.89168,-0.37536c-0.5422,-0.26093 -0.96225,-0.68803 -0.96225,-0.68803" fill="none" stroke="#8e5322" stroke-linecap="round" stroke-linejoin="round"/><path d="M289.48427,159.51662l-0.71254,-1.13607" fill="none" stroke="#8e5322" stroke-linecap="round" stroke-linejoin="round"/><path d="M292.92357,159.6837l2.08018,-0.8434l-0.46143,2.47911c0,0 0.8214,1.41679 0.90987,2.21168c0.13691,1.31338 -0.23556,2.18798 -0.23556,2.18798c0,0 1.18995,0.96782 0.92832,2.17143c-0.26163,1.20361 -2.08061,2.98148 -6.05253,2.27166c-3.97212,-0.7099 -6.44811,-2.84971 -6.81642,-5.63201c-0.35761,-2.75433 3.00903,-4.56382 2.81571,-4.44993l1.22942,-3.86333l1.77427,2.64733c0,0 1.01578,-0.00363 1.95515,0.31901c0.34926,0.11387 0.95183,0.39882 1.243,0.53732z" fill="none" stroke="#8e5322" stroke-linecap="round" stroke-linejoin="round"/><path d="M283.56631,163.57543c0,0 -0.74632,-0.17529 -1.11581,-0.29713c-0.36948,-0.12184 -1.13378,-0.51804 -1.13378,-0.51804" fill="none" stroke="#8e5322" stroke-linecap="round" stroke-linejoin="round"/><path d="M282.03266,160.76181c0,0 0.40403,0.254 1.04049,0.93268c0.57452,0.60652 0.87985,1.13073 0.87985,1.13073" fill="none" stroke="#8e5322" stroke-linecap="round" stroke-linejoin="round"/><path d="M295.00253,163.37791c0.16819,1.08788 -0.26824,2.10383 -0.9637,2.23368c-0.70479,0.14993 -1.41406,-0.62848 -1.57312,-1.73652c-0.16839,-1.08796 0.26804,-2.10391 0.9637,-2.23368c0.69566,-0.12977 1.40493,0.64864 1.57312,1.73652z" fill="#ffffff" stroke="#8e5322" stroke-linecap="round" stroke-linejoin="round"/><path d="M294.65411,164.09567c-0.03099,0.22537 -0.22234,0.38756 -0.44991,0.36916c-0.20765,-0.01031 -0.353,-0.21037 -0.31278,-0.45563c0.03119,-0.22529 0.22254,-0.38748 0.45011,-0.36908c0.21825,0.03848 0.34377,0.23026 0.31258,0.45555" fill="#414142" stroke="none" stroke-linecap="butt" stroke-linejoin="miter"/><path d="M290.07513,162.17256c0.16819,1.08788 -0.36637,2.11268 -1.19872,2.28385c-0.83226,0.17098 -1.64899,-0.5785 -1.80776,-1.68667c-0.16839,-1.08796 0.36637,-2.11268 1.19843,-2.28373c0.82304,-0.15061 1.63977,0.59887 1.80805,1.68655z" fill="#ffffff" stroke="#8e5322" stroke-linecap="round" stroke-linejoin="round"/><path d="M289.65911,162.93544c-0.09125,0.20163 -0.33344,0.31978 -0.51362,0.24878c-0.2002,-0.07889 -0.26734,-0.29541 -0.16706,-0.517c0.09125,-0.20163 0.33353,-0.31998 0.51371,-0.24898c0.18018,0.071 0.26743,0.29521 0.16696,0.5172" fill="#414142" stroke="none" stroke-linecap="butt" stroke-linejoin="miter"/><path d="M291.37386,165.03663c0.35859,0.09378 0.93767,0.01311 0.82445,0.41967c-0.07309,0.1615 -0.69453,0.70065 -1.06372,0.57869c-0.40961,-0.13741 -0.88219,-0.91759 -0.72529,-1.21214c0.15689,-0.29455 0.64602,0.13577 0.96457,0.21378z" fill="#5f4b43" stroke="#8e5322" stroke-linecap="round" stroke-linejoin="round"/><path d="M289.61878,168.28869c-1.18134,-0.20392 -1.47187,-0.86509 -1.47187,-0.86509" fill="#ffffff" stroke="#8e5322" stroke-linecap="round" stroke-linejoin="round"/><path d="M284.83163,171.06491c0.77505,0.97658 0.34444,1.83112 -0.01623,1.94939c-0.84669,0.28574 -1.55036,-0.49046 -1.76287,-2.35037" fill="#faa51f" stroke="#8e5322" stroke-linecap="round" stroke-linejoin="round"/></g></g></g></svg>