<svg version="1.1" xmlns="http://www.w3.org/2000/svg" xmlns:xlink="http://www.w3.org/1999/xlink" width="408.95496" height="101.0991" viewBox="0,0,408.95496,101.0991"><defs><linearGradient x1="238.64866" y1="12.43243" x2="238.64866" y2="111.53152" gradientUnits="userSpaceOnUse" id="color-1"><stop offset="0" stop-color="#ffffff"/><stop offset="1" stop-color="#f8f8f8"/></linearGradient></defs><g transform="translate(-10.17118,-11.43242)"><g data-paper-data="{&quot;isPaintingLayer&quot;:true}" stroke-miterlimit="10" stroke-dasharray="" stroke-dashoffset="0" style="mix-blend-mode: normal"><path d="M11.17118,78.9912c0,-15.46596 0,-32.41657 0,-41c0,-10.40189 11.61158,-25.55878 25.07749,-25.55878c45.46298,0 254.6248,0 348,0c21.13383,0 33.87747,15.52766 33.87747,26.55878c0,9.09495 0,27.16918 0,43c0,15.90198 -8.79388,29.54032 -23.87747,29.54032c-82.36658,0 -304.28583,0 -354,0c-15.36908,0 -29.07749,-15.35344 -29.07749,-32.54032z" fill="url(#color-1)" fill-rule="nonzero" stroke="#000000" stroke-width="2" stroke-linecap="butt" stroke-linejoin="miter"/><g fill-rule="evenodd"><g><path d="M44.9482,77.18522c0.63003,0.31502 1.96885,1.02381 0.07875,3.70144c-1.8901,2.67763 -7.32411,3.22891 -7.95414,3.22891c-2.44137,0.07876 -5.43401,0.07875 -8.74168,-1.02381c-9.60797,-3.15015 -9.68673,-13.46691 -6.61533,-15.12074c2.99264,-1.65383 4.33146,4.72523 8.66293,8.58417c1.89009,1.73259 4.17395,2.36262 6.06405,2.75639c2.67763,0.47253 7.79664,-2.52013 8.50542,-2.12636z" fill="#ffab19" stroke="#001026" stroke-width="1.2" stroke-linecap="round" stroke-linejoin="round"/><path d="M25.41724,70.80616c1.26006,2.12636 3.70144,5.119 3.70144,5.119c0,0 -2.9139,-0.70879 -4.56773,0.63003c-1.33882,1.0238 -1.0238,2.75639 -0.86629,3.30767c-1.0238,-1.0238 -2.28386,-2.44137 -3.0714,-5.19776c-0.78754,-2.75638 0,-6.06405 1.57508,-6.53657c1.57508,-0.31502 1.96885,0.8663 3.22891,2.67764z" fill="#ffffff" stroke="none" stroke-width="1" stroke-linecap="butt" stroke-linejoin="miter"/></g><path d="M48.88589,85.37563c-1.41757,0.94504 -6.30031,4.41022 -12.52187,6.37906l-0.31501,0.07876c-0.31502,0.07876 -0.47253,0.47252 -0.31502,0.78754c1.33881,1.8901 3.78019,5.67028 -0.55127,7.0091c-4.17395,1.33881 -11.9706,-9.76548 -8.66293,-12.67938c1.49632,-1.10255 2.83514,-0.55128 3.54392,-0.23626c0.39377,0.15751 0.78754,0.15751 1.18131,0.07876c0.94505,-0.31502 2.67763,-0.94504 4.01645,-1.65383c3.38641,-1.73259 4.17395,-2.44137 5.74903,-3.62268c1.57508,-1.18131 5.19775,-4.0952 8.11165,-1.57508c2.52013,2.12636 1.10255,4.48898 -0.23626,5.43402z" fill="#ffab19" stroke="#001026" stroke-width="1.2" stroke-linecap="round" stroke-linejoin="round"/><path d="M61.40776,68.99482c0.39377,0.31502 5.19775,5.98529 6.77283,4.56772c1.8901,-1.65383 4.48898,-4.88274 7.32412,-2.28387c2.83514,2.59888 -2.52013,7.0091 -4.80399,8.19041c-5.43402,2.44137 -9.84424,-2.20511 -10.78928,-3.46517c-0.94505,-1.26006 -2.59888,-3.38642 -2.59888,-5.43402c0.07876,-2.20511 2.75639,-2.75638 4.09521,-1.57507z" fill="#ffab19" stroke="#001026" stroke-width="1.2" stroke-linecap="round" stroke-linejoin="round"/><g><path d="M61.48651,87.34447c1.65383,1.49632 5.27651,4.56772 5.27651,4.56772c0,0 11.26181,-1.96885 11.26181,3.70144c0,3.38641 -5.67028,4.17396 -13.30941,3.46517c-0.47253,-0.07876 -0.94504,-0.23627 -1.33881,-0.55128c-1.73259,-1.49632 -6.69408,-5.90654 -9.84423,-8.97794c-4.64648,-4.56772 -8.50542,-7.56037 -8.50542,-7.56037c-6.69408,-6.53657 -1.26006,-9.29296 0.8663,-13.07314c1.96885,-3.22891 2.83514,-2.59887 7.56037,-1.65383c2.67763,0.39377 4.25271,0.63003 5.9853,0.55127c2.59888,-0.07876 2.12635,3.70144 1.41757,5.67028c0,0 -1.10255,2.91389 -2.12635,4.41022c-1.26006,1.81134 -2.20511,2.99265 -3.15015,3.70143z" fill="#ffab19" stroke="#001026" stroke-width="1.2" stroke-linecap="round" stroke-linejoin="round"/><path d="M54.87119,81.51669c0,0 -1.18131,-0.94504 -2.44137,-2.12635c-1.57508,-1.41757 -3.15015,-2.59888 -1.57507,-5.04025c1.41757,-1.8901 2.75639,-4.41022 6.30031,-2.12636c3.38641,2.12636 1.89009,4.0952 1.89009,4.0952c-1.73259,3.54393 -4.17396,5.19776 -4.17396,5.19776z" fill="#ffffff" stroke="none" stroke-width="1" stroke-linecap="butt" stroke-linejoin="miter"/></g><path d="M42.97935,75.05887c1.73259,2.20511 4.41022,4.9615 1.0238,7.24536c-4.64648,2.59888 -8.50541,-5.27651 -9.29295,-8.03289c-0.70878,-2.44137 1.33882,-4.01645 3.0714,-5.35527c3.38641,-2.44137 6.22156,-4.64648 9.37171,-3.46517c3.93769,1.41757 1.10255,4.56772 -0.86629,5.98529c-1.18131,0.86629 -2.36261,1.81134 -3.22891,2.36262c-0.23626,0.39377 -0.31502,0.86629 -0.07876,1.26006z" fill="#ffab19" stroke="#001026" stroke-width="1.2" stroke-linecap="round" stroke-linejoin="round"/><g><path d="M67.78682,21.97876c0.23626,-0.15751 0.63003,-0.07875 0.70879,0.23626l2.0476,8.42667c0,0 5.04024,3.70143 6.53657,6.30031c2.52013,4.33147 2.59888,7.87539 2.59888,7.87539c0,0 5.59153,1.65383 6.53657,6.1428c0.94504,4.48897 -2.52013,12.99439 -17.32586,15.90829c-14.80573,2.91389 -26.69757,-1.10255 -32.28909,-10.08049c-5.59153,-8.97794 3.22892,-19.68847 2.75639,-19.05844l-1.65384,-14.09694c-0.07876,-0.31501 0.31502,-0.55128 0.63003,-0.39377l9.52922,6.22156c0,0 3.54393,-1.33881 7.24536,-1.49632c2.20511,-0.15751 4.0952,0 5.90654,0.31501z" fill="#ffab19" stroke="#001026" stroke-width="1.2" stroke-linecap="butt" stroke-linejoin="miter"/><path d="M79.4424,45.1324c0,0 5.43402,1.41757 6.37906,5.90654c0.94504,4.48897 -2.83514,12.60062 -17.48336,15.43576c-19.05844,3.9377 -28.11513,-7.40286 -22.83862,-15.75077c5.27651,-8.42666 14.33321,-1.26006 20.94853,-1.73259c5.67028,-0.39377 6.30031,-5.35526 12.99439,-3.85894z" fill="#ffffff" stroke="none" stroke-width="1" stroke-linecap="butt" stroke-linejoin="miter"/><path d="M54.63493,53.55906c0,-0.31502 0.31501,-0.55128 0.63003,-0.47253c1.49632,0.55127 5.74903,1.81134 10.47427,2.12636c4.25271,0.23626 6.77284,0 7.95414,-0.23626c0.39377,-0.07876 0.70879,0.31501 0.55128,0.70878c-0.70879,2.12635 -3.70144,8.03289 -11.97059,7.56037c-7.1666,-0.78754 -7.87539,-5.82778 -7.63912,-9.68672z" fill="#ffffff" stroke="#001026" stroke-width="1.2" stroke-linecap="round" stroke-linejoin="round"/><path d="M93.93311,45.99869c-3.70143,2.99265 -9.37171,3.0714 -9.37171,3.0714" fill="none" stroke="#001026" stroke-width="1.2" stroke-linecap="round" stroke-linejoin="round"/><path d="M92.90931,54.81912c-4.96149,0.39377 -8.0329,-1.10255 -8.0329,-1.10255" fill="none" stroke="#001026" stroke-width="1.2" stroke-linecap="round" stroke-linejoin="round"/><path d="M66.13299,46.94374c1.65383,0 3.38641,0.15751 3.46517,0.70879c0.07876,1.10256 -1.10255,3.30766 -2.36261,3.38641c-1.41757,0.15751 -4.72523,-1.81134 -4.72523,-3.0714c-0.07876,-0.94505 2.0476,-1.0238 3.62268,-1.0238z" fill="#001026" stroke="#001026" stroke-width="1.2" stroke-linecap="round" stroke-linejoin="round"/><path d="M30.69375,45.76243c0,0 6.77284,2.20511 9.52922,4.64648" fill="none" stroke="#001026" stroke-width="1.2" stroke-linecap="round" stroke-linejoin="round"/><path d="M40.45923,53.16529c-3.38641,1.33881 -9.2142,0.47252 -9.2142,0.47252" fill="none" stroke="#001026" stroke-width="1.2" stroke-linecap="round" stroke-linejoin="round"/><g><path d="M75.42595,37.72953c2.28386,3.54393 2.36262,7.56037 0.15751,8.97794c-2.20511,1.41757 -5.82778,-0.23626 -8.1904,-3.78019c-2.28386,-3.54393 -2.36262,-7.56037 -0.15751,-8.97794c2.20511,-1.49632 5.90654,0.23626 8.1904,3.78018z" fill="#ffffff" stroke="#001026" stroke-width="1.2" stroke-linecap="round" stroke-linejoin="round"/><path d="M75.11094,42.2185c0,0.8663 -0.63003,1.57508 -1.41757,1.57508c-0.78754,0 -1.41757,-0.70878 -1.41757,-1.57508c0,-0.8663 0.63003,-1.57507 1.41757,-1.57507c0.78754,0 1.41757,0.70878 1.41757,1.57507" fill="#001026" stroke="none" stroke-width="1" stroke-linecap="butt" stroke-linejoin="miter"/></g><g><path d="M55.89499,39.93464c2.36261,3.46517 2.20511,7.71787 0.07876,9.2142c-2.59888,1.49632 -6.06405,0.39377 -8.42666,-3.0714c-2.44137,-3.46517 -2.59887,-7.95414 -0.15751,-9.68673c2.44137,-1.81134 6.1428,0.07876 8.50541,3.54393z" fill="#ffffff" stroke="#001026" stroke-width="1.2" stroke-linecap="round" stroke-linejoin="round"/><path d="M55.42247,44.50237c0,0.8663 -0.63003,1.57508 -1.41757,1.57508c-0.78754,0 -1.41757,-0.70878 -1.41757,-1.57508c0,-0.8663 0.63003,-1.57508 1.41757,-1.57508c0.78754,0.07876 1.41757,0.70878 1.41757,1.57508" fill="#001026" stroke="none" stroke-width="1" stroke-linecap="butt" stroke-linejoin="miter"/></g></g></g><path d="M97.97119,14.13242v96.5" fill="none" fill-rule="nonzero" stroke="#000000" stroke-width="2" stroke-linecap="round" stroke-linejoin="miter"/><text transform="translate(111.97119,47.63242) scale(0.42777,0.42777)" font-size="40" xml:space="preserve" fill="#000000" fill-rule="nonzero" stroke="none" stroke-width="1" stroke-linecap="butt" stroke-linejoin="miter" stroke-miterlimit="10" stroke-dasharray="" stroke-dashoffset="0" font-family="Sans Serif" font-weight="normal" text-anchor="start" style="mix-blend-mode: normal"><tspan x="0" dy="0">у меня </tspan><tspan x="0" dy="46.15px">есть свой </tspan><tspan x="0" dy="46.15px">сайт!</tspan></text><path d="M205.47119,13.13242v96.5" fill="none" fill-rule="nonzero" stroke="#000000" stroke-width="2" stroke-linecap="round" stroke-linejoin="miter"/><text transform="translate(214.97119,47.13242) scale(0.42777,0.42777)" font-size="40" xml:space="preserve" fill="#000000" fill-rule="nonzero" stroke="none" stroke-width="1" stroke-linecap="butt" stroke-linejoin="miter" stroke-miterlimit="10" stroke-dasharray="" stroke-dashoffset="0" font-family="Sans Serif" font-weight="normal" text-anchor="start" style="mix-blend-mode: normal"><tspan x="0" dy="0">я создаю</tspan><tspan x="0" dy="46.15px">классные</tspan><tspan x="0" dy="46.15px">проекты</tspan></text><path d="M302.47119,13.63242v96.5" fill="none" fill-rule="nonzero" stroke="#000000" stroke-width="2" stroke-linecap="round" stroke-linejoin="miter"/><text transform="translate(313.47119,32.97617) scale(0.36548,0.36548)" font-size="40" xml:space="preserve" fill="#000000" fill-rule="nonzero" stroke="none" stroke-width="1" stroke-linecap="butt" stroke-linejoin="miter" stroke-miterlimit="10" stroke-dasharray="" stroke-dashoffset="0" font-family="Sans Serif" font-weight="normal" text-anchor="start" style="mix-blend-mode: normal"><tspan x="0" dy="0">у меня есть</tspan><tspan x="0" dy="46.15px">ютуб канал</tspan></text><path d="M302.30001,61.63242l115.5,-1.5" fill="none" fill-rule="nonzero" stroke="#000000" stroke-width="2" stroke-linecap="round" stroke-linejoin="miter"/><text transform="translate(310.47119,86.93848) scale(0.42217,0.42217)" font-size="40" xml:space="preserve" fill="#000000" fill-rule="nonzero" stroke="none" stroke-width="1" stroke-linecap="butt" stroke-linejoin="miter" stroke-miterlimit="10" stroke-dasharray="" stroke-dashoffset="0" font-family="Sans Serif" font-weight="normal" text-anchor="start" style="mix-blend-mode: normal"><tspan x="0" dy="0">подпишись</tspan></text></g></g></svg>