<svg version="1.1" xmlns="http://www.w3.org/2000/svg" xmlns:xlink="http://www.w3.org/1999/xlink" width="307.83346" height="318.00159" viewBox="0,0,307.83346,318.00159"><defs><radialGradient cx="242.14182" cy="179.97723" r="133.46087" gradientUnits="userSpaceOnUse" id="color-1"><stop offset="0" stop-color="#ff8888"/><stop offset="1" stop-color="#ff6666"/></radialGradient></defs><g transform="translate(-86.08327,-20.9992)"><g data-paper-data="{&quot;isPaintingLayer&quot;:true}" stroke-miterlimit="10" stroke-dasharray="" stroke-dashoffset="0" style="mix-blend-mode: normal"><g fill="none" fill-rule="nonzero" stroke="none" stroke-width="1" stroke-linecap="butt" stroke-linejoin="miter" font-family="sans-serif" font-weight="normal" font-size="12" text-anchor="start"/><g><path d="M139.79814,186.21166c-17.43784,-19.50828 -31.20279,-35.37956 -31.28241,-62.66992c-0.10634,-36.45063 30.0281,-66.08789 67.30716,-66.19665c34.83734,-0.10164 61.24382,22.62653 64.94714,55.74353c0.01976,0.17663 4.43286,-15.18459 18.19185,-28.98337c11.21429,-11.24673 32.54576,-18.4669 47.60501,-18.34603c16.01448,0.12853 38.22761,6.16989 51.27989,20.21444c13.57168,14.60344 17.6703,37.34432 17.60827,43.60014c-0.11266,11.36074 -8.652,34.15548 -23.76642,45.89665c-5.55284,4.31356 -72.86041,81.16628 -105.25906,118.27929c-10.40655,11.92081 -22.29285,12.11913 -30.0473,0.56572c-22.87649,-34.0838 -67.00272,-97.38479 -76.58412,-108.1038z" fill="url(#color-1)" fill-rule="nonzero" stroke="none" stroke-width="NaN" stroke-linecap="butt" stroke-linejoin="miter"/><path d="M177.53001,187.29604c0.48787,0.80796 5.25815,13.87415 8.94141,12.40307c4.38936,-1.68231 11.04231,-5.67263 14.34102,0.72564c3.29871,6.39827 -8.95953,10.68068 -13.73487,11.27839c-11.12317,0.77343 -15.864,-10.23989 -16.7089,-13.06426c-0.84489,-2.82438 -2.3744,-7.62869 -1.05007,-11.22504c1.56452,-3.82207 6.62397,-3.05853 8.21142,-0.1178z" fill="#ffab19" fill-rule="evenodd" stroke="#001026" stroke-width="1.2" stroke-linecap="round" stroke-linejoin="round"/><g fill-rule="evenodd"><path d="M158.57019,221.39263c-7.54818,-9.5785 -14.0062,-16.04653 -14.0062,-16.04653c-10.8849,-13.71776 -0.14441,-17.55195 4.69656,-24.06836c4.41829,-5.53006 5.87792,-4.15566 14.42806,-1.28479c4.87856,1.36361 7.74722,2.17435 10.98273,2.4374c4.84396,0.46768 3.07369,7.37476 1.2926,10.86291c0,0 -2.73544,5.14981 -4.9898,7.6862c-2.76744,3.06548 -4.80115,5.03558 -6.72326,6.12835c0,0 -5.19166,6.99025 -3.44204,9.18795c1.34648,1.69133 2.88474,11.5437 -2.23866,5.09688z" fill="#ffab19" stroke="#001026" stroke-width="1.2" stroke-linecap="round" stroke-linejoin="round"/><path d="M162.95349,206.79415c0,0 -1.9701,-2.03372 -4.03062,-4.52472c-2.58961,-3.00408 -5.23504,-5.56948 -1.73389,-9.73032c3.07849,-3.17449 6.15958,-7.53738 12.20013,-2.45978c5.7853,4.74794 2.54201,8.05008 2.54201,8.05008c-4.05404,6.17076 -8.97762,8.66475 -8.97762,8.66475z" fill="#ffffff" stroke="none" stroke-width="1" stroke-linecap="butt" stroke-linejoin="miter"/></g><path d="M142.39928,191.99481c2.69601,4.5035 7.0165,10.25382 0.18941,13.69436c-9.24104,3.72779 -14.54567,-11.80606 -15.35679,-17.1099c-0.73931,-4.70033 3.43453,-7.14111 6.96769,-9.21764c6.86429,-3.73298 12.6492,-7.15752 18.21907,-4.22005c6.97629,3.56216 0.96815,8.74137 -3.02228,10.9083c-2.39798,1.32941 -4.81457,2.80504 -6.55324,3.62397c-0.53168,0.6753 -0.78952,1.53404 -0.44387,2.32096z" fill="#ffab19" fill-rule="evenodd" stroke="#001026" stroke-width="1.2" stroke-linecap="round" stroke-linejoin="round"/><g fill-rule="evenodd"><path d="M201.62844,99.92992c0.47587,-0.23664 1.18839,0.00259 1.26019,0.6061l1.81129,16.12953c0,0 8.48392,8.06307 10.64826,13.24189c3.65597,8.63756 2.96505,15.23618 2.96505,15.23618c0,0 9.99117,4.3915 10.68548,12.94944c0.69429,8.55794 -7.74863,23.53149 -35.92685,25.44436c-28.17822,1.91289 -49.30913,-8.35355 -57.57021,-26.34377c-8.26108,-17.99023 10.64589,-35.793 9.61972,-34.73484l0.25925,-26.56456c-0.0718,-0.6035 0.71512,-0.94916 1.26281,-0.5823l16.22334,13.80258c0,0 6.8963,-1.64865 13.80598,-1.06675c4.13144,0.22844 7.60358,0.96735 10.8923,1.98012z" fill="#ffab19" stroke="#001026" stroke-width="1.2" stroke-linecap="butt" stroke-linejoin="miter"/><path d="M217.80015,145.67271c0,0 9.75454,3.91563 10.44884,12.47357c0.69429,8.55794 -8.24051,22.72595 -36.10768,24.52981c-36.31611,2.80921 -50.45291,-20.38622 -38.68405,-34.63945c11.78746,-14.39945 26.91023,1.04618 39.30457,1.7315c10.62107,0.60831 12.96284,-8.45492 25.03833,-4.09544z" fill="#ffffff" stroke="none" stroke-width="1" stroke-linecap="butt" stroke-linejoin="miter"/><path d="M244.50054,150.70411c-7.57939,4.68213 -18.12604,3.48894 -18.12604,3.48894" fill="none" stroke="#001026" stroke-width="1.2" stroke-linecap="round" stroke-linejoin="round"/><path d="M240.5161,166.83924c-9.30506,-0.44087 -14.65429,-3.94462 -14.65429,-3.94462" fill="none" stroke="#001026" stroke-width="1.2" stroke-linecap="round" stroke-linejoin="round"/><path d="M192.66061,145.89192c3.07067,0.39066 6.25036,1.09239 6.26637,2.13455c-0.11422,2.06572 -2.82843,5.88092 -5.18661,5.72949c-2.66922,-0.04241 -8.34551,-4.4793 -8.04787,-6.81887c0.07702,-1.77327 4.04364,-1.41722 6.9681,-1.04516z" fill="#001026" stroke="#001026" stroke-width="1.2" stroke-linecap="round" stroke-linejoin="round"/><path d="M127.13934,135.32723c0,0 12.05428,5.69411 16.5954,10.87812" fill="none" stroke="#001026" stroke-width="1.2" stroke-linecap="round" stroke-linejoin="round"/><path d="M143.5223,151.37895c-6.60383,1.68585 -17.2197,-1.29922 -17.2197,-1.29922" fill="none" stroke="#001026" stroke-width="1.2" stroke-linecap="round" stroke-linejoin="round"/><g><path d="M212.09146,130.979c3.40333,7.11952 2.6008,14.59548 -1.8283,16.70662c-4.4291,2.11113 -10.76468,-1.81529 -14.31423,-8.95341c-3.40333,-7.11952 -2.60079,-14.59548 1.8283,-16.70662c4.4477,-2.25736 10.9109,1.8339 14.31423,8.95342z" fill="#ffffff" stroke="#001026" stroke-width="1.2" stroke-linecap="round" stroke-linejoin="round"/><path d="M210.4462,139.23929c-0.20464,1.60844 -1.54185,2.77564 -3.00408,2.58962c-1.46223,-0.18602 -2.4646,-1.65087 -2.25996,-3.25932c0.20464,-1.60844 1.54185,-2.77564 3.00408,-2.58962c1.46223,0.18602 2.4646,1.65087 2.25996,3.25932" fill="#001026" stroke="none" stroke-width="1" stroke-linecap="butt" stroke-linejoin="miter"/></g><g><path d="M175.30729,130.45969c3.56815,6.9919 2.27115,14.85073 -2.03033,17.12669c-5.17882,2.16434 -11.35217,-0.70131 -14.92034,-7.69322c-3.71438,-7.0105 -2.94645,-15.38242 1.99573,-18.02263c4.96078,-2.78643 11.38678,1.59727 14.95493,8.58917z" fill="#ffffff" stroke="#001026" stroke-width="1.2" stroke-linecap="round" stroke-linejoin="round"/><path d="M173.35098,138.82901c-0.20464,1.60844 -1.54185,2.77564 -3.00408,2.58961c-1.46223,-0.18602 -2.46459,-1.65086 -2.25995,-3.25931c0.20464,-1.60844 1.54185,-2.77563 3.00408,-2.58961c1.44364,0.33226 2.46459,1.65086 2.25995,3.2593" fill="#001026" stroke="none" stroke-width="1" stroke-linecap="butt" stroke-linejoin="miter"/></g></g><path d="M193.16254,204.05349c-2.60988,-2.91976 -4.67004,-5.29517 -4.68195,-9.37964c-0.01592,-5.45548 4.49423,-9.89119 10.07368,-9.90747c4.71535,-0.01376 8.39869,2.76705 9.47006,6.96518c-0.00512,-0.00009 -0.01024,-0.00013 -0.01539,-0.00012c-0.41524,0.00121 -0.75088,0.3388 -0.74967,0.75405c0.00078,0.26729 0.14093,0.50159 0.35147,0.63431c-0.04845,0.14549 -0.04809,0.26705 -0.04809,0.26705c0.04064,1.28768 1.088,1.92766 1.2151,3.07267c0.18078,1.62853 -2.41448,2.27382 -2.54488,3.93002c-0.18266,2.32003 2.21473,2.08399 3.07405,3.06267c0.07802,0.08886 -0.24117,0.07928 -0.30724,0.17735c-0.27482,0.40789 -0.48151,0.87232 -0.82827,1.22111c-0.07818,0.18828 -0.70107,1.65214 -0.71596,1.83892c-0.07555,0.94882 0.82756,1.95037 0.39377,2.88272c-0.28755,0.61802 -0.63785,0.01934 -1.16973,0.53201c-0.36906,0.35574 -1.45024,3.49707 -1.3027,4.0077c0.16227,0.56158 0.6097,1.02579 1.06326,1.39454c0.37735,0.30678 1.42056,0.07506 1.34885,0.55606c-0.21746,1.45848 -1.20644,2.14265 -1.20163,3.79277l0.00132,0.45112c0,0 0.00073,0.24909 0.14471,0.4601c-0.08982,0.12428 -0.14256,0.27707 -0.14208,0.44214c0.00031,0.10656 0.02278,0.20788 0.06302,0.29962c-0.75812,-0.01158 -1.46657,-0.43651 -2.02954,-1.27526c-3.42386,-5.10123 -10.02812,-14.57532 -11.46214,-16.17961z" fill="#8bbbff" fill-rule="nonzero" stroke="#486184" stroke-width="1.5" stroke-linecap="butt" stroke-linejoin="miter"/><path d="M299.09869,190.96104c2.13854,2.94294 1.98232,7.72636 1.94007,10.52442c-0.04226,2.79807 -1.52807,14.08236 -11.888,16.2488c-4.51629,0.68744 -16.8193,-0.05812 -15.45875,-6.75445c1.36055,-6.69633 8.46813,-4.76983 12.91198,-4.36687c3.74433,0.3924 4.72683,-12.77461 4.96378,-13.63864c0.69046,-3.09614 5.11469,-5.10035 7.53093,-2.01328z" fill="#ff7a93" fill-rule="evenodd" stroke="#001026" stroke-width="1.2" stroke-linecap="round" stroke-linejoin="round"/><g fill-rule="evenodd"><path d="M310.85993,222.22662c1.6486,-2.09579 -3.31815,-8.70233 -3.31815,-8.70233c-1.83055,-1.02663 -3.77191,-2.88544 -6.4158,-5.77993c-2.15393,-2.39512 -4.77899,-7.26826 -4.77899,-7.26826c-1.70997,-3.30116 -3.4286,-9.8477 1.16679,-10.31846c3.06975,-0.26761 5.78824,-1.05306 10.41153,-2.37446c8.10007,-2.77243 9.47796,-4.08514 13.70252,1.13964c4.63124,6.1587 14.84758,9.73871 4.59138,22.82018c0,0 -6.09425,6.17535 -13.20608,15.30926c-4.82752,6.14783 -3.42196,-3.21277 -2.15321,-4.82567z" fill="#ff7a93" stroke="#001026" stroke-width="1.2" stroke-linecap="round" stroke-linejoin="round"/><path d="M300.20184,205.04435c0,0 -3.09691,-3.11648 2.36833,-7.65537c5.70569,-4.85323 8.65448,-0.72894 11.59422,2.2673c3.34641,3.93017 0.84953,6.37996 -1.59193,9.24582c-1.94209,2.37592 -3.80089,4.31728 -3.80089,4.31728c0,0 -4.68737,-2.34007 -8.56973,-8.17503z" fill="#ffffff" stroke="none" stroke-width="1" stroke-linecap="butt" stroke-linejoin="miter"/></g><path d="M327.76589,196.85706c-1.65492,-0.76772 -3.95696,-2.15502 -6.24054,-3.40365c-3.79979,-2.03479 -9.53153,-6.91773 -2.92922,-10.33766c5.27077,-2.81915 10.78089,0.39945 17.31729,3.90485c3.36525,1.95151 7.34067,4.24523 6.66493,8.71098c-0.74055,5.039 -5.68977,19.81342 -14.48221,16.32612c-6.49946,-3.22801 -2.43022,-8.71026 0.10394,-13.00001c0.32374,-0.74888 0.07423,-1.56257 -0.43419,-2.20064z" fill="#ff7a93" fill-rule="evenodd" stroke="#001026" stroke-width="1.2" stroke-linecap="round" stroke-linejoin="round"/><g fill-rule="evenodd"><path d="M285.00944,121.50279c3.11611,-0.97956 6.40785,-1.70018 10.32823,-1.9399c6.55558,-0.59062 13.11082,0.93612 13.11082,0.93612l15.32308,-13.19155c0.51784,-0.35127 1.26673,-0.02752 1.20191,0.54574l0.39322,25.21419c-0.97992,-0.99875 17.06559,15.7953 9.32363,32.91775c-7.74195,17.12245 -27.74297,26.98458 -54.50092,25.32491c-26.75794,-1.65967 -34.85508,-15.8261 -34.24344,-23.95332c0.61164,-8.12722 10.07115,-12.35106 10.07115,-12.35106c0,0 -0.69238,-6.25974 2.7301,-14.47893c2.02575,-4.92783 10.0342,-12.62845 10.0342,-12.62845l1.62997,-15.32052c0.06482,-0.57325 0.73984,-0.80428 1.19286,-0.58229z" fill="#ff7a93" stroke="#001026" stroke-width="1.2" stroke-linecap="butt" stroke-linejoin="miter"/><path d="M280.29623,159.11097c11.76117,-0.71916 26.03046,-15.46424 37.29911,-1.86127c11.25018,13.46428 -2.04028,35.56016 -36.52783,33.09474c-26.46208,-1.55792 -35.02166,-14.95699 -34.41001,-23.08421c0.61164,-8.12722 9.84916,-11.89805 9.84916,-11.89805c11.43816,-4.20501 13.71122,4.38503 23.78959,3.74878z" fill="#ffffff" stroke="none" stroke-width="1" stroke-linecap="butt" stroke-linejoin="miter"/><path d="M248.41531,163.64021c0,0 -10.00449,1.19102 -17.22494,-3.21137" fill="none" stroke="#001026" stroke-width="1.2" stroke-linecap="round" stroke-linejoin="round"/><path d="M248.95017,171.89709c0,0 -5.05819,3.35546 -13.88831,3.82549" fill="none" stroke="#001026" stroke-width="1.2" stroke-linecap="round" stroke-linejoin="round"/><path d="M286.9913,156.52738c0.2955,2.21912 -5.06799,6.46215 -7.60144,6.51719c-2.23758,0.1568 -4.8351,-3.44963 -4.95497,-5.40982c0.00942,-0.98933 3.02377,-1.67303 5.93635,-2.06087c2.77388,-0.36936 6.53713,-0.72932 6.62005,0.95349z" fill="#001026" stroke="#001026" stroke-width="1.2" stroke-linecap="round" stroke-linejoin="round"/><path d="M326.81443,155.60041c4.28181,-4.94592 15.69243,-10.41766 15.69243,-10.41766" fill="none" stroke="#001026" stroke-width="1.2" stroke-linecap="round" stroke-linejoin="round"/><path d="M343.38283,159.18151c0,0 -10.06026,2.89229 -16.33809,1.32862" fill="none" stroke="#001026" stroke-width="1.2" stroke-linecap="round" stroke-linejoin="round"/><g><path d="M275.38225,132.94781c4.21588,1.9794 5.01907,9.0713 1.82799,15.84814c-3.32977,6.7953 -9.3219,10.55744 -13.53778,8.57804c-4.21588,-1.9794 -5.01907,-9.0713 -1.82799,-15.84814c3.19107,-6.77684 9.30342,-10.69614 13.53777,-8.57804z" fill="#ffffff" stroke="#001026" stroke-width="1.2" stroke-linecap="round" stroke-linejoin="round"/><path d="M263.45195,149.35758c-0.20315,-1.52564 0.7402,-2.92165 2.12715,-3.10633c1.38695,-0.18468 2.66272,0.91584 2.86588,2.44148c0.20315,1.52564 -0.7402,2.92164 -2.12715,3.10633c-1.38695,0.18468 -2.66272,-0.91584 -2.86588,-2.44147" fill="#001026" stroke="none" stroke-width="1" stroke-linecap="butt" stroke-linejoin="miter"/></g><g><path d="M310.90586,132.59335c4.70584,2.47877 5.48114,10.4213 1.99421,17.09639c-3.34824,6.65662 -9.19224,9.41096 -14.12007,7.38521c-4.09565,-2.13656 -5.37034,-9.58914 -2.0221,-16.24576c3.34824,-6.65662 9.42366,-10.8533 14.14796,-8.23583z" fill="#ffffff" stroke="#001026" stroke-width="1.2" stroke-linecap="round" stroke-linejoin="round"/><path d="M298.66122,148.76267c-0.20315,-1.52564 0.75865,-2.78294 2.12714,-3.10632c1.38695,-0.18468 2.66272,0.91583 2.86588,2.44147c0.20315,1.52564 -0.7402,2.92164 -2.12714,3.10632c-1.38695,0.18468 -2.66272,-0.91583 -2.86588,-2.44147" fill="#001026" stroke="none" stroke-width="1" stroke-linecap="butt" stroke-linejoin="miter"/></g></g><path d="M267.53232,223.71573l-0.00126,-0.43044c-0.00394,-1.35073 1.34006,-2.58022 1.12734,-3.84865c-0.25202,-1.50274 -2.05505,-0.8047 -2.30064,-1.85585c-0.10692,-0.4576 0.44424,-0.83872 0.55783,-1.29471c0.09789,-0.39302 -0.15,-0.97927 0.18946,-1.20022c0.48485,-0.31559 1.16992,-0.43552 1.46232,-0.93469c0.79887,-1.3638 -0.30879,-2.90698 0.24055,-4.39212c0.5053,-0.50826 1.53034,-1.88485 1.20046,-2.68971c-0.26841,-0.65489 -2.23194,-1.21078 -2.75855,-1.91309c-0.43937,-0.58596 2.00352,-2.65623 2.19758,-3.33741c0.47506,-1.66755 -1.05293,-2.34397 -0.98566,-3.7885c0,0 -0.00124,-0.42572 -0.32976,-0.6203c0.02632,-0.07501 0.04054,-0.1557 0.04029,-0.23973c-0.00036,-0.12373 -0.03202,-0.24004 -0.08746,-0.34147c0.37758,-0.81659 1.07024,-2.04548 2.21948,-3.19805c1.60145,-1.60609 4.6477,-2.63717 6.79823,-2.61991c2.28694,0.01835 5.45909,0.8811 7.32302,2.88673c1.9381,2.08544 2.52341,5.33295 2.51456,6.22631c-0.01609,1.62236 -1.23555,4.87757 -3.39396,6.55427c-0.79298,0.616 -10.40483,11.59096 -15.03152,16.89088c-0.3236,0.37069 -0.65722,0.662 -0.99259,0.87389c-0.02028,-0.10596 -0.06387,-0.2036 -0.12521,-0.28744c0.13621,-0.20214 0.13552,-0.4398 0.13552,-0.4398z" fill="#8bbbff" fill-rule="nonzero" stroke="#486184" stroke-width="1.5" stroke-linecap="butt" stroke-linejoin="miter"/><path d="M140.09615,185.60719c9.58139,10.71902 53.70763,74.02 76.58412,108.10381c7.75445,11.55341 19.64075,11.35508 30.0473,-0.56573c32.39865,-37.11301 99.70622,-113.96573 105.25906,-118.27928c15.11442,-11.74118 23.65376,-34.53592 23.76642,-45.89665c0.06204,-6.25583 -4.03658,-28.99671 -17.60827,-43.60014c-13.05227,-14.04454 -35.2654,-20.08591 -51.27988,-20.21444c-15.05925,-0.12086 -36.39073,7.09932 -47.60502,18.34604c-13.75899,13.79878 -18.17209,29.16 -18.19185,28.98337c-3.70331,-33.117 -30.1098,-55.84516 -64.94714,-55.74353c-37.27906,0.10876 -67.4135,29.74601 -67.30716,66.19665c0.07962,27.29036 13.84457,43.16164 31.28241,62.66992zM234.29891,339.00079c-5.63037,0.01643 -76.86232,-60.85992 -118.40135,-113.15624c-23.65398,-29.77962 -28.91091,-62.20857 -28.92026,-65.41471c-0.0118,-4.04471 -8.04716,-55.48586 24.28667,-86.34642c38.30621,-36.56081 118.31537,-53.07022 123.10718,-53.0842c5.89984,-0.01721 101.82636,12.91992 144.40489,47.47409c21.19362,17.19947 13.9418,71.12775 13.95037,74.06443c0.02578,8.83652 -149.59097,196.43726 -158.4275,196.46305z" fill="#ffffff" fill-rule="nonzero" stroke="none" stroke-width="NaN" stroke-linecap="butt" stroke-linejoin="miter"/><path d="M296.72458,171.88556c0.18887,1.92409 -0.776,2.14861 -4.04607,2.4379c-2.87527,0.25436 -4.8536,-0.63668 -4.8536,-0.63668" fill="none" fill-rule="nonzero" stroke="#001026" stroke-width="1.2" stroke-linecap="round" stroke-linejoin="miter"/><path d="M185.08314,164.41505c0,0 -2.69702,0.31674 -6.36061,-1.17313c-2.55568,-1.03931 -4.80054,-5.08005 -4.80054,-5.08005" fill="none" fill-rule="nonzero" stroke="#000000" stroke-width="1" stroke-linecap="round" stroke-linejoin="miter"/></g><text transform="translate(129.05,86.09871) scale(0.20542,0.20542)" font-size="40" xml:space="preserve" fill-opacity="0.18901" fill="#ffffff" fill-rule="nonzero" stroke="none" stroke-width="1" stroke-linecap="butt" stroke-linejoin="miter" stroke-miterlimit="10" stroke-dasharray="" stroke-dashoffset="0" font-family="&quot;Microsoft YaHei&quot;, &quot;微软雅黑&quot;, STXihei, &quot;华文细黑&quot;" font-weight="normal" text-anchor="start" style="mix-blend-mode: normal"><tspan x="0" dy="0">сделано scratch_craft_2</tspan></text></g></g></svg>